<?xml version="1.0" encoding="utf-8" standalone="no"?>
<!DOCTYPE svg PUBLIC "-//W3C//DTD SVG 1.1//EN"
  "http://www.w3.org/Graphics/SVG/1.1/DTD/svg11.dtd">
<svg xmlns:xlink="http://www.w3.org/1999/xlink" width="756pt" height="345.6pt" viewBox="0 0 756 345.6" xmlns="http://www.w3.org/2000/svg" version="1.1">
 <metadata>
  <rdf:RDF xmlns:dc="http://purl.org/dc/elements/1.1/" xmlns:cc="http://creativecommons.org/ns#" xmlns:rdf="http://www.w3.org/1999/02/22-rdf-syntax-ns#">
   <cc:Work>
    <dc:type rdf:resource="http://purl.org/dc/dcmitype/StillImage"/>
    <dc:date>2026-06-22T11:53:27.836383</dc:date>
    <dc:format>image/svg+xml</dc:format>
    <dc:creator>
     <cc:Agent>
      <dc:title>Matplotlib v3.10.9, https://matplotlib.org/</dc:title>
     </cc:Agent>
    </dc:creator>
   </cc:Work>
  </rdf:RDF>
 </metadata>
 <defs>
  <style type="text/css">*{stroke-linejoin: round; stroke-linecap: butt}</style>
 </defs>
 <g id="figure_1">
  <g id="patch_1">
   <path d="M 0 345.6
L 756 345.6
L 756 0
L 0 0
z
" style="fill: #ffffff"/>
  </g>
  <g id="axes_1">
   <g id="patch_2">
    <path d="M 36.403365 305.25604
L 374.22 305.25604
L 374.22 35.732595
L 36.403365 35.732595
z
" style="fill: #ffffff"/>
   </g>
   <g id="patch_3">
    <path d="M 51.758667 305.25604
L 87.888788 305.25604
L 87.888788 35.732595
L 51.758667 35.732595
z
" clip-path="url(#p145fcaa8fe)" style="fill: #0a8f68"/>
   </g>
   <g id="patch_4">
    <path d="M 96.921318 305.25604
L 133.05144 305.25604
L 133.05144 259.379709
L 96.921318 259.379709
z
" clip-path="url(#p145fcaa8fe)" style="fill: #0a8f68"/>
   </g>
   <g id="patch_5">
    <path d="M 142.08397 305.25604
L 178.214091 305.25604
L 178.214091 219.237919
L 142.08397 219.237919
z
" clip-path="url(#p145fcaa8fe)" style="fill: #0a8f68"/>
   </g>
   <g id="patch_6">
    <path d="M 187.246622 305.25604
L 223.376743 305.25604
L 223.376743 253.645168
L 187.246622 253.645168
z
" clip-path="url(#p145fcaa8fe)" style="fill: #0a8f68"/>
   </g>
   <g id="patch_7">
    <path d="M 232.409274 305.25604
L 268.539395 305.25604
L 268.539395 127.485257
L 232.409274 127.485257
z
" clip-path="url(#p145fcaa8fe)" style="fill: #0a8f68"/>
   </g>
   <g id="patch_8">
    <path d="M 277.571925 305.25604
L 313.702047 305.25604
L 313.702047 121.750716
L 277.571925 121.750716
z
" clip-path="url(#p145fcaa8fe)" style="fill: #0a8f68"/>
   </g>
   <g id="patch_9">
    <path d="M 322.734577 305.25604
L 358.864698 305.25604
L 358.864698 224.972461
L 322.734577 224.972461
z
" clip-path="url(#p145fcaa8fe)" style="fill: #0a8f68"/>
   </g>
   <g id="patch_10">
    <path d="M 51.758667 35.732595
L 87.888788 35.732595
L 87.888788 35.732595
L 51.758667 35.732595
z
" clip-path="url(#p145fcaa8fe)" style="fill: #d99000"/>
   </g>
   <g id="patch_11">
    <path d="M 96.921318 259.379709
L 133.05144 259.379709
L 133.05144 247.910626
L 96.921318 247.910626
z
" clip-path="url(#p145fcaa8fe)" style="fill: #d99000"/>
   </g>
   <g id="patch_12">
    <path d="M 142.08397 219.237919
L 178.214091 219.237919
L 178.214091 116.016174
L 142.08397 116.016174
z
" clip-path="url(#p145fcaa8fe)" style="fill: #d99000"/>
   </g>
   <g id="patch_13">
    <path d="M 187.246622 253.645168
L 223.376743 253.645168
L 223.376743 224.972461
L 187.246622 224.972461
z
" clip-path="url(#p145fcaa8fe)" style="fill: #d99000"/>
   </g>
   <g id="patch_14">
    <path d="M 232.409274 127.485257
L 268.539395 127.485257
L 268.539395 127.485257
L 232.409274 127.485257
z
" clip-path="url(#p145fcaa8fe)" style="fill: #d99000"/>
   </g>
   <g id="patch_15">
    <path d="M 277.571925 121.750716
L 313.702047 121.750716
L 313.702047 121.750716
L 277.571925 121.750716
z
" clip-path="url(#p145fcaa8fe)" style="fill: #d99000"/>
   </g>
   <g id="patch_16">
    <path d="M 322.734577 224.972461
L 358.864698 224.972461
L 358.864698 224.972461
L 322.734577 224.972461
z
" clip-path="url(#p145fcaa8fe)" style="fill: #d99000"/>
   </g>
   <g id="patch_17">
    <path d="M 51.758667 35.732595
L 87.888788 35.732595
L 87.888788 35.732595
L 51.758667 35.732595
z
" clip-path="url(#p145fcaa8fe)" style="fill: #c92a2a"/>
   </g>
   <g id="patch_18">
    <path d="M 96.921318 247.910626
L 133.05144 247.910626
L 133.05144 247.910626
L 96.921318 247.910626
z
" clip-path="url(#p145fcaa8fe)" style="fill: #c92a2a"/>
   </g>
   <g id="patch_19">
    <path d="M 142.08397 116.016174
L 178.214091 116.016174
L 178.214091 116.016174
L 142.08397 116.016174
z
" clip-path="url(#p145fcaa8fe)" style="fill: #c92a2a"/>
   </g>
   <g id="patch_20">
    <path d="M 187.246622 224.972461
L 223.376743 224.972461
L 223.376743 224.972461
L 187.246622 224.972461
z
" clip-path="url(#p145fcaa8fe)" style="fill: #c92a2a"/>
   </g>
   <g id="patch_21">
    <path d="M 232.409274 127.485257
L 268.539395 127.485257
L 268.539395 127.485257
L 232.409274 127.485257
z
" clip-path="url(#p145fcaa8fe)" style="fill: #c92a2a"/>
   </g>
   <g id="patch_22">
    <path d="M 277.571925 121.750716
L 313.702047 121.750716
L 313.702047 121.750716
L 277.571925 121.750716
z
" clip-path="url(#p145fcaa8fe)" style="fill: #c92a2a"/>
   </g>
   <g id="patch_23">
    <path d="M 322.734577 224.972461
L 358.864698 224.972461
L 358.864698 224.972461
L 322.734577 224.972461
z
" clip-path="url(#p145fcaa8fe)" style="fill: #c92a2a"/>
   </g>
   <g id="matplotlib.axis_1">
    <g id="xtick_1">
     <g id="line2d_1">
      <defs>
       <path id="m2d32c8b16a" d="M 0 0
L 0 3.5
" style="stroke: #000000; stroke-width: 0.8"/>
      </defs>
      <g>
       <use xlink:href="#m2d32c8b16a" x="69.823727" y="305.25604" style="stroke: #000000; stroke-width: 0.8"/>
      </g>
     </g>
     <g id="text_1">
      <!-- Fig. 02 -->
      <g transform="translate(44.852914 341.129199) rotate(-45) scale(0.1 -0.1)">
       <defs>
        <path id="DejaVuSans-46" d="M 628 4666
L 3309 4666
L 3309 4134
L 1259 4134
L 1259 2759
L 3109 2759
L 3109 2228
L 1259 2228
L 1259 0
L 628 0
L 628 4666
z
" transform="scale(0.015625)"/>
        <path id="DejaVuSans-69" d="M 603 3500
L 1178 3500
L 1178 0
L 603 0
L 603 3500
z
M 603 4863
L 1178 4863
L 1178 4134
L 603 4134
L 603 4863
z
" transform="scale(0.015625)"/>
        <path id="DejaVuSans-67" d="M 2906 1791
Q 2906 2416 2648 2759
Q 2391 3103 1925 3103
Q 1463 3103 1205 2759
Q 947 2416 947 1791
Q 947 1169 1205 825
Q 1463 481 1925 481
Q 2391 481 2648 825
Q 2906 1169 2906 1791
z
M 3481 434
Q 3481 -459 3084 -895
Q 2688 -1331 1869 -1331
Q 1566 -1331 1297 -1286
Q 1028 -1241 775 -1147
L 775 -588
Q 1028 -725 1275 -790
Q 1522 -856 1778 -856
Q 2344 -856 2625 -561
Q 2906 -266 2906 331
L 2906 616
Q 2728 306 2450 153
Q 2172 0 1784 0
Q 1141 0 747 490
Q 353 981 353 1791
Q 353 2603 747 3093
Q 1141 3584 1784 3584
Q 2172 3584 2450 3431
Q 2728 3278 2906 2969
L 2906 3500
L 3481 3500
L 3481 434
z
" transform="scale(0.015625)"/>
        <path id="DejaVuSans-2e" d="M 684 794
L 1344 794
L 1344 0
L 684 0
L 684 794
z
" transform="scale(0.015625)"/>
        <path id="DejaVuSans-20" transform="scale(0.015625)"/>
        <path id="DejaVuSans-30" d="M 2034 4250
Q 1547 4250 1301 3770
Q 1056 3291 1056 2328
Q 1056 1369 1301 889
Q 1547 409 2034 409
Q 2525 409 2770 889
Q 3016 1369 3016 2328
Q 3016 3291 2770 3770
Q 2525 4250 2034 4250
z
M 2034 4750
Q 2819 4750 3233 4129
Q 3647 3509 3647 2328
Q 3647 1150 3233 529
Q 2819 -91 2034 -91
Q 1250 -91 836 529
Q 422 1150 422 2328
Q 422 3509 836 4129
Q 1250 4750 2034 4750
z
" transform="scale(0.015625)"/>
        <path id="DejaVuSans-32" d="M 1228 531
L 3431 531
L 3431 0
L 469 0
L 469 531
Q 828 903 1448 1529
Q 2069 2156 2228 2338
Q 2531 2678 2651 2914
Q 2772 3150 2772 3378
Q 2772 3750 2511 3984
Q 2250 4219 1831 4219
Q 1534 4219 1204 4116
Q 875 4013 500 3803
L 500 4441
Q 881 4594 1212 4672
Q 1544 4750 1819 4750
Q 2544 4750 2975 4387
Q 3406 4025 3406 3419
Q 3406 3131 3298 2873
Q 3191 2616 2906 2266
Q 2828 2175 2409 1742
Q 1991 1309 1228 531
z
" transform="scale(0.015625)"/>
       </defs>
       <use xlink:href="#DejaVuSans-46"/>
       <use xlink:href="#DejaVuSans-69" transform="translate(50.269531 0)"/>
       <use xlink:href="#DejaVuSans-67" transform="translate(78.052734 0)"/>
       <use xlink:href="#DejaVuSans-2e" transform="translate(141.529297 0)"/>
       <use xlink:href="#DejaVuSans-20" transform="translate(173.316406 0)"/>
       <use xlink:href="#DejaVuSans-30" transform="translate(205.103516 0)"/>
       <use xlink:href="#DejaVuSans-32" transform="translate(268.726562 0)"/>
      </g>
     </g>
    </g>
    <g id="xtick_2">
     <g id="line2d_2">
      <g>
       <use xlink:href="#m2d32c8b16a" x="114.986379" y="305.25604" style="stroke: #000000; stroke-width: 0.8"/>
      </g>
     </g>
     <g id="text_2">
      <!-- Fig. 03 -->
      <g transform="translate(90.015566 341.129199) rotate(-45) scale(0.1 -0.1)">
       <defs>
        <path id="DejaVuSans-33" d="M 2597 2516
Q 3050 2419 3304 2112
Q 3559 1806 3559 1356
Q 3559 666 3084 287
Q 2609 -91 1734 -91
Q 1441 -91 1130 -33
Q 819 25 488 141
L 488 750
Q 750 597 1062 519
Q 1375 441 1716 441
Q 2309 441 2620 675
Q 2931 909 2931 1356
Q 2931 1769 2642 2001
Q 2353 2234 1838 2234
L 1294 2234
L 1294 2753
L 1863 2753
Q 2328 2753 2575 2939
Q 2822 3125 2822 3475
Q 2822 3834 2567 4026
Q 2313 4219 1838 4219
Q 1578 4219 1281 4162
Q 984 4106 628 3988
L 628 4550
Q 988 4650 1302 4700
Q 1616 4750 1894 4750
Q 2613 4750 3031 4423
Q 3450 4097 3450 3541
Q 3450 3153 3228 2886
Q 3006 2619 2597 2516
z
" transform="scale(0.015625)"/>
       </defs>
       <use xlink:href="#DejaVuSans-46"/>
       <use xlink:href="#DejaVuSans-69" transform="translate(50.269531 0)"/>
       <use xlink:href="#DejaVuSans-67" transform="translate(78.052734 0)"/>
       <use xlink:href="#DejaVuSans-2e" transform="translate(141.529297 0)"/>
       <use xlink:href="#DejaVuSans-20" transform="translate(173.316406 0)"/>
       <use xlink:href="#DejaVuSans-30" transform="translate(205.103516 0)"/>
       <use xlink:href="#DejaVuSans-33" transform="translate(268.726562 0)"/>
      </g>
     </g>
    </g>
    <g id="xtick_3">
     <g id="line2d_3">
      <g>
       <use xlink:href="#m2d32c8b16a" x="160.149031" y="305.25604" style="stroke: #000000; stroke-width: 0.8"/>
      </g>
     </g>
     <g id="text_3">
      <!-- Fig. 04 -->
      <g transform="translate(135.178218 341.129199) rotate(-45) scale(0.1 -0.1)">
       <defs>
        <path id="DejaVuSans-34" d="M 2419 4116
L 825 1625
L 2419 1625
L 2419 4116
z
M 2253 4666
L 3047 4666
L 3047 1625
L 3713 1625
L 3713 1100
L 3047 1100
L 3047 0
L 2419 0
L 2419 1100
L 313 1100
L 313 1709
L 2253 4666
z
" transform="scale(0.015625)"/>
       </defs>
       <use xlink:href="#DejaVuSans-46"/>
       <use xlink:href="#DejaVuSans-69" transform="translate(50.269531 0)"/>
       <use xlink:href="#DejaVuSans-67" transform="translate(78.052734 0)"/>
       <use xlink:href="#DejaVuSans-2e" transform="translate(141.529297 0)"/>
       <use xlink:href="#DejaVuSans-20" transform="translate(173.316406 0)"/>
       <use xlink:href="#DejaVuSans-30" transform="translate(205.103516 0)"/>
       <use xlink:href="#DejaVuSans-34" transform="translate(268.726562 0)"/>
      </g>
     </g>
    </g>
    <g id="xtick_4">
     <g id="line2d_4">
      <g>
       <use xlink:href="#m2d32c8b16a" x="205.311682" y="305.25604" style="stroke: #000000; stroke-width: 0.8"/>
      </g>
     </g>
     <g id="text_4">
      <!-- Fig. 05 -->
      <g transform="translate(180.340869 341.129199) rotate(-45) scale(0.1 -0.1)">
       <defs>
        <path id="DejaVuSans-35" d="M 691 4666
L 3169 4666
L 3169 4134
L 1269 4134
L 1269 2991
Q 1406 3038 1543 3061
Q 1681 3084 1819 3084
Q 2600 3084 3056 2656
Q 3513 2228 3513 1497
Q 3513 744 3044 326
Q 2575 -91 1722 -91
Q 1428 -91 1123 -41
Q 819 9 494 109
L 494 744
Q 775 591 1075 516
Q 1375 441 1709 441
Q 2250 441 2565 725
Q 2881 1009 2881 1497
Q 2881 1984 2565 2268
Q 2250 2553 1709 2553
Q 1456 2553 1204 2497
Q 953 2441 691 2322
L 691 4666
z
" transform="scale(0.015625)"/>
       </defs>
       <use xlink:href="#DejaVuSans-46"/>
       <use xlink:href="#DejaVuSans-69" transform="translate(50.269531 0)"/>
       <use xlink:href="#DejaVuSans-67" transform="translate(78.052734 0)"/>
       <use xlink:href="#DejaVuSans-2e" transform="translate(141.529297 0)"/>
       <use xlink:href="#DejaVuSans-20" transform="translate(173.316406 0)"/>
       <use xlink:href="#DejaVuSans-30" transform="translate(205.103516 0)"/>
       <use xlink:href="#DejaVuSans-35" transform="translate(268.726562 0)"/>
      </g>
     </g>
    </g>
    <g id="xtick_5">
     <g id="line2d_5">
      <g>
       <use xlink:href="#m2d32c8b16a" x="250.474334" y="305.25604" style="stroke: #000000; stroke-width: 0.8"/>
      </g>
     </g>
     <g id="text_5">
      <!-- Fig. 06 -->
      <g transform="translate(225.503521 341.129199) rotate(-45) scale(0.1 -0.1)">
       <defs>
        <path id="DejaVuSans-36" d="M 2113 2584
Q 1688 2584 1439 2293
Q 1191 2003 1191 1497
Q 1191 994 1439 701
Q 1688 409 2113 409
Q 2538 409 2786 701
Q 3034 994 3034 1497
Q 3034 2003 2786 2293
Q 2538 2584 2113 2584
z
M 3366 4563
L 3366 3988
Q 3128 4100 2886 4159
Q 2644 4219 2406 4219
Q 1781 4219 1451 3797
Q 1122 3375 1075 2522
Q 1259 2794 1537 2939
Q 1816 3084 2150 3084
Q 2853 3084 3261 2657
Q 3669 2231 3669 1497
Q 3669 778 3244 343
Q 2819 -91 2113 -91
Q 1303 -91 875 529
Q 447 1150 447 2328
Q 447 3434 972 4092
Q 1497 4750 2381 4750
Q 2619 4750 2861 4703
Q 3103 4656 3366 4563
z
" transform="scale(0.015625)"/>
       </defs>
       <use xlink:href="#DejaVuSans-46"/>
       <use xlink:href="#DejaVuSans-69" transform="translate(50.269531 0)"/>
       <use xlink:href="#DejaVuSans-67" transform="translate(78.052734 0)"/>
       <use xlink:href="#DejaVuSans-2e" transform="translate(141.529297 0)"/>
       <use xlink:href="#DejaVuSans-20" transform="translate(173.316406 0)"/>
       <use xlink:href="#DejaVuSans-30" transform="translate(205.103516 0)"/>
       <use xlink:href="#DejaVuSans-36" transform="translate(268.726562 0)"/>
      </g>
     </g>
    </g>
    <g id="xtick_6">
     <g id="line2d_6">
      <g>
       <use xlink:href="#m2d32c8b16a" x="295.636986" y="305.25604" style="stroke: #000000; stroke-width: 0.8"/>
      </g>
     </g>
     <g id="text_6">
      <!-- Fig. 07 -->
      <g transform="translate(270.666173 341.129199) rotate(-45) scale(0.1 -0.1)">
       <defs>
        <path id="DejaVuSans-37" d="M 525 4666
L 3525 4666
L 3525 4397
L 1831 0
L 1172 0
L 2766 4134
L 525 4134
L 525 4666
z
" transform="scale(0.015625)"/>
       </defs>
       <use xlink:href="#DejaVuSans-46"/>
       <use xlink:href="#DejaVuSans-69" transform="translate(50.269531 0)"/>
       <use xlink:href="#DejaVuSans-67" transform="translate(78.052734 0)"/>
       <use xlink:href="#DejaVuSans-2e" transform="translate(141.529297 0)"/>
       <use xlink:href="#DejaVuSans-20" transform="translate(173.316406 0)"/>
       <use xlink:href="#DejaVuSans-30" transform="translate(205.103516 0)"/>
       <use xlink:href="#DejaVuSans-37" transform="translate(268.726562 0)"/>
      </g>
     </g>
    </g>
    <g id="xtick_7">
     <g id="line2d_7">
      <g>
       <use xlink:href="#m2d32c8b16a" x="340.799638" y="305.25604" style="stroke: #000000; stroke-width: 0.8"/>
      </g>
     </g>
     <g id="text_7">
      <!-- Fig. 09 -->
      <g transform="translate(315.828825 341.129199) rotate(-45) scale(0.1 -0.1)">
       <defs>
        <path id="DejaVuSans-39" d="M 703 97
L 703 672
Q 941 559 1184 500
Q 1428 441 1663 441
Q 2288 441 2617 861
Q 2947 1281 2994 2138
Q 2813 1869 2534 1725
Q 2256 1581 1919 1581
Q 1219 1581 811 2004
Q 403 2428 403 3163
Q 403 3881 828 4315
Q 1253 4750 1959 4750
Q 2769 4750 3195 4129
Q 3622 3509 3622 2328
Q 3622 1225 3098 567
Q 2575 -91 1691 -91
Q 1453 -91 1209 -44
Q 966 3 703 97
z
M 1959 2075
Q 2384 2075 2632 2365
Q 2881 2656 2881 3163
Q 2881 3666 2632 3958
Q 2384 4250 1959 4250
Q 1534 4250 1286 3958
Q 1038 3666 1038 3163
Q 1038 2656 1286 2365
Q 1534 2075 1959 2075
z
" transform="scale(0.015625)"/>
       </defs>
       <use xlink:href="#DejaVuSans-46"/>
       <use xlink:href="#DejaVuSans-69" transform="translate(50.269531 0)"/>
       <use xlink:href="#DejaVuSans-67" transform="translate(78.052734 0)"/>
       <use xlink:href="#DejaVuSans-2e" transform="translate(141.529297 0)"/>
       <use xlink:href="#DejaVuSans-20" transform="translate(173.316406 0)"/>
       <use xlink:href="#DejaVuSans-30" transform="translate(205.103516 0)"/>
       <use xlink:href="#DejaVuSans-39" transform="translate(268.726562 0)"/>
      </g>
     </g>
    </g>
   </g>
   <g id="matplotlib.axis_2">
    <g id="ytick_1">
     <g id="line2d_8">
      <path d="M 36.403365 305.25604
L 374.22 305.25604
" clip-path="url(#p145fcaa8fe)" style="fill: none; stroke: #b0b0b0; stroke-opacity: 0.25; stroke-width: 0.8; stroke-linecap: square"/>
     </g>
     <g id="line2d_9">
      <defs>
       <path id="m35f3292e54" d="M 0 0
L -3.5 0
" style="stroke: #000000; stroke-width: 0.8"/>
      </defs>
      <g>
       <use xlink:href="#m35f3292e54" x="36.403365" y="305.25604" style="stroke: #000000; stroke-width: 0.8"/>
      </g>
     </g>
     <g id="text_8">
      <!-- 0 -->
      <g transform="translate(23.040865 309.055259) scale(0.1 -0.1)">
       <use xlink:href="#DejaVuSans-30"/>
      </g>
     </g>
    </g>
    <g id="ytick_2">
     <g id="line2d_10">
      <path d="M 36.403365 247.910626
L 374.22 247.910626
" clip-path="url(#p145fcaa8fe)" style="fill: none; stroke: #b0b0b0; stroke-opacity: 0.25; stroke-width: 0.8; stroke-linecap: square"/>
     </g>
     <g id="line2d_11">
      <g>
       <use xlink:href="#m35f3292e54" x="36.403365" y="247.910626" style="stroke: #000000; stroke-width: 0.8"/>
      </g>
     </g>
     <g id="text_9">
      <!-- 10 -->
      <g transform="translate(16.678365 251.709845) scale(0.1 -0.1)">
       <defs>
        <path id="DejaVuSans-31" d="M 794 531
L 1825 531
L 1825 4091
L 703 3866
L 703 4441
L 1819 4666
L 2450 4666
L 2450 531
L 3481 531
L 3481 0
L 794 0
L 794 531
z
" transform="scale(0.015625)"/>
       </defs>
       <use xlink:href="#DejaVuSans-31"/>
       <use xlink:href="#DejaVuSans-30" transform="translate(63.623047 0)"/>
      </g>
     </g>
    </g>
    <g id="ytick_3">
     <g id="line2d_12">
      <path d="M 36.403365 190.565212
L 374.22 190.565212
" clip-path="url(#p145fcaa8fe)" style="fill: none; stroke: #b0b0b0; stroke-opacity: 0.25; stroke-width: 0.8; stroke-linecap: square"/>
     </g>
     <g id="line2d_13">
      <g>
       <use xlink:href="#m35f3292e54" x="36.403365" y="190.565212" style="stroke: #000000; stroke-width: 0.8"/>
      </g>
     </g>
     <g id="text_10">
      <!-- 20 -->
      <g transform="translate(16.678365 194.364431) scale(0.1 -0.1)">
       <use xlink:href="#DejaVuSans-32"/>
       <use xlink:href="#DejaVuSans-30" transform="translate(63.623047 0)"/>
      </g>
     </g>
    </g>
    <g id="ytick_4">
     <g id="line2d_14">
      <path d="M 36.403365 133.219799
L 374.22 133.219799
" clip-path="url(#p145fcaa8fe)" style="fill: none; stroke: #b0b0b0; stroke-opacity: 0.25; stroke-width: 0.8; stroke-linecap: square"/>
     </g>
     <g id="line2d_15">
      <g>
       <use xlink:href="#m35f3292e54" x="36.403365" y="133.219799" style="stroke: #000000; stroke-width: 0.8"/>
      </g>
     </g>
     <g id="text_11">
      <!-- 30 -->
      <g transform="translate(16.678365 137.019017) scale(0.1 -0.1)">
       <use xlink:href="#DejaVuSans-33"/>
       <use xlink:href="#DejaVuSans-30" transform="translate(63.623047 0)"/>
      </g>
     </g>
    </g>
    <g id="ytick_5">
     <g id="line2d_16">
      <path d="M 36.403365 75.874385
L 374.22 75.874385
" clip-path="url(#p145fcaa8fe)" style="fill: none; stroke: #b0b0b0; stroke-opacity: 0.25; stroke-width: 0.8; stroke-linecap: square"/>
     </g>
     <g id="line2d_17">
      <g>
       <use xlink:href="#m35f3292e54" x="36.403365" y="75.874385" style="stroke: #000000; stroke-width: 0.8"/>
      </g>
     </g>
     <g id="text_12">
      <!-- 40 -->
      <g transform="translate(16.678365 79.673603) scale(0.1 -0.1)">
       <use xlink:href="#DejaVuSans-34"/>
       <use xlink:href="#DejaVuSans-30" transform="translate(63.623047 0)"/>
      </g>
     </g>
    </g>
    <g id="text_13">
     <!-- retained source points -->
     <g transform="translate(10.598677 226.482599) rotate(-90) scale(0.1 -0.1)">
      <defs>
       <path id="DejaVuSans-72" d="M 2631 2963
Q 2534 3019 2420 3045
Q 2306 3072 2169 3072
Q 1681 3072 1420 2755
Q 1159 2438 1159 1844
L 1159 0
L 581 0
L 581 3500
L 1159 3500
L 1159 2956
Q 1341 3275 1631 3429
Q 1922 3584 2338 3584
Q 2397 3584 2469 3576
Q 2541 3569 2628 3553
L 2631 2963
z
" transform="scale(0.015625)"/>
       <path id="DejaVuSans-65" d="M 3597 1894
L 3597 1613
L 953 1613
Q 991 1019 1311 708
Q 1631 397 2203 397
Q 2534 397 2845 478
Q 3156 559 3463 722
L 3463 178
Q 3153 47 2828 -22
Q 2503 -91 2169 -91
Q 1331 -91 842 396
Q 353 884 353 1716
Q 353 2575 817 3079
Q 1281 3584 2069 3584
Q 2775 3584 3186 3129
Q 3597 2675 3597 1894
z
M 3022 2063
Q 3016 2534 2758 2815
Q 2500 3097 2075 3097
Q 1594 3097 1305 2825
Q 1016 2553 972 2059
L 3022 2063
z
" transform="scale(0.015625)"/>
       <path id="DejaVuSans-74" d="M 1172 4494
L 1172 3500
L 2356 3500
L 2356 3053
L 1172 3053
L 1172 1153
Q 1172 725 1289 603
Q 1406 481 1766 481
L 2356 481
L 2356 0
L 1766 0
Q 1100 0 847 248
Q 594 497 594 1153
L 594 3053
L 172 3053
L 172 3500
L 594 3500
L 594 4494
L 1172 4494
z
" transform="scale(0.015625)"/>
       <path id="DejaVuSans-61" d="M 2194 1759
Q 1497 1759 1228 1600
Q 959 1441 959 1056
Q 959 750 1161 570
Q 1363 391 1709 391
Q 2188 391 2477 730
Q 2766 1069 2766 1631
L 2766 1759
L 2194 1759
z
M 3341 1997
L 3341 0
L 2766 0
L 2766 531
Q 2569 213 2275 61
Q 1981 -91 1556 -91
Q 1019 -91 701 211
Q 384 513 384 1019
Q 384 1609 779 1909
Q 1175 2209 1959 2209
L 2766 2209
L 2766 2266
Q 2766 2663 2505 2880
Q 2244 3097 1772 3097
Q 1472 3097 1187 3025
Q 903 2953 641 2809
L 641 3341
Q 956 3463 1253 3523
Q 1550 3584 1831 3584
Q 2591 3584 2966 3190
Q 3341 2797 3341 1997
z
" transform="scale(0.015625)"/>
       <path id="DejaVuSans-6e" d="M 3513 2113
L 3513 0
L 2938 0
L 2938 2094
Q 2938 2591 2744 2837
Q 2550 3084 2163 3084
Q 1697 3084 1428 2787
Q 1159 2491 1159 1978
L 1159 0
L 581 0
L 581 3500
L 1159 3500
L 1159 2956
Q 1366 3272 1645 3428
Q 1925 3584 2291 3584
Q 2894 3584 3203 3211
Q 3513 2838 3513 2113
z
" transform="scale(0.015625)"/>
       <path id="DejaVuSans-64" d="M 2906 2969
L 2906 4863
L 3481 4863
L 3481 0
L 2906 0
L 2906 525
Q 2725 213 2448 61
Q 2172 -91 1784 -91
Q 1150 -91 751 415
Q 353 922 353 1747
Q 353 2572 751 3078
Q 1150 3584 1784 3584
Q 2172 3584 2448 3432
Q 2725 3281 2906 2969
z
M 947 1747
Q 947 1113 1208 752
Q 1469 391 1925 391
Q 2381 391 2643 752
Q 2906 1113 2906 1747
Q 2906 2381 2643 2742
Q 2381 3103 1925 3103
Q 1469 3103 1208 2742
Q 947 2381 947 1747
z
" transform="scale(0.015625)"/>
       <path id="DejaVuSans-73" d="M 2834 3397
L 2834 2853
Q 2591 2978 2328 3040
Q 2066 3103 1784 3103
Q 1356 3103 1142 2972
Q 928 2841 928 2578
Q 928 2378 1081 2264
Q 1234 2150 1697 2047
L 1894 2003
Q 2506 1872 2764 1633
Q 3022 1394 3022 966
Q 3022 478 2636 193
Q 2250 -91 1575 -91
Q 1294 -91 989 -36
Q 684 19 347 128
L 347 722
Q 666 556 975 473
Q 1284 391 1588 391
Q 1994 391 2212 530
Q 2431 669 2431 922
Q 2431 1156 2273 1281
Q 2116 1406 1581 1522
L 1381 1569
Q 847 1681 609 1914
Q 372 2147 372 2553
Q 372 3047 722 3315
Q 1072 3584 1716 3584
Q 2034 3584 2315 3537
Q 2597 3491 2834 3397
z
" transform="scale(0.015625)"/>
       <path id="DejaVuSans-6f" d="M 1959 3097
Q 1497 3097 1228 2736
Q 959 2375 959 1747
Q 959 1119 1226 758
Q 1494 397 1959 397
Q 2419 397 2687 759
Q 2956 1122 2956 1747
Q 2956 2369 2687 2733
Q 2419 3097 1959 3097
z
M 1959 3584
Q 2709 3584 3137 3096
Q 3566 2609 3566 1747
Q 3566 888 3137 398
Q 2709 -91 1959 -91
Q 1206 -91 779 398
Q 353 888 353 1747
Q 353 2609 779 3096
Q 1206 3584 1959 3584
z
" transform="scale(0.015625)"/>
       <path id="DejaVuSans-75" d="M 544 1381
L 544 3500
L 1119 3500
L 1119 1403
Q 1119 906 1312 657
Q 1506 409 1894 409
Q 2359 409 2629 706
Q 2900 1003 2900 1516
L 2900 3500
L 3475 3500
L 3475 0
L 2900 0
L 2900 538
Q 2691 219 2414 64
Q 2138 -91 1772 -91
Q 1169 -91 856 284
Q 544 659 544 1381
z
M 1991 3584
L 1991 3584
z
" transform="scale(0.015625)"/>
       <path id="DejaVuSans-63" d="M 3122 3366
L 3122 2828
Q 2878 2963 2633 3030
Q 2388 3097 2138 3097
Q 1578 3097 1268 2742
Q 959 2388 959 1747
Q 959 1106 1268 751
Q 1578 397 2138 397
Q 2388 397 2633 464
Q 2878 531 3122 666
L 3122 134
Q 2881 22 2623 -34
Q 2366 -91 2075 -91
Q 1284 -91 818 406
Q 353 903 353 1747
Q 353 2603 823 3093
Q 1294 3584 2113 3584
Q 2378 3584 2631 3529
Q 2884 3475 3122 3366
z
" transform="scale(0.015625)"/>
       <path id="DejaVuSans-70" d="M 1159 525
L 1159 -1331
L 581 -1331
L 581 3500
L 1159 3500
L 1159 2969
Q 1341 3281 1617 3432
Q 1894 3584 2278 3584
Q 2916 3584 3314 3078
Q 3713 2572 3713 1747
Q 3713 922 3314 415
Q 2916 -91 2278 -91
Q 1894 -91 1617 61
Q 1341 213 1159 525
z
M 3116 1747
Q 3116 2381 2855 2742
Q 2594 3103 2138 3103
Q 1681 3103 1420 2742
Q 1159 2381 1159 1747
Q 1159 1113 1420 752
Q 1681 391 2138 391
Q 2594 391 2855 752
Q 3116 1113 3116 1747
z
" transform="scale(0.015625)"/>
      </defs>
      <use xlink:href="#DejaVuSans-72"/>
      <use xlink:href="#DejaVuSans-65" transform="translate(38.863281 0)"/>
      <use xlink:href="#DejaVuSans-74" transform="translate(100.386719 0)"/>
      <use xlink:href="#DejaVuSans-61" transform="translate(139.595703 0)"/>
      <use xlink:href="#DejaVuSans-69" transform="translate(200.875 0)"/>
      <use xlink:href="#DejaVuSans-6e" transform="translate(228.658203 0)"/>
      <use xlink:href="#DejaVuSans-65" transform="translate(292.037109 0)"/>
      <use xlink:href="#DejaVuSans-64" transform="translate(353.560547 0)"/>
      <use xlink:href="#DejaVuSans-20" transform="translate(417.037109 0)"/>
      <use xlink:href="#DejaVuSans-73" transform="translate(448.824219 0)"/>
      <use xlink:href="#DejaVuSans-6f" transform="translate(500.923828 0)"/>
      <use xlink:href="#DejaVuSans-75" transform="translate(562.105469 0)"/>
      <use xlink:href="#DejaVuSans-72" transform="translate(625.484375 0)"/>
      <use xlink:href="#DejaVuSans-63" transform="translate(664.347656 0)"/>
      <use xlink:href="#DejaVuSans-65" transform="translate(719.328125 0)"/>
      <use xlink:href="#DejaVuSans-20" transform="translate(780.851562 0)"/>
      <use xlink:href="#DejaVuSans-70" transform="translate(812.638672 0)"/>
      <use xlink:href="#DejaVuSans-6f" transform="translate(876.115234 0)"/>
      <use xlink:href="#DejaVuSans-69" transform="translate(937.296875 0)"/>
      <use xlink:href="#DejaVuSans-6e" transform="translate(965.080078 0)"/>
      <use xlink:href="#DejaVuSans-74" transform="translate(1028.458984 0)"/>
      <use xlink:href="#DejaVuSans-73" transform="translate(1067.667969 0)"/>
     </g>
    </g>
   </g>
   <g id="patch_24">
    <path d="M 36.403365 305.25604
L 36.403365 35.732595
" style="fill: none; stroke: #000000; stroke-width: 0.8; stroke-linejoin: miter; stroke-linecap: square"/>
   </g>
   <g id="patch_25">
    <path d="M 374.22 305.25604
L 374.22 35.732595
" style="fill: none; stroke: #000000; stroke-width: 0.8; stroke-linejoin: miter; stroke-linecap: square"/>
   </g>
   <g id="patch_26">
    <path d="M 36.403365 305.25604
L 374.22 305.25604
" style="fill: none; stroke: #000000; stroke-width: 0.8; stroke-linejoin: miter; stroke-linecap: square"/>
   </g>
   <g id="patch_27">
    <path d="M 36.403365 35.732595
L 374.22 35.732595
" style="fill: none; stroke: #000000; stroke-width: 0.8; stroke-linejoin: miter; stroke-linecap: square"/>
   </g>
   <g id="text_14">
    <!-- Visible-ink support by figure -->
    <g transform="translate(121.075432 29.732595) scale(0.12 -0.12)">
     <defs>
      <path id="DejaVuSans-56" d="M 1831 0
L 50 4666
L 709 4666
L 2188 738
L 3669 4666
L 4325 4666
L 2547 0
L 1831 0
z
" transform="scale(0.015625)"/>
      <path id="DejaVuSans-62" d="M 3116 1747
Q 3116 2381 2855 2742
Q 2594 3103 2138 3103
Q 1681 3103 1420 2742
Q 1159 2381 1159 1747
Q 1159 1113 1420 752
Q 1681 391 2138 391
Q 2594 391 2855 752
Q 3116 1113 3116 1747
z
M 1159 2969
Q 1341 3281 1617 3432
Q 1894 3584 2278 3584
Q 2916 3584 3314 3078
Q 3713 2572 3713 1747
Q 3713 922 3314 415
Q 2916 -91 2278 -91
Q 1894 -91 1617 61
Q 1341 213 1159 525
L 1159 0
L 581 0
L 581 4863
L 1159 4863
L 1159 2969
z
" transform="scale(0.015625)"/>
      <path id="DejaVuSans-6c" d="M 603 4863
L 1178 4863
L 1178 0
L 603 0
L 603 4863
z
" transform="scale(0.015625)"/>
      <path id="DejaVuSans-2d" d="M 313 2009
L 1997 2009
L 1997 1497
L 313 1497
L 313 2009
z
" transform="scale(0.015625)"/>
      <path id="DejaVuSans-6b" d="M 581 4863
L 1159 4863
L 1159 1991
L 2875 3500
L 3609 3500
L 1753 1863
L 3688 0
L 2938 0
L 1159 1709
L 1159 0
L 581 0
L 581 4863
z
" transform="scale(0.015625)"/>
      <path id="DejaVuSans-79" d="M 2059 -325
Q 1816 -950 1584 -1140
Q 1353 -1331 966 -1331
L 506 -1331
L 506 -850
L 844 -850
Q 1081 -850 1212 -737
Q 1344 -625 1503 -206
L 1606 56
L 191 3500
L 800 3500
L 1894 763
L 2988 3500
L 3597 3500
L 2059 -325
z
" transform="scale(0.015625)"/>
      <path id="DejaVuSans-66" d="M 2375 4863
L 2375 4384
L 1825 4384
Q 1516 4384 1395 4259
Q 1275 4134 1275 3809
L 1275 3500
L 2222 3500
L 2222 3053
L 1275 3053
L 1275 0
L 697 0
L 697 3053
L 147 3053
L 147 3500
L 697 3500
L 697 3744
Q 697 4328 969 4595
Q 1241 4863 1831 4863
L 2375 4863
z
" transform="scale(0.015625)"/>
     </defs>
     <use xlink:href="#DejaVuSans-56"/>
     <use xlink:href="#DejaVuSans-69" transform="translate(66.158203 0)"/>
     <use xlink:href="#DejaVuSans-73" transform="translate(93.941406 0)"/>
     <use xlink:href="#DejaVuSans-69" transform="translate(146.041016 0)"/>
     <use xlink:href="#DejaVuSans-62" transform="translate(173.824219 0)"/>
     <use xlink:href="#DejaVuSans-6c" transform="translate(237.300781 0)"/>
     <use xlink:href="#DejaVuSans-65" transform="translate(265.083984 0)"/>
     <use xlink:href="#DejaVuSans-2d" transform="translate(326.607422 0)"/>
     <use xlink:href="#DejaVuSans-69" transform="translate(362.691406 0)"/>
     <use xlink:href="#DejaVuSans-6e" transform="translate(390.474609 0)"/>
     <use xlink:href="#DejaVuSans-6b" transform="translate(453.853516 0)"/>
     <use xlink:href="#DejaVuSans-20" transform="translate(511.763672 0)"/>
     <use xlink:href="#DejaVuSans-73" transform="translate(543.550781 0)"/>
     <use xlink:href="#DejaVuSans-75" transform="translate(595.650391 0)"/>
     <use xlink:href="#DejaVuSans-70" transform="translate(659.029297 0)"/>
     <use xlink:href="#DejaVuSans-70" transform="translate(722.505859 0)"/>
     <use xlink:href="#DejaVuSans-6f" transform="translate(785.982422 0)"/>
     <use xlink:href="#DejaVuSans-72" transform="translate(847.164062 0)"/>
     <use xlink:href="#DejaVuSans-74" transform="translate(888.277344 0)"/>
     <use xlink:href="#DejaVuSans-20" transform="translate(927.486328 0)"/>
     <use xlink:href="#DejaVuSans-62" transform="translate(959.273438 0)"/>
     <use xlink:href="#DejaVuSans-79" transform="translate(1022.75 0)"/>
     <use xlink:href="#DejaVuSans-20" transform="translate(1081.929688 0)"/>
     <use xlink:href="#DejaVuSans-66" transform="translate(1113.716797 0)"/>
     <use xlink:href="#DejaVuSans-69" transform="translate(1148.921875 0)"/>
     <use xlink:href="#DejaVuSans-67" transform="translate(1176.705078 0)"/>
     <use xlink:href="#DejaVuSans-75" transform="translate(1240.181641 0)"/>
     <use xlink:href="#DejaVuSans-72" transform="translate(1303.560547 0)"/>
     <use xlink:href="#DejaVuSans-65" transform="translate(1342.423828 0)"/>
    </g>
   </g>
   <g id="legend_1">
    <g id="patch_28">
     <path d="M 304.152812 52.331032
L 324.152812 52.331032
L 324.152812 45.331032
L 304.152812 45.331032
z
" style="fill: #0a8f68"/>
    </g>
    <g id="text_15">
     <!-- pass -->
     <g transform="translate(332.152812 52.331032) scale(0.1 -0.1)">
      <use xlink:href="#DejaVuSans-70"/>
      <use xlink:href="#DejaVuSans-61" transform="translate(63.476562 0)"/>
      <use xlink:href="#DejaVuSans-73" transform="translate(124.755859 0)"/>
      <use xlink:href="#DejaVuSans-73" transform="translate(176.855469 0)"/>
     </g>
    </g>
    <g id="patch_29">
     <path d="M 304.152812 67.009158
L 324.152812 67.009158
L 324.152812 60.009158
L 304.152812 60.009158
z
" style="fill: #d99000"/>
    </g>
    <g id="text_16">
     <!-- review -->
     <g transform="translate(332.152812 67.009158) scale(0.1 -0.1)">
      <defs>
       <path id="DejaVuSans-76" d="M 191 3500
L 800 3500
L 1894 563
L 2988 3500
L 3597 3500
L 2284 0
L 1503 0
L 191 3500
z
" transform="scale(0.015625)"/>
       <path id="DejaVuSans-77" d="M 269 3500
L 844 3500
L 1563 769
L 2278 3500
L 2956 3500
L 3675 769
L 4391 3500
L 4966 3500
L 4050 0
L 3372 0
L 2619 2869
L 1863 0
L 1184 0
L 269 3500
z
" transform="scale(0.015625)"/>
      </defs>
      <use xlink:href="#DejaVuSans-72"/>
      <use xlink:href="#DejaVuSans-65" transform="translate(38.863281 0)"/>
      <use xlink:href="#DejaVuSans-76" transform="translate(100.386719 0)"/>
      <use xlink:href="#DejaVuSans-69" transform="translate(159.566406 0)"/>
      <use xlink:href="#DejaVuSans-65" transform="translate(187.349609 0)"/>
      <use xlink:href="#DejaVuSans-77" transform="translate(248.873047 0)"/>
     </g>
    </g>
    <g id="patch_30">
     <path d="M 304.152812 81.687282
L 324.152812 81.687282
L 324.152812 74.687282
L 304.152812 74.687282
z
" style="fill: #c92a2a"/>
    </g>
    <g id="text_17">
     <!-- fail -->
     <g transform="translate(332.152812 81.687282) scale(0.1 -0.1)">
      <use xlink:href="#DejaVuSans-66"/>
      <use xlink:href="#DejaVuSans-61" transform="translate(35.205078 0)"/>
      <use xlink:href="#DejaVuSans-69" transform="translate(96.484375 0)"/>
      <use xlink:href="#DejaVuSans-6c" transform="translate(124.267578 0)"/>
     </g>
    </g>
   </g>
  </g>
  <g id="axes_2">
   <g id="patch_31">
    <path d="M 415.183125 305.25604
L 752.99976 305.25604
L 752.99976 35.732595
L 415.183125 35.732595
z
" style="fill: #ffffff"/>
   </g>
   <g id="patch_32">
    <path d="M 430.538427 305.25604
L 466.668548 305.25604
L 466.668548 260.126084
L 430.538427 260.126084
z
" clip-path="url(#p3808c178ad)" style="fill: #4267ac"/>
   </g>
   <g id="patch_33">
    <path d="M 475.701078 305.25604
L 511.8312 305.25604
L 511.8312 253.995495
L 475.701078 253.995495
z
" clip-path="url(#p3808c178ad)" style="fill: #4267ac"/>
   </g>
   <g id="patch_34">
    <path d="M 520.86373 305.25604
L 556.993851 305.25604
L 556.993851 49.666163
L 520.86373 49.666163
z
" clip-path="url(#p3808c178ad)" style="fill: #4267ac"/>
   </g>
   <g id="patch_35">
    <path d="M 566.026382 305.25604
L 602.156503 305.25604
L 602.156503 48.567045
L 566.026382 48.567045
z
" clip-path="url(#p3808c178ad)" style="fill: #4267ac"/>
   </g>
   <g id="patch_36">
    <path d="M 611.189034 305.25604
L 647.319155 305.25604
L 647.319155 186.342895
L 611.189034 186.342895
z
" clip-path="url(#p3808c178ad)" style="fill: #4267ac"/>
   </g>
   <g id="patch_37">
    <path d="M 656.351685 305.25604
L 692.481807 305.25604
L 692.481807 239.879339
L 656.351685 239.879339
z
" clip-path="url(#p3808c178ad)" style="fill: #4267ac"/>
   </g>
   <g id="patch_38">
    <path d="M 701.514337 305.25604
L 737.644458 305.25604
L 737.644458 196.823958
L 701.514337 196.823958
z
" clip-path="url(#p3808c178ad)" style="fill: #4267ac"/>
   </g>
   <g id="matplotlib.axis_3">
    <g id="xtick_8">
     <g id="line2d_18">
      <g>
       <use xlink:href="#m2d32c8b16a" x="448.603487" y="305.25604" style="stroke: #000000; stroke-width: 0.8"/>
      </g>
     </g>
     <g id="text_18">
      <!-- Fig. 02 -->
      <g transform="translate(423.632674 341.129199) rotate(-45) scale(0.1 -0.1)">
       <use xlink:href="#DejaVuSans-46"/>
       <use xlink:href="#DejaVuSans-69" transform="translate(50.269531 0)"/>
       <use xlink:href="#DejaVuSans-67" transform="translate(78.052734 0)"/>
       <use xlink:href="#DejaVuSans-2e" transform="translate(141.529297 0)"/>
       <use xlink:href="#DejaVuSans-20" transform="translate(173.316406 0)"/>
       <use xlink:href="#DejaVuSans-30" transform="translate(205.103516 0)"/>
       <use xlink:href="#DejaVuSans-32" transform="translate(268.726562 0)"/>
      </g>
     </g>
    </g>
    <g id="xtick_9">
     <g id="line2d_19">
      <g>
       <use xlink:href="#m2d32c8b16a" x="493.766139" y="305.25604" style="stroke: #000000; stroke-width: 0.8"/>
      </g>
     </g>
     <g id="text_19">
      <!-- Fig. 03 -->
      <g transform="translate(468.795326 341.129199) rotate(-45) scale(0.1 -0.1)">
       <use xlink:href="#DejaVuSans-46"/>
       <use xlink:href="#DejaVuSans-69" transform="translate(50.269531 0)"/>
       <use xlink:href="#DejaVuSans-67" transform="translate(78.052734 0)"/>
       <use xlink:href="#DejaVuSans-2e" transform="translate(141.529297 0)"/>
       <use xlink:href="#DejaVuSans-20" transform="translate(173.316406 0)"/>
       <use xlink:href="#DejaVuSans-30" transform="translate(205.103516 0)"/>
       <use xlink:href="#DejaVuSans-33" transform="translate(268.726562 0)"/>
      </g>
     </g>
    </g>
    <g id="xtick_10">
     <g id="line2d_20">
      <g>
       <use xlink:href="#m2d32c8b16a" x="538.928791" y="305.25604" style="stroke: #000000; stroke-width: 0.8"/>
      </g>
     </g>
     <g id="text_20">
      <!-- Fig. 04 -->
      <g transform="translate(513.957978 341.129199) rotate(-45) scale(0.1 -0.1)">
       <use xlink:href="#DejaVuSans-46"/>
       <use xlink:href="#DejaVuSans-69" transform="translate(50.269531 0)"/>
       <use xlink:href="#DejaVuSans-67" transform="translate(78.052734 0)"/>
       <use xlink:href="#DejaVuSans-2e" transform="translate(141.529297 0)"/>
       <use xlink:href="#DejaVuSans-20" transform="translate(173.316406 0)"/>
       <use xlink:href="#DejaVuSans-30" transform="translate(205.103516 0)"/>
       <use xlink:href="#DejaVuSans-34" transform="translate(268.726562 0)"/>
      </g>
     </g>
    </g>
    <g id="xtick_11">
     <g id="line2d_21">
      <g>
       <use xlink:href="#m2d32c8b16a" x="584.091443" y="305.25604" style="stroke: #000000; stroke-width: 0.8"/>
      </g>
     </g>
     <g id="text_21">
      <!-- Fig. 05 -->
      <g transform="translate(559.120629 341.129199) rotate(-45) scale(0.1 -0.1)">
       <use xlink:href="#DejaVuSans-46"/>
       <use xlink:href="#DejaVuSans-69" transform="translate(50.269531 0)"/>
       <use xlink:href="#DejaVuSans-67" transform="translate(78.052734 0)"/>
       <use xlink:href="#DejaVuSans-2e" transform="translate(141.529297 0)"/>
       <use xlink:href="#DejaVuSans-20" transform="translate(173.316406 0)"/>
       <use xlink:href="#DejaVuSans-30" transform="translate(205.103516 0)"/>
       <use xlink:href="#DejaVuSans-35" transform="translate(268.726562 0)"/>
      </g>
     </g>
    </g>
    <g id="xtick_12">
     <g id="line2d_22">
      <g>
       <use xlink:href="#m2d32c8b16a" x="629.254094" y="305.25604" style="stroke: #000000; stroke-width: 0.8"/>
      </g>
     </g>
     <g id="text_22">
      <!-- Fig. 06 -->
      <g transform="translate(604.283281 341.129199) rotate(-45) scale(0.1 -0.1)">
       <use xlink:href="#DejaVuSans-46"/>
       <use xlink:href="#DejaVuSans-69" transform="translate(50.269531 0)"/>
       <use xlink:href="#DejaVuSans-67" transform="translate(78.052734 0)"/>
       <use xlink:href="#DejaVuSans-2e" transform="translate(141.529297 0)"/>
       <use xlink:href="#DejaVuSans-20" transform="translate(173.316406 0)"/>
       <use xlink:href="#DejaVuSans-30" transform="translate(205.103516 0)"/>
       <use xlink:href="#DejaVuSans-36" transform="translate(268.726562 0)"/>
      </g>
     </g>
    </g>
    <g id="xtick_13">
     <g id="line2d_23">
      <g>
       <use xlink:href="#m2d32c8b16a" x="674.416746" y="305.25604" style="stroke: #000000; stroke-width: 0.8"/>
      </g>
     </g>
     <g id="text_23">
      <!-- Fig. 07 -->
      <g transform="translate(649.445933 341.129199) rotate(-45) scale(0.1 -0.1)">
       <use xlink:href="#DejaVuSans-46"/>
       <use xlink:href="#DejaVuSans-69" transform="translate(50.269531 0)"/>
       <use xlink:href="#DejaVuSans-67" transform="translate(78.052734 0)"/>
       <use xlink:href="#DejaVuSans-2e" transform="translate(141.529297 0)"/>
       <use xlink:href="#DejaVuSans-20" transform="translate(173.316406 0)"/>
       <use xlink:href="#DejaVuSans-30" transform="translate(205.103516 0)"/>
       <use xlink:href="#DejaVuSans-37" transform="translate(268.726562 0)"/>
      </g>
     </g>
    </g>
    <g id="xtick_14">
     <g id="line2d_24">
      <g>
       <use xlink:href="#m2d32c8b16a" x="719.579398" y="305.25604" style="stroke: #000000; stroke-width: 0.8"/>
      </g>
     </g>
     <g id="text_24">
      <!-- Fig. 09 -->
      <g transform="translate(694.608585 341.129199) rotate(-45) scale(0.1 -0.1)">
       <use xlink:href="#DejaVuSans-46"/>
       <use xlink:href="#DejaVuSans-69" transform="translate(50.269531 0)"/>
       <use xlink:href="#DejaVuSans-67" transform="translate(78.052734 0)"/>
       <use xlink:href="#DejaVuSans-2e" transform="translate(141.529297 0)"/>
       <use xlink:href="#DejaVuSans-20" transform="translate(173.316406 0)"/>
       <use xlink:href="#DejaVuSans-30" transform="translate(205.103516 0)"/>
       <use xlink:href="#DejaVuSans-39" transform="translate(268.726562 0)"/>
      </g>
     </g>
    </g>
   </g>
   <g id="matplotlib.axis_4">
    <g id="ytick_6">
     <g id="line2d_25">
      <path d="M 415.183125 305.25604
L 752.99976 305.25604
" clip-path="url(#p3808c178ad)" style="fill: none; stroke: #b0b0b0; stroke-opacity: 0.25; stroke-width: 0.8; stroke-linecap: square"/>
     </g>
     <g id="line2d_26">
      <g>
       <use xlink:href="#m35f3292e54" x="415.183125" y="305.25604" style="stroke: #000000; stroke-width: 0.8"/>
      </g>
     </g>
     <g id="text_25">
      <!-- 0 -->
      <g transform="translate(401.820625 309.055259) scale(0.1 -0.1)">
       <use xlink:href="#DejaVuSans-30"/>
      </g>
     </g>
    </g>
    <g id="ytick_7">
     <g id="line2d_27">
      <path d="M 415.183125 274.344927
L 752.99976 274.344927
" clip-path="url(#p3808c178ad)" style="fill: none; stroke: #b0b0b0; stroke-opacity: 0.25; stroke-width: 0.8; stroke-linecap: square"/>
     </g>
     <g id="line2d_28">
      <g>
       <use xlink:href="#m35f3292e54" x="415.183125" y="274.344927" style="stroke: #000000; stroke-width: 0.8"/>
      </g>
     </g>
     <g id="text_26">
      <!-- 2 -->
      <g transform="translate(401.820625 278.144146) scale(0.1 -0.1)">
       <use xlink:href="#DejaVuSans-32"/>
      </g>
     </g>
    </g>
    <g id="ytick_8">
     <g id="line2d_29">
      <path d="M 415.183125 243.433814
L 752.99976 243.433814
" clip-path="url(#p3808c178ad)" style="fill: none; stroke: #b0b0b0; stroke-opacity: 0.25; stroke-width: 0.8; stroke-linecap: square"/>
     </g>
     <g id="line2d_30">
      <g>
       <use xlink:href="#m35f3292e54" x="415.183125" y="243.433814" style="stroke: #000000; stroke-width: 0.8"/>
      </g>
     </g>
     <g id="text_27">
      <!-- 4 -->
      <g transform="translate(401.820625 247.233033) scale(0.1 -0.1)">
       <use xlink:href="#DejaVuSans-34"/>
      </g>
     </g>
    </g>
    <g id="ytick_9">
     <g id="line2d_31">
      <path d="M 415.183125 212.522701
L 752.99976 212.522701
" clip-path="url(#p3808c178ad)" style="fill: none; stroke: #b0b0b0; stroke-opacity: 0.25; stroke-width: 0.8; stroke-linecap: square"/>
     </g>
     <g id="line2d_32">
      <g>
       <use xlink:href="#m35f3292e54" x="415.183125" y="212.522701" style="stroke: #000000; stroke-width: 0.8"/>
      </g>
     </g>
     <g id="text_28">
      <!-- 6 -->
      <g transform="translate(401.820625 216.32192) scale(0.1 -0.1)">
       <use xlink:href="#DejaVuSans-36"/>
      </g>
     </g>
    </g>
    <g id="ytick_10">
     <g id="line2d_33">
      <path d="M 415.183125 181.611588
L 752.99976 181.611588
" clip-path="url(#p3808c178ad)" style="fill: none; stroke: #b0b0b0; stroke-opacity: 0.25; stroke-width: 0.8; stroke-linecap: square"/>
     </g>
     <g id="line2d_34">
      <g>
       <use xlink:href="#m35f3292e54" x="415.183125" y="181.611588" style="stroke: #000000; stroke-width: 0.8"/>
      </g>
     </g>
     <g id="text_29">
      <!-- 8 -->
      <g transform="translate(401.820625 185.410807) scale(0.1 -0.1)">
       <defs>
        <path id="DejaVuSans-38" d="M 2034 2216
Q 1584 2216 1326 1975
Q 1069 1734 1069 1313
Q 1069 891 1326 650
Q 1584 409 2034 409
Q 2484 409 2743 651
Q 3003 894 3003 1313
Q 3003 1734 2745 1975
Q 2488 2216 2034 2216
z
M 1403 2484
Q 997 2584 770 2862
Q 544 3141 544 3541
Q 544 4100 942 4425
Q 1341 4750 2034 4750
Q 2731 4750 3128 4425
Q 3525 4100 3525 3541
Q 3525 3141 3298 2862
Q 3072 2584 2669 2484
Q 3125 2378 3379 2068
Q 3634 1759 3634 1313
Q 3634 634 3220 271
Q 2806 -91 2034 -91
Q 1263 -91 848 271
Q 434 634 434 1313
Q 434 1759 690 2068
Q 947 2378 1403 2484
z
M 1172 3481
Q 1172 3119 1398 2916
Q 1625 2713 2034 2713
Q 2441 2713 2670 2916
Q 2900 3119 2900 3481
Q 2900 3844 2670 4047
Q 2441 4250 2034 4250
Q 1625 4250 1398 4047
Q 1172 3844 1172 3481
z
" transform="scale(0.015625)"/>
       </defs>
       <use xlink:href="#DejaVuSans-38"/>
      </g>
     </g>
    </g>
    <g id="ytick_11">
     <g id="line2d_35">
      <path d="M 415.183125 150.700475
L 752.99976 150.700475
" clip-path="url(#p3808c178ad)" style="fill: none; stroke: #b0b0b0; stroke-opacity: 0.25; stroke-width: 0.8; stroke-linecap: square"/>
     </g>
     <g id="line2d_36">
      <g>
       <use xlink:href="#m35f3292e54" x="415.183125" y="150.700475" style="stroke: #000000; stroke-width: 0.8"/>
      </g>
     </g>
     <g id="text_30">
      <!-- 10 -->
      <g transform="translate(395.458125 154.499694) scale(0.1 -0.1)">
       <use xlink:href="#DejaVuSans-31"/>
       <use xlink:href="#DejaVuSans-30" transform="translate(63.623047 0)"/>
      </g>
     </g>
    </g>
    <g id="ytick_12">
     <g id="line2d_37">
      <path d="M 415.183125 119.789362
L 752.99976 119.789362
" clip-path="url(#p3808c178ad)" style="fill: none; stroke: #b0b0b0; stroke-opacity: 0.25; stroke-width: 0.8; stroke-linecap: square"/>
     </g>
     <g id="line2d_38">
      <g>
       <use xlink:href="#m35f3292e54" x="415.183125" y="119.789362" style="stroke: #000000; stroke-width: 0.8"/>
      </g>
     </g>
     <g id="text_31">
      <!-- 12 -->
      <g transform="translate(395.458125 123.588581) scale(0.1 -0.1)">
       <use xlink:href="#DejaVuSans-31"/>
       <use xlink:href="#DejaVuSans-32" transform="translate(63.623047 0)"/>
      </g>
     </g>
    </g>
    <g id="ytick_13">
     <g id="line2d_39">
      <path d="M 415.183125 88.878249
L 752.99976 88.878249
" clip-path="url(#p3808c178ad)" style="fill: none; stroke: #b0b0b0; stroke-opacity: 0.25; stroke-width: 0.8; stroke-linecap: square"/>
     </g>
     <g id="line2d_40">
      <g>
       <use xlink:href="#m35f3292e54" x="415.183125" y="88.878249" style="stroke: #000000; stroke-width: 0.8"/>
      </g>
     </g>
     <g id="text_32">
      <!-- 14 -->
      <g transform="translate(395.458125 92.677468) scale(0.1 -0.1)">
       <use xlink:href="#DejaVuSans-31"/>
       <use xlink:href="#DejaVuSans-34" transform="translate(63.623047 0)"/>
      </g>
     </g>
    </g>
    <g id="ytick_14">
     <g id="line2d_41">
      <path d="M 415.183125 57.967136
L 752.99976 57.967136
" clip-path="url(#p3808c178ad)" style="fill: none; stroke: #b0b0b0; stroke-opacity: 0.25; stroke-width: 0.8; stroke-linecap: square"/>
     </g>
     <g id="line2d_42">
      <g>
       <use xlink:href="#m35f3292e54" x="415.183125" y="57.967136" style="stroke: #000000; stroke-width: 0.8"/>
      </g>
     </g>
     <g id="text_33">
      <!-- 16 -->
      <g transform="translate(395.458125 61.766354) scale(0.1 -0.1)">
       <use xlink:href="#DejaVuSans-31"/>
       <use xlink:href="#DejaVuSans-36" transform="translate(63.623047 0)"/>
      </g>
     </g>
    </g>
    <g id="text_34">
     <!-- max seed-to-ink centroid shift / px -->
     <g transform="translate(389.378438 256.573224) rotate(-90) scale(0.1 -0.1)">
      <defs>
       <path id="DejaVuSans-6d" d="M 3328 2828
Q 3544 3216 3844 3400
Q 4144 3584 4550 3584
Q 5097 3584 5394 3201
Q 5691 2819 5691 2113
L 5691 0
L 5113 0
L 5113 2094
Q 5113 2597 4934 2840
Q 4756 3084 4391 3084
Q 3944 3084 3684 2787
Q 3425 2491 3425 1978
L 3425 0
L 2847 0
L 2847 2094
Q 2847 2600 2669 2842
Q 2491 3084 2119 3084
Q 1678 3084 1418 2786
Q 1159 2488 1159 1978
L 1159 0
L 581 0
L 581 3500
L 1159 3500
L 1159 2956
Q 1356 3278 1631 3431
Q 1906 3584 2284 3584
Q 2666 3584 2933 3390
Q 3200 3197 3328 2828
z
" transform="scale(0.015625)"/>
       <path id="DejaVuSans-78" d="M 3513 3500
L 2247 1797
L 3578 0
L 2900 0
L 1881 1375
L 863 0
L 184 0
L 1544 1831
L 300 3500
L 978 3500
L 1906 2253
L 2834 3500
L 3513 3500
z
" transform="scale(0.015625)"/>
       <path id="DejaVuSans-68" d="M 3513 2113
L 3513 0
L 2938 0
L 2938 2094
Q 2938 2591 2744 2837
Q 2550 3084 2163 3084
Q 1697 3084 1428 2787
Q 1159 2491 1159 1978
L 1159 0
L 581 0
L 581 4863
L 1159 4863
L 1159 2956
Q 1366 3272 1645 3428
Q 1925 3584 2291 3584
Q 2894 3584 3203 3211
Q 3513 2838 3513 2113
z
" transform="scale(0.015625)"/>
       <path id="DejaVuSans-2f" d="M 1625 4666
L 2156 4666
L 531 -594
L 0 -594
L 1625 4666
z
" transform="scale(0.015625)"/>
      </defs>
      <use xlink:href="#DejaVuSans-6d"/>
      <use xlink:href="#DejaVuSans-61" transform="translate(97.412109 0)"/>
      <use xlink:href="#DejaVuSans-78" transform="translate(158.691406 0)"/>
      <use xlink:href="#DejaVuSans-20" transform="translate(217.871094 0)"/>
      <use xlink:href="#DejaVuSans-73" transform="translate(249.658203 0)"/>
      <use xlink:href="#DejaVuSans-65" transform="translate(301.757812 0)"/>
      <use xlink:href="#DejaVuSans-65" transform="translate(363.28125 0)"/>
      <use xlink:href="#DejaVuSans-64" transform="translate(424.804688 0)"/>
      <use xlink:href="#DejaVuSans-2d" transform="translate(488.28125 0)"/>
      <use xlink:href="#DejaVuSans-74" transform="translate(524.365234 0)"/>
      <use xlink:href="#DejaVuSans-6f" transform="translate(563.574219 0)"/>
      <use xlink:href="#DejaVuSans-2d" transform="translate(626.630859 0)"/>
      <use xlink:href="#DejaVuSans-69" transform="translate(662.714844 0)"/>
      <use xlink:href="#DejaVuSans-6e" transform="translate(690.498047 0)"/>
      <use xlink:href="#DejaVuSans-6b" transform="translate(753.876953 0)"/>
      <use xlink:href="#DejaVuSans-20" transform="translate(811.787109 0)"/>
      <use xlink:href="#DejaVuSans-63" transform="translate(843.574219 0)"/>
      <use xlink:href="#DejaVuSans-65" transform="translate(898.554688 0)"/>
      <use xlink:href="#DejaVuSans-6e" transform="translate(960.078125 0)"/>
      <use xlink:href="#DejaVuSans-74" transform="translate(1023.457031 0)"/>
      <use xlink:href="#DejaVuSans-72" transform="translate(1062.666016 0)"/>
      <use xlink:href="#DejaVuSans-6f" transform="translate(1101.529297 0)"/>
      <use xlink:href="#DejaVuSans-69" transform="translate(1162.710938 0)"/>
      <use xlink:href="#DejaVuSans-64" transform="translate(1190.494141 0)"/>
      <use xlink:href="#DejaVuSans-20" transform="translate(1253.970703 0)"/>
      <use xlink:href="#DejaVuSans-73" transform="translate(1285.757812 0)"/>
      <use xlink:href="#DejaVuSans-68" transform="translate(1337.857422 0)"/>
      <use xlink:href="#DejaVuSans-69" transform="translate(1401.236328 0)"/>
      <use xlink:href="#DejaVuSans-66" transform="translate(1429.019531 0)"/>
      <use xlink:href="#DejaVuSans-74" transform="translate(1462.474609 0)"/>
      <use xlink:href="#DejaVuSans-20" transform="translate(1501.683594 0)"/>
      <use xlink:href="#DejaVuSans-2f" transform="translate(1533.470703 0)"/>
      <use xlink:href="#DejaVuSans-20" transform="translate(1567.162109 0)"/>
      <use xlink:href="#DejaVuSans-70" transform="translate(1598.949219 0)"/>
      <use xlink:href="#DejaVuSans-78" transform="translate(1662.425781 0)"/>
     </g>
    </g>
   </g>
   <g id="line2d_43">
    <path d="M 415.183125 166.156031
L 752.99976 166.156031
" clip-path="url(#p3808c178ad)" style="fill: none; stroke-dasharray: 4.44,1.92; stroke-dashoffset: 0; stroke: #0a8f68; stroke-width: 1.2"/>
   </g>
   <g id="line2d_44">
    <path d="M 415.183125 57.967136
L 752.99976 57.967136
" clip-path="url(#p3808c178ad)" style="fill: none; stroke-dasharray: 4.44,1.92; stroke-dashoffset: 0; stroke: #d99000; stroke-width: 1.2"/>
   </g>
   <g id="patch_39">
    <path d="M 415.183125 305.25604
L 415.183125 35.732595
" style="fill: none; stroke: #000000; stroke-width: 0.8; stroke-linejoin: miter; stroke-linecap: square"/>
   </g>
   <g id="patch_40">
    <path d="M 752.99976 305.25604
L 752.99976 35.732595
" style="fill: none; stroke: #000000; stroke-width: 0.8; stroke-linejoin: miter; stroke-linecap: square"/>
   </g>
   <g id="patch_41">
    <path d="M 415.183125 305.25604
L 752.99976 305.25604
" style="fill: none; stroke: #000000; stroke-width: 0.8; stroke-linejoin: miter; stroke-linecap: square"/>
   </g>
   <g id="patch_42">
    <path d="M 415.183125 35.732595
L 752.99976 35.732595
" style="fill: none; stroke: #000000; stroke-width: 0.8; stroke-linejoin: miter; stroke-linecap: square"/>
   </g>
   <g id="text_35">
    <!-- Hard-case refinement shift -->
    <g transform="translate(504.017693 29.732595) scale(0.12 -0.12)">
     <defs>
      <path id="DejaVuSans-48" d="M 628 4666
L 1259 4666
L 1259 2753
L 3553 2753
L 3553 4666
L 4184 4666
L 4184 0
L 3553 0
L 3553 2222
L 1259 2222
L 1259 0
L 628 0
L 628 4666
z
" transform="scale(0.015625)"/>
     </defs>
     <use xlink:href="#DejaVuSans-48"/>
     <use xlink:href="#DejaVuSans-61" transform="translate(75.195312 0)"/>
     <use xlink:href="#DejaVuSans-72" transform="translate(136.474609 0)"/>
     <use xlink:href="#DejaVuSans-64" transform="translate(175.837891 0)"/>
     <use xlink:href="#DejaVuSans-2d" transform="translate(239.314453 0)"/>
     <use xlink:href="#DejaVuSans-63" transform="translate(275.398438 0)"/>
     <use xlink:href="#DejaVuSans-61" transform="translate(330.378906 0)"/>
     <use xlink:href="#DejaVuSans-73" transform="translate(391.658203 0)"/>
     <use xlink:href="#DejaVuSans-65" transform="translate(443.757812 0)"/>
     <use xlink:href="#DejaVuSans-20" transform="translate(505.28125 0)"/>
     <use xlink:href="#DejaVuSans-72" transform="translate(537.068359 0)"/>
     <use xlink:href="#DejaVuSans-65" transform="translate(575.931641 0)"/>
     <use xlink:href="#DejaVuSans-66" transform="translate(637.455078 0)"/>
     <use xlink:href="#DejaVuSans-69" transform="translate(672.660156 0)"/>
     <use xlink:href="#DejaVuSans-6e" transform="translate(700.443359 0)"/>
     <use xlink:href="#DejaVuSans-65" transform="translate(763.822266 0)"/>
     <use xlink:href="#DejaVuSans-6d" transform="translate(825.345703 0)"/>
     <use xlink:href="#DejaVuSans-65" transform="translate(922.757812 0)"/>
     <use xlink:href="#DejaVuSans-6e" transform="translate(984.28125 0)"/>
     <use xlink:href="#DejaVuSans-74" transform="translate(1047.660156 0)"/>
     <use xlink:href="#DejaVuSans-20" transform="translate(1086.869141 0)"/>
     <use xlink:href="#DejaVuSans-73" transform="translate(1118.65625 0)"/>
     <use xlink:href="#DejaVuSans-68" transform="translate(1170.755859 0)"/>
     <use xlink:href="#DejaVuSans-69" transform="translate(1234.134766 0)"/>
     <use xlink:href="#DejaVuSans-66" transform="translate(1261.917969 0)"/>
     <use xlink:href="#DejaVuSans-74" transform="translate(1295.373047 0)"/>
    </g>
   </g>
   <g id="legend_2">
    <g id="line2d_45">
     <path d="M 632.55601 48.831032
L 642.55601 48.831032
L 652.55601 48.831032
" style="fill: none; stroke-dasharray: 4.44,1.92; stroke-dashoffset: 0; stroke: #0a8f68; stroke-width: 1.2"/>
    </g>
    <g id="text_36">
     <!-- pass tolerance -->
     <g transform="translate(660.55601 52.331032) scale(0.1 -0.1)">
      <use xlink:href="#DejaVuSans-70"/>
      <use xlink:href="#DejaVuSans-61" transform="translate(63.476562 0)"/>
      <use xlink:href="#DejaVuSans-73" transform="translate(124.755859 0)"/>
      <use xlink:href="#DejaVuSans-73" transform="translate(176.855469 0)"/>
      <use xlink:href="#DejaVuSans-20" transform="translate(228.955078 0)"/>
      <use xlink:href="#DejaVuSans-74" transform="translate(260.742188 0)"/>
      <use xlink:href="#DejaVuSans-6f" transform="translate(299.951172 0)"/>
      <use xlink:href="#DejaVuSans-6c" transform="translate(361.132812 0)"/>
      <use xlink:href="#DejaVuSans-65" transform="translate(388.916016 0)"/>
      <use xlink:href="#DejaVuSans-72" transform="translate(450.439453 0)"/>
      <use xlink:href="#DejaVuSans-61" transform="translate(491.552734 0)"/>
      <use xlink:href="#DejaVuSans-6e" transform="translate(552.832031 0)"/>
      <use xlink:href="#DejaVuSans-63" transform="translate(616.210938 0)"/>
      <use xlink:href="#DejaVuSans-65" transform="translate(671.191406 0)"/>
     </g>
    </g>
    <g id="line2d_46">
     <path d="M 632.55601 63.509158
L 642.55601 63.509158
L 652.55601 63.509158
" style="fill: none; stroke-dasharray: 4.44,1.92; stroke-dashoffset: 0; stroke: #d99000; stroke-width: 1.2"/>
    </g>
    <g id="text_37">
     <!-- review tolerance -->
     <g transform="translate(660.55601 67.009158) scale(0.1 -0.1)">
      <use xlink:href="#DejaVuSans-72"/>
      <use xlink:href="#DejaVuSans-65" transform="translate(38.863281 0)"/>
      <use xlink:href="#DejaVuSans-76" transform="translate(100.386719 0)"/>
      <use xlink:href="#DejaVuSans-69" transform="translate(159.566406 0)"/>
      <use xlink:href="#DejaVuSans-65" transform="translate(187.349609 0)"/>
      <use xlink:href="#DejaVuSans-77" transform="translate(248.873047 0)"/>
      <use xlink:href="#DejaVuSans-20" transform="translate(330.660156 0)"/>
      <use xlink:href="#DejaVuSans-74" transform="translate(362.447266 0)"/>
      <use xlink:href="#DejaVuSans-6f" transform="translate(401.65625 0)"/>
      <use xlink:href="#DejaVuSans-6c" transform="translate(462.837891 0)"/>
      <use xlink:href="#DejaVuSans-65" transform="translate(490.621094 0)"/>
      <use xlink:href="#DejaVuSans-72" transform="translate(552.144531 0)"/>
      <use xlink:href="#DejaVuSans-61" transform="translate(593.257812 0)"/>
      <use xlink:href="#DejaVuSans-6e" transform="translate(654.537109 0)"/>
      <use xlink:href="#DejaVuSans-63" transform="translate(717.916016 0)"/>
      <use xlink:href="#DejaVuSans-65" transform="translate(772.896484 0)"/>
     </g>
    </g>
   </g>
  </g>
  <g id="text_38">
   <!-- Consensus XY digitization audit -->
   <g transform="translate(283.570312 12.118365) scale(0.12 -0.12)">
    <defs>
     <path id="DejaVuSans-43" d="M 4122 4306
L 4122 3641
Q 3803 3938 3442 4084
Q 3081 4231 2675 4231
Q 1875 4231 1450 3742
Q 1025 3253 1025 2328
Q 1025 1406 1450 917
Q 1875 428 2675 428
Q 3081 428 3442 575
Q 3803 722 4122 1019
L 4122 359
Q 3791 134 3420 21
Q 3050 -91 2638 -91
Q 1578 -91 968 557
Q 359 1206 359 2328
Q 359 3453 968 4101
Q 1578 4750 2638 4750
Q 3056 4750 3426 4639
Q 3797 4528 4122 4306
z
" transform="scale(0.015625)"/>
     <path id="DejaVuSans-58" d="M 403 4666
L 1081 4666
L 2241 2931
L 3406 4666
L 4084 4666
L 2584 2425
L 4184 0
L 3506 0
L 2194 1984
L 872 0
L 191 0
L 1856 2491
L 403 4666
z
" transform="scale(0.015625)"/>
     <path id="DejaVuSans-59" d="M -13 4666
L 666 4666
L 1959 2747
L 3244 4666
L 3922 4666
L 2272 2222
L 2272 0
L 1638 0
L 1638 2222
L -13 4666
z
" transform="scale(0.015625)"/>
     <path id="DejaVuSans-7a" d="M 353 3500
L 3084 3500
L 3084 2975
L 922 459
L 3084 459
L 3084 0
L 275 0
L 275 525
L 2438 3041
L 353 3041
L 353 3500
z
" transform="scale(0.015625)"/>
    </defs>
    <use xlink:href="#DejaVuSans-43"/>
    <use xlink:href="#DejaVuSans-6f" transform="translate(69.824219 0)"/>
    <use xlink:href="#DejaVuSans-6e" transform="translate(131.005859 0)"/>
    <use xlink:href="#DejaVuSans-73" transform="translate(194.384766 0)"/>
    <use xlink:href="#DejaVuSans-65" transform="translate(246.484375 0)"/>
    <use xlink:href="#DejaVuSans-6e" transform="translate(308.007812 0)"/>
    <use xlink:href="#DejaVuSans-73" transform="translate(371.386719 0)"/>
    <use xlink:href="#DejaVuSans-75" transform="translate(423.486328 0)"/>
    <use xlink:href="#DejaVuSans-73" transform="translate(486.865234 0)"/>
    <use xlink:href="#DejaVuSans-20" transform="translate(538.964844 0)"/>
    <use xlink:href="#DejaVuSans-58" transform="translate(570.751953 0)"/>
    <use xlink:href="#DejaVuSans-59" transform="translate(639.257812 0)"/>
    <use xlink:href="#DejaVuSans-20" transform="translate(700.341797 0)"/>
    <use xlink:href="#DejaVuSans-64" transform="translate(732.128906 0)"/>
    <use xlink:href="#DejaVuSans-69" transform="translate(795.605469 0)"/>
    <use xlink:href="#DejaVuSans-67" transform="translate(823.388672 0)"/>
    <use xlink:href="#DejaVuSans-69" transform="translate(886.865234 0)"/>
    <use xlink:href="#DejaVuSans-74" transform="translate(914.648438 0)"/>
    <use xlink:href="#DejaVuSans-69" transform="translate(953.857422 0)"/>
    <use xlink:href="#DejaVuSans-7a" transform="translate(981.640625 0)"/>
    <use xlink:href="#DejaVuSans-61" transform="translate(1034.130859 0)"/>
    <use xlink:href="#DejaVuSans-74" transform="translate(1095.410156 0)"/>
    <use xlink:href="#DejaVuSans-69" transform="translate(1134.619141 0)"/>
    <use xlink:href="#DejaVuSans-6f" transform="translate(1162.402344 0)"/>
    <use xlink:href="#DejaVuSans-6e" transform="translate(1223.583984 0)"/>
    <use xlink:href="#DejaVuSans-20" transform="translate(1286.962891 0)"/>
    <use xlink:href="#DejaVuSans-61" transform="translate(1318.75 0)"/>
    <use xlink:href="#DejaVuSans-75" transform="translate(1380.029297 0)"/>
    <use xlink:href="#DejaVuSans-64" transform="translate(1443.408203 0)"/>
    <use xlink:href="#DejaVuSans-69" transform="translate(1506.884766 0)"/>
    <use xlink:href="#DejaVuSans-74" transform="translate(1534.667969 0)"/>
   </g>
  </g>
 </g>
 <defs>
  <clipPath id="p145fcaa8fe">
   <rect x="36.403365" y="35.732595" width="337.816635" height="269.523445"/>
  </clipPath>
  <clipPath id="p3808c178ad">
   <rect x="415.183125" y="35.732595" width="337.816635" height="269.523445"/>
  </clipPath>
 </defs>
</svg>
