<?xml version="1.0" encoding="utf-8" standalone="no"?>
<!DOCTYPE svg PUBLIC "-//W3C//DTD SVG 1.1//EN"
  "http://www.w3.org/Graphics/SVG/1.1/DTD/svg11.dtd">
<svg xmlns:xlink="http://www.w3.org/1999/xlink" width="633.6pt" height="345.6pt" viewBox="0 0 633.6 345.6" xmlns="http://www.w3.org/2000/svg" version="1.1">
 <metadata>
  <rdf:RDF xmlns:dc="http://purl.org/dc/elements/1.1/" xmlns:cc="http://creativecommons.org/ns#" xmlns:rdf="http://www.w3.org/1999/02/22-rdf-syntax-ns#">
   <cc:Work>
    <dc:type rdf:resource="http://purl.org/dc/dcmitype/StillImage"/>
    <dc:format>image/svg+xml</dc:format>
    <dc:creator>
     <cc:Agent>
      <dc:title>Matplotlib v3.10.9, https://matplotlib.org/</dc:title>
     </cc:Agent>
    </dc:creator>
   </cc:Work>
  </rdf:RDF>
 </metadata>
 <defs>
  <style type="text/css">*{stroke-linejoin: round; stroke-linecap: butt}</style>
 </defs>
 <g id="figure_1">
  <g id="patch_1">
   <path d="M 0 345.6
L 633.6 345.6
L 633.6 0
L 0 0
z
" style="fill: #ffffff"/>
  </g>
  <g id="axes_1">
   <g id="patch_2">
    <path d="M 53.558891 319.25
L 618.96375 319.25
L 618.96375 27.6
L 53.558891 27.6
z
" style="fill: #ffffff"/>
   </g>
   <g id="matplotlib.axis_1">
    <g id="xtick_1">
     <g id="line2d_1">
      <defs>
       <path id="mfbc48c2890" d="M 0 0
L 0 3.5
" style="stroke: #000000; stroke-width: 0.8"/>
      </defs>
      <g>
       <use xlink:href="#mfbc48c2890" x="79.259112" y="319.25" style="stroke: #000000; stroke-width: 0.8"/>
      </g>
     </g>
     <g id="text_1">
      <!-- 2B (2 sites) -->
      <g transform="translate(53.325049 333.088594) scale(0.09 -0.09)">
       <defs>
        <path id="DejaVuSerif-32" d="M 819 3553
L 469 3553
L 469 4384
Q 803 4563 1142 4656
Q 1481 4750 1806 4750
Q 2534 4750 2956 4397
Q 3378 4044 3378 3438
Q 3378 2753 2422 1800
Q 2347 1728 2309 1691
L 1131 513
L 3078 513
L 3078 1088
L 3444 1088
L 3444 0
L 434 0
L 434 341
L 1850 1753
Q 2319 2222 2519 2614
Q 2719 3006 2719 3438
Q 2719 3909 2473 4175
Q 2228 4441 1797 4441
Q 1350 4441 1106 4219
Q 863 3997 819 3553
z
" transform="scale(0.015625)"/>
        <path id="DejaVuSerif-42" d="M 1581 331
L 2516 331
Q 3078 331 3337 575
Q 3597 819 3597 1350
Q 3597 1878 3339 2120
Q 3081 2363 2516 2363
L 1581 2363
L 1581 331
z
M 1581 2694
L 2375 2694
Q 2888 2694 3123 2891
Q 3359 3088 3359 3513
Q 3359 3941 3123 4136
Q 2888 4331 2375 4331
L 1581 4331
L 1581 2694
z
M 353 0
L 353 331
L 947 331
L 947 4331
L 353 4331
L 353 4666
L 2656 4666
Q 3363 4666 3720 4377
Q 4078 4088 4078 3513
Q 4078 3097 3829 2850
Q 3581 2603 3103 2547
Q 3697 2472 4005 2167
Q 4313 1863 4313 1350
Q 4313 656 3875 328
Q 3438 0 2509 0
L 353 0
z
" transform="scale(0.015625)"/>
        <path id="DejaVuSerif-20" transform="scale(0.015625)"/>
        <path id="DejaVuSerif-28" d="M 2041 -997
Q 1281 -656 893 83
Q 506 822 506 1931
Q 506 3044 893 3783
Q 1281 4522 2041 4863
L 2041 4556
Q 1559 4225 1350 3623
Q 1141 3022 1141 1931
Q 1141 844 1350 242
Q 1559 -359 2041 -691
L 2041 -997
z
" transform="scale(0.015625)"/>
        <path id="DejaVuSerif-73" d="M 359 184
L 359 959
L 691 959
Q 703 588 923 403
Q 1144 219 1575 219
Q 1963 219 2166 364
Q 2369 509 2369 788
Q 2369 1006 2220 1140
Q 2072 1275 1594 1428
L 1178 1569
Q 750 1706 558 1912
Q 366 2119 366 2438
Q 366 2894 700 3153
Q 1034 3413 1625 3413
Q 1888 3413 2178 3344
Q 2469 3275 2778 3144
L 2778 2419
L 2447 2419
Q 2434 2741 2221 2922
Q 2009 3103 1644 3103
Q 1281 3103 1095 2975
Q 909 2847 909 2591
Q 909 2381 1050 2254
Q 1191 2128 1613 1997
L 2069 1856
Q 2541 1709 2748 1489
Q 2956 1269 2956 922
Q 2956 450 2595 179
Q 2234 -91 1600 -91
Q 1278 -91 972 -22
Q 666 47 359 184
z
" transform="scale(0.015625)"/>
        <path id="DejaVuSerif-69" d="M 622 4353
Q 622 4497 726 4603
Q 831 4709 978 4709
Q 1122 4709 1226 4603
Q 1331 4497 1331 4353
Q 1331 4206 1228 4103
Q 1125 4000 978 4000
Q 831 4000 726 4103
Q 622 4206 622 4353
z
M 1356 331
L 1900 331
L 1900 0
L 231 0
L 231 331
L 781 331
L 781 2988
L 231 2988
L 231 3322
L 1356 3322
L 1356 331
z
" transform="scale(0.015625)"/>
        <path id="DejaVuSerif-74" d="M 691 2988
L 184 2988
L 184 3322
L 691 3322
L 691 4353
L 1269 4353
L 1269 3322
L 2350 3322
L 2350 2988
L 1269 2988
L 1269 878
Q 1269 456 1350 337
Q 1431 219 1650 219
Q 1875 219 1978 351
Q 2081 484 2088 781
L 2522 781
Q 2497 328 2275 118
Q 2053 -91 1600 -91
Q 1103 -91 897 129
Q 691 350 691 878
L 691 2988
z
" transform="scale(0.015625)"/>
        <path id="DejaVuSerif-65" d="M 3469 1600
L 991 1600
L 991 1575
Q 991 903 1244 561
Q 1497 219 1991 219
Q 2369 219 2611 417
Q 2853 616 2950 1006
L 3413 1006
Q 3275 459 2904 184
Q 2534 -91 1931 -91
Q 1203 -91 761 389
Q 319 869 319 1663
Q 319 2450 753 2931
Q 1188 3413 1894 3413
Q 2647 3413 3050 2948
Q 3453 2484 3469 1600
z
M 2791 1931
Q 2772 2513 2545 2808
Q 2319 3103 1894 3103
Q 1497 3103 1269 2806
Q 1041 2509 991 1931
L 2791 1931
z
" transform="scale(0.015625)"/>
        <path id="DejaVuSerif-29" d="M 453 -997
L 453 -691
Q 934 -359 1145 242
Q 1356 844 1356 1931
Q 1356 3022 1145 3623
Q 934 4225 453 4556
L 453 4863
Q 1216 4522 1603 3783
Q 1991 3044 1991 1931
Q 1991 822 1603 83
Q 1216 -656 453 -997
z
" transform="scale(0.015625)"/>
       </defs>
       <use xlink:href="#DejaVuSerif-32"/>
       <use xlink:href="#DejaVuSerif-42" transform="translate(63.623047 0)"/>
       <use xlink:href="#DejaVuSerif-20" transform="translate(137.109375 0)"/>
       <use xlink:href="#DejaVuSerif-28" transform="translate(168.896484 0)"/>
       <use xlink:href="#DejaVuSerif-32" transform="translate(207.910156 0)"/>
       <use xlink:href="#DejaVuSerif-20" transform="translate(271.533203 0)"/>
       <use xlink:href="#DejaVuSerif-73" transform="translate(303.320312 0)"/>
       <use xlink:href="#DejaVuSerif-69" transform="translate(354.638672 0)"/>
       <use xlink:href="#DejaVuSerif-74" transform="translate(386.621094 0)"/>
       <use xlink:href="#DejaVuSerif-65" transform="translate(426.806641 0)"/>
       <use xlink:href="#DejaVuSerif-73" transform="translate(485.986328 0)"/>
       <use xlink:href="#DejaVuSerif-29" transform="translate(537.304688 0)"/>
      </g>
     </g>
    </g>
    <g id="xtick_2">
     <g id="line2d_2">
      <g>
       <use xlink:href="#mfbc48c2890" x="250.593917" y="319.25" style="stroke: #000000; stroke-width: 0.8"/>
      </g>
     </g>
     <g id="text_2">
      <!-- 2B (2 sites) -->
      <g transform="translate(224.659855 333.088594) scale(0.09 -0.09)">
       <use xlink:href="#DejaVuSerif-32"/>
       <use xlink:href="#DejaVuSerif-42" transform="translate(63.623047 0)"/>
       <use xlink:href="#DejaVuSerif-20" transform="translate(137.109375 0)"/>
       <use xlink:href="#DejaVuSerif-28" transform="translate(168.896484 0)"/>
       <use xlink:href="#DejaVuSerif-32" transform="translate(207.910156 0)"/>
       <use xlink:href="#DejaVuSerif-20" transform="translate(271.533203 0)"/>
       <use xlink:href="#DejaVuSerif-73" transform="translate(303.320312 0)"/>
       <use xlink:href="#DejaVuSerif-69" transform="translate(354.638672 0)"/>
       <use xlink:href="#DejaVuSerif-74" transform="translate(386.621094 0)"/>
       <use xlink:href="#DejaVuSerif-65" transform="translate(426.806641 0)"/>
       <use xlink:href="#DejaVuSerif-73" transform="translate(485.986328 0)"/>
       <use xlink:href="#DejaVuSerif-29" transform="translate(537.304688 0)"/>
      </g>
     </g>
    </g>
    <g id="xtick_3">
     <g id="line2d_3">
      <g>
       <use xlink:href="#mfbc48c2890" x="421.928723" y="319.25" style="stroke: #000000; stroke-width: 0.8"/>
      </g>
     </g>
     <g id="text_3">
      <!-- 3B (3 sites) -->
      <g transform="translate(395.994661 333.088594) scale(0.09 -0.09)">
       <defs>
        <path id="DejaVuSerif-33" d="M 622 4469
Q 988 4606 1323 4678
Q 1659 4750 1953 4750
Q 2638 4750 3022 4454
Q 3406 4159 3406 3634
Q 3406 3213 3140 2930
Q 2875 2647 2388 2547
Q 2963 2466 3280 2130
Q 3597 1794 3597 1259
Q 3597 606 3158 257
Q 2719 -91 1894 -91
Q 1528 -91 1179 -12
Q 831 66 488 225
L 488 1131
L 838 1131
Q 869 681 1141 450
Q 1413 219 1906 219
Q 2384 219 2661 495
Q 2938 772 2938 1253
Q 2938 1803 2653 2086
Q 2369 2369 1819 2369
L 1522 2369
L 1522 2688
L 1678 2688
Q 2225 2688 2498 2914
Q 2772 3141 2772 3597
Q 2772 4006 2547 4223
Q 2322 4441 1900 4441
Q 1478 4441 1245 4241
Q 1013 4041 972 3647
L 622 3647
L 622 4469
z
" transform="scale(0.015625)"/>
       </defs>
       <use xlink:href="#DejaVuSerif-33"/>
       <use xlink:href="#DejaVuSerif-42" transform="translate(63.623047 0)"/>
       <use xlink:href="#DejaVuSerif-20" transform="translate(137.109375 0)"/>
       <use xlink:href="#DejaVuSerif-28" transform="translate(168.896484 0)"/>
       <use xlink:href="#DejaVuSerif-33" transform="translate(207.910156 0)"/>
       <use xlink:href="#DejaVuSerif-20" transform="translate(271.533203 0)"/>
       <use xlink:href="#DejaVuSerif-73" transform="translate(303.320312 0)"/>
       <use xlink:href="#DejaVuSerif-69" transform="translate(354.638672 0)"/>
       <use xlink:href="#DejaVuSerif-74" transform="translate(386.621094 0)"/>
       <use xlink:href="#DejaVuSerif-65" transform="translate(426.806641 0)"/>
       <use xlink:href="#DejaVuSerif-73" transform="translate(485.986328 0)"/>
       <use xlink:href="#DejaVuSerif-29" transform="translate(537.304688 0)"/>
      </g>
     </g>
    </g>
    <g id="xtick_4">
     <g id="line2d_4">
      <g>
       <use xlink:href="#mfbc48c2890" x="593.263529" y="319.25" style="stroke: #000000; stroke-width: 0.8"/>
      </g>
     </g>
     <g id="text_4">
      <!-- 4C (4 sites) -->
      <g transform="translate(567.19306 333.088594) scale(0.09 -0.09)">
       <defs>
        <path id="DejaVuSerif-34" d="M 2234 1581
L 2234 4063
L 641 1581
L 2234 1581
z
M 3609 0
L 1484 0
L 1484 331
L 2234 331
L 2234 1247
L 197 1247
L 197 1588
L 2241 4750
L 2859 4750
L 2859 1581
L 3750 1581
L 3750 1247
L 2859 1247
L 2859 331
L 3609 331
L 3609 0
z
" transform="scale(0.015625)"/>
        <path id="DejaVuSerif-43" d="M 4513 1234
Q 4306 581 3820 245
Q 3334 -91 2591 -91
Q 2134 -91 1743 65
Q 1353 222 1050 525
Q 700 875 529 1320
Q 359 1766 359 2328
Q 359 3416 987 4083
Q 1616 4750 2644 4750
Q 3025 4750 3456 4650
Q 3888 4550 4384 4347
L 4384 3272
L 4031 3272
Q 3916 3859 3567 4137
Q 3219 4416 2591 4416
Q 1844 4416 1459 3886
Q 1075 3356 1075 2328
Q 1075 1303 1459 773
Q 1844 244 2591 244
Q 3113 244 3450 492
Q 3788 741 3938 1234
L 4513 1234
z
" transform="scale(0.015625)"/>
       </defs>
       <use xlink:href="#DejaVuSerif-34"/>
       <use xlink:href="#DejaVuSerif-43" transform="translate(63.623047 0)"/>
       <use xlink:href="#DejaVuSerif-20" transform="translate(140.136719 0)"/>
       <use xlink:href="#DejaVuSerif-28" transform="translate(171.923828 0)"/>
       <use xlink:href="#DejaVuSerif-34" transform="translate(210.9375 0)"/>
       <use xlink:href="#DejaVuSerif-20" transform="translate(274.560547 0)"/>
       <use xlink:href="#DejaVuSerif-73" transform="translate(306.347656 0)"/>
       <use xlink:href="#DejaVuSerif-69" transform="translate(357.666016 0)"/>
       <use xlink:href="#DejaVuSerif-74" transform="translate(389.648438 0)"/>
       <use xlink:href="#DejaVuSerif-65" transform="translate(429.833984 0)"/>
       <use xlink:href="#DejaVuSerif-73" transform="translate(489.013672 0)"/>
       <use xlink:href="#DejaVuSerif-29" transform="translate(540.332031 0)"/>
      </g>
     </g>
    </g>
   </g>
   <g id="matplotlib.axis_2">
    <g id="ytick_1">
     <g id="line2d_5">
      <path d="M 53.558891 309.521138
L 618.96375 309.521138
" clip-path="url(#pc0bc27fdee)" style="fill: none; stroke: #d9dde3; stroke-width: 0.7; stroke-linecap: square"/>
     </g>
     <g id="line2d_6">
      <defs>
       <path id="m083fb8486c" d="M 0 0
L -3.5 0
" style="stroke: #000000; stroke-width: 0.8"/>
      </defs>
      <g>
       <use xlink:href="#m083fb8486c" x="53.558891" y="309.521138" style="stroke: #000000; stroke-width: 0.8"/>
      </g>
     </g>
     <g id="text_5">
      <!-- $\mathdefault{10^{-4}}$ -->
      <g transform="translate(25.498891 312.940435) scale(0.09 -0.09)">
       <defs>
        <path id="DejaVuSerif-31" d="M 909 0
L 909 331
L 1722 331
L 1722 4213
L 781 3603
L 781 4013
L 1919 4750
L 2350 4750
L 2350 331
L 3163 331
L 3163 0
L 909 0
z
" transform="scale(0.015625)"/>
        <path id="DejaVuSerif-30" d="M 2034 219
Q 2513 219 2750 744
Q 2988 1269 2988 2328
Q 2988 3391 2750 3916
Q 2513 4441 2034 4441
Q 1556 4441 1318 3916
Q 1081 3391 1081 2328
Q 1081 1269 1318 744
Q 1556 219 2034 219
z
M 2034 -91
Q 1275 -91 848 546
Q 422 1184 422 2328
Q 422 3475 848 4112
Q 1275 4750 2034 4750
Q 2797 4750 3222 4112
Q 3647 3475 3647 2328
Q 3647 1184 3222 546
Q 2797 -91 2034 -91
z
" transform="scale(0.015625)"/>
        <path id="DejaVuSerif-2212" d="M 678 2259
L 4684 2259
L 4684 1753
L 678 1753
L 678 2259
z
" transform="scale(0.015625)"/>
       </defs>
       <use xlink:href="#DejaVuSerif-31" transform="translate(0 0.7125)"/>
       <use xlink:href="#DejaVuSerif-30" transform="translate(63.623047 0.7125)"/>
       <use xlink:href="#DejaVuSerif-2212" transform="translate(128.154453 37.046875) scale(0.7)"/>
       <use xlink:href="#DejaVuSerif-34" transform="translate(186.806797 37.046875) scale(0.7)"/>
      </g>
     </g>
    </g>
    <g id="ytick_2">
     <g id="line2d_7">
      <path d="M 53.558891 66.558081
L 618.96375 66.558081
" clip-path="url(#pc0bc27fdee)" style="fill: none; stroke: #d9dde3; stroke-width: 0.7; stroke-linecap: square"/>
     </g>
     <g id="line2d_8">
      <g>
       <use xlink:href="#m083fb8486c" x="53.558891" y="66.558081" style="stroke: #000000; stroke-width: 0.8"/>
      </g>
     </g>
     <g id="text_6">
      <!-- $\mathdefault{10^{-3}}$ -->
      <g transform="translate(25.498891 69.977378) scale(0.09 -0.09)">
       <use xlink:href="#DejaVuSerif-31" transform="translate(0 0.7125)"/>
       <use xlink:href="#DejaVuSerif-30" transform="translate(63.623047 0.7125)"/>
       <use xlink:href="#DejaVuSerif-2212" transform="translate(128.154453 37.046875) scale(0.7)"/>
       <use xlink:href="#DejaVuSerif-33" transform="translate(186.806797 37.046875) scale(0.7)"/>
      </g>
     </g>
    </g>
    <g id="ytick_3">
     <g id="line2d_9">
      <path d="M 53.558891 236.38197
L 618.96375 236.38197
" clip-path="url(#pc0bc27fdee)" style="fill: none; stroke: #eceff3; stroke-opacity: 0.8; stroke-width: 0.45; stroke-linecap: square"/>
     </g>
     <g id="line2d_10">
      <defs>
       <path id="m5f49964112" d="M 0 0
L -2 0
" style="stroke: #000000; stroke-width: 0.6"/>
      </defs>
      <g>
       <use xlink:href="#m5f49964112" x="53.558891" y="236.38197" style="stroke: #000000; stroke-width: 0.6"/>
      </g>
     </g>
    </g>
    <g id="ytick_4">
     <g id="line2d_11">
      <path d="M 53.558891 193.5983
L 618.96375 193.5983
" clip-path="url(#pc0bc27fdee)" style="fill: none; stroke: #eceff3; stroke-opacity: 0.8; stroke-width: 0.45; stroke-linecap: square"/>
     </g>
     <g id="line2d_12">
      <g>
       <use xlink:href="#m5f49964112" x="53.558891" y="193.5983" style="stroke: #000000; stroke-width: 0.6"/>
      </g>
     </g>
    </g>
    <g id="ytick_5">
     <g id="line2d_13">
      <path d="M 53.558891 163.242802
L 618.96375 163.242802
" clip-path="url(#pc0bc27fdee)" style="fill: none; stroke: #eceff3; stroke-opacity: 0.8; stroke-width: 0.45; stroke-linecap: square"/>
     </g>
     <g id="line2d_14">
      <g>
       <use xlink:href="#m5f49964112" x="53.558891" y="163.242802" style="stroke: #000000; stroke-width: 0.6"/>
      </g>
     </g>
    </g>
    <g id="ytick_6">
     <g id="line2d_15">
      <path d="M 53.558891 139.697249
L 618.96375 139.697249
" clip-path="url(#pc0bc27fdee)" style="fill: none; stroke: #eceff3; stroke-opacity: 0.8; stroke-width: 0.45; stroke-linecap: square"/>
     </g>
     <g id="line2d_16">
      <g>
       <use xlink:href="#m5f49964112" x="53.558891" y="139.697249" style="stroke: #000000; stroke-width: 0.6"/>
      </g>
     </g>
    </g>
    <g id="ytick_7">
     <g id="line2d_17">
      <path d="M 53.558891 120.459132
L 618.96375 120.459132
" clip-path="url(#pc0bc27fdee)" style="fill: none; stroke: #eceff3; stroke-opacity: 0.8; stroke-width: 0.45; stroke-linecap: square"/>
     </g>
     <g id="line2d_18">
      <g>
       <use xlink:href="#m5f49964112" x="53.558891" y="120.459132" style="stroke: #000000; stroke-width: 0.6"/>
      </g>
     </g>
    </g>
    <g id="ytick_8">
     <g id="line2d_19">
      <path d="M 53.558891 104.193535
L 618.96375 104.193535
" clip-path="url(#pc0bc27fdee)" style="fill: none; stroke: #eceff3; stroke-opacity: 0.8; stroke-width: 0.45; stroke-linecap: square"/>
     </g>
     <g id="line2d_20">
      <g>
       <use xlink:href="#m5f49964112" x="53.558891" y="104.193535" style="stroke: #000000; stroke-width: 0.6"/>
      </g>
     </g>
    </g>
    <g id="ytick_9">
     <g id="line2d_21">
      <path d="M 53.558891 90.103634
L 618.96375 90.103634
" clip-path="url(#pc0bc27fdee)" style="fill: none; stroke: #eceff3; stroke-opacity: 0.8; stroke-width: 0.45; stroke-linecap: square"/>
     </g>
     <g id="line2d_22">
      <g>
       <use xlink:href="#m5f49964112" x="53.558891" y="90.103634" style="stroke: #000000; stroke-width: 0.6"/>
      </g>
     </g>
    </g>
    <g id="ytick_10">
     <g id="line2d_23">
      <path d="M 53.558891 77.675461
L 618.96375 77.675461
" clip-path="url(#pc0bc27fdee)" style="fill: none; stroke: #eceff3; stroke-opacity: 0.8; stroke-width: 0.45; stroke-linecap: square"/>
     </g>
     <g id="line2d_24">
      <g>
       <use xlink:href="#m5f49964112" x="53.558891" y="77.675461" style="stroke: #000000; stroke-width: 0.6"/>
      </g>
     </g>
    </g>
    <g id="text_7">
     <!-- median elapsed time / s -->
     <g transform="translate(19.211234 239.517812) rotate(-90) scale(0.11 -0.11)">
      <defs>
       <path id="DejaVuSerif-6d" d="M 3316 2675
Q 3481 3041 3739 3227
Q 3997 3413 4341 3413
Q 4863 3413 5119 3089
Q 5375 2766 5375 2113
L 5375 331
L 5894 331
L 5894 0
L 4300 0
L 4300 331
L 4800 331
L 4800 2047
Q 4800 2556 4650 2772
Q 4500 2988 4153 2988
Q 3769 2988 3567 2697
Q 3366 2406 3366 1850
L 3366 331
L 3866 331
L 3866 0
L 2291 0
L 2291 331
L 2791 331
L 2791 2069
Q 2791 2566 2641 2777
Q 2491 2988 2144 2988
Q 1759 2988 1557 2697
Q 1356 2406 1356 1850
L 1356 331
L 1856 331
L 1856 0
L 263 0
L 263 331
L 781 331
L 781 2994
L 231 2994
L 231 3322
L 1356 3322
L 1356 2731
Q 1516 3063 1762 3238
Q 2009 3413 2322 3413
Q 2709 3413 2968 3220
Q 3228 3028 3316 2675
z
" transform="scale(0.015625)"/>
       <path id="DejaVuSerif-64" d="M 3359 331
L 3909 331
L 3909 0
L 2784 0
L 2784 519
Q 2616 206 2355 57
Q 2094 -91 1709 -91
Q 1097 -91 708 395
Q 319 881 319 1663
Q 319 2444 706 2928
Q 1094 3413 1709 3413
Q 2094 3413 2355 3264
Q 2616 3116 2784 2803
L 2784 4531
L 2241 4531
L 2241 4863
L 3359 4863
L 3359 331
z
M 2784 1497
L 2784 1825
Q 2784 2422 2554 2737
Q 2325 3053 1888 3053
Q 1444 3053 1217 2703
Q 991 2353 991 1663
Q 991 975 1217 622
Q 1444 269 1888 269
Q 2325 269 2554 583
Q 2784 897 2784 1497
z
" transform="scale(0.015625)"/>
       <path id="DejaVuSerif-61" d="M 2547 1044
L 2547 1747
L 1806 1747
Q 1378 1747 1168 1562
Q 959 1378 959 997
Q 959 650 1171 447
Q 1384 244 1747 244
Q 2106 244 2326 466
Q 2547 688 2547 1044
z
M 3122 2075
L 3122 331
L 3634 331
L 3634 0
L 2547 0
L 2547 359
Q 2356 128 2106 18
Q 1856 -91 1522 -91
Q 969 -91 644 203
Q 319 497 319 997
Q 319 1513 691 1797
Q 1063 2081 1741 2081
L 2547 2081
L 2547 2309
Q 2547 2688 2317 2895
Q 2088 3103 1672 3103
Q 1328 3103 1125 2947
Q 922 2791 872 2484
L 575 2484
L 575 3156
Q 875 3284 1158 3348
Q 1441 3413 1709 3413
Q 2400 3413 2761 3070
Q 3122 2728 3122 2075
z
" transform="scale(0.015625)"/>
       <path id="DejaVuSerif-6e" d="M 263 0
L 263 331
L 781 331
L 781 2988
L 231 2988
L 231 3322
L 1356 3322
L 1356 2731
Q 1516 3069 1770 3241
Q 2025 3413 2363 3413
Q 2913 3413 3172 3097
Q 3431 2781 3431 2113
L 3431 331
L 3944 331
L 3944 0
L 2356 0
L 2356 331
L 2853 331
L 2853 1931
Q 2853 2541 2703 2767
Q 2553 2994 2175 2994
Q 1775 2994 1565 2701
Q 1356 2409 1356 1850
L 1356 331
L 1856 331
L 1856 0
L 263 0
z
" transform="scale(0.015625)"/>
       <path id="DejaVuSerif-6c" d="M 1313 331
L 1856 331
L 1856 0
L 184 0
L 184 331
L 738 331
L 738 4531
L 184 4531
L 184 4863
L 1313 4863
L 1313 331
z
" transform="scale(0.015625)"/>
       <path id="DejaVuSerif-70" d="M 1313 1825
L 1313 1497
Q 1313 897 1542 583
Q 1772 269 2209 269
Q 2650 269 2876 622
Q 3103 975 3103 1663
Q 3103 2353 2876 2703
Q 2650 3053 2209 3053
Q 1772 3053 1542 2737
Q 1313 2422 1313 1825
z
M 738 2988
L 184 2988
L 184 3322
L 1313 3322
L 1313 2803
Q 1481 3116 1742 3264
Q 2003 3413 2388 3413
Q 3000 3413 3387 2928
Q 3775 2444 3775 1663
Q 3775 881 3387 395
Q 3000 -91 2388 -91
Q 2003 -91 1742 57
Q 1481 206 1313 519
L 1313 -997
L 1856 -997
L 1856 -1331
L 184 -1331
L 184 -997
L 738 -997
L 738 2988
z
" transform="scale(0.015625)"/>
       <path id="DejaVuSerif-2f" d="M 1656 4666
L 2156 4666
L 500 -594
L 0 -594
L 1656 4666
z
" transform="scale(0.015625)"/>
      </defs>
      <use xlink:href="#DejaVuSerif-6d"/>
      <use xlink:href="#DejaVuSerif-65" transform="translate(94.824219 0)"/>
      <use xlink:href="#DejaVuSerif-64" transform="translate(154.003906 0)"/>
      <use xlink:href="#DejaVuSerif-69" transform="translate(218.017578 0)"/>
      <use xlink:href="#DejaVuSerif-61" transform="translate(250 0)"/>
      <use xlink:href="#DejaVuSerif-6e" transform="translate(309.619141 0)"/>
      <use xlink:href="#DejaVuSerif-20" transform="translate(374.023438 0)"/>
      <use xlink:href="#DejaVuSerif-65" transform="translate(405.810547 0)"/>
      <use xlink:href="#DejaVuSerif-6c" transform="translate(464.990234 0)"/>
      <use xlink:href="#DejaVuSerif-61" transform="translate(496.972656 0)"/>
      <use xlink:href="#DejaVuSerif-70" transform="translate(556.591797 0)"/>
      <use xlink:href="#DejaVuSerif-73" transform="translate(620.605469 0)"/>
      <use xlink:href="#DejaVuSerif-65" transform="translate(671.923828 0)"/>
      <use xlink:href="#DejaVuSerif-64" transform="translate(731.103516 0)"/>
      <use xlink:href="#DejaVuSerif-20" transform="translate(795.117188 0)"/>
      <use xlink:href="#DejaVuSerif-74" transform="translate(826.904297 0)"/>
      <use xlink:href="#DejaVuSerif-69" transform="translate(867.089844 0)"/>
      <use xlink:href="#DejaVuSerif-6d" transform="translate(899.072266 0)"/>
      <use xlink:href="#DejaVuSerif-65" transform="translate(993.896484 0)"/>
      <use xlink:href="#DejaVuSerif-20" transform="translate(1053.076172 0)"/>
      <use xlink:href="#DejaVuSerif-2f" transform="translate(1084.863281 0)"/>
      <use xlink:href="#DejaVuSerif-20" transform="translate(1118.554688 0)"/>
      <use xlink:href="#DejaVuSerif-73" transform="translate(1150.341797 0)"/>
     </g>
    </g>
   </g>
   <g id="line2d_25">
    <path d="M 79.259112 89.236686
L 250.593917 119.444028
L 421.928723 40.856818
L 593.263529 69.067344
" clip-path="url(#pc0bc27fdee)" style="fill: none; stroke: #2b6f9f; stroke-width: 1.9; stroke-linecap: square"/>
    <defs>
     <path id="m255d5124d7" d="M 0 3
C 0.795609 3 1.55874 2.683901 2.12132 2.12132
C 2.683901 1.55874 3 0.795609 3 0
C 3 -0.795609 2.683901 -1.55874 2.12132 -2.12132
C 1.55874 -2.683901 0.795609 -3 0 -3
C -0.795609 -3 -1.55874 -2.683901 -2.12132 -2.12132
C -2.683901 -1.55874 -3 -0.795609 -3 0
C -3 0.795609 -2.683901 1.55874 -2.12132 2.12132
C -1.55874 2.683901 -0.795609 3 0 3
z
" style="stroke: #2b6f9f"/>
    </defs>
    <g clip-path="url(#pc0bc27fdee)">
     <use xlink:href="#m255d5124d7" x="79.259112" y="89.236686" style="fill: #2b6f9f; stroke: #2b6f9f"/>
     <use xlink:href="#m255d5124d7" x="250.593917" y="119.444028" style="fill: #2b6f9f; stroke: #2b6f9f"/>
     <use xlink:href="#m255d5124d7" x="421.928723" y="40.856818" style="fill: #2b6f9f; stroke: #2b6f9f"/>
     <use xlink:href="#m255d5124d7" x="593.263529" y="69.067344" style="fill: #2b6f9f; stroke: #2b6f9f"/>
    </g>
   </g>
   <g id="line2d_26">
    <path d="M 79.259112 290.019556
L 250.593917 305.993182
L 421.928723 304.272476
L 593.263529 244.951053
" clip-path="url(#pc0bc27fdee)" style="fill: none; stroke: #b65f22; stroke-width: 1.9; stroke-linecap: square"/>
    <defs>
     <path id="m20edfbd568" d="M -3 3
L 3 3
L 3 -3
L -3 -3
z
" style="stroke: #b65f22; stroke-linejoin: miter"/>
    </defs>
    <g clip-path="url(#pc0bc27fdee)">
     <use xlink:href="#m20edfbd568" x="79.259112" y="290.019556" style="fill: #b65f22; stroke: #b65f22; stroke-linejoin: miter"/>
     <use xlink:href="#m20edfbd568" x="250.593917" y="305.993182" style="fill: #b65f22; stroke: #b65f22; stroke-linejoin: miter"/>
     <use xlink:href="#m20edfbd568" x="421.928723" y="304.272476" style="fill: #b65f22; stroke: #b65f22; stroke-linejoin: miter"/>
     <use xlink:href="#m20edfbd568" x="593.263529" y="244.951053" style="fill: #b65f22; stroke: #b65f22; stroke-linejoin: miter"/>
    </g>
   </g>
   <g id="patch_3">
    <path d="M 53.558891 319.25
L 53.558891 27.6
" style="fill: none; stroke: #000000; stroke-width: 0.8; stroke-linejoin: miter; stroke-linecap: square"/>
   </g>
   <g id="patch_4">
    <path d="M 53.558891 319.25
L 618.96375 319.25
" style="fill: none; stroke: #000000; stroke-width: 0.8; stroke-linejoin: miter; stroke-linecap: square"/>
   </g>
   <g id="text_8">
    <!-- 6.7x -->
    <g transform="translate(70.642237 304.019556) scale(0.08 -0.08)">
     <defs>
      <path id="DejaVuSerif-36" d="M 2094 219
Q 2534 219 2771 542
Q 3009 866 3009 1472
Q 3009 2078 2771 2401
Q 2534 2725 2094 2725
Q 1647 2725 1412 2412
Q 1178 2100 1178 1509
Q 1178 888 1415 553
Q 1653 219 2094 219
z
M 1075 2569
Q 1288 2803 1556 2918
Q 1825 3034 2163 3034
Q 2859 3034 3264 2615
Q 3669 2197 3669 1472
Q 3669 763 3233 336
Q 2797 -91 2069 -91
Q 1278 -91 853 498
Q 428 1088 428 2181
Q 428 3406 931 4078
Q 1434 4750 2350 4750
Q 2597 4750 2869 4703
Q 3141 4656 3425 4563
L 3425 3794
L 3072 3794
Q 3034 4109 2831 4275
Q 2628 4441 2284 4441
Q 1678 4441 1381 3981
Q 1084 3522 1075 2569
z
" transform="scale(0.015625)"/>
      <path id="DejaVuSerif-2e" d="M 603 325
Q 603 500 722 622
Q 841 744 1019 744
Q 1191 744 1312 622
Q 1434 500 1434 325
Q 1434 153 1312 31
Q 1191 -91 1019 -91
Q 841 -91 722 29
Q 603 150 603 325
z
" transform="scale(0.015625)"/>
      <path id="DejaVuSerif-37" d="M 3609 4347
L 1784 0
L 1319 0
L 3059 4153
L 903 4153
L 903 3578
L 538 3578
L 538 4666
L 3609 4666
L 3609 4347
z
" transform="scale(0.015625)"/>
      <path id="DejaVuSerif-78" d="M 1863 2028
L 2559 2988
L 2113 2988
L 2113 3322
L 3391 3322
L 3391 2988
L 2950 2988
L 2059 1759
L 3097 331
L 3531 331
L 3531 0
L 1997 0
L 1997 331
L 2419 331
L 1697 1325
L 972 331
L 1403 331
L 1403 0
L 141 0
L 141 331
L 581 331
L 1497 1594
L 488 2988
L 78 2988
L 78 3322
L 1563 3322
L 1563 2988
L 1166 2988
L 1863 2028
z
" transform="scale(0.015625)"/>
     </defs>
     <use xlink:href="#DejaVuSerif-36"/>
     <use xlink:href="#DejaVuSerif-2e" transform="translate(63.623047 0)"/>
     <use xlink:href="#DejaVuSerif-37" transform="translate(95.410156 0)"/>
     <use xlink:href="#DejaVuSerif-78" transform="translate(159.033203 0)"/>
    </g>
   </g>
   <g id="text_9">
    <!-- 5.9x -->
    <g transform="translate(241.977042 319.993182) scale(0.08 -0.08)">
     <defs>
      <path id="DejaVuSerif-35" d="M 3219 4666
L 3219 4153
L 1081 4153
L 1081 2816
Q 1244 2928 1461 2984
Q 1678 3041 1947 3041
Q 2703 3041 3140 2622
Q 3578 2203 3578 1478
Q 3578 738 3136 323
Q 2694 -91 1894 -91
Q 1572 -91 1234 -12
Q 897 66 544 225
L 544 1131
L 897 1131
Q 925 688 1179 453
Q 1434 219 1894 219
Q 2388 219 2653 544
Q 2919 869 2919 1478
Q 2919 2084 2655 2407
Q 2391 2731 1894 2731
Q 1613 2731 1398 2631
Q 1184 2531 1019 2322
L 750 2322
L 750 4666
L 3219 4666
z
" transform="scale(0.015625)"/>
      <path id="DejaVuSerif-39" d="M 2994 2091
Q 2784 1856 2512 1740
Q 2241 1625 1900 1625
Q 1206 1625 804 2044
Q 403 2463 403 3188
Q 403 3897 839 4323
Q 1275 4750 2003 4750
Q 2794 4750 3217 4161
Q 3641 3572 3641 2478
Q 3641 1253 3137 581
Q 2634 -91 1722 -91
Q 1475 -91 1203 -44
Q 931 3 647 97
L 647 872
L 997 872
Q 1038 556 1241 387
Q 1444 219 1784 219
Q 2391 219 2687 676
Q 2984 1134 2994 2091
z
M 1978 4441
Q 1534 4441 1298 4117
Q 1063 3794 1063 3188
Q 1063 2581 1298 2256
Q 1534 1931 1978 1931
Q 2422 1931 2658 2245
Q 2894 2559 2894 3150
Q 2894 3772 2656 4106
Q 2419 4441 1978 4441
z
" transform="scale(0.015625)"/>
     </defs>
     <use xlink:href="#DejaVuSerif-35"/>
     <use xlink:href="#DejaVuSerif-2e" transform="translate(63.623047 0)"/>
     <use xlink:href="#DejaVuSerif-39" transform="translate(95.410156 0)"/>
     <use xlink:href="#DejaVuSerif-78" transform="translate(159.033203 0)"/>
    </g>
   </g>
   <g id="text_10">
    <!-- 12.1x -->
    <g transform="translate(410.766848 318.272476) scale(0.08 -0.08)">
     <use xlink:href="#DejaVuSerif-31"/>
     <use xlink:href="#DejaVuSerif-32" transform="translate(63.623047 0)"/>
     <use xlink:href="#DejaVuSerif-2e" transform="translate(127.246094 0)"/>
     <use xlink:href="#DejaVuSerif-31" transform="translate(159.033203 0)"/>
     <use xlink:href="#DejaVuSerif-78" transform="translate(222.65625 0)"/>
    </g>
   </g>
   <g id="text_11">
    <!-- 5.3x -->
    <g transform="translate(584.646654 258.951053) scale(0.08 -0.08)">
     <use xlink:href="#DejaVuSerif-35"/>
     <use xlink:href="#DejaVuSerif-2e" transform="translate(63.623047 0)"/>
     <use xlink:href="#DejaVuSerif-33" transform="translate(95.410156 0)"/>
     <use xlink:href="#DejaVuSerif-78" transform="translate(159.033203 0)"/>
    </g>
   </g>
   <g id="text_12">
    <!-- Exact implicit vs Picard timing by topology -->
    <g transform="translate(183.758664 21.6) scale(0.14 -0.14)">
     <defs>
      <path id="DejaVuSerif-45" d="M 353 0
L 353 331
L 947 331
L 947 4331
L 353 4331
L 353 4666
L 4109 4666
L 4109 3628
L 3725 3628
L 3725 4281
L 1581 4281
L 1581 2719
L 3109 2719
L 3109 3303
L 3494 3303
L 3494 1753
L 3109 1753
L 3109 2338
L 1581 2338
L 1581 384
L 3775 384
L 3775 1038
L 4159 1038
L 4159 0
L 353 0
z
" transform="scale(0.015625)"/>
      <path id="DejaVuSerif-63" d="M 3291 997
Q 3169 466 2822 187
Q 2475 -91 1925 -91
Q 1200 -91 759 389
Q 319 869 319 1663
Q 319 2459 759 2936
Q 1200 3413 1925 3413
Q 2241 3413 2553 3339
Q 2866 3266 3181 3116
L 3181 2266
L 2847 2266
Q 2781 2703 2561 2903
Q 2341 3103 1931 3103
Q 1466 3103 1228 2742
Q 991 2381 991 1663
Q 991 944 1227 581
Q 1463 219 1931 219
Q 2303 219 2525 412
Q 2747 606 2828 997
L 3291 997
z
" transform="scale(0.015625)"/>
      <path id="DejaVuSerif-76" d="M 1581 0
L 359 2988
L -19 2988
L -19 3322
L 1509 3322
L 1509 2988
L 978 2988
L 1913 703
L 2847 2988
L 2350 2988
L 2350 3322
L 3597 3322
L 3597 2988
L 3225 2988
L 2003 0
L 1581 0
z
" transform="scale(0.015625)"/>
      <path id="DejaVuSerif-50" d="M 1581 2375
L 2406 2375
Q 2872 2375 3115 2626
Q 3359 2878 3359 3353
Q 3359 3831 3115 4081
Q 2872 4331 2406 4331
L 1581 4331
L 1581 2375
z
M 353 0
L 353 331
L 947 331
L 947 4331
L 353 4331
L 353 4666
L 2559 4666
Q 3259 4666 3668 4311
Q 4078 3956 4078 3353
Q 4078 2753 3668 2397
Q 3259 2041 2559 2041
L 1581 2041
L 1581 331
L 2303 331
L 2303 0
L 353 0
z
" transform="scale(0.015625)"/>
      <path id="DejaVuSerif-72" d="M 3059 3328
L 3059 2497
L 2728 2497
Q 2713 2744 2591 2866
Q 2469 2988 2234 2988
Q 1809 2988 1582 2694
Q 1356 2400 1356 1850
L 1356 331
L 2022 331
L 2022 0
L 263 0
L 263 331
L 781 331
L 781 2994
L 231 2994
L 231 3322
L 1356 3322
L 1356 2731
Q 1525 3078 1790 3245
Q 2056 3413 2438 3413
Q 2578 3413 2733 3391
Q 2888 3369 3059 3328
z
" transform="scale(0.015625)"/>
      <path id="DejaVuSerif-67" d="M 3359 2988
L 3359 72
Q 3359 -644 2965 -1033
Q 2572 -1422 1844 -1422
Q 1516 -1422 1216 -1362
Q 916 -1303 641 -1184
L 641 -488
L 941 -488
Q 997 -813 1206 -963
Q 1416 -1113 1806 -1113
Q 2313 -1113 2548 -827
Q 2784 -541 2784 72
L 2784 519
Q 2616 206 2355 57
Q 2094 -91 1709 -91
Q 1097 -91 708 395
Q 319 881 319 1663
Q 319 2444 706 2928
Q 1094 3413 1709 3413
Q 2094 3413 2355 3264
Q 2616 3116 2784 2803
L 2784 3322
L 3909 3322
L 3909 2988
L 3359 2988
z
M 2784 1825
Q 2784 2422 2554 2737
Q 2325 3053 1888 3053
Q 1444 3053 1217 2703
Q 991 2353 991 1663
Q 991 975 1217 622
Q 1444 269 1888 269
Q 2325 269 2554 583
Q 2784 897 2784 1497
L 2784 1825
z
" transform="scale(0.015625)"/>
      <path id="DejaVuSerif-62" d="M 738 331
L 738 4531
L 184 4531
L 184 4863
L 1313 4863
L 1313 2803
Q 1481 3116 1742 3264
Q 2003 3413 2388 3413
Q 3000 3413 3387 2928
Q 3775 2444 3775 1663
Q 3775 881 3387 395
Q 3000 -91 2388 -91
Q 2003 -91 1742 57
Q 1481 206 1313 519
L 1313 0
L 184 0
L 184 331
L 738 331
z
M 1313 1497
Q 1313 897 1542 583
Q 1772 269 2209 269
Q 2650 269 2876 622
Q 3103 975 3103 1663
Q 3103 2353 2876 2703
Q 2650 3053 2209 3053
Q 1772 3053 1542 2737
Q 1313 2422 1313 1825
L 1313 1497
z
" transform="scale(0.015625)"/>
      <path id="DejaVuSerif-79" d="M 1381 -609
L 1600 -56
L 359 2988
L -19 2988
L -19 3322
L 1509 3322
L 1509 2988
L 978 2988
L 1913 703
L 2847 2988
L 2350 2988
L 2350 3322
L 3597 3322
L 3597 2988
L 3225 2988
L 1703 -750
Q 1547 -1138 1356 -1280
Q 1166 -1422 819 -1422
Q 672 -1422 517 -1397
Q 363 -1372 206 -1325
L 206 -691
L 500 -691
Q 519 -903 608 -995
Q 697 -1088 884 -1088
Q 1056 -1088 1161 -992
Q 1266 -897 1381 -609
z
" transform="scale(0.015625)"/>
      <path id="DejaVuSerif-6f" d="M 1925 219
Q 2388 219 2623 584
Q 2859 950 2859 1663
Q 2859 2375 2623 2739
Q 2388 3103 1925 3103
Q 1463 3103 1227 2739
Q 991 2375 991 1663
Q 991 950 1228 584
Q 1466 219 1925 219
z
M 1925 -91
Q 1200 -91 759 389
Q 319 869 319 1663
Q 319 2456 758 2934
Q 1197 3413 1925 3413
Q 2653 3413 3092 2934
Q 3531 2456 3531 1663
Q 3531 869 3092 389
Q 2653 -91 1925 -91
z
" transform="scale(0.015625)"/>
     </defs>
     <use xlink:href="#DejaVuSerif-45"/>
     <use xlink:href="#DejaVuSerif-78" transform="translate(72.998047 0)"/>
     <use xlink:href="#DejaVuSerif-61" transform="translate(129.394531 0)"/>
     <use xlink:href="#DejaVuSerif-63" transform="translate(189.013672 0)"/>
     <use xlink:href="#DejaVuSerif-74" transform="translate(245.019531 0)"/>
     <use xlink:href="#DejaVuSerif-20" transform="translate(285.205078 0)"/>
     <use xlink:href="#DejaVuSerif-69" transform="translate(316.992188 0)"/>
     <use xlink:href="#DejaVuSerif-6d" transform="translate(348.974609 0)"/>
     <use xlink:href="#DejaVuSerif-70" transform="translate(443.798828 0)"/>
     <use xlink:href="#DejaVuSerif-6c" transform="translate(507.8125 0)"/>
     <use xlink:href="#DejaVuSerif-69" transform="translate(539.794922 0)"/>
     <use xlink:href="#DejaVuSerif-63" transform="translate(571.777344 0)"/>
     <use xlink:href="#DejaVuSerif-69" transform="translate(627.783203 0)"/>
     <use xlink:href="#DejaVuSerif-74" transform="translate(659.765625 0)"/>
     <use xlink:href="#DejaVuSerif-20" transform="translate(699.951172 0)"/>
     <use xlink:href="#DejaVuSerif-76" transform="translate(731.738281 0)"/>
     <use xlink:href="#DejaVuSerif-73" transform="translate(788.232422 0)"/>
     <use xlink:href="#DejaVuSerif-20" transform="translate(839.550781 0)"/>
     <use xlink:href="#DejaVuSerif-50" transform="translate(871.337891 0)"/>
     <use xlink:href="#DejaVuSerif-69" transform="translate(938.623047 0)"/>
     <use xlink:href="#DejaVuSerif-63" transform="translate(970.605469 0)"/>
     <use xlink:href="#DejaVuSerif-61" transform="translate(1026.611328 0)"/>
     <use xlink:href="#DejaVuSerif-72" transform="translate(1086.230469 0)"/>
     <use xlink:href="#DejaVuSerif-64" transform="translate(1134.033203 0)"/>
     <use xlink:href="#DejaVuSerif-20" transform="translate(1198.046875 0)"/>
     <use xlink:href="#DejaVuSerif-74" transform="translate(1229.833984 0)"/>
     <use xlink:href="#DejaVuSerif-69" transform="translate(1270.019531 0)"/>
     <use xlink:href="#DejaVuSerif-6d" transform="translate(1302.001953 0)"/>
     <use xlink:href="#DejaVuSerif-69" transform="translate(1396.826172 0)"/>
     <use xlink:href="#DejaVuSerif-6e" transform="translate(1428.808594 0)"/>
     <use xlink:href="#DejaVuSerif-67" transform="translate(1493.212891 0)"/>
     <use xlink:href="#DejaVuSerif-20" transform="translate(1557.226562 0)"/>
     <use xlink:href="#DejaVuSerif-62" transform="translate(1589.013672 0)"/>
     <use xlink:href="#DejaVuSerif-79" transform="translate(1653.027344 0)"/>
     <use xlink:href="#DejaVuSerif-20" transform="translate(1709.521484 0)"/>
     <use xlink:href="#DejaVuSerif-74" transform="translate(1741.308594 0)"/>
     <use xlink:href="#DejaVuSerif-6f" transform="translate(1781.494141 0)"/>
     <use xlink:href="#DejaVuSerif-70" transform="translate(1841.699219 0)"/>
     <use xlink:href="#DejaVuSerif-6f" transform="translate(1905.712891 0)"/>
     <use xlink:href="#DejaVuSerif-6c" transform="translate(1965.917969 0)"/>
     <use xlink:href="#DejaVuSerif-6f" transform="translate(1997.900391 0)"/>
     <use xlink:href="#DejaVuSerif-67" transform="translate(2058.105469 0)"/>
     <use xlink:href="#DejaVuSerif-79" transform="translate(2122.119141 0)"/>
    </g>
   </g>
   <g id="legend_1">
    <g id="patch_5">
     <path d="M 59.858891 61.220625
L 151.654672 61.220625
Q 153.454672 61.220625 153.454672 59.420625
L 153.454672 33.9
Q 153.454672 32.1 151.654672 32.1
L 59.858891 32.1
Q 58.058891 32.1 58.058891 33.9
L 58.058891 59.420625
Q 58.058891 61.220625 59.858891 61.220625
z
" style="fill: #ffffff; opacity: 0.8; stroke: #cccccc; stroke-linejoin: miter"/>
    </g>
    <g id="line2d_27">
     <path d="M 61.658891 39.388594
L 70.658891 39.388594
L 79.658891 39.388594
" style="fill: none; stroke: #2b6f9f; stroke-width: 1.9; stroke-linecap: square"/>
     <g>
      <use xlink:href="#m255d5124d7" x="70.658891" y="39.388594" style="fill: #2b6f9f; stroke: #2b6f9f"/>
     </g>
    </g>
    <g id="text_13">
     <!-- Exact implicit -->
     <g transform="translate(86.858891 42.538594) scale(0.09 -0.09)">
      <use xlink:href="#DejaVuSerif-45"/>
      <use xlink:href="#DejaVuSerif-78" transform="translate(72.998047 0)"/>
      <use xlink:href="#DejaVuSerif-61" transform="translate(129.394531 0)"/>
      <use xlink:href="#DejaVuSerif-63" transform="translate(189.013672 0)"/>
      <use xlink:href="#DejaVuSerif-74" transform="translate(245.019531 0)"/>
      <use xlink:href="#DejaVuSerif-20" transform="translate(285.205078 0)"/>
      <use xlink:href="#DejaVuSerif-69" transform="translate(316.992188 0)"/>
      <use xlink:href="#DejaVuSerif-6d" transform="translate(348.974609 0)"/>
      <use xlink:href="#DejaVuSerif-70" transform="translate(443.798828 0)"/>
      <use xlink:href="#DejaVuSerif-6c" transform="translate(507.8125 0)"/>
      <use xlink:href="#DejaVuSerif-69" transform="translate(539.794922 0)"/>
      <use xlink:href="#DejaVuSerif-63" transform="translate(571.777344 0)"/>
      <use xlink:href="#DejaVuSerif-69" transform="translate(627.783203 0)"/>
      <use xlink:href="#DejaVuSerif-74" transform="translate(659.765625 0)"/>
     </g>
    </g>
    <g id="line2d_28">
     <path d="M 61.658891 52.598906
L 70.658891 52.598906
L 79.658891 52.598906
" style="fill: none; stroke: #b65f22; stroke-width: 1.9; stroke-linecap: square"/>
     <g>
      <use xlink:href="#m20edfbd568" x="70.658891" y="52.598906" style="fill: #b65f22; stroke: #b65f22; stroke-linejoin: miter"/>
     </g>
    </g>
    <g id="text_14">
     <!-- Picard -->
     <g transform="translate(86.858891 55.748906) scale(0.09 -0.09)">
      <use xlink:href="#DejaVuSerif-50"/>
      <use xlink:href="#DejaVuSerif-69" transform="translate(67.285156 0)"/>
      <use xlink:href="#DejaVuSerif-63" transform="translate(99.267578 0)"/>
      <use xlink:href="#DejaVuSerif-61" transform="translate(155.273438 0)"/>
      <use xlink:href="#DejaVuSerif-72" transform="translate(214.892578 0)"/>
      <use xlink:href="#DejaVuSerif-64" transform="translate(262.695312 0)"/>
     </g>
    </g>
   </g>
  </g>
 </g>
 <defs>
  <clipPath id="pc0bc27fdee">
   <rect x="53.558891" y="27.6" width="565.404859" height="291.65"/>
  </clipPath>
 </defs>
</svg>
