<?xml version="1.0" encoding="utf-8" standalone="no"?>
<!DOCTYPE svg PUBLIC "-//W3C//DTD SVG 1.1//EN"
  "http://www.w3.org/Graphics/SVG/1.1/DTD/svg11.dtd">
<svg xmlns:xlink="http://www.w3.org/1999/xlink" width="705.6pt" height="446.4pt" viewBox="0 0 705.6 446.4" xmlns="http://www.w3.org/2000/svg" version="1.1">
 <metadata>
  <rdf:RDF xmlns:dc="http://purl.org/dc/elements/1.1/" xmlns:cc="http://creativecommons.org/ns#" xmlns:rdf="http://www.w3.org/1999/02/22-rdf-syntax-ns#">
   <cc:Work>
    <dc:type rdf:resource="http://purl.org/dc/dcmitype/StillImage"/>
    <dc:date>2026-06-04T13:16:53.048741</dc:date>
    <dc:format>image/svg+xml</dc:format>
    <dc:creator>
     <cc:Agent>
      <dc:title>Matplotlib v3.10.9, https://matplotlib.org/</dc:title>
     </cc:Agent>
    </dc:creator>
   </cc:Work>
  </rdf:RDF>
 </metadata>
 <defs>
  <style type="text/css">*{stroke-linejoin: round; stroke-linecap: butt}</style>
 </defs>
 <g id="figure_1">
  <g id="patch_1">
   <path d="M 0 446.4 
L 705.6 446.4 
L 705.6 0 
L 0 0 
z
" style="fill: #ffffff"/>
  </g>
  <g id="axes_1">
   <g id="patch_2">
    <path d="M 49.756177 190.407761 
L 702.59976 190.407761 
L 702.59976 40.369001 
L 49.756177 40.369001 
z
" style="fill: #ffffff"/>
   </g>
   <g id="PathCollection_1">
    <defs>
     <path id="C0_0_6f81d68378" d="M 0 2.915476 
C 0.773193 2.915476 1.514823 2.608283 2.061553 2.061553 
C 2.608283 1.514823 2.915476 0.773193 2.915476 -0 
C 2.915476 -0.773193 2.608283 -1.514823 2.061553 -2.061553 
C 1.514823 -2.608283 0.773193 -2.915476 0 -2.915476 
C -0.773193 -2.915476 -1.514823 -2.608283 -2.061553 -2.061553 
C -2.608283 -1.514823 -2.915476 -0.773193 -2.915476 0 
C -2.915476 0.773193 -2.608283 1.514823 -2.061553 2.061553 
C -1.514823 2.608283 -0.773193 2.915476 0 2.915476 
z
"/>
    </defs>
    <g clip-path="url(#pbd692835d9)">
     <use xlink:href="#C0_0_6f81d68378" x="79.430886" y="183.587817" style="fill: #2b6f9f; stroke: #2b6f9f"/>
    </g>
    <g clip-path="url(#pbd692835d9)">
     <use xlink:href="#C0_0_6f81d68378" x="227.804427" y="183.587817" style="fill: #2b6f9f; stroke: #2b6f9f"/>
    </g>
    <g clip-path="url(#pbd692835d9)">
     <use xlink:href="#C0_0_6f81d68378" x="376.177969" y="111.393411" style="fill: #b65f22; stroke: #b65f22"/>
    </g>
    <g clip-path="url(#pbd692835d9)">
     <use xlink:href="#C0_0_6f81d68378" x="524.55151" y="120.636895" style="fill: #b65f22; stroke: #b65f22"/>
    </g>
    <g clip-path="url(#pbd692835d9)">
     <use xlink:href="#C0_0_6f81d68378" x="672.925052" y="118.637735" style="fill: #b65f22; stroke: #b65f22"/>
    </g>
   </g>
   <g id="matplotlib.axis_1">
    <g id="xtick_1">
     <g id="line2d_1">
      <defs>
       <path id="m78c05e541e" d="M 0 0 
L 0 3.5 
" style="stroke: #000000; stroke-width: 0.8"/>
      </defs>
      <g>
       <use xlink:href="#m78c05e541e" x="79.430886" y="190.407761" style="stroke: #000000; stroke-width: 0.8"/>
      </g>
     </g>
     <g id="text_1">
      <!-- $\partial a_{\mathrm{assoc}}/\partial \rho$ -->
      <g transform="translate(46.731552 215.483065) rotate(-20) scale(0.09 -0.09)">
       <defs>
        <path id="STIXGeneral-Regular-2202" d="M 1248 4000 
L 1184 4128 
Q 1427 4275 1811 4275 
Q 3014 4275 3014 2611 
Q 3014 2298 2963 1965 
Q 2912 1632 2777 1261 
Q 2643 890 2438 598 
Q 2234 307 1894 118 
Q 1555 -70 1126 -70 
Q 685 -70 470 224 
Q 256 518 256 966 
Q 256 1664 739 2224 
Q 1222 2784 1901 2784 
Q 2342 2784 2515 2477 
Q 2560 2726 2560 2925 
Q 2560 3418 2365 3750 
Q 2170 4083 1722 4083 
Q 1510 4083 1248 4000 
z
M 2349 2042 
Q 2349 2323 2230 2457 
Q 2112 2592 1958 2592 
Q 1491 2592 1132 2013 
Q 774 1434 774 749 
Q 774 122 1203 122 
Q 1549 122 1827 499 
Q 2106 877 2253 1414 
Q 2349 1766 2349 2042 
z
" transform="scale(0.015625)"/>
        <path id="STIXGeneral-Italic-61" d="M 2963 710 
L 3046 640 
Q 2688 205 2518 70 
Q 2349 -64 2157 -64 
Q 1901 -64 1901 198 
Q 1901 358 2048 934 
Q 1690 397 1389 163 
Q 1088 -70 749 -70 
Q 467 -70 288 125 
Q 109 320 109 672 
Q 109 1158 387 1664 
Q 666 2170 1094 2496 
Q 1523 2822 1939 2822 
Q 2368 2822 2451 2451 
L 2522 2758 
L 2541 2778 
L 2931 2822 
L 2976 2803 
Q 2970 2778 2938 2669 
Q 2368 595 2368 346 
Q 2368 262 2458 262 
Q 2554 262 2790 525 
L 2963 710 
z
M 2336 2310 
Q 2336 2477 2240 2579 
Q 2144 2682 1978 2682 
Q 1542 2682 1139 2093 
Q 928 1779 787 1395 
Q 646 1011 646 717 
Q 646 243 1030 243 
Q 1408 243 1843 870 
Q 2336 1581 2336 2310 
z
" transform="scale(0.015625)"/>
        <path id="STIXGeneral-Regular-61" d="M 2829 422 
L 2829 243 
Q 2586 -64 2253 -64 
Q 1888 -64 1843 403 
L 1837 403 
Q 1427 -64 909 -64 
Q 608 -64 422 112 
Q 237 288 237 602 
Q 237 1050 685 1350 
Q 992 1555 1837 1869 
L 1837 2214 
Q 1837 2502 1699 2646 
Q 1562 2790 1338 2790 
Q 1146 2790 1018 2697 
Q 890 2605 890 2477 
Q 890 2419 909 2348 
Q 928 2278 928 2208 
Q 928 2112 841 2029 
Q 755 1946 634 1946 
Q 525 1946 441 2029 
Q 358 2112 358 2240 
Q 358 2547 685 2752 
Q 986 2944 1421 2944 
Q 1939 2944 2176 2656 
Q 2291 2522 2323 2384 
Q 2355 2246 2355 1946 
L 2355 723 
Q 2355 301 2554 301 
Q 2682 301 2829 422 
z
M 1837 813 
L 1837 1715 
Q 1248 1510 1018 1293 
Q 800 1094 800 800 
Q 800 557 921 432 
Q 1043 307 1242 307 
Q 1453 307 1613 410 
Q 1747 506 1792 589 
Q 1837 672 1837 813 
z
" transform="scale(0.015625)"/>
        <path id="STIXGeneral-Regular-73" d="M 998 1926 
L 1664 1523 
Q 1984 1331 2105 1164 
Q 2227 998 2227 736 
Q 2227 416 1961 176 
Q 1696 -64 1331 -64 
Q 1030 -64 864 -6 
Q 691 51 570 51 
Q 461 51 416 -26 
L 333 -26 
L 333 979 
L 435 979 
Q 538 512 730 294 
Q 922 77 1248 77 
Q 1485 77 1632 211 
Q 1779 346 1779 550 
Q 1779 845 1440 1030 
L 1094 1222 
Q 326 1651 326 2150 
Q 326 2522 566 2730 
Q 806 2938 1210 2938 
Q 1491 2938 1638 2867 
Q 1754 2816 1818 2816 
Q 1862 2816 1920 2880 
L 1990 2880 
L 2022 2010 
L 1926 2010 
Q 1818 2445 1654 2621 
Q 1491 2797 1203 2797 
Q 986 2797 854 2688 
Q 723 2579 723 2362 
Q 723 2253 796 2128 
Q 870 2003 998 1926 
z
" transform="scale(0.015625)"/>
        <path id="STIXGeneral-Regular-6f" d="M 3008 1478 
Q 3008 806 2608 371 
Q 2208 -64 1568 -64 
Q 979 -64 582 368 
Q 186 800 186 1459 
Q 186 2125 582 2534 
Q 979 2944 1626 2944 
Q 2221 2944 2614 2537 
Q 3008 2131 3008 1478 
z
M 2432 1306 
Q 2432 2035 2112 2445 
Q 1856 2765 1504 2765 
Q 1171 2765 966 2493 
Q 762 2221 762 1747 
Q 762 928 1101 435 
Q 1318 115 1677 115 
Q 2029 115 2230 432 
Q 2432 749 2432 1306 
z
" transform="scale(0.015625)"/>
        <path id="STIXGeneral-Regular-63" d="M 2547 998 
L 2637 941 
Q 2362 403 2112 205 
Q 1786 -64 1376 -64 
Q 845 -64 502 336 
Q 160 736 160 1357 
Q 160 2170 698 2618 
Q 1094 2944 1562 2944 
Q 1965 2944 2256 2749 
Q 2547 2554 2547 2285 
Q 2547 2176 2457 2096 
Q 2368 2016 2246 2016 
Q 2022 2016 1939 2310 
L 1901 2451 
Q 1850 2630 1773 2694 
Q 1696 2758 1523 2758 
Q 1133 2758 893 2451 
Q 653 2144 653 1645 
Q 653 1094 928 745 
Q 1203 397 1645 397 
Q 1920 397 2118 528 
Q 2317 659 2547 998 
z
" transform="scale(0.015625)"/>
        <path id="STIXGeneral-Regular-2f" d="M 1837 4326 
L 378 -90 
L -58 -90 
L 1408 4326 
L 1837 4326 
z
" transform="scale(0.015625)"/>
        <path id="STIXGeneral-Italic-3c1" d="M -58 -864 
L 422 966 
Q 640 1811 1081 2316 
Q 1523 2822 2042 2822 
Q 2189 2822 2278 2816 
Q 2368 2810 2525 2765 
Q 2682 2720 2774 2633 
Q 2867 2547 2940 2371 
Q 3014 2195 3014 1946 
Q 3014 1210 2403 570 
Q 1792 -70 1107 -70 
Q 864 -70 672 38 
L 442 -864 
Q 378 -1126 243 -1312 
L -256 -1312 
Q -128 -1114 -58 -864 
z
M 2445 1997 
Q 2445 2291 2333 2489 
Q 2221 2688 2022 2688 
Q 1747 2688 1472 2361 
Q 1197 2035 1056 1530 
Q 762 467 762 288 
Q 762 186 851 118 
Q 941 51 1075 51 
Q 1472 58 1798 390 
Q 2125 723 2285 1161 
Q 2445 1600 2445 1997 
z
" transform="scale(0.015625)"/>
       </defs>
       <use xlink:href="#STIXGeneral-Regular-2202" transform="translate(0 0.40625)"/>
       <use xlink:href="#STIXGeneral-Italic-61" transform="translate(47.099991 0.40625)"/>
       <use xlink:href="#STIXGeneral-Regular-61" transform="translate(97.199982 -12.821875) scale(0.7)"/>
       <use xlink:href="#STIXGeneral-Regular-73" transform="translate(128.279977 -12.821875) scale(0.7)"/>
       <use xlink:href="#STIXGeneral-Regular-73" transform="translate(155.509973 -12.821875) scale(0.7)"/>
       <use xlink:href="#STIXGeneral-Regular-6f" transform="translate(182.739969 -12.821875) scale(0.7)"/>
       <use xlink:href="#STIXGeneral-Regular-63" transform="translate(217.739958 -12.821875) scale(0.7)"/>
       <use xlink:href="#STIXGeneral-Regular-2f" transform="translate(253.229329 0.40625)"/>
       <use xlink:href="#STIXGeneral-Regular-2202" transform="translate(281.029317 0.40625)"/>
       <use xlink:href="#STIXGeneral-Italic-3c1" transform="translate(328.129308 0.40625)"/>
      </g>
     </g>
    </g>
    <g id="xtick_2">
     <g id="line2d_2">
      <g>
       <use xlink:href="#m78c05e541e" x="227.804427" y="190.407761" style="stroke: #000000; stroke-width: 0.8"/>
      </g>
     </g>
     <g id="text_2">
      <!-- $\partial a_{\mathrm{assoc}}/\partial \Delta$ -->
      <g transform="translate(193.250755 216.177444) rotate(-20) scale(0.09 -0.09)">
       <defs>
        <path id="STIXGeneral-Regular-394" d="M 4320 0 
L 307 0 
L 2221 4314 
L 2349 4314 
L 4320 0 
z
M 3354 589 
L 2118 3405 
L 870 589 
L 3354 589 
z
" transform="scale(0.015625)"/>
       </defs>
       <use xlink:href="#STIXGeneral-Regular-2202" transform="translate(0 0.40625)"/>
       <use xlink:href="#STIXGeneral-Italic-61" transform="translate(47.099991 0.40625)"/>
       <use xlink:href="#STIXGeneral-Regular-61" transform="translate(97.199982 -12.821875) scale(0.7)"/>
       <use xlink:href="#STIXGeneral-Regular-73" transform="translate(128.279977 -12.821875) scale(0.7)"/>
       <use xlink:href="#STIXGeneral-Regular-73" transform="translate(155.509973 -12.821875) scale(0.7)"/>
       <use xlink:href="#STIXGeneral-Regular-6f" transform="translate(182.739969 -12.821875) scale(0.7)"/>
       <use xlink:href="#STIXGeneral-Regular-63" transform="translate(217.739958 -12.821875) scale(0.7)"/>
       <use xlink:href="#STIXGeneral-Regular-2f" transform="translate(253.229329 0.40625)"/>
       <use xlink:href="#STIXGeneral-Regular-2202" transform="translate(281.029317 0.40625)"/>
       <use xlink:href="#STIXGeneral-Regular-394" transform="translate(328.129308 0.40625)"/>
      </g>
     </g>
    </g>
    <g id="xtick_3">
     <g id="line2d_3">
      <g>
       <use xlink:href="#m78c05e541e" x="376.177969" y="190.407761" style="stroke: #000000; stroke-width: 0.8"/>
      </g>
     </g>
     <g id="text_3">
      <!-- $\partial^2 a_{\mathrm{assoc}}/\partial \rho^2$ -->
      <g transform="translate(336.120842 218.771589) rotate(-20) scale(0.09 -0.09)">
       <defs>
        <path id="STIXGeneral-Regular-32" d="M 3034 877 
L 2688 0 
L 186 0 
L 186 77 
L 1325 1286 
Q 1773 1754 1965 2144 
Q 2157 2534 2157 2950 
Q 2157 3379 1920 3616 
Q 1683 3853 1267 3853 
Q 922 3853 720 3673 
Q 518 3494 326 3021 
L 192 3053 
Q 301 3648 630 3987 
Q 960 4326 1523 4326 
Q 2054 4326 2380 4006 
Q 2707 3686 2707 3200 
Q 2707 2477 1888 1613 
L 832 486 
L 2330 486 
Q 2541 486 2665 569 
Q 2790 653 2944 915 
L 3034 877 
z
" transform="scale(0.015625)"/>
       </defs>
       <use xlink:href="#STIXGeneral-Regular-2202" transform="translate(0 0.409375)"/>
       <use xlink:href="#STIXGeneral-Regular-32" transform="translate(48.643272 35.684375) scale(0.7)"/>
       <use xlink:href="#STIXGeneral-Italic-61" transform="translate(88.052636 0.409375)"/>
       <use xlink:href="#STIXGeneral-Regular-61" transform="translate(138.152627 -12.81875) scale(0.7)"/>
       <use xlink:href="#STIXGeneral-Regular-73" transform="translate(169.232623 -12.81875) scale(0.7)"/>
       <use xlink:href="#STIXGeneral-Regular-73" transform="translate(196.462619 -12.81875) scale(0.7)"/>
       <use xlink:href="#STIXGeneral-Regular-6f" transform="translate(223.692614 -12.81875) scale(0.7)"/>
       <use xlink:href="#STIXGeneral-Regular-63" transform="translate(258.692604 -12.81875) scale(0.7)"/>
       <use xlink:href="#STIXGeneral-Regular-2f" transform="translate(294.181974 0.409375)"/>
       <use xlink:href="#STIXGeneral-Regular-2202" transform="translate(321.981962 0.409375)"/>
       <use xlink:href="#STIXGeneral-Italic-3c1" transform="translate(369.081953 0.409375)"/>
       <use xlink:href="#STIXGeneral-Regular-32" transform="translate(425.655072 35.684375) scale(0.7)"/>
      </g>
     </g>
    </g>
    <g id="xtick_4">
     <g id="line2d_4">
      <g>
       <use xlink:href="#m78c05e541e" x="524.55151" y="190.407761" style="stroke: #000000; stroke-width: 0.8"/>
      </g>
     </g>
     <g id="text_4">
      <!-- $\partial^2 a_{\mathrm{assoc}}/\partial \rho\,\partial\Delta$ -->
      <g transform="translate(477.305735 221.388043) rotate(-20) scale(0.09 -0.09)">
       <use xlink:href="#STIXGeneral-Regular-2202" transform="translate(0 0.409375)"/>
       <use xlink:href="#STIXGeneral-Regular-32" transform="translate(48.643272 35.684375) scale(0.7)"/>
       <use xlink:href="#STIXGeneral-Italic-61" transform="translate(88.052636 0.409375)"/>
       <use xlink:href="#STIXGeneral-Regular-61" transform="translate(138.152627 -12.81875) scale(0.7)"/>
       <use xlink:href="#STIXGeneral-Regular-73" transform="translate(169.232623 -12.81875) scale(0.7)"/>
       <use xlink:href="#STIXGeneral-Regular-73" transform="translate(196.462619 -12.81875) scale(0.7)"/>
       <use xlink:href="#STIXGeneral-Regular-6f" transform="translate(223.692614 -12.81875) scale(0.7)"/>
       <use xlink:href="#STIXGeneral-Regular-63" transform="translate(258.692604 -12.81875) scale(0.7)"/>
       <use xlink:href="#STIXGeneral-Regular-2f" transform="translate(294.181974 0.409375)"/>
       <use xlink:href="#STIXGeneral-Regular-2202" transform="translate(321.981962 0.409375)"/>
       <use xlink:href="#STIXGeneral-Italic-3c1" transform="translate(369.081953 0.409375)"/>
       <use xlink:href="#STIXGeneral-Regular-2202" transform="translate(431.515518 0.409375)"/>
       <use xlink:href="#STIXGeneral-Regular-394" transform="translate(478.615509 0.409375)"/>
      </g>
     </g>
    </g>
    <g id="xtick_5">
     <g id="line2d_5">
      <g>
       <use xlink:href="#m78c05e541e" x="672.925052" y="190.407761" style="stroke: #000000; stroke-width: 0.8"/>
      </g>
     </g>
     <g id="text_5">
      <!-- $\partial^2 a_{\mathrm{assoc}}/\partial \Delta^2$ -->
      <g transform="translate(631.436448 218.720053) rotate(-20) scale(0.09 -0.09)">
       <use xlink:href="#STIXGeneral-Regular-2202" transform="translate(0 0.409375)"/>
       <use xlink:href="#STIXGeneral-Regular-32" transform="translate(48.643272 35.684375) scale(0.7)"/>
       <use xlink:href="#STIXGeneral-Italic-61" transform="translate(88.052636 0.409375)"/>
       <use xlink:href="#STIXGeneral-Regular-61" transform="translate(138.152627 -12.81875) scale(0.7)"/>
       <use xlink:href="#STIXGeneral-Regular-73" transform="translate(169.232623 -12.81875) scale(0.7)"/>
       <use xlink:href="#STIXGeneral-Regular-73" transform="translate(196.462619 -12.81875) scale(0.7)"/>
       <use xlink:href="#STIXGeneral-Regular-6f" transform="translate(223.692614 -12.81875) scale(0.7)"/>
       <use xlink:href="#STIXGeneral-Regular-63" transform="translate(258.692604 -12.81875) scale(0.7)"/>
       <use xlink:href="#STIXGeneral-Regular-2f" transform="translate(294.181974 0.409375)"/>
       <use xlink:href="#STIXGeneral-Regular-2202" transform="translate(321.981962 0.409375)"/>
       <use xlink:href="#STIXGeneral-Regular-394" transform="translate(369.081953 0.409375)"/>
       <use xlink:href="#STIXGeneral-Regular-32" transform="translate(442.825216 35.684375) scale(0.7)"/>
      </g>
     </g>
    </g>
   </g>
   <g id="matplotlib.axis_2">
    <g id="ytick_1">
     <g id="line2d_6">
      <path d="M 49.756177 171.55721 
L 702.59976 171.55721 
" clip-path="url(#pbd692835d9)" style="fill: none; stroke: #d9dde3; stroke-width: 0.7; stroke-linecap: square"/>
     </g>
     <g id="line2d_7">
      <defs>
       <path id="m5621a28a5c" d="M 0 0 
L -3.5 0 
" style="stroke: #000000; stroke-width: 0.8"/>
      </defs>
      <g>
       <use xlink:href="#m5621a28a5c" x="49.756177" y="171.55721" style="stroke: #000000; stroke-width: 0.8"/>
      </g>
     </g>
     <g id="text_6">
      <!-- $\mathdefault{10^{-13}}$ -->
      <g transform="translate(17.646178 174.976507) scale(0.09 -0.09)">
       <defs>
        <path id="DejaVuSerif-31" d="M 909 0 
L 909 331 
L 1722 331 
L 1722 4213 
L 781 3603 
L 781 4013 
L 1919 4750 
L 2350 4750 
L 2350 331 
L 3163 331 
L 3163 0 
L 909 0 
z
" transform="scale(0.015625)"/>
        <path id="DejaVuSerif-30" d="M 2034 219 
Q 2513 219 2750 744 
Q 2988 1269 2988 2328 
Q 2988 3391 2750 3916 
Q 2513 4441 2034 4441 
Q 1556 4441 1318 3916 
Q 1081 3391 1081 2328 
Q 1081 1269 1318 744 
Q 1556 219 2034 219 
z
M 2034 -91 
Q 1275 -91 848 546 
Q 422 1184 422 2328 
Q 422 3475 848 4112 
Q 1275 4750 2034 4750 
Q 2797 4750 3222 4112 
Q 3647 3475 3647 2328 
Q 3647 1184 3222 546 
Q 2797 -91 2034 -91 
z
" transform="scale(0.015625)"/>
        <path id="DejaVuSerif-2212" d="M 678 2259 
L 4684 2259 
L 4684 1753 
L 678 1753 
L 678 2259 
z
" transform="scale(0.015625)"/>
        <path id="DejaVuSerif-33" d="M 622 4469 
Q 988 4606 1323 4678 
Q 1659 4750 1953 4750 
Q 2638 4750 3022 4454 
Q 3406 4159 3406 3634 
Q 3406 3213 3140 2930 
Q 2875 2647 2388 2547 
Q 2963 2466 3280 2130 
Q 3597 1794 3597 1259 
Q 3597 606 3158 257 
Q 2719 -91 1894 -91 
Q 1528 -91 1179 -12 
Q 831 66 488 225 
L 488 1131 
L 838 1131 
Q 869 681 1141 450 
Q 1413 219 1906 219 
Q 2384 219 2661 495 
Q 2938 772 2938 1253 
Q 2938 1803 2653 2086 
Q 2369 2369 1819 2369 
L 1522 2369 
L 1522 2688 
L 1678 2688 
Q 2225 2688 2498 2914 
Q 2772 3141 2772 3597 
Q 2772 4006 2547 4223 
Q 2322 4441 1900 4441 
Q 1478 4441 1245 4241 
Q 1013 4041 972 3647 
L 622 3647 
L 622 4469 
z
" transform="scale(0.015625)"/>
       </defs>
       <use xlink:href="#DejaVuSerif-31" transform="translate(0 0.7125)"/>
       <use xlink:href="#DejaVuSerif-30" transform="translate(63.623047 0.7125)"/>
       <use xlink:href="#DejaVuSerif-2212" transform="translate(128.154453 37.046875) scale(0.7)"/>
       <use xlink:href="#DejaVuSerif-31" transform="translate(186.806797 37.046875) scale(0.7)"/>
       <use xlink:href="#DejaVuSerif-33" transform="translate(231.34293 37.046875) scale(0.7)"/>
      </g>
     </g>
    </g>
    <g id="ytick_2">
     <g id="line2d_8">
      <path d="M 49.756177 147.495995 
L 702.59976 147.495995 
" clip-path="url(#pbd692835d9)" style="fill: none; stroke: #d9dde3; stroke-width: 0.7; stroke-linecap: square"/>
     </g>
     <g id="line2d_9">
      <g>
       <use xlink:href="#m5621a28a5c" x="49.756177" y="147.495995" style="stroke: #000000; stroke-width: 0.8"/>
      </g>
     </g>
     <g id="text_7">
      <!-- $\mathdefault{10^{-11}}$ -->
      <g transform="translate(17.646178 150.915292) scale(0.09 -0.09)">
       <use xlink:href="#DejaVuSerif-31" transform="translate(0 0.7125)"/>
       <use xlink:href="#DejaVuSerif-30" transform="translate(63.623047 0.7125)"/>
       <use xlink:href="#DejaVuSerif-2212" transform="translate(128.154453 37.046875) scale(0.7)"/>
       <use xlink:href="#DejaVuSerif-31" transform="translate(186.806797 37.046875) scale(0.7)"/>
       <use xlink:href="#DejaVuSerif-31" transform="translate(231.34293 37.046875) scale(0.7)"/>
      </g>
     </g>
    </g>
    <g id="ytick_3">
     <g id="line2d_10">
      <path d="M 49.756177 123.434781 
L 702.59976 123.434781 
" clip-path="url(#pbd692835d9)" style="fill: none; stroke: #d9dde3; stroke-width: 0.7; stroke-linecap: square"/>
     </g>
     <g id="line2d_11">
      <g>
       <use xlink:href="#m5621a28a5c" x="49.756177" y="123.434781" style="stroke: #000000; stroke-width: 0.8"/>
      </g>
     </g>
     <g id="text_8">
      <!-- $\mathdefault{10^{-9}}$ -->
      <g transform="translate(21.696178 126.854077) scale(0.09 -0.09)">
       <defs>
        <path id="DejaVuSerif-39" d="M 2994 2091 
Q 2784 1856 2512 1740 
Q 2241 1625 1900 1625 
Q 1206 1625 804 2044 
Q 403 2463 403 3188 
Q 403 3897 839 4323 
Q 1275 4750 2003 4750 
Q 2794 4750 3217 4161 
Q 3641 3572 3641 2478 
Q 3641 1253 3137 581 
Q 2634 -91 1722 -91 
Q 1475 -91 1203 -44 
Q 931 3 647 97 
L 647 872 
L 997 872 
Q 1038 556 1241 387 
Q 1444 219 1784 219 
Q 2391 219 2687 676 
Q 2984 1134 2994 2091 
z
M 1978 4441 
Q 1534 4441 1298 4117 
Q 1063 3794 1063 3188 
Q 1063 2581 1298 2256 
Q 1534 1931 1978 1931 
Q 2422 1931 2658 2245 
Q 2894 2559 2894 3150 
Q 2894 3772 2656 4106 
Q 2419 4441 1978 4441 
z
" transform="scale(0.015625)"/>
       </defs>
       <use xlink:href="#DejaVuSerif-31" transform="translate(0 0.7125)"/>
       <use xlink:href="#DejaVuSerif-30" transform="translate(63.623047 0.7125)"/>
       <use xlink:href="#DejaVuSerif-2212" transform="translate(128.154453 37.046875) scale(0.7)"/>
       <use xlink:href="#DejaVuSerif-39" transform="translate(186.806797 37.046875) scale(0.7)"/>
      </g>
     </g>
    </g>
    <g id="ytick_4">
     <g id="line2d_12">
      <path d="M 49.756177 99.373566 
L 702.59976 99.373566 
" clip-path="url(#pbd692835d9)" style="fill: none; stroke: #d9dde3; stroke-width: 0.7; stroke-linecap: square"/>
     </g>
     <g id="line2d_13">
      <g>
       <use xlink:href="#m5621a28a5c" x="49.756177" y="99.373566" style="stroke: #000000; stroke-width: 0.8"/>
      </g>
     </g>
     <g id="text_9">
      <!-- $\mathdefault{10^{-7}}$ -->
      <g transform="translate(21.696178 102.792863) scale(0.09 -0.09)">
       <defs>
        <path id="DejaVuSerif-37" d="M 3609 4347 
L 1784 0 
L 1319 0 
L 3059 4153 
L 903 4153 
L 903 3578 
L 538 3578 
L 538 4666 
L 3609 4666 
L 3609 4347 
z
" transform="scale(0.015625)"/>
       </defs>
       <use xlink:href="#DejaVuSerif-31" transform="translate(0 0.63125)"/>
       <use xlink:href="#DejaVuSerif-30" transform="translate(63.623047 0.63125)"/>
       <use xlink:href="#DejaVuSerif-2212" transform="translate(128.154453 36.965625) scale(0.7)"/>
       <use xlink:href="#DejaVuSerif-37" transform="translate(186.806797 36.965625) scale(0.7)"/>
      </g>
     </g>
    </g>
    <g id="ytick_5">
     <g id="line2d_14">
      <path d="M 49.756177 75.312351 
L 702.59976 75.312351 
" clip-path="url(#pbd692835d9)" style="fill: none; stroke: #d9dde3; stroke-width: 0.7; stroke-linecap: square"/>
     </g>
     <g id="line2d_15">
      <g>
       <use xlink:href="#m5621a28a5c" x="49.756177" y="75.312351" style="stroke: #000000; stroke-width: 0.8"/>
      </g>
     </g>
     <g id="text_10">
      <!-- $\mathdefault{10^{-5}}$ -->
      <g transform="translate(21.696178 78.731648) scale(0.09 -0.09)">
       <defs>
        <path id="DejaVuSerif-35" d="M 3219 4666 
L 3219 4153 
L 1081 4153 
L 1081 2816 
Q 1244 2928 1461 2984 
Q 1678 3041 1947 3041 
Q 2703 3041 3140 2622 
Q 3578 2203 3578 1478 
Q 3578 738 3136 323 
Q 2694 -91 1894 -91 
Q 1572 -91 1234 -12 
Q 897 66 544 225 
L 544 1131 
L 897 1131 
Q 925 688 1179 453 
Q 1434 219 1894 219 
Q 2388 219 2653 544 
Q 2919 869 2919 1478 
Q 2919 2084 2655 2407 
Q 2391 2731 1894 2731 
Q 1613 2731 1398 2631 
Q 1184 2531 1019 2322 
L 750 2322 
L 750 4666 
L 3219 4666 
z
" transform="scale(0.015625)"/>
       </defs>
       <use xlink:href="#DejaVuSerif-31" transform="translate(0 0.63125)"/>
       <use xlink:href="#DejaVuSerif-30" transform="translate(63.623047 0.63125)"/>
       <use xlink:href="#DejaVuSerif-2212" transform="translate(128.154453 36.965625) scale(0.7)"/>
       <use xlink:href="#DejaVuSerif-35" transform="translate(186.806797 36.965625) scale(0.7)"/>
      </g>
     </g>
    </g>
    <g id="ytick_6">
     <g id="line2d_16">
      <path d="M 49.756177 51.251137 
L 702.59976 51.251137 
" clip-path="url(#pbd692835d9)" style="fill: none; stroke: #d9dde3; stroke-width: 0.7; stroke-linecap: square"/>
     </g>
     <g id="line2d_17">
      <g>
       <use xlink:href="#m5621a28a5c" x="49.756177" y="51.251137" style="stroke: #000000; stroke-width: 0.8"/>
      </g>
     </g>
     <g id="text_11">
      <!-- $\mathdefault{10^{-3}}$ -->
      <g transform="translate(21.696178 54.670434) scale(0.09 -0.09)">
       <use xlink:href="#DejaVuSerif-31" transform="translate(0 0.7125)"/>
       <use xlink:href="#DejaVuSerif-30" transform="translate(63.623047 0.7125)"/>
       <use xlink:href="#DejaVuSerif-2212" transform="translate(128.154453 37.046875) scale(0.7)"/>
       <use xlink:href="#DejaVuSerif-33" transform="translate(186.806797 37.046875) scale(0.7)"/>
      </g>
     </g>
    </g>
    <g id="text_12">
     <!-- relative error -->
     <g transform="translate(11.358521 152.84424) rotate(-90) scale(0.11 -0.11)">
      <defs>
       <path id="DejaVuSerif-72" d="M 3059 3328 
L 3059 2497 
L 2728 2497 
Q 2713 2744 2591 2866 
Q 2469 2988 2234 2988 
Q 1809 2988 1582 2694 
Q 1356 2400 1356 1850 
L 1356 331 
L 2022 331 
L 2022 0 
L 263 0 
L 263 331 
L 781 331 
L 781 2994 
L 231 2994 
L 231 3322 
L 1356 3322 
L 1356 2731 
Q 1525 3078 1790 3245 
Q 2056 3413 2438 3413 
Q 2578 3413 2733 3391 
Q 2888 3369 3059 3328 
z
" transform="scale(0.015625)"/>
       <path id="DejaVuSerif-65" d="M 3469 1600 
L 991 1600 
L 991 1575 
Q 991 903 1244 561 
Q 1497 219 1991 219 
Q 2369 219 2611 417 
Q 2853 616 2950 1006 
L 3413 1006 
Q 3275 459 2904 184 
Q 2534 -91 1931 -91 
Q 1203 -91 761 389 
Q 319 869 319 1663 
Q 319 2450 753 2931 
Q 1188 3413 1894 3413 
Q 2647 3413 3050 2948 
Q 3453 2484 3469 1600 
z
M 2791 1931 
Q 2772 2513 2545 2808 
Q 2319 3103 1894 3103 
Q 1497 3103 1269 2806 
Q 1041 2509 991 1931 
L 2791 1931 
z
" transform="scale(0.015625)"/>
       <path id="DejaVuSerif-6c" d="M 1313 331 
L 1856 331 
L 1856 0 
L 184 0 
L 184 331 
L 738 331 
L 738 4531 
L 184 4531 
L 184 4863 
L 1313 4863 
L 1313 331 
z
" transform="scale(0.015625)"/>
       <path id="DejaVuSerif-61" d="M 2547 1044 
L 2547 1747 
L 1806 1747 
Q 1378 1747 1168 1562 
Q 959 1378 959 997 
Q 959 650 1171 447 
Q 1384 244 1747 244 
Q 2106 244 2326 466 
Q 2547 688 2547 1044 
z
M 3122 2075 
L 3122 331 
L 3634 331 
L 3634 0 
L 2547 0 
L 2547 359 
Q 2356 128 2106 18 
Q 1856 -91 1522 -91 
Q 969 -91 644 203 
Q 319 497 319 997 
Q 319 1513 691 1797 
Q 1063 2081 1741 2081 
L 2547 2081 
L 2547 2309 
Q 2547 2688 2317 2895 
Q 2088 3103 1672 3103 
Q 1328 3103 1125 2947 
Q 922 2791 872 2484 
L 575 2484 
L 575 3156 
Q 875 3284 1158 3348 
Q 1441 3413 1709 3413 
Q 2400 3413 2761 3070 
Q 3122 2728 3122 2075 
z
" transform="scale(0.015625)"/>
       <path id="DejaVuSerif-74" d="M 691 2988 
L 184 2988 
L 184 3322 
L 691 3322 
L 691 4353 
L 1269 4353 
L 1269 3322 
L 2350 3322 
L 2350 2988 
L 1269 2988 
L 1269 878 
Q 1269 456 1350 337 
Q 1431 219 1650 219 
Q 1875 219 1978 351 
Q 2081 484 2088 781 
L 2522 781 
Q 2497 328 2275 118 
Q 2053 -91 1600 -91 
Q 1103 -91 897 129 
Q 691 350 691 878 
L 691 2988 
z
" transform="scale(0.015625)"/>
       <path id="DejaVuSerif-69" d="M 622 4353 
Q 622 4497 726 4603 
Q 831 4709 978 4709 
Q 1122 4709 1226 4603 
Q 1331 4497 1331 4353 
Q 1331 4206 1228 4103 
Q 1125 4000 978 4000 
Q 831 4000 726 4103 
Q 622 4206 622 4353 
z
M 1356 331 
L 1900 331 
L 1900 0 
L 231 0 
L 231 331 
L 781 331 
L 781 2988 
L 231 2988 
L 231 3322 
L 1356 3322 
L 1356 331 
z
" transform="scale(0.015625)"/>
       <path id="DejaVuSerif-76" d="M 1581 0 
L 359 2988 
L -19 2988 
L -19 3322 
L 1509 3322 
L 1509 2988 
L 978 2988 
L 1913 703 
L 2847 2988 
L 2350 2988 
L 2350 3322 
L 3597 3322 
L 3597 2988 
L 3225 2988 
L 2003 0 
L 1581 0 
z
" transform="scale(0.015625)"/>
       <path id="DejaVuSerif-20" transform="scale(0.015625)"/>
       <path id="DejaVuSerif-6f" d="M 1925 219 
Q 2388 219 2623 584 
Q 2859 950 2859 1663 
Q 2859 2375 2623 2739 
Q 2388 3103 1925 3103 
Q 1463 3103 1227 2739 
Q 991 2375 991 1663 
Q 991 950 1228 584 
Q 1466 219 1925 219 
z
M 1925 -91 
Q 1200 -91 759 389 
Q 319 869 319 1663 
Q 319 2456 758 2934 
Q 1197 3413 1925 3413 
Q 2653 3413 3092 2934 
Q 3531 2456 3531 1663 
Q 3531 869 3092 389 
Q 2653 -91 1925 -91 
z
" transform="scale(0.015625)"/>
      </defs>
      <use xlink:href="#DejaVuSerif-72"/>
      <use xlink:href="#DejaVuSerif-65" transform="translate(47.802734 0)"/>
      <use xlink:href="#DejaVuSerif-6c" transform="translate(106.982422 0)"/>
      <use xlink:href="#DejaVuSerif-61" transform="translate(138.964844 0)"/>
      <use xlink:href="#DejaVuSerif-74" transform="translate(198.583984 0)"/>
      <use xlink:href="#DejaVuSerif-69" transform="translate(238.769531 0)"/>
      <use xlink:href="#DejaVuSerif-76" transform="translate(270.751953 0)"/>
      <use xlink:href="#DejaVuSerif-65" transform="translate(327.246094 0)"/>
      <use xlink:href="#DejaVuSerif-20" transform="translate(386.425781 0)"/>
      <use xlink:href="#DejaVuSerif-65" transform="translate(418.212891 0)"/>
      <use xlink:href="#DejaVuSerif-72" transform="translate(477.392578 0)"/>
      <use xlink:href="#DejaVuSerif-72" transform="translate(525.195312 0)"/>
      <use xlink:href="#DejaVuSerif-6f" transform="translate(572.998047 0)"/>
      <use xlink:href="#DejaVuSerif-72" transform="translate(633.203125 0)"/>
     </g>
    </g>
   </g>
   <g id="line2d_18">
    <path d="M 79.430886 183.587817 
L 227.804427 183.587817 
L 376.177969 111.393411 
L 524.55151 120.636895 
L 672.925052 118.637735 
" clip-path="url(#pbd692835d9)" style="fill: none; stroke-dasharray: 1.4,2.31; stroke-dashoffset: 0; stroke: #6b7280; stroke-width: 1.4"/>
   </g>
   <g id="patch_3">
    <path d="M 49.756177 190.407761 
L 49.756177 40.369001 
" style="fill: none; stroke: #000000; stroke-width: 0.8; stroke-linejoin: miter; stroke-linecap: square"/>
   </g>
   <g id="patch_4">
    <path d="M 49.756177 190.407761 
L 702.59976 190.407761 
" style="fill: none; stroke: #000000; stroke-width: 0.8; stroke-linejoin: miter; stroke-linecap: square"/>
   </g>
   <g id="text_13">
    <!-- pure 2B -->
    <g transform="translate(49.756177 34.369001) scale(0.14 -0.14)">
     <defs>
      <path id="DejaVuSerif-70" d="M 1313 1825 
L 1313 1497 
Q 1313 897 1542 583 
Q 1772 269 2209 269 
Q 2650 269 2876 622 
Q 3103 975 3103 1663 
Q 3103 2353 2876 2703 
Q 2650 3053 2209 3053 
Q 1772 3053 1542 2737 
Q 1313 2422 1313 1825 
z
M 738 2988 
L 184 2988 
L 184 3322 
L 1313 3322 
L 1313 2803 
Q 1481 3116 1742 3264 
Q 2003 3413 2388 3413 
Q 3000 3413 3387 2928 
Q 3775 2444 3775 1663 
Q 3775 881 3387 395 
Q 3000 -91 2388 -91 
Q 2003 -91 1742 57 
Q 1481 206 1313 519 
L 1313 -997 
L 1856 -997 
L 1856 -1331 
L 184 -1331 
L 184 -997 
L 738 -997 
L 738 2988 
z
" transform="scale(0.015625)"/>
      <path id="DejaVuSerif-75" d="M 2266 3322 
L 3341 3322 
L 3341 331 
L 3884 331 
L 3884 0 
L 2766 0 
L 2766 588 
Q 2606 256 2353 82 
Q 2100 -91 1766 -91 
Q 1213 -91 952 223 
Q 691 538 691 1209 
L 691 2988 
L 172 2988 
L 172 3322 
L 1269 3322 
L 1269 1388 
Q 1269 781 1417 556 
Q 1566 331 1947 331 
Q 2347 331 2556 625 
Q 2766 919 2766 1478 
L 2766 2988 
L 2266 2988 
L 2266 3322 
z
" transform="scale(0.015625)"/>
      <path id="DejaVuSerif-32" d="M 819 3553 
L 469 3553 
L 469 4384 
Q 803 4563 1142 4656 
Q 1481 4750 1806 4750 
Q 2534 4750 2956 4397 
Q 3378 4044 3378 3438 
Q 3378 2753 2422 1800 
Q 2347 1728 2309 1691 
L 1131 513 
L 3078 513 
L 3078 1088 
L 3444 1088 
L 3444 0 
L 434 0 
L 434 341 
L 1850 1753 
Q 2319 2222 2519 2614 
Q 2719 3006 2719 3438 
Q 2719 3909 2473 4175 
Q 2228 4441 1797 4441 
Q 1350 4441 1106 4219 
Q 863 3997 819 3553 
z
" transform="scale(0.015625)"/>
      <path id="DejaVuSerif-42" d="M 1581 331 
L 2516 331 
Q 3078 331 3337 575 
Q 3597 819 3597 1350 
Q 3597 1878 3339 2120 
Q 3081 2363 2516 2363 
L 1581 2363 
L 1581 331 
z
M 1581 2694 
L 2375 2694 
Q 2888 2694 3123 2891 
Q 3359 3088 3359 3513 
Q 3359 3941 3123 4136 
Q 2888 4331 2375 4331 
L 1581 4331 
L 1581 2694 
z
M 353 0 
L 353 331 
L 947 331 
L 947 4331 
L 353 4331 
L 353 4666 
L 2656 4666 
Q 3363 4666 3720 4377 
Q 4078 4088 4078 3513 
Q 4078 3097 3829 2850 
Q 3581 2603 3103 2547 
Q 3697 2472 4005 2167 
Q 4313 1863 4313 1350 
Q 4313 656 3875 328 
Q 3438 0 2509 0 
L 353 0 
z
" transform="scale(0.015625)"/>
     </defs>
     <use xlink:href="#DejaVuSerif-70"/>
     <use xlink:href="#DejaVuSerif-75" transform="translate(64.013672 0)"/>
     <use xlink:href="#DejaVuSerif-72" transform="translate(128.417969 0)"/>
     <use xlink:href="#DejaVuSerif-65" transform="translate(176.220703 0)"/>
     <use xlink:href="#DejaVuSerif-20" transform="translate(235.400391 0)"/>
     <use xlink:href="#DejaVuSerif-32" transform="translate(267.1875 0)"/>
     <use xlink:href="#DejaVuSerif-42" transform="translate(330.810547 0)"/>
    </g>
   </g>
   <g id="legend_1">
    <g id="line2d_19">
     <path d="M 588.85101 52.157595 
L 597.85101 52.157595 
L 606.85101 52.157595 
" style="fill: none; stroke: #000000; stroke-opacity: 0; stroke-width: 1.5; stroke-linecap: square"/>
     <defs>
      <path id="m2f55d9f109" d="M 0 3 
C 0.795609 3 1.55874 2.683901 2.12132 2.12132 
C 2.683901 1.55874 3 0.795609 3 0 
C 3 -0.795609 2.683901 -1.55874 2.12132 -2.12132 
C 1.55874 -2.683901 0.795609 -3 0 -3 
C -0.795609 -3 -1.55874 -2.683901 -2.12132 -2.12132 
C -2.683901 -1.55874 -3 -0.795609 -3 0 
C -3 0.795609 -2.683901 1.55874 -2.12132 2.12132 
C -1.55874 2.683901 -0.795609 3 0 3 
z
" style="stroke: #000000"/>
     </defs>
     <g>
      <use xlink:href="#m2f55d9f109" x="597.85101" y="52.157595" style="fill: #2b6f9f; stroke: #000000"/>
     </g>
    </g>
    <g id="text_14">
     <!-- first derivative -->
     <g transform="translate(614.05101 55.307595) scale(0.09 -0.09)">
      <defs>
       <path id="DejaVuSerif-66" d="M 2753 4078 
L 2450 4078 
Q 2447 4313 2317 4434 
Q 2188 4556 1941 4556 
Q 1619 4556 1487 4379 
Q 1356 4203 1356 3750 
L 1356 3322 
L 2284 3322 
L 2284 2988 
L 1356 2988 
L 1356 331 
L 2094 331 
L 2094 0 
L 231 0 
L 231 331 
L 781 331 
L 781 2988 
L 231 2988 
L 231 3322 
L 781 3322 
L 781 3738 
Q 781 4294 1070 4578 
Q 1359 4863 1919 4863 
Q 2128 4863 2337 4825 
Q 2547 4788 2753 4709 
L 2753 4078 
z
" transform="scale(0.015625)"/>
       <path id="DejaVuSerif-73" d="M 359 184 
L 359 959 
L 691 959 
Q 703 588 923 403 
Q 1144 219 1575 219 
Q 1963 219 2166 364 
Q 2369 509 2369 788 
Q 2369 1006 2220 1140 
Q 2072 1275 1594 1428 
L 1178 1569 
Q 750 1706 558 1912 
Q 366 2119 366 2438 
Q 366 2894 700 3153 
Q 1034 3413 1625 3413 
Q 1888 3413 2178 3344 
Q 2469 3275 2778 3144 
L 2778 2419 
L 2447 2419 
Q 2434 2741 2221 2922 
Q 2009 3103 1644 3103 
Q 1281 3103 1095 2975 
Q 909 2847 909 2591 
Q 909 2381 1050 2254 
Q 1191 2128 1613 1997 
L 2069 1856 
Q 2541 1709 2748 1489 
Q 2956 1269 2956 922 
Q 2956 450 2595 179 
Q 2234 -91 1600 -91 
Q 1278 -91 972 -22 
Q 666 47 359 184 
z
" transform="scale(0.015625)"/>
       <path id="DejaVuSerif-64" d="M 3359 331 
L 3909 331 
L 3909 0 
L 2784 0 
L 2784 519 
Q 2616 206 2355 57 
Q 2094 -91 1709 -91 
Q 1097 -91 708 395 
Q 319 881 319 1663 
Q 319 2444 706 2928 
Q 1094 3413 1709 3413 
Q 2094 3413 2355 3264 
Q 2616 3116 2784 2803 
L 2784 4531 
L 2241 4531 
L 2241 4863 
L 3359 4863 
L 3359 331 
z
M 2784 1497 
L 2784 1825 
Q 2784 2422 2554 2737 
Q 2325 3053 1888 3053 
Q 1444 3053 1217 2703 
Q 991 2353 991 1663 
Q 991 975 1217 622 
Q 1444 269 1888 269 
Q 2325 269 2554 583 
Q 2784 897 2784 1497 
z
" transform="scale(0.015625)"/>
      </defs>
      <use xlink:href="#DejaVuSerif-66"/>
      <use xlink:href="#DejaVuSerif-69" transform="translate(37.011719 0)"/>
      <use xlink:href="#DejaVuSerif-72" transform="translate(68.994141 0)"/>
      <use xlink:href="#DejaVuSerif-73" transform="translate(116.796875 0)"/>
      <use xlink:href="#DejaVuSerif-74" transform="translate(168.115234 0)"/>
      <use xlink:href="#DejaVuSerif-20" transform="translate(208.300781 0)"/>
      <use xlink:href="#DejaVuSerif-64" transform="translate(240.087891 0)"/>
      <use xlink:href="#DejaVuSerif-65" transform="translate(304.101562 0)"/>
      <use xlink:href="#DejaVuSerif-72" transform="translate(363.28125 0)"/>
      <use xlink:href="#DejaVuSerif-69" transform="translate(411.083984 0)"/>
      <use xlink:href="#DejaVuSerif-76" transform="translate(443.066406 0)"/>
      <use xlink:href="#DejaVuSerif-61" transform="translate(499.560547 0)"/>
      <use xlink:href="#DejaVuSerif-74" transform="translate(559.179688 0)"/>
      <use xlink:href="#DejaVuSerif-69" transform="translate(599.365234 0)"/>
      <use xlink:href="#DejaVuSerif-76" transform="translate(631.347656 0)"/>
      <use xlink:href="#DejaVuSerif-65" transform="translate(687.841797 0)"/>
     </g>
    </g>
    <g id="line2d_20">
     <path d="M 588.85101 65.367908 
L 597.85101 65.367908 
L 606.85101 65.367908 
" style="fill: none; stroke: #000000; stroke-opacity: 0; stroke-width: 1.5; stroke-linecap: square"/>
     <defs>
      <path id="mc7249bd91a" d="M 0 3 
C 0.795609 3 1.55874 2.683901 2.12132 2.12132 
C 2.683901 1.55874 3 0.795609 3 0 
C 3 -0.795609 2.683901 -1.55874 2.12132 -2.12132 
C 1.55874 -2.683901 0.795609 -3 0 -3 
C -0.795609 -3 -1.55874 -2.683901 -2.12132 -2.12132 
C -2.683901 -1.55874 -3 -0.795609 -3 0 
C -3 0.795609 -2.683901 1.55874 -2.12132 2.12132 
C -1.55874 2.683901 -0.795609 3 0 3 
z
" style="stroke: #000000"/>
     </defs>
     <g>
      <use xlink:href="#mc7249bd91a" x="597.85101" y="65.367908" style="fill: #b65f22; stroke: #000000"/>
     </g>
    </g>
    <g id="text_15">
     <!-- second derivative -->
     <g transform="translate(614.05101 68.517908) scale(0.09 -0.09)">
      <defs>
       <path id="DejaVuSerif-63" d="M 3291 997 
Q 3169 466 2822 187 
Q 2475 -91 1925 -91 
Q 1200 -91 759 389 
Q 319 869 319 1663 
Q 319 2459 759 2936 
Q 1200 3413 1925 3413 
Q 2241 3413 2553 3339 
Q 2866 3266 3181 3116 
L 3181 2266 
L 2847 2266 
Q 2781 2703 2561 2903 
Q 2341 3103 1931 3103 
Q 1466 3103 1228 2742 
Q 991 2381 991 1663 
Q 991 944 1227 581 
Q 1463 219 1931 219 
Q 2303 219 2525 412 
Q 2747 606 2828 997 
L 3291 997 
z
" transform="scale(0.015625)"/>
       <path id="DejaVuSerif-6e" d="M 263 0 
L 263 331 
L 781 331 
L 781 2988 
L 231 2988 
L 231 3322 
L 1356 3322 
L 1356 2731 
Q 1516 3069 1770 3241 
Q 2025 3413 2363 3413 
Q 2913 3413 3172 3097 
Q 3431 2781 3431 2113 
L 3431 331 
L 3944 331 
L 3944 0 
L 2356 0 
L 2356 331 
L 2853 331 
L 2853 1931 
Q 2853 2541 2703 2767 
Q 2553 2994 2175 2994 
Q 1775 2994 1565 2701 
Q 1356 2409 1356 1850 
L 1356 331 
L 1856 331 
L 1856 0 
L 263 0 
z
" transform="scale(0.015625)"/>
      </defs>
      <use xlink:href="#DejaVuSerif-73"/>
      <use xlink:href="#DejaVuSerif-65" transform="translate(51.318359 0)"/>
      <use xlink:href="#DejaVuSerif-63" transform="translate(110.498047 0)"/>
      <use xlink:href="#DejaVuSerif-6f" transform="translate(166.503906 0)"/>
      <use xlink:href="#DejaVuSerif-6e" transform="translate(226.708984 0)"/>
      <use xlink:href="#DejaVuSerif-64" transform="translate(291.113281 0)"/>
      <use xlink:href="#DejaVuSerif-20" transform="translate(355.126953 0)"/>
      <use xlink:href="#DejaVuSerif-64" transform="translate(386.914062 0)"/>
      <use xlink:href="#DejaVuSerif-65" transform="translate(450.927734 0)"/>
      <use xlink:href="#DejaVuSerif-72" transform="translate(510.107422 0)"/>
      <use xlink:href="#DejaVuSerif-69" transform="translate(557.910156 0)"/>
      <use xlink:href="#DejaVuSerif-76" transform="translate(589.892578 0)"/>
      <use xlink:href="#DejaVuSerif-61" transform="translate(646.386719 0)"/>
      <use xlink:href="#DejaVuSerif-74" transform="translate(706.005859 0)"/>
      <use xlink:href="#DejaVuSerif-69" transform="translate(746.191406 0)"/>
      <use xlink:href="#DejaVuSerif-76" transform="translate(778.173828 0)"/>
      <use xlink:href="#DejaVuSerif-65" transform="translate(834.667969 0)"/>
     </g>
    </g>
   </g>
  </g>
  <g id="axes_2">
   <g id="patch_5">
    <path d="M 49.756177 395.841114 
L 702.59976 395.841114 
L 702.59976 245.802355 
L 49.756177 245.802355 
z
" style="fill: #ffffff"/>
   </g>
   <g id="PathCollection_2">
    <defs>
     <path id="C1_0_f2fe377653" d="M 0 2.915476 
C 0.773193 2.915476 1.514823 2.608283 2.061553 2.061553 
C 2.608283 1.514823 2.915476 0.773193 2.915476 -0 
C 2.915476 -0.773193 2.608283 -1.514823 2.061553 -2.061553 
C 1.514823 -2.608283 0.773193 -2.915476 0 -2.915476 
C -0.773193 -2.915476 -1.514823 -2.608283 -2.061553 -2.061553 
C -2.608283 -1.514823 -2.915476 -0.773193 -2.915476 0 
C -2.915476 0.773193 -2.608283 1.514823 -2.061553 2.061553 
C -1.514823 2.608283 -0.773193 2.915476 0 2.915476 
z
"/>
    </defs>
    <g clip-path="url(#p39f20bcb3e)">
     <use xlink:href="#C1_0_f2fe377653" x="79.430886" y="259.117533" style="fill: #2b6f9f; stroke: #2b6f9f"/>
    </g>
    <g clip-path="url(#p39f20bcb3e)">
     <use xlink:href="#C1_0_f2fe377653" x="178.34658" y="259.117533" style="fill: #2b6f9f; stroke: #2b6f9f"/>
    </g>
    <g clip-path="url(#p39f20bcb3e)">
     <use xlink:href="#C1_0_f2fe377653" x="277.262274" y="252.809747" style="fill: #b65f22; stroke: #b65f22"/>
    </g>
    <g clip-path="url(#p39f20bcb3e)">
     <use xlink:href="#C1_0_f2fe377653" x="376.177969" y="253.674988" style="fill: #b65f22; stroke: #b65f22"/>
    </g>
    <g clip-path="url(#p39f20bcb3e)">
     <use xlink:href="#C1_0_f2fe377653" x="475.093663" y="252.809756" style="fill: #b65f22; stroke: #b65f22"/>
    </g>
    <g clip-path="url(#p39f20bcb3e)">
     <use xlink:href="#C1_0_f2fe377653" x="574.009357" y="252.622299" style="fill: #2b6f9f; stroke: #2b6f9f"/>
    </g>
    <g clip-path="url(#p39f20bcb3e)">
     <use xlink:href="#C1_0_f2fe377653" x="672.925052" y="255.930278" style="fill: #b65f22; stroke: #b65f22"/>
    </g>
   </g>
   <g id="matplotlib.axis_3">
    <g id="xtick_6">
     <g id="line2d_21">
      <g>
       <use xlink:href="#m78c05e541e" x="79.430886" y="395.841114" style="stroke: #000000; stroke-width: 0.8"/>
      </g>
     </g>
     <g id="text_16">
      <!-- $\partial a_{\mathrm{assoc}}/\partial \rho$ -->
      <g transform="translate(46.731552 420.916419) rotate(-20) scale(0.09 -0.09)">
       <use xlink:href="#STIXGeneral-Regular-2202" transform="translate(0 0.40625)"/>
       <use xlink:href="#STIXGeneral-Italic-61" transform="translate(47.099991 0.40625)"/>
       <use xlink:href="#STIXGeneral-Regular-61" transform="translate(97.199982 -12.821875) scale(0.7)"/>
       <use xlink:href="#STIXGeneral-Regular-73" transform="translate(128.279977 -12.821875) scale(0.7)"/>
       <use xlink:href="#STIXGeneral-Regular-73" transform="translate(155.509973 -12.821875) scale(0.7)"/>
       <use xlink:href="#STIXGeneral-Regular-6f" transform="translate(182.739969 -12.821875) scale(0.7)"/>
       <use xlink:href="#STIXGeneral-Regular-63" transform="translate(217.739958 -12.821875) scale(0.7)"/>
       <use xlink:href="#STIXGeneral-Regular-2f" transform="translate(253.229329 0.40625)"/>
       <use xlink:href="#STIXGeneral-Regular-2202" transform="translate(281.029317 0.40625)"/>
       <use xlink:href="#STIXGeneral-Italic-3c1" transform="translate(328.129308 0.40625)"/>
      </g>
     </g>
    </g>
    <g id="xtick_7">
     <g id="line2d_22">
      <g>
       <use xlink:href="#m78c05e541e" x="178.34658" y="395.841114" style="stroke: #000000; stroke-width: 0.8"/>
      </g>
     </g>
     <g id="text_17">
      <!-- $\partial a_{\mathrm{assoc}}/\partial \Delta$ -->
      <g transform="translate(143.792908 421.610797) rotate(-20) scale(0.09 -0.09)">
       <use xlink:href="#STIXGeneral-Regular-2202" transform="translate(0 0.40625)"/>
       <use xlink:href="#STIXGeneral-Italic-61" transform="translate(47.099991 0.40625)"/>
       <use xlink:href="#STIXGeneral-Regular-61" transform="translate(97.199982 -12.821875) scale(0.7)"/>
       <use xlink:href="#STIXGeneral-Regular-73" transform="translate(128.279977 -12.821875) scale(0.7)"/>
       <use xlink:href="#STIXGeneral-Regular-73" transform="translate(155.509973 -12.821875) scale(0.7)"/>
       <use xlink:href="#STIXGeneral-Regular-6f" transform="translate(182.739969 -12.821875) scale(0.7)"/>
       <use xlink:href="#STIXGeneral-Regular-63" transform="translate(217.739958 -12.821875) scale(0.7)"/>
       <use xlink:href="#STIXGeneral-Regular-2f" transform="translate(253.229329 0.40625)"/>
       <use xlink:href="#STIXGeneral-Regular-2202" transform="translate(281.029317 0.40625)"/>
       <use xlink:href="#STIXGeneral-Regular-394" transform="translate(328.129308 0.40625)"/>
      </g>
     </g>
    </g>
    <g id="xtick_8">
     <g id="line2d_23">
      <g>
       <use xlink:href="#m78c05e541e" x="277.262274" y="395.841114" style="stroke: #000000; stroke-width: 0.8"/>
      </g>
     </g>
     <g id="text_18">
      <!-- $\partial^2 a_{\mathrm{assoc}}/\partial \rho^2$ -->
      <g transform="translate(237.205148 424.204943) rotate(-20) scale(0.09 -0.09)">
       <use xlink:href="#STIXGeneral-Regular-2202" transform="translate(0 0.409375)"/>
       <use xlink:href="#STIXGeneral-Regular-32" transform="translate(48.643272 35.684375) scale(0.7)"/>
       <use xlink:href="#STIXGeneral-Italic-61" transform="translate(88.052636 0.409375)"/>
       <use xlink:href="#STIXGeneral-Regular-61" transform="translate(138.152627 -12.81875) scale(0.7)"/>
       <use xlink:href="#STIXGeneral-Regular-73" transform="translate(169.232623 -12.81875) scale(0.7)"/>
       <use xlink:href="#STIXGeneral-Regular-73" transform="translate(196.462619 -12.81875) scale(0.7)"/>
       <use xlink:href="#STIXGeneral-Regular-6f" transform="translate(223.692614 -12.81875) scale(0.7)"/>
       <use xlink:href="#STIXGeneral-Regular-63" transform="translate(258.692604 -12.81875) scale(0.7)"/>
       <use xlink:href="#STIXGeneral-Regular-2f" transform="translate(294.181974 0.409375)"/>
       <use xlink:href="#STIXGeneral-Regular-2202" transform="translate(321.981962 0.409375)"/>
       <use xlink:href="#STIXGeneral-Italic-3c1" transform="translate(369.081953 0.409375)"/>
       <use xlink:href="#STIXGeneral-Regular-32" transform="translate(425.655072 35.684375) scale(0.7)"/>
      </g>
     </g>
    </g>
    <g id="xtick_9">
     <g id="line2d_24">
      <g>
       <use xlink:href="#m78c05e541e" x="376.177969" y="395.841114" style="stroke: #000000; stroke-width: 0.8"/>
      </g>
     </g>
     <g id="text_19">
      <!-- $\partial^2 a_{\mathrm{assoc}}/\partial \rho\,\partial\Delta$ -->
      <g transform="translate(328.932194 426.821397) rotate(-20) scale(0.09 -0.09)">
       <use xlink:href="#STIXGeneral-Regular-2202" transform="translate(0 0.409375)"/>
       <use xlink:href="#STIXGeneral-Regular-32" transform="translate(48.643272 35.684375) scale(0.7)"/>
       <use xlink:href="#STIXGeneral-Italic-61" transform="translate(88.052636 0.409375)"/>
       <use xlink:href="#STIXGeneral-Regular-61" transform="translate(138.152627 -12.81875) scale(0.7)"/>
       <use xlink:href="#STIXGeneral-Regular-73" transform="translate(169.232623 -12.81875) scale(0.7)"/>
       <use xlink:href="#STIXGeneral-Regular-73" transform="translate(196.462619 -12.81875) scale(0.7)"/>
       <use xlink:href="#STIXGeneral-Regular-6f" transform="translate(223.692614 -12.81875) scale(0.7)"/>
       <use xlink:href="#STIXGeneral-Regular-63" transform="translate(258.692604 -12.81875) scale(0.7)"/>
       <use xlink:href="#STIXGeneral-Regular-2f" transform="translate(294.181974 0.409375)"/>
       <use xlink:href="#STIXGeneral-Regular-2202" transform="translate(321.981962 0.409375)"/>
       <use xlink:href="#STIXGeneral-Italic-3c1" transform="translate(369.081953 0.409375)"/>
       <use xlink:href="#STIXGeneral-Regular-2202" transform="translate(431.515518 0.409375)"/>
       <use xlink:href="#STIXGeneral-Regular-394" transform="translate(478.615509 0.409375)"/>
      </g>
     </g>
    </g>
    <g id="xtick_10">
     <g id="line2d_25">
      <g>
       <use xlink:href="#m78c05e541e" x="475.093663" y="395.841114" style="stroke: #000000; stroke-width: 0.8"/>
      </g>
     </g>
     <g id="text_20">
      <!-- $\partial^2 a_{\mathrm{assoc}}/\partial \Delta^2$ -->
      <g transform="translate(433.605059 424.153406) rotate(-20) scale(0.09 -0.09)">
       <use xlink:href="#STIXGeneral-Regular-2202" transform="translate(0 0.409375)"/>
       <use xlink:href="#STIXGeneral-Regular-32" transform="translate(48.643272 35.684375) scale(0.7)"/>
       <use xlink:href="#STIXGeneral-Italic-61" transform="translate(88.052636 0.409375)"/>
       <use xlink:href="#STIXGeneral-Regular-61" transform="translate(138.152627 -12.81875) scale(0.7)"/>
       <use xlink:href="#STIXGeneral-Regular-73" transform="translate(169.232623 -12.81875) scale(0.7)"/>
       <use xlink:href="#STIXGeneral-Regular-73" transform="translate(196.462619 -12.81875) scale(0.7)"/>
       <use xlink:href="#STIXGeneral-Regular-6f" transform="translate(223.692614 -12.81875) scale(0.7)"/>
       <use xlink:href="#STIXGeneral-Regular-63" transform="translate(258.692604 -12.81875) scale(0.7)"/>
       <use xlink:href="#STIXGeneral-Regular-2f" transform="translate(294.181974 0.409375)"/>
       <use xlink:href="#STIXGeneral-Regular-2202" transform="translate(321.981962 0.409375)"/>
       <use xlink:href="#STIXGeneral-Regular-394" transform="translate(369.081953 0.409375)"/>
       <use xlink:href="#STIXGeneral-Regular-32" transform="translate(442.825216 35.684375) scale(0.7)"/>
      </g>
     </g>
    </g>
    <g id="xtick_11">
     <g id="line2d_26">
      <g>
       <use xlink:href="#m78c05e541e" x="574.009357" y="395.841114" style="stroke: #000000; stroke-width: 0.8"/>
      </g>
     </g>
     <g id="text_21">
      <!-- $\partial a_{\mathrm{assoc}}/\partial x_1$ -->
      <g transform="translate(538.525389 421.949397) rotate(-20) scale(0.09 -0.09)">
       <defs>
        <path id="STIXGeneral-Italic-78" d="M 1555 2272 
L 1632 1907 
Q 1971 2426 2179 2624 
Q 2387 2822 2598 2822 
Q 2714 2822 2787 2755 
Q 2861 2688 2861 2585 
Q 2861 2483 2800 2419 
Q 2739 2355 2643 2355 
Q 2586 2355 2490 2409 
Q 2394 2464 2310 2464 
Q 2125 2464 1683 1690 
Q 1683 1606 1734 1402 
L 1939 544 
Q 2003 282 2131 282 
Q 2234 282 2432 538 
Q 2451 563 2476 598 
Q 2502 634 2521 662 
Q 2541 691 2566 717 
L 2662 659 
Q 2387 230 2227 80 
Q 2067 -70 1882 -70 
Q 1728 -70 1645 26 
Q 1562 122 1504 365 
L 1318 1126 
L 755 365 
Q 557 96 432 13 
Q 307 -70 147 -70 
Q 0 -70 -86 0 
Q -173 70 -173 198 
Q -173 294 -112 361 
Q -51 429 45 429 
Q 122 429 250 358 
Q 346 301 416 301 
Q 525 301 742 614 
L 1267 1357 
L 1088 2150 
Q 1024 2432 969 2509 
Q 915 2586 794 2586 
Q 717 2586 544 2541 
L 429 2509 
L 410 2611 
L 480 2637 
Q 992 2822 1229 2822 
Q 1350 2822 1420 2707 
Q 1491 2592 1555 2272 
z
" transform="scale(0.015625)"/>
        <path id="STIXGeneral-Regular-31" d="M 2522 0 
L 755 0 
L 755 96 
Q 1107 115 1235 227 
Q 1363 339 1363 608 
L 1363 3482 
Q 1363 3795 1171 3795 
Q 1082 3795 883 3718 
L 710 3654 
L 710 3744 
L 1856 4326 
L 1914 4307 
L 1914 486 
Q 1914 275 2042 185 
Q 2170 96 2522 96 
L 2522 0 
z
" transform="scale(0.015625)"/>
       </defs>
       <use xlink:href="#STIXGeneral-Regular-2202" transform="translate(0 0.40625)"/>
       <use xlink:href="#STIXGeneral-Italic-61" transform="translate(47.099991 0.40625)"/>
       <use xlink:href="#STIXGeneral-Regular-61" transform="translate(97.199982 -12.821875) scale(0.7)"/>
       <use xlink:href="#STIXGeneral-Regular-73" transform="translate(128.279977 -12.821875) scale(0.7)"/>
       <use xlink:href="#STIXGeneral-Regular-73" transform="translate(155.509973 -12.821875) scale(0.7)"/>
       <use xlink:href="#STIXGeneral-Regular-6f" transform="translate(182.739969 -12.821875) scale(0.7)"/>
       <use xlink:href="#STIXGeneral-Regular-63" transform="translate(217.739958 -12.821875) scale(0.7)"/>
       <use xlink:href="#STIXGeneral-Regular-2f" transform="translate(253.229329 0.40625)"/>
       <use xlink:href="#STIXGeneral-Regular-2202" transform="translate(281.029317 0.40625)"/>
       <use xlink:href="#STIXGeneral-Italic-78" transform="translate(328.129308 0.40625)"/>
       <use xlink:href="#STIXGeneral-Regular-31" transform="translate(372.529301 -12.821875) scale(0.7)"/>
      </g>
     </g>
    </g>
    <g id="xtick_12">
     <g id="line2d_27">
      <g>
       <use xlink:href="#m78c05e541e" x="672.925052" y="395.841114" style="stroke: #000000; stroke-width: 0.8"/>
      </g>
     </g>
     <g id="text_22">
      <!-- $\partial^2 a_{\mathrm{assoc}}/\partial x_1^2$ -->
      <g transform="translate(633.190668 424.020252) rotate(-20) scale(0.09 -0.09)">
       <use xlink:href="#STIXGeneral-Regular-2202" transform="translate(0 0.409375)"/>
       <use xlink:href="#STIXGeneral-Regular-32" transform="translate(48.643272 35.684375) scale(0.7)"/>
       <use xlink:href="#STIXGeneral-Italic-61" transform="translate(88.052636 0.409375)"/>
       <use xlink:href="#STIXGeneral-Regular-61" transform="translate(138.152627 -12.81875) scale(0.7)"/>
       <use xlink:href="#STIXGeneral-Regular-73" transform="translate(169.232623 -12.81875) scale(0.7)"/>
       <use xlink:href="#STIXGeneral-Regular-73" transform="translate(196.462619 -12.81875) scale(0.7)"/>
       <use xlink:href="#STIXGeneral-Regular-6f" transform="translate(223.692614 -12.81875) scale(0.7)"/>
       <use xlink:href="#STIXGeneral-Regular-63" transform="translate(258.692604 -12.81875) scale(0.7)"/>
       <use xlink:href="#STIXGeneral-Regular-2f" transform="translate(294.181974 0.409375)"/>
       <use xlink:href="#STIXGeneral-Regular-2202" transform="translate(321.981962 0.409375)"/>
       <use xlink:href="#STIXGeneral-Italic-78" transform="translate(369.081953 0.409375)"/>
       <use xlink:href="#STIXGeneral-Regular-32" transform="translate(419.655072 35.684375) scale(0.7)"/>
       <use xlink:href="#STIXGeneral-Regular-31" transform="translate(413.481947 -26.046875) scale(0.7)"/>
      </g>
     </g>
    </g>
    <g id="text_23">
     <!-- JAX derivative target -->
     <g transform="translate(317.60125 440.955698) scale(0.11 -0.11)">
      <defs>
       <path id="DejaVuSerif-4a" d="M -538 -1119 
L -538 -384 
L -181 -384 
Q -172 -694 -34 -845 
Q 103 -997 378 -997 
Q 750 -997 897 -762 
Q 1044 -528 1044 153 
L 1044 4331 
L 319 4331 
L 319 4666 
L 2272 4666 
L 2272 4331 
L 1678 4331 
L 1678 128 
Q 1678 -644 1368 -987 
Q 1059 -1331 372 -1331 
Q 150 -1331 -79 -1278 
Q -309 -1225 -538 -1119 
z
" transform="scale(0.015625)"/>
       <path id="DejaVuSerif-41" d="M 1281 1691 
L 2994 1691 
L 2138 3909 
L 1281 1691 
z
M -38 0 
L -38 331 
L 372 331 
L 2034 4666 
L 2559 4666 
L 4225 331 
L 4684 331 
L 4684 0 
L 2988 0 
L 2988 331 
L 3506 331 
L 3116 1356 
L 1153 1356 
L 763 331 
L 1275 331 
L 1275 0 
L -38 0 
z
" transform="scale(0.015625)"/>
       <path id="DejaVuSerif-58" d="M 2119 1997 
L 978 331 
L 1581 331 
L 1581 0 
L 38 0 
L 38 331 
L 575 331 
L 1919 2291 
L 556 4331 
L 56 4331 
L 56 4666 
L 1906 4666 
L 1906 4331 
L 1356 4331 
L 2356 2828 
L 3384 4331 
L 2784 4331 
L 2784 4666 
L 4313 4666 
L 4313 4331 
L 3788 4331 
L 2553 2534 
L 4025 331 
L 4525 331 
L 4525 0 
L 2675 0 
L 2675 331 
L 3231 331 
L 2119 1997 
z
" transform="scale(0.015625)"/>
       <path id="DejaVuSerif-67" d="M 3359 2988 
L 3359 72 
Q 3359 -644 2965 -1033 
Q 2572 -1422 1844 -1422 
Q 1516 -1422 1216 -1362 
Q 916 -1303 641 -1184 
L 641 -488 
L 941 -488 
Q 997 -813 1206 -963 
Q 1416 -1113 1806 -1113 
Q 2313 -1113 2548 -827 
Q 2784 -541 2784 72 
L 2784 519 
Q 2616 206 2355 57 
Q 2094 -91 1709 -91 
Q 1097 -91 708 395 
Q 319 881 319 1663 
Q 319 2444 706 2928 
Q 1094 3413 1709 3413 
Q 2094 3413 2355 3264 
Q 2616 3116 2784 2803 
L 2784 3322 
L 3909 3322 
L 3909 2988 
L 3359 2988 
z
M 2784 1825 
Q 2784 2422 2554 2737 
Q 2325 3053 1888 3053 
Q 1444 3053 1217 2703 
Q 991 2353 991 1663 
Q 991 975 1217 622 
Q 1444 269 1888 269 
Q 2325 269 2554 583 
Q 2784 897 2784 1497 
L 2784 1825 
z
" transform="scale(0.015625)"/>
      </defs>
      <use xlink:href="#DejaVuSerif-4a"/>
      <use xlink:href="#DejaVuSerif-41" transform="translate(40.087891 0)"/>
      <use xlink:href="#DejaVuSerif-58" transform="translate(112.304688 0)"/>
      <use xlink:href="#DejaVuSerif-20" transform="translate(183.496094 0)"/>
      <use xlink:href="#DejaVuSerif-64" transform="translate(215.283203 0)"/>
      <use xlink:href="#DejaVuSerif-65" transform="translate(279.296875 0)"/>
      <use xlink:href="#DejaVuSerif-72" transform="translate(338.476562 0)"/>
      <use xlink:href="#DejaVuSerif-69" transform="translate(386.279297 0)"/>
      <use xlink:href="#DejaVuSerif-76" transform="translate(418.261719 0)"/>
      <use xlink:href="#DejaVuSerif-61" transform="translate(474.755859 0)"/>
      <use xlink:href="#DejaVuSerif-74" transform="translate(534.375 0)"/>
      <use xlink:href="#DejaVuSerif-69" transform="translate(574.560547 0)"/>
      <use xlink:href="#DejaVuSerif-76" transform="translate(606.542969 0)"/>
      <use xlink:href="#DejaVuSerif-65" transform="translate(663.037109 0)"/>
      <use xlink:href="#DejaVuSerif-20" transform="translate(722.216797 0)"/>
      <use xlink:href="#DejaVuSerif-74" transform="translate(754.003906 0)"/>
      <use xlink:href="#DejaVuSerif-61" transform="translate(794.189453 0)"/>
      <use xlink:href="#DejaVuSerif-72" transform="translate(853.808594 0)"/>
      <use xlink:href="#DejaVuSerif-67" transform="translate(901.611328 0)"/>
      <use xlink:href="#DejaVuSerif-65" transform="translate(965.625 0)"/>
      <use xlink:href="#DejaVuSerif-74" transform="translate(1024.804688 0)"/>
     </g>
    </g>
   </g>
   <g id="matplotlib.axis_4">
    <g id="ytick_7">
     <g id="line2d_28">
      <path d="M 49.756177 376.990564 
L 702.59976 376.990564 
" clip-path="url(#p39f20bcb3e)" style="fill: none; stroke: #d9dde3; stroke-width: 0.7; stroke-linecap: square"/>
     </g>
     <g id="line2d_29">
      <g>
       <use xlink:href="#m5621a28a5c" x="49.756177" y="376.990564" style="stroke: #000000; stroke-width: 0.8"/>
      </g>
     </g>
     <g id="text_24">
      <!-- $\mathdefault{10^{-13}}$ -->
      <g transform="translate(17.646178 380.40986) scale(0.09 -0.09)">
       <use xlink:href="#DejaVuSerif-31" transform="translate(0 0.7125)"/>
       <use xlink:href="#DejaVuSerif-30" transform="translate(63.623047 0.7125)"/>
       <use xlink:href="#DejaVuSerif-2212" transform="translate(128.154453 37.046875) scale(0.7)"/>
       <use xlink:href="#DejaVuSerif-31" transform="translate(186.806797 37.046875) scale(0.7)"/>
       <use xlink:href="#DejaVuSerif-33" transform="translate(231.34293 37.046875) scale(0.7)"/>
      </g>
     </g>
    </g>
    <g id="ytick_8">
     <g id="line2d_30">
      <path d="M 49.756177 352.929349 
L 702.59976 352.929349 
" clip-path="url(#p39f20bcb3e)" style="fill: none; stroke: #d9dde3; stroke-width: 0.7; stroke-linecap: square"/>
     </g>
     <g id="line2d_31">
      <g>
       <use xlink:href="#m5621a28a5c" x="49.756177" y="352.929349" style="stroke: #000000; stroke-width: 0.8"/>
      </g>
     </g>
     <g id="text_25">
      <!-- $\mathdefault{10^{-11}}$ -->
      <g transform="translate(17.646178 356.348646) scale(0.09 -0.09)">
       <use xlink:href="#DejaVuSerif-31" transform="translate(0 0.7125)"/>
       <use xlink:href="#DejaVuSerif-30" transform="translate(63.623047 0.7125)"/>
       <use xlink:href="#DejaVuSerif-2212" transform="translate(128.154453 37.046875) scale(0.7)"/>
       <use xlink:href="#DejaVuSerif-31" transform="translate(186.806797 37.046875) scale(0.7)"/>
       <use xlink:href="#DejaVuSerif-31" transform="translate(231.34293 37.046875) scale(0.7)"/>
      </g>
     </g>
    </g>
    <g id="ytick_9">
     <g id="line2d_32">
      <path d="M 49.756177 328.868134 
L 702.59976 328.868134 
" clip-path="url(#p39f20bcb3e)" style="fill: none; stroke: #d9dde3; stroke-width: 0.7; stroke-linecap: square"/>
     </g>
     <g id="line2d_33">
      <g>
       <use xlink:href="#m5621a28a5c" x="49.756177" y="328.868134" style="stroke: #000000; stroke-width: 0.8"/>
      </g>
     </g>
     <g id="text_26">
      <!-- $\mathdefault{10^{-9}}$ -->
      <g transform="translate(21.696178 332.287431) scale(0.09 -0.09)">
       <use xlink:href="#DejaVuSerif-31" transform="translate(0 0.7125)"/>
       <use xlink:href="#DejaVuSerif-30" transform="translate(63.623047 0.7125)"/>
       <use xlink:href="#DejaVuSerif-2212" transform="translate(128.154453 37.046875) scale(0.7)"/>
       <use xlink:href="#DejaVuSerif-39" transform="translate(186.806797 37.046875) scale(0.7)"/>
      </g>
     </g>
    </g>
    <g id="ytick_10">
     <g id="line2d_34">
      <path d="M 49.756177 304.80692 
L 702.59976 304.80692 
" clip-path="url(#p39f20bcb3e)" style="fill: none; stroke: #d9dde3; stroke-width: 0.7; stroke-linecap: square"/>
     </g>
     <g id="line2d_35">
      <g>
       <use xlink:href="#m5621a28a5c" x="49.756177" y="304.80692" style="stroke: #000000; stroke-width: 0.8"/>
      </g>
     </g>
     <g id="text_27">
      <!-- $\mathdefault{10^{-7}}$ -->
      <g transform="translate(21.696178 308.226217) scale(0.09 -0.09)">
       <use xlink:href="#DejaVuSerif-31" transform="translate(0 0.63125)"/>
       <use xlink:href="#DejaVuSerif-30" transform="translate(63.623047 0.63125)"/>
       <use xlink:href="#DejaVuSerif-2212" transform="translate(128.154453 36.965625) scale(0.7)"/>
       <use xlink:href="#DejaVuSerif-37" transform="translate(186.806797 36.965625) scale(0.7)"/>
      </g>
     </g>
    </g>
    <g id="ytick_11">
     <g id="line2d_36">
      <path d="M 49.756177 280.745705 
L 702.59976 280.745705 
" clip-path="url(#p39f20bcb3e)" style="fill: none; stroke: #d9dde3; stroke-width: 0.7; stroke-linecap: square"/>
     </g>
     <g id="line2d_37">
      <g>
       <use xlink:href="#m5621a28a5c" x="49.756177" y="280.745705" style="stroke: #000000; stroke-width: 0.8"/>
      </g>
     </g>
     <g id="text_28">
      <!-- $\mathdefault{10^{-5}}$ -->
      <g transform="translate(21.696178 284.165002) scale(0.09 -0.09)">
       <use xlink:href="#DejaVuSerif-31" transform="translate(0 0.63125)"/>
       <use xlink:href="#DejaVuSerif-30" transform="translate(63.623047 0.63125)"/>
       <use xlink:href="#DejaVuSerif-2212" transform="translate(128.154453 36.965625) scale(0.7)"/>
       <use xlink:href="#DejaVuSerif-35" transform="translate(186.806797 36.965625) scale(0.7)"/>
      </g>
     </g>
    </g>
    <g id="ytick_12">
     <g id="line2d_38">
      <path d="M 49.756177 256.684491 
L 702.59976 256.684491 
" clip-path="url(#p39f20bcb3e)" style="fill: none; stroke: #d9dde3; stroke-width: 0.7; stroke-linecap: square"/>
     </g>
     <g id="line2d_39">
      <g>
       <use xlink:href="#m5621a28a5c" x="49.756177" y="256.684491" style="stroke: #000000; stroke-width: 0.8"/>
      </g>
     </g>
     <g id="text_29">
      <!-- $\mathdefault{10^{-3}}$ -->
      <g transform="translate(21.696178 260.103787) scale(0.09 -0.09)">
       <use xlink:href="#DejaVuSerif-31" transform="translate(0 0.7125)"/>
       <use xlink:href="#DejaVuSerif-30" transform="translate(63.623047 0.7125)"/>
       <use xlink:href="#DejaVuSerif-2212" transform="translate(128.154453 37.046875) scale(0.7)"/>
       <use xlink:href="#DejaVuSerif-33" transform="translate(186.806797 37.046875) scale(0.7)"/>
      </g>
     </g>
    </g>
    <g id="text_30">
     <!-- relative error -->
     <g transform="translate(11.358521 358.277594) rotate(-90) scale(0.11 -0.11)">
      <use xlink:href="#DejaVuSerif-72"/>
      <use xlink:href="#DejaVuSerif-65" transform="translate(47.802734 0)"/>
      <use xlink:href="#DejaVuSerif-6c" transform="translate(106.982422 0)"/>
      <use xlink:href="#DejaVuSerif-61" transform="translate(138.964844 0)"/>
      <use xlink:href="#DejaVuSerif-74" transform="translate(198.583984 0)"/>
      <use xlink:href="#DejaVuSerif-69" transform="translate(238.769531 0)"/>
      <use xlink:href="#DejaVuSerif-76" transform="translate(270.751953 0)"/>
      <use xlink:href="#DejaVuSerif-65" transform="translate(327.246094 0)"/>
      <use xlink:href="#DejaVuSerif-20" transform="translate(386.425781 0)"/>
      <use xlink:href="#DejaVuSerif-65" transform="translate(418.212891 0)"/>
      <use xlink:href="#DejaVuSerif-72" transform="translate(477.392578 0)"/>
      <use xlink:href="#DejaVuSerif-72" transform="translate(525.195312 0)"/>
      <use xlink:href="#DejaVuSerif-6f" transform="translate(572.998047 0)"/>
      <use xlink:href="#DejaVuSerif-72" transform="translate(633.203125 0)"/>
     </g>
    </g>
   </g>
   <g id="line2d_40">
    <path d="M 79.430886 259.117533 
L 178.34658 259.117533 
L 277.262274 252.809747 
L 376.177969 253.674988 
L 475.093663 252.809756 
L 574.009357 252.622299 
L 672.925052 255.930278 
" clip-path="url(#p39f20bcb3e)" style="fill: none; stroke-dasharray: 1.4,2.31; stroke-dashoffset: 0; stroke: #6b7280; stroke-width: 1.4"/>
   </g>
   <g id="patch_6">
    <path d="M 49.756177 395.841114 
L 49.756177 245.802355 
" style="fill: none; stroke: #000000; stroke-width: 0.8; stroke-linejoin: miter; stroke-linecap: square"/>
   </g>
   <g id="patch_7">
    <path d="M 49.756177 395.841114 
L 702.59976 395.841114 
" style="fill: none; stroke: #000000; stroke-width: 0.8; stroke-linejoin: miter; stroke-linecap: square"/>
   </g>
   <g id="text_31">
    <!-- cross binary -->
    <g transform="translate(49.756177 239.802355) scale(0.14 -0.14)">
     <defs>
      <path id="DejaVuSerif-62" d="M 738 331 
L 738 4531 
L 184 4531 
L 184 4863 
L 1313 4863 
L 1313 2803 
Q 1481 3116 1742 3264 
Q 2003 3413 2388 3413 
Q 3000 3413 3387 2928 
Q 3775 2444 3775 1663 
Q 3775 881 3387 395 
Q 3000 -91 2388 -91 
Q 2003 -91 1742 57 
Q 1481 206 1313 519 
L 1313 0 
L 184 0 
L 184 331 
L 738 331 
z
M 1313 1497 
Q 1313 897 1542 583 
Q 1772 269 2209 269 
Q 2650 269 2876 622 
Q 3103 975 3103 1663 
Q 3103 2353 2876 2703 
Q 2650 3053 2209 3053 
Q 1772 3053 1542 2737 
Q 1313 2422 1313 1825 
L 1313 1497 
z
" transform="scale(0.015625)"/>
      <path id="DejaVuSerif-79" d="M 1381 -609 
L 1600 -56 
L 359 2988 
L -19 2988 
L -19 3322 
L 1509 3322 
L 1509 2988 
L 978 2988 
L 1913 703 
L 2847 2988 
L 2350 2988 
L 2350 3322 
L 3597 3322 
L 3597 2988 
L 3225 2988 
L 1703 -750 
Q 1547 -1138 1356 -1280 
Q 1166 -1422 819 -1422 
Q 672 -1422 517 -1397 
Q 363 -1372 206 -1325 
L 206 -691 
L 500 -691 
Q 519 -903 608 -995 
Q 697 -1088 884 -1088 
Q 1056 -1088 1161 -992 
Q 1266 -897 1381 -609 
z
" transform="scale(0.015625)"/>
     </defs>
     <use xlink:href="#DejaVuSerif-63"/>
     <use xlink:href="#DejaVuSerif-72" transform="translate(56.005859 0)"/>
     <use xlink:href="#DejaVuSerif-6f" transform="translate(103.808594 0)"/>
     <use xlink:href="#DejaVuSerif-73" transform="translate(164.013672 0)"/>
     <use xlink:href="#DejaVuSerif-73" transform="translate(215.332031 0)"/>
     <use xlink:href="#DejaVuSerif-20" transform="translate(266.650391 0)"/>
     <use xlink:href="#DejaVuSerif-62" transform="translate(298.4375 0)"/>
     <use xlink:href="#DejaVuSerif-69" transform="translate(362.451172 0)"/>
     <use xlink:href="#DejaVuSerif-6e" transform="translate(394.433594 0)"/>
     <use xlink:href="#DejaVuSerif-61" transform="translate(458.837891 0)"/>
     <use xlink:href="#DejaVuSerif-72" transform="translate(518.457031 0)"/>
     <use xlink:href="#DejaVuSerif-79" transform="translate(566.259766 0)"/>
    </g>
   </g>
  </g>
  <g id="text_32">
   <!-- JAX Picard derivatives against exact implicit sensitivities -->
   <g transform="translate(136.333594 14.397896) scale(0.15 -0.15)">
    <defs>
     <path id="DejaVuSerif-50" d="M 1581 2375 
L 2406 2375 
Q 2872 2375 3115 2626 
Q 3359 2878 3359 3353 
Q 3359 3831 3115 4081 
Q 2872 4331 2406 4331 
L 1581 4331 
L 1581 2375 
z
M 353 0 
L 353 331 
L 947 331 
L 947 4331 
L 353 4331 
L 353 4666 
L 2559 4666 
Q 3259 4666 3668 4311 
Q 4078 3956 4078 3353 
Q 4078 2753 3668 2397 
Q 3259 2041 2559 2041 
L 1581 2041 
L 1581 331 
L 2303 331 
L 2303 0 
L 353 0 
z
" transform="scale(0.015625)"/>
     <path id="DejaVuSerif-78" d="M 1863 2028 
L 2559 2988 
L 2113 2988 
L 2113 3322 
L 3391 3322 
L 3391 2988 
L 2950 2988 
L 2059 1759 
L 3097 331 
L 3531 331 
L 3531 0 
L 1997 0 
L 1997 331 
L 2419 331 
L 1697 1325 
L 972 331 
L 1403 331 
L 1403 0 
L 141 0 
L 141 331 
L 581 331 
L 1497 1594 
L 488 2988 
L 78 2988 
L 78 3322 
L 1563 3322 
L 1563 2988 
L 1166 2988 
L 1863 2028 
z
" transform="scale(0.015625)"/>
     <path id="DejaVuSerif-6d" d="M 3316 2675 
Q 3481 3041 3739 3227 
Q 3997 3413 4341 3413 
Q 4863 3413 5119 3089 
Q 5375 2766 5375 2113 
L 5375 331 
L 5894 331 
L 5894 0 
L 4300 0 
L 4300 331 
L 4800 331 
L 4800 2047 
Q 4800 2556 4650 2772 
Q 4500 2988 4153 2988 
Q 3769 2988 3567 2697 
Q 3366 2406 3366 1850 
L 3366 331 
L 3866 331 
L 3866 0 
L 2291 0 
L 2291 331 
L 2791 331 
L 2791 2069 
Q 2791 2566 2641 2777 
Q 2491 2988 2144 2988 
Q 1759 2988 1557 2697 
Q 1356 2406 1356 1850 
L 1356 331 
L 1856 331 
L 1856 0 
L 263 0 
L 263 331 
L 781 331 
L 781 2994 
L 231 2994 
L 231 3322 
L 1356 3322 
L 1356 2731 
Q 1516 3063 1762 3238 
Q 2009 3413 2322 3413 
Q 2709 3413 2968 3220 
Q 3228 3028 3316 2675 
z
" transform="scale(0.015625)"/>
    </defs>
    <use xlink:href="#DejaVuSerif-4a"/>
    <use xlink:href="#DejaVuSerif-41" transform="translate(40.087891 0)"/>
    <use xlink:href="#DejaVuSerif-58" transform="translate(112.304688 0)"/>
    <use xlink:href="#DejaVuSerif-20" transform="translate(183.496094 0)"/>
    <use xlink:href="#DejaVuSerif-50" transform="translate(215.283203 0)"/>
    <use xlink:href="#DejaVuSerif-69" transform="translate(282.568359 0)"/>
    <use xlink:href="#DejaVuSerif-63" transform="translate(314.550781 0)"/>
    <use xlink:href="#DejaVuSerif-61" transform="translate(370.556641 0)"/>
    <use xlink:href="#DejaVuSerif-72" transform="translate(430.175781 0)"/>
    <use xlink:href="#DejaVuSerif-64" transform="translate(477.978516 0)"/>
    <use xlink:href="#DejaVuSerif-20" transform="translate(541.992188 0)"/>
    <use xlink:href="#DejaVuSerif-64" transform="translate(573.779297 0)"/>
    <use xlink:href="#DejaVuSerif-65" transform="translate(637.792969 0)"/>
    <use xlink:href="#DejaVuSerif-72" transform="translate(696.972656 0)"/>
    <use xlink:href="#DejaVuSerif-69" transform="translate(744.775391 0)"/>
    <use xlink:href="#DejaVuSerif-76" transform="translate(776.757812 0)"/>
    <use xlink:href="#DejaVuSerif-61" transform="translate(833.251953 0)"/>
    <use xlink:href="#DejaVuSerif-74" transform="translate(892.871094 0)"/>
    <use xlink:href="#DejaVuSerif-69" transform="translate(933.056641 0)"/>
    <use xlink:href="#DejaVuSerif-76" transform="translate(965.039062 0)"/>
    <use xlink:href="#DejaVuSerif-65" transform="translate(1021.533203 0)"/>
    <use xlink:href="#DejaVuSerif-73" transform="translate(1080.712891 0)"/>
    <use xlink:href="#DejaVuSerif-20" transform="translate(1132.03125 0)"/>
    <use xlink:href="#DejaVuSerif-61" transform="translate(1163.818359 0)"/>
    <use xlink:href="#DejaVuSerif-67" transform="translate(1223.4375 0)"/>
    <use xlink:href="#DejaVuSerif-61" transform="translate(1287.451172 0)"/>
    <use xlink:href="#DejaVuSerif-69" transform="translate(1347.070312 0)"/>
    <use xlink:href="#DejaVuSerif-6e" transform="translate(1379.052734 0)"/>
    <use xlink:href="#DejaVuSerif-73" transform="translate(1443.457031 0)"/>
    <use xlink:href="#DejaVuSerif-74" transform="translate(1494.775391 0)"/>
    <use xlink:href="#DejaVuSerif-20" transform="translate(1534.960938 0)"/>
    <use xlink:href="#DejaVuSerif-65" transform="translate(1566.748047 0)"/>
    <use xlink:href="#DejaVuSerif-78" transform="translate(1625.927734 0)"/>
    <use xlink:href="#DejaVuSerif-61" transform="translate(1682.324219 0)"/>
    <use xlink:href="#DejaVuSerif-63" transform="translate(1741.943359 0)"/>
    <use xlink:href="#DejaVuSerif-74" transform="translate(1797.949219 0)"/>
    <use xlink:href="#DejaVuSerif-20" transform="translate(1838.134766 0)"/>
    <use xlink:href="#DejaVuSerif-69" transform="translate(1869.921875 0)"/>
    <use xlink:href="#DejaVuSerif-6d" transform="translate(1901.904297 0)"/>
    <use xlink:href="#DejaVuSerif-70" transform="translate(1996.728516 0)"/>
    <use xlink:href="#DejaVuSerif-6c" transform="translate(2060.742188 0)"/>
    <use xlink:href="#DejaVuSerif-69" transform="translate(2092.724609 0)"/>
    <use xlink:href="#DejaVuSerif-63" transform="translate(2124.707031 0)"/>
    <use xlink:href="#DejaVuSerif-69" transform="translate(2180.712891 0)"/>
    <use xlink:href="#DejaVuSerif-74" transform="translate(2212.695312 0)"/>
    <use xlink:href="#DejaVuSerif-20" transform="translate(2252.880859 0)"/>
    <use xlink:href="#DejaVuSerif-73" transform="translate(2284.667969 0)"/>
    <use xlink:href="#DejaVuSerif-65" transform="translate(2335.986328 0)"/>
    <use xlink:href="#DejaVuSerif-6e" transform="translate(2395.166016 0)"/>
    <use xlink:href="#DejaVuSerif-73" transform="translate(2459.570312 0)"/>
    <use xlink:href="#DejaVuSerif-69" transform="translate(2510.888672 0)"/>
    <use xlink:href="#DejaVuSerif-74" transform="translate(2542.871094 0)"/>
    <use xlink:href="#DejaVuSerif-69" transform="translate(2583.056641 0)"/>
    <use xlink:href="#DejaVuSerif-76" transform="translate(2615.039062 0)"/>
    <use xlink:href="#DejaVuSerif-69" transform="translate(2671.533203 0)"/>
    <use xlink:href="#DejaVuSerif-74" transform="translate(2703.515625 0)"/>
    <use xlink:href="#DejaVuSerif-69" transform="translate(2743.701172 0)"/>
    <use xlink:href="#DejaVuSerif-65" transform="translate(2775.683594 0)"/>
    <use xlink:href="#DejaVuSerif-73" transform="translate(2834.863281 0)"/>
   </g>
  </g>
 </g>
 <defs>
  <clipPath id="pbd692835d9">
   <rect x="49.756177" y="40.369001" width="652.843582" height="150.038759"/>
  </clipPath>
  <clipPath id="p39f20bcb3e">
   <rect x="49.756177" y="245.802355" width="652.843582" height="150.038759"/>
  </clipPath>
 </defs>
</svg>
