<?xml version="1.0" encoding="utf-8" standalone="no"?>
<!DOCTYPE svg PUBLIC "-//W3C//DTD SVG 1.1//EN"
  "http://www.w3.org/Graphics/SVG/1.1/DTD/svg11.dtd">
<svg xmlns:xlink="http://www.w3.org/1999/xlink" width="633.6pt" height="374.4pt" viewBox="0 0 633.6 374.4" xmlns="http://www.w3.org/2000/svg" version="1.1">
 <metadata>
  <rdf:RDF xmlns:dc="http://purl.org/dc/elements/1.1/" xmlns:cc="http://creativecommons.org/ns#" xmlns:rdf="http://www.w3.org/1999/02/22-rdf-syntax-ns#">
   <cc:Work>
    <dc:type rdf:resource="http://purl.org/dc/dcmitype/StillImage"/>
    <dc:date>2026-06-23T11:12:40.182687</dc:date>
    <dc:format>image/svg+xml</dc:format>
    <dc:creator>
     <cc:Agent>
      <dc:title>Matplotlib v3.10.9, https://matplotlib.org/</dc:title>
     </cc:Agent>
    </dc:creator>
   </cc:Work>
  </rdf:RDF>
 </metadata>
 <defs>
  <style type="text/css">*{stroke-linejoin: round; stroke-linecap: butt}</style>
 </defs>
 <g id="figure_1">
  <g id="patch_1">
   <path d="M 0 374.4 
L 633.6 374.4 
L 633.6 0 
L 0 0 
z
" style="fill: #ffffff"/>
  </g>
  <g id="axes_1">
   <g id="patch_2">
    <path d="M 42.765865 341.04351 
L 510.344168 341.04351 
L 510.344168 20.118365 
L 42.765865 20.118365 
z
" style="fill: #ffffff"/>
   </g>
   <g id="matplotlib.axis_1">
    <g id="xtick_1">
     <g id="line2d_1">
      <path d="M 51.757755 341.04351 
L 51.757755 20.118365 
" clip-path="url(#pe4a7725c4a)" style="fill: none; stroke: #e5e7eb; stroke-width: 0.7; stroke-linecap: square"/>
     </g>
     <g id="line2d_2">
      <defs>
       <path id="m87c5ab1bbd" d="M 0 0 
L 0 3.5 
" style="stroke: #000000; stroke-width: 0.8"/>
      </defs>
      <g>
       <use xlink:href="#m87c5ab1bbd" x="51.757755" y="341.04351" style="stroke: #000000; stroke-width: 0.8"/>
      </g>
     </g>
     <g id="text_1">
      <!-- 0.0 -->
      <g transform="translate(43.806193 355.641948) scale(0.1 -0.1)">
       <defs>
        <path id="DejaVuSans-30" d="M 2034 4250 
Q 1547 4250 1301 3770 
Q 1056 3291 1056 2328 
Q 1056 1369 1301 889 
Q 1547 409 2034 409 
Q 2525 409 2770 889 
Q 3016 1369 3016 2328 
Q 3016 3291 2770 3770 
Q 2525 4250 2034 4250 
z
M 2034 4750 
Q 2819 4750 3233 4129 
Q 3647 3509 3647 2328 
Q 3647 1150 3233 529 
Q 2819 -91 2034 -91 
Q 1250 -91 836 529 
Q 422 1150 422 2328 
Q 422 3509 836 4129 
Q 1250 4750 2034 4750 
z
" transform="scale(0.015625)"/>
        <path id="DejaVuSans-2e" d="M 684 794 
L 1344 794 
L 1344 0 
L 684 0 
L 684 794 
z
" transform="scale(0.015625)"/>
       </defs>
       <use xlink:href="#DejaVuSans-30"/>
       <use xlink:href="#DejaVuSans-2e" transform="translate(63.623047 0)"/>
       <use xlink:href="#DejaVuSans-30" transform="translate(95.410156 0)"/>
      </g>
     </g>
    </g>
    <g id="xtick_2">
     <g id="line2d_3">
      <path d="M 141.67666 341.04351 
L 141.67666 20.118365 
" clip-path="url(#pe4a7725c4a)" style="fill: none; stroke: #e5e7eb; stroke-width: 0.7; stroke-linecap: square"/>
     </g>
     <g id="line2d_4">
      <g>
       <use xlink:href="#m87c5ab1bbd" x="141.67666" y="341.04351" style="stroke: #000000; stroke-width: 0.8"/>
      </g>
     </g>
     <g id="text_2">
      <!-- 0.2 -->
      <g transform="translate(133.725097 355.641948) scale(0.1 -0.1)">
       <defs>
        <path id="DejaVuSans-32" d="M 1228 531 
L 3431 531 
L 3431 0 
L 469 0 
L 469 531 
Q 828 903 1448 1529 
Q 2069 2156 2228 2338 
Q 2531 2678 2651 2914 
Q 2772 3150 2772 3378 
Q 2772 3750 2511 3984 
Q 2250 4219 1831 4219 
Q 1534 4219 1204 4116 
Q 875 4013 500 3803 
L 500 4441 
Q 881 4594 1212 4672 
Q 1544 4750 1819 4750 
Q 2544 4750 2975 4387 
Q 3406 4025 3406 3419 
Q 3406 3131 3298 2873 
Q 3191 2616 2906 2266 
Q 2828 2175 2409 1742 
Q 1991 1309 1228 531 
z
" transform="scale(0.015625)"/>
       </defs>
       <use xlink:href="#DejaVuSans-30"/>
       <use xlink:href="#DejaVuSans-2e" transform="translate(63.623047 0)"/>
       <use xlink:href="#DejaVuSans-32" transform="translate(95.410156 0)"/>
      </g>
     </g>
    </g>
    <g id="xtick_3">
     <g id="line2d_5">
      <path d="M 231.595564 341.04351 
L 231.595564 20.118365 
" clip-path="url(#pe4a7725c4a)" style="fill: none; stroke: #e5e7eb; stroke-width: 0.7; stroke-linecap: square"/>
     </g>
     <g id="line2d_6">
      <g>
       <use xlink:href="#m87c5ab1bbd" x="231.595564" y="341.04351" style="stroke: #000000; stroke-width: 0.8"/>
      </g>
     </g>
     <g id="text_3">
      <!-- 0.4 -->
      <g transform="translate(223.644002 355.641948) scale(0.1 -0.1)">
       <defs>
        <path id="DejaVuSans-34" d="M 2419 4116 
L 825 1625 
L 2419 1625 
L 2419 4116 
z
M 2253 4666 
L 3047 4666 
L 3047 1625 
L 3713 1625 
L 3713 1100 
L 3047 1100 
L 3047 0 
L 2419 0 
L 2419 1100 
L 313 1100 
L 313 1709 
L 2253 4666 
z
" transform="scale(0.015625)"/>
       </defs>
       <use xlink:href="#DejaVuSans-30"/>
       <use xlink:href="#DejaVuSans-2e" transform="translate(63.623047 0)"/>
       <use xlink:href="#DejaVuSans-34" transform="translate(95.410156 0)"/>
      </g>
     </g>
    </g>
    <g id="xtick_4">
     <g id="line2d_7">
      <path d="M 321.514469 341.04351 
L 321.514469 20.118365 
" clip-path="url(#pe4a7725c4a)" style="fill: none; stroke: #e5e7eb; stroke-width: 0.7; stroke-linecap: square"/>
     </g>
     <g id="line2d_8">
      <g>
       <use xlink:href="#m87c5ab1bbd" x="321.514469" y="341.04351" style="stroke: #000000; stroke-width: 0.8"/>
      </g>
     </g>
     <g id="text_4">
      <!-- 0.6 -->
      <g transform="translate(313.562906 355.641948) scale(0.1 -0.1)">
       <defs>
        <path id="DejaVuSans-36" d="M 2113 2584 
Q 1688 2584 1439 2293 
Q 1191 2003 1191 1497 
Q 1191 994 1439 701 
Q 1688 409 2113 409 
Q 2538 409 2786 701 
Q 3034 994 3034 1497 
Q 3034 2003 2786 2293 
Q 2538 2584 2113 2584 
z
M 3366 4563 
L 3366 3988 
Q 3128 4100 2886 4159 
Q 2644 4219 2406 4219 
Q 1781 4219 1451 3797 
Q 1122 3375 1075 2522 
Q 1259 2794 1537 2939 
Q 1816 3084 2150 3084 
Q 2853 3084 3261 2657 
Q 3669 2231 3669 1497 
Q 3669 778 3244 343 
Q 2819 -91 2113 -91 
Q 1303 -91 875 529 
Q 447 1150 447 2328 
Q 447 3434 972 4092 
Q 1497 4750 2381 4750 
Q 2619 4750 2861 4703 
Q 3103 4656 3366 4563 
z
" transform="scale(0.015625)"/>
       </defs>
       <use xlink:href="#DejaVuSans-30"/>
       <use xlink:href="#DejaVuSans-2e" transform="translate(63.623047 0)"/>
       <use xlink:href="#DejaVuSans-36" transform="translate(95.410156 0)"/>
      </g>
     </g>
    </g>
    <g id="xtick_5">
     <g id="line2d_9">
      <path d="M 411.433373 341.04351 
L 411.433373 20.118365 
" clip-path="url(#pe4a7725c4a)" style="fill: none; stroke: #e5e7eb; stroke-width: 0.7; stroke-linecap: square"/>
     </g>
     <g id="line2d_10">
      <g>
       <use xlink:href="#m87c5ab1bbd" x="411.433373" y="341.04351" style="stroke: #000000; stroke-width: 0.8"/>
      </g>
     </g>
     <g id="text_5">
      <!-- 0.8 -->
      <g transform="translate(403.481811 355.641948) scale(0.1 -0.1)">
       <defs>
        <path id="DejaVuSans-38" d="M 2034 2216 
Q 1584 2216 1326 1975 
Q 1069 1734 1069 1313 
Q 1069 891 1326 650 
Q 1584 409 2034 409 
Q 2484 409 2743 651 
Q 3003 894 3003 1313 
Q 3003 1734 2745 1975 
Q 2488 2216 2034 2216 
z
M 1403 2484 
Q 997 2584 770 2862 
Q 544 3141 544 3541 
Q 544 4100 942 4425 
Q 1341 4750 2034 4750 
Q 2731 4750 3128 4425 
Q 3525 4100 3525 3541 
Q 3525 3141 3298 2862 
Q 3072 2584 2669 2484 
Q 3125 2378 3379 2068 
Q 3634 1759 3634 1313 
Q 3634 634 3220 271 
Q 2806 -91 2034 -91 
Q 1263 -91 848 271 
Q 434 634 434 1313 
Q 434 1759 690 2068 
Q 947 2378 1403 2484 
z
M 1172 3481 
Q 1172 3119 1398 2916 
Q 1625 2713 2034 2713 
Q 2441 2713 2670 2916 
Q 2900 3119 2900 3481 
Q 2900 3844 2670 4047 
Q 2441 4250 2034 4250 
Q 1625 4250 1398 4047 
Q 1172 3844 1172 3481 
z
" transform="scale(0.015625)"/>
       </defs>
       <use xlink:href="#DejaVuSans-30"/>
       <use xlink:href="#DejaVuSans-2e" transform="translate(63.623047 0)"/>
       <use xlink:href="#DejaVuSans-38" transform="translate(95.410156 0)"/>
      </g>
     </g>
    </g>
    <g id="xtick_6">
     <g id="line2d_11">
      <path d="M 501.352278 341.04351 
L 501.352278 20.118365 
" clip-path="url(#pe4a7725c4a)" style="fill: none; stroke: #e5e7eb; stroke-width: 0.7; stroke-linecap: square"/>
     </g>
     <g id="line2d_12">
      <g>
       <use xlink:href="#m87c5ab1bbd" x="501.352278" y="341.04351" style="stroke: #000000; stroke-width: 0.8"/>
      </g>
     </g>
     <g id="text_6">
      <!-- 1.0 -->
      <g transform="translate(493.400715 355.641948) scale(0.1 -0.1)">
       <defs>
        <path id="DejaVuSans-31" d="M 794 531 
L 1825 531 
L 1825 4091 
L 703 3866 
L 703 4441 
L 1819 4666 
L 2450 4666 
L 2450 531 
L 3481 531 
L 3481 0 
L 794 0 
L 794 531 
z
" transform="scale(0.015625)"/>
       </defs>
       <use xlink:href="#DejaVuSans-31"/>
       <use xlink:href="#DejaVuSans-2e" transform="translate(63.623047 0)"/>
       <use xlink:href="#DejaVuSans-30" transform="translate(95.410156 0)"/>
      </g>
     </g>
    </g>
    <g id="text_7">
     <!-- 1-propanol mole fraction in liquid/vapor -->
     <g transform="translate(177.340954 369.320073) scale(0.1 -0.1)">
      <defs>
       <path id="DejaVuSans-2d" d="M 313 2009 
L 1997 2009 
L 1997 1497 
L 313 1497 
L 313 2009 
z
" transform="scale(0.015625)"/>
       <path id="DejaVuSans-70" d="M 1159 525 
L 1159 -1331 
L 581 -1331 
L 581 3500 
L 1159 3500 
L 1159 2969 
Q 1341 3281 1617 3432 
Q 1894 3584 2278 3584 
Q 2916 3584 3314 3078 
Q 3713 2572 3713 1747 
Q 3713 922 3314 415 
Q 2916 -91 2278 -91 
Q 1894 -91 1617 61 
Q 1341 213 1159 525 
z
M 3116 1747 
Q 3116 2381 2855 2742 
Q 2594 3103 2138 3103 
Q 1681 3103 1420 2742 
Q 1159 2381 1159 1747 
Q 1159 1113 1420 752 
Q 1681 391 2138 391 
Q 2594 391 2855 752 
Q 3116 1113 3116 1747 
z
" transform="scale(0.015625)"/>
       <path id="DejaVuSans-72" d="M 2631 2963 
Q 2534 3019 2420 3045 
Q 2306 3072 2169 3072 
Q 1681 3072 1420 2755 
Q 1159 2438 1159 1844 
L 1159 0 
L 581 0 
L 581 3500 
L 1159 3500 
L 1159 2956 
Q 1341 3275 1631 3429 
Q 1922 3584 2338 3584 
Q 2397 3584 2469 3576 
Q 2541 3569 2628 3553 
L 2631 2963 
z
" transform="scale(0.015625)"/>
       <path id="DejaVuSans-6f" d="M 1959 3097 
Q 1497 3097 1228 2736 
Q 959 2375 959 1747 
Q 959 1119 1226 758 
Q 1494 397 1959 397 
Q 2419 397 2687 759 
Q 2956 1122 2956 1747 
Q 2956 2369 2687 2733 
Q 2419 3097 1959 3097 
z
M 1959 3584 
Q 2709 3584 3137 3096 
Q 3566 2609 3566 1747 
Q 3566 888 3137 398 
Q 2709 -91 1959 -91 
Q 1206 -91 779 398 
Q 353 888 353 1747 
Q 353 2609 779 3096 
Q 1206 3584 1959 3584 
z
" transform="scale(0.015625)"/>
       <path id="DejaVuSans-61" d="M 2194 1759 
Q 1497 1759 1228 1600 
Q 959 1441 959 1056 
Q 959 750 1161 570 
Q 1363 391 1709 391 
Q 2188 391 2477 730 
Q 2766 1069 2766 1631 
L 2766 1759 
L 2194 1759 
z
M 3341 1997 
L 3341 0 
L 2766 0 
L 2766 531 
Q 2569 213 2275 61 
Q 1981 -91 1556 -91 
Q 1019 -91 701 211 
Q 384 513 384 1019 
Q 384 1609 779 1909 
Q 1175 2209 1959 2209 
L 2766 2209 
L 2766 2266 
Q 2766 2663 2505 2880 
Q 2244 3097 1772 3097 
Q 1472 3097 1187 3025 
Q 903 2953 641 2809 
L 641 3341 
Q 956 3463 1253 3523 
Q 1550 3584 1831 3584 
Q 2591 3584 2966 3190 
Q 3341 2797 3341 1997 
z
" transform="scale(0.015625)"/>
       <path id="DejaVuSans-6e" d="M 3513 2113 
L 3513 0 
L 2938 0 
L 2938 2094 
Q 2938 2591 2744 2837 
Q 2550 3084 2163 3084 
Q 1697 3084 1428 2787 
Q 1159 2491 1159 1978 
L 1159 0 
L 581 0 
L 581 3500 
L 1159 3500 
L 1159 2956 
Q 1366 3272 1645 3428 
Q 1925 3584 2291 3584 
Q 2894 3584 3203 3211 
Q 3513 2838 3513 2113 
z
" transform="scale(0.015625)"/>
       <path id="DejaVuSans-6c" d="M 603 4863 
L 1178 4863 
L 1178 0 
L 603 0 
L 603 4863 
z
" transform="scale(0.015625)"/>
       <path id="DejaVuSans-20" transform="scale(0.015625)"/>
       <path id="DejaVuSans-6d" d="M 3328 2828 
Q 3544 3216 3844 3400 
Q 4144 3584 4550 3584 
Q 5097 3584 5394 3201 
Q 5691 2819 5691 2113 
L 5691 0 
L 5113 0 
L 5113 2094 
Q 5113 2597 4934 2840 
Q 4756 3084 4391 3084 
Q 3944 3084 3684 2787 
Q 3425 2491 3425 1978 
L 3425 0 
L 2847 0 
L 2847 2094 
Q 2847 2600 2669 2842 
Q 2491 3084 2119 3084 
Q 1678 3084 1418 2786 
Q 1159 2488 1159 1978 
L 1159 0 
L 581 0 
L 581 3500 
L 1159 3500 
L 1159 2956 
Q 1356 3278 1631 3431 
Q 1906 3584 2284 3584 
Q 2666 3584 2933 3390 
Q 3200 3197 3328 2828 
z
" transform="scale(0.015625)"/>
       <path id="DejaVuSans-65" d="M 3597 1894 
L 3597 1613 
L 953 1613 
Q 991 1019 1311 708 
Q 1631 397 2203 397 
Q 2534 397 2845 478 
Q 3156 559 3463 722 
L 3463 178 
Q 3153 47 2828 -22 
Q 2503 -91 2169 -91 
Q 1331 -91 842 396 
Q 353 884 353 1716 
Q 353 2575 817 3079 
Q 1281 3584 2069 3584 
Q 2775 3584 3186 3129 
Q 3597 2675 3597 1894 
z
M 3022 2063 
Q 3016 2534 2758 2815 
Q 2500 3097 2075 3097 
Q 1594 3097 1305 2825 
Q 1016 2553 972 2059 
L 3022 2063 
z
" transform="scale(0.015625)"/>
       <path id="DejaVuSans-66" d="M 2375 4863 
L 2375 4384 
L 1825 4384 
Q 1516 4384 1395 4259 
Q 1275 4134 1275 3809 
L 1275 3500 
L 2222 3500 
L 2222 3053 
L 1275 3053 
L 1275 0 
L 697 0 
L 697 3053 
L 147 3053 
L 147 3500 
L 697 3500 
L 697 3744 
Q 697 4328 969 4595 
Q 1241 4863 1831 4863 
L 2375 4863 
z
" transform="scale(0.015625)"/>
       <path id="DejaVuSans-63" d="M 3122 3366 
L 3122 2828 
Q 2878 2963 2633 3030 
Q 2388 3097 2138 3097 
Q 1578 3097 1268 2742 
Q 959 2388 959 1747 
Q 959 1106 1268 751 
Q 1578 397 2138 397 
Q 2388 397 2633 464 
Q 2878 531 3122 666 
L 3122 134 
Q 2881 22 2623 -34 
Q 2366 -91 2075 -91 
Q 1284 -91 818 406 
Q 353 903 353 1747 
Q 353 2603 823 3093 
Q 1294 3584 2113 3584 
Q 2378 3584 2631 3529 
Q 2884 3475 3122 3366 
z
" transform="scale(0.015625)"/>
       <path id="DejaVuSans-74" d="M 1172 4494 
L 1172 3500 
L 2356 3500 
L 2356 3053 
L 1172 3053 
L 1172 1153 
Q 1172 725 1289 603 
Q 1406 481 1766 481 
L 2356 481 
L 2356 0 
L 1766 0 
Q 1100 0 847 248 
Q 594 497 594 1153 
L 594 3053 
L 172 3053 
L 172 3500 
L 594 3500 
L 594 4494 
L 1172 4494 
z
" transform="scale(0.015625)"/>
       <path id="DejaVuSans-69" d="M 603 3500 
L 1178 3500 
L 1178 0 
L 603 0 
L 603 3500 
z
M 603 4863 
L 1178 4863 
L 1178 4134 
L 603 4134 
L 603 4863 
z
" transform="scale(0.015625)"/>
       <path id="DejaVuSans-71" d="M 947 1747 
Q 947 1113 1208 752 
Q 1469 391 1925 391 
Q 2381 391 2643 752 
Q 2906 1113 2906 1747 
Q 2906 2381 2643 2742 
Q 2381 3103 1925 3103 
Q 1469 3103 1208 2742 
Q 947 2381 947 1747 
z
M 2906 525 
Q 2725 213 2448 61 
Q 2172 -91 1784 -91 
Q 1150 -91 751 415 
Q 353 922 353 1747 
Q 353 2572 751 3078 
Q 1150 3584 1784 3584 
Q 2172 3584 2448 3432 
Q 2725 3281 2906 2969 
L 2906 3500 
L 3481 3500 
L 3481 -1331 
L 2906 -1331 
L 2906 525 
z
" transform="scale(0.015625)"/>
       <path id="DejaVuSans-75" d="M 544 1381 
L 544 3500 
L 1119 3500 
L 1119 1403 
Q 1119 906 1312 657 
Q 1506 409 1894 409 
Q 2359 409 2629 706 
Q 2900 1003 2900 1516 
L 2900 3500 
L 3475 3500 
L 3475 0 
L 2900 0 
L 2900 538 
Q 2691 219 2414 64 
Q 2138 -91 1772 -91 
Q 1169 -91 856 284 
Q 544 659 544 1381 
z
M 1991 3584 
L 1991 3584 
z
" transform="scale(0.015625)"/>
       <path id="DejaVuSans-64" d="M 2906 2969 
L 2906 4863 
L 3481 4863 
L 3481 0 
L 2906 0 
L 2906 525 
Q 2725 213 2448 61 
Q 2172 -91 1784 -91 
Q 1150 -91 751 415 
Q 353 922 353 1747 
Q 353 2572 751 3078 
Q 1150 3584 1784 3584 
Q 2172 3584 2448 3432 
Q 2725 3281 2906 2969 
z
M 947 1747 
Q 947 1113 1208 752 
Q 1469 391 1925 391 
Q 2381 391 2643 752 
Q 2906 1113 2906 1747 
Q 2906 2381 2643 2742 
Q 2381 3103 1925 3103 
Q 1469 3103 1208 2742 
Q 947 2381 947 1747 
z
" transform="scale(0.015625)"/>
       <path id="DejaVuSans-2f" d="M 1625 4666 
L 2156 4666 
L 531 -594 
L 0 -594 
L 1625 4666 
z
" transform="scale(0.015625)"/>
       <path id="DejaVuSans-76" d="M 191 3500 
L 800 3500 
L 1894 563 
L 2988 3500 
L 3597 3500 
L 2284 0 
L 1503 0 
L 191 3500 
z
" transform="scale(0.015625)"/>
      </defs>
      <use xlink:href="#DejaVuSans-31"/>
      <use xlink:href="#DejaVuSans-2d" transform="translate(63.623047 0)"/>
      <use xlink:href="#DejaVuSans-70" transform="translate(99.707031 0)"/>
      <use xlink:href="#DejaVuSans-72" transform="translate(163.183594 0)"/>
      <use xlink:href="#DejaVuSans-6f" transform="translate(202.046875 0)"/>
      <use xlink:href="#DejaVuSans-70" transform="translate(263.228516 0)"/>
      <use xlink:href="#DejaVuSans-61" transform="translate(326.705078 0)"/>
      <use xlink:href="#DejaVuSans-6e" transform="translate(387.984375 0)"/>
      <use xlink:href="#DejaVuSans-6f" transform="translate(451.363281 0)"/>
      <use xlink:href="#DejaVuSans-6c" transform="translate(512.544922 0)"/>
      <use xlink:href="#DejaVuSans-20" transform="translate(540.328125 0)"/>
      <use xlink:href="#DejaVuSans-6d" transform="translate(572.115234 0)"/>
      <use xlink:href="#DejaVuSans-6f" transform="translate(669.527344 0)"/>
      <use xlink:href="#DejaVuSans-6c" transform="translate(730.708984 0)"/>
      <use xlink:href="#DejaVuSans-65" transform="translate(758.492188 0)"/>
      <use xlink:href="#DejaVuSans-20" transform="translate(820.015625 0)"/>
      <use xlink:href="#DejaVuSans-66" transform="translate(851.802734 0)"/>
      <use xlink:href="#DejaVuSans-72" transform="translate(887.007812 0)"/>
      <use xlink:href="#DejaVuSans-61" transform="translate(928.121094 0)"/>
      <use xlink:href="#DejaVuSans-63" transform="translate(989.400391 0)"/>
      <use xlink:href="#DejaVuSans-74" transform="translate(1044.380859 0)"/>
      <use xlink:href="#DejaVuSans-69" transform="translate(1083.589844 0)"/>
      <use xlink:href="#DejaVuSans-6f" transform="translate(1111.373047 0)"/>
      <use xlink:href="#DejaVuSans-6e" transform="translate(1172.554688 0)"/>
      <use xlink:href="#DejaVuSans-20" transform="translate(1235.933594 0)"/>
      <use xlink:href="#DejaVuSans-69" transform="translate(1267.720703 0)"/>
      <use xlink:href="#DejaVuSans-6e" transform="translate(1295.503906 0)"/>
      <use xlink:href="#DejaVuSans-20" transform="translate(1358.882812 0)"/>
      <use xlink:href="#DejaVuSans-6c" transform="translate(1390.669922 0)"/>
      <use xlink:href="#DejaVuSans-69" transform="translate(1418.453125 0)"/>
      <use xlink:href="#DejaVuSans-71" transform="translate(1446.236328 0)"/>
      <use xlink:href="#DejaVuSans-75" transform="translate(1509.712891 0)"/>
      <use xlink:href="#DejaVuSans-69" transform="translate(1573.091797 0)"/>
      <use xlink:href="#DejaVuSans-64" transform="translate(1600.875 0)"/>
      <use xlink:href="#DejaVuSans-2f" transform="translate(1664.351562 0)"/>
      <use xlink:href="#DejaVuSans-76" transform="translate(1698.042969 0)"/>
      <use xlink:href="#DejaVuSans-61" transform="translate(1757.222656 0)"/>
      <use xlink:href="#DejaVuSans-70" transform="translate(1818.501953 0)"/>
      <use xlink:href="#DejaVuSans-6f" transform="translate(1881.978516 0)"/>
      <use xlink:href="#DejaVuSans-72" transform="translate(1943.160156 0)"/>
     </g>
    </g>
   </g>
   <g id="matplotlib.axis_2">
    <g id="ytick_1">
     <g id="line2d_13">
      <path d="M 42.765865 341.04351 
L 510.344168 341.04351 
" clip-path="url(#pe4a7725c4a)" style="fill: none; stroke: #e5e7eb; stroke-width: 0.7; stroke-linecap: square"/>
     </g>
     <g id="line2d_14">
      <defs>
       <path id="mb08f173c1c" d="M 0 0 
L -3.5 0 
" style="stroke: #000000; stroke-width: 0.8"/>
      </defs>
      <g>
       <use xlink:href="#mb08f173c1c" x="42.765865" y="341.04351" style="stroke: #000000; stroke-width: 0.8"/>
      </g>
     </g>
     <g id="text_8">
      <!-- 80 -->
      <g transform="translate(23.040865 344.842729) scale(0.1 -0.1)">
       <use xlink:href="#DejaVuSans-38"/>
       <use xlink:href="#DejaVuSans-30" transform="translate(63.623047 0)"/>
      </g>
     </g>
    </g>
    <g id="ytick_2">
     <g id="line2d_15">
      <path d="M 42.765865 289.28139 
L 510.344168 289.28139 
" clip-path="url(#pe4a7725c4a)" style="fill: none; stroke: #e5e7eb; stroke-width: 0.7; stroke-linecap: square"/>
     </g>
     <g id="line2d_16">
      <g>
       <use xlink:href="#mb08f173c1c" x="42.765865" y="289.28139" style="stroke: #000000; stroke-width: 0.8"/>
      </g>
     </g>
     <g id="text_9">
      <!-- 90 -->
      <g transform="translate(23.040865 293.080609) scale(0.1 -0.1)">
       <defs>
        <path id="DejaVuSans-39" d="M 703 97 
L 703 672 
Q 941 559 1184 500 
Q 1428 441 1663 441 
Q 2288 441 2617 861 
Q 2947 1281 2994 2138 
Q 2813 1869 2534 1725 
Q 2256 1581 1919 1581 
Q 1219 1581 811 2004 
Q 403 2428 403 3163 
Q 403 3881 828 4315 
Q 1253 4750 1959 4750 
Q 2769 4750 3195 4129 
Q 3622 3509 3622 2328 
Q 3622 1225 3098 567 
Q 2575 -91 1691 -91 
Q 1453 -91 1209 -44 
Q 966 3 703 97 
z
M 1959 2075 
Q 2384 2075 2632 2365 
Q 2881 2656 2881 3163 
Q 2881 3666 2632 3958 
Q 2384 4250 1959 4250 
Q 1534 4250 1286 3958 
Q 1038 3666 1038 3163 
Q 1038 2656 1286 2365 
Q 1534 2075 1959 2075 
z
" transform="scale(0.015625)"/>
       </defs>
       <use xlink:href="#DejaVuSans-39"/>
       <use xlink:href="#DejaVuSans-30" transform="translate(63.623047 0)"/>
      </g>
     </g>
    </g>
    <g id="ytick_3">
     <g id="line2d_17">
      <path d="M 42.765865 237.51927 
L 510.344168 237.51927 
" clip-path="url(#pe4a7725c4a)" style="fill: none; stroke: #e5e7eb; stroke-width: 0.7; stroke-linecap: square"/>
     </g>
     <g id="line2d_18">
      <g>
       <use xlink:href="#mb08f173c1c" x="42.765865" y="237.51927" style="stroke: #000000; stroke-width: 0.8"/>
      </g>
     </g>
     <g id="text_10">
      <!-- 100 -->
      <g transform="translate(16.678365 241.318488) scale(0.1 -0.1)">
       <use xlink:href="#DejaVuSans-31"/>
       <use xlink:href="#DejaVuSans-30" transform="translate(63.623047 0)"/>
       <use xlink:href="#DejaVuSans-30" transform="translate(127.246094 0)"/>
      </g>
     </g>
    </g>
    <g id="ytick_4">
     <g id="line2d_19">
      <path d="M 42.765865 185.75715 
L 510.344168 185.75715 
" clip-path="url(#pe4a7725c4a)" style="fill: none; stroke: #e5e7eb; stroke-width: 0.7; stroke-linecap: square"/>
     </g>
     <g id="line2d_20">
      <g>
       <use xlink:href="#mb08f173c1c" x="42.765865" y="185.75715" style="stroke: #000000; stroke-width: 0.8"/>
      </g>
     </g>
     <g id="text_11">
      <!-- 110 -->
      <g transform="translate(16.678365 189.556368) scale(0.1 -0.1)">
       <use xlink:href="#DejaVuSans-31"/>
       <use xlink:href="#DejaVuSans-31" transform="translate(63.623047 0)"/>
       <use xlink:href="#DejaVuSans-30" transform="translate(127.246094 0)"/>
      </g>
     </g>
    </g>
    <g id="ytick_5">
     <g id="line2d_21">
      <path d="M 42.765865 133.995029 
L 510.344168 133.995029 
" clip-path="url(#pe4a7725c4a)" style="fill: none; stroke: #e5e7eb; stroke-width: 0.7; stroke-linecap: square"/>
     </g>
     <g id="line2d_22">
      <g>
       <use xlink:href="#mb08f173c1c" x="42.765865" y="133.995029" style="stroke: #000000; stroke-width: 0.8"/>
      </g>
     </g>
     <g id="text_12">
      <!-- 120 -->
      <g transform="translate(16.678365 137.794248) scale(0.1 -0.1)">
       <use xlink:href="#DejaVuSans-31"/>
       <use xlink:href="#DejaVuSans-32" transform="translate(63.623047 0)"/>
       <use xlink:href="#DejaVuSans-30" transform="translate(127.246094 0)"/>
      </g>
     </g>
    </g>
    <g id="ytick_6">
     <g id="line2d_23">
      <path d="M 42.765865 82.232909 
L 510.344168 82.232909 
" clip-path="url(#pe4a7725c4a)" style="fill: none; stroke: #e5e7eb; stroke-width: 0.7; stroke-linecap: square"/>
     </g>
     <g id="line2d_24">
      <g>
       <use xlink:href="#mb08f173c1c" x="42.765865" y="82.232909" style="stroke: #000000; stroke-width: 0.8"/>
      </g>
     </g>
     <g id="text_13">
      <!-- 130 -->
      <g transform="translate(16.678365 86.032128) scale(0.1 -0.1)">
       <defs>
        <path id="DejaVuSans-33" d="M 2597 2516 
Q 3050 2419 3304 2112 
Q 3559 1806 3559 1356 
Q 3559 666 3084 287 
Q 2609 -91 1734 -91 
Q 1441 -91 1130 -33 
Q 819 25 488 141 
L 488 750 
Q 750 597 1062 519 
Q 1375 441 1716 441 
Q 2309 441 2620 675 
Q 2931 909 2931 1356 
Q 2931 1769 2642 2001 
Q 2353 2234 1838 2234 
L 1294 2234 
L 1294 2753 
L 1863 2753 
Q 2328 2753 2575 2939 
Q 2822 3125 2822 3475 
Q 2822 3834 2567 4026 
Q 2313 4219 1838 4219 
Q 1578 4219 1281 4162 
Q 984 4106 628 3988 
L 628 4550 
Q 988 4650 1302 4700 
Q 1616 4750 1894 4750 
Q 2613 4750 3031 4423 
Q 3450 4097 3450 3541 
Q 3450 3153 3228 2886 
Q 3006 2619 2597 2516 
z
" transform="scale(0.015625)"/>
       </defs>
       <use xlink:href="#DejaVuSans-31"/>
       <use xlink:href="#DejaVuSans-33" transform="translate(63.623047 0)"/>
       <use xlink:href="#DejaVuSans-30" transform="translate(127.246094 0)"/>
      </g>
     </g>
    </g>
    <g id="ytick_7">
     <g id="line2d_25">
      <path d="M 42.765865 30.470789 
L 510.344168 30.470789 
" clip-path="url(#pe4a7725c4a)" style="fill: none; stroke: #e5e7eb; stroke-width: 0.7; stroke-linecap: square"/>
     </g>
     <g id="line2d_26">
      <g>
       <use xlink:href="#mb08f173c1c" x="42.765865" y="30.470789" style="stroke: #000000; stroke-width: 0.8"/>
      </g>
     </g>
     <g id="text_14">
      <!-- 140 -->
      <g transform="translate(16.678365 34.270008) scale(0.1 -0.1)">
       <use xlink:href="#DejaVuSans-31"/>
       <use xlink:href="#DejaVuSans-34" transform="translate(63.623047 0)"/>
       <use xlink:href="#DejaVuSans-30" transform="translate(127.246094 0)"/>
      </g>
     </g>
    </g>
    <g id="text_15">
     <!-- temperature / C -->
     <g transform="translate(10.598678 220.360625) rotate(-90) scale(0.1 -0.1)">
      <defs>
       <path id="DejaVuSans-43" d="M 4122 4306 
L 4122 3641 
Q 3803 3938 3442 4084 
Q 3081 4231 2675 4231 
Q 1875 4231 1450 3742 
Q 1025 3253 1025 2328 
Q 1025 1406 1450 917 
Q 1875 428 2675 428 
Q 3081 428 3442 575 
Q 3803 722 4122 1019 
L 4122 359 
Q 3791 134 3420 21 
Q 3050 -91 2638 -91 
Q 1578 -91 968 557 
Q 359 1206 359 2328 
Q 359 3453 968 4101 
Q 1578 4750 2638 4750 
Q 3056 4750 3426 4639 
Q 3797 4528 4122 4306 
z
" transform="scale(0.015625)"/>
      </defs>
      <use xlink:href="#DejaVuSans-74"/>
      <use xlink:href="#DejaVuSans-65" transform="translate(39.208984 0)"/>
      <use xlink:href="#DejaVuSans-6d" transform="translate(100.732422 0)"/>
      <use xlink:href="#DejaVuSans-70" transform="translate(198.144531 0)"/>
      <use xlink:href="#DejaVuSans-65" transform="translate(261.621094 0)"/>
      <use xlink:href="#DejaVuSans-72" transform="translate(323.144531 0)"/>
      <use xlink:href="#DejaVuSans-61" transform="translate(364.257812 0)"/>
      <use xlink:href="#DejaVuSans-74" transform="translate(425.537109 0)"/>
      <use xlink:href="#DejaVuSans-75" transform="translate(464.746094 0)"/>
      <use xlink:href="#DejaVuSans-72" transform="translate(528.125 0)"/>
      <use xlink:href="#DejaVuSans-65" transform="translate(566.988281 0)"/>
      <use xlink:href="#DejaVuSans-20" transform="translate(628.511719 0)"/>
      <use xlink:href="#DejaVuSans-2f" transform="translate(660.298828 0)"/>
      <use xlink:href="#DejaVuSans-20" transform="translate(693.990234 0)"/>
      <use xlink:href="#DejaVuSans-43" transform="translate(725.777344 0)"/>
     </g>
    </g>
   </g>
   <g id="line2d_27">
    <path d="M 51.757755 49.870191 
L 65.851628 62.763199 
L 78.536113 74.076681 
L 91.220598 85.106125 
L 103.905083 95.842768 
L 116.589567 106.277847 
L 129.274052 116.402597 
L 140.54915 125.134769 
L 151.824248 133.608665 
L 163.099346 141.818131 
L 174.374443 149.757011 
L 185.649541 157.419151 
L 196.924639 164.798396 
L 208.199737 171.888591 
L 219.474834 178.683583 
L 229.340545 184.382202 
L 239.206255 189.84597 
L 249.071966 195.070764 
L 258.937676 200.052461 
L 268.803387 204.786936 
L 278.669098 209.270068 
L 288.534808 213.497733 
L 298.400519 217.465808 
L 308.266229 221.17017 
L 318.13194 224.606695 
L 326.588263 227.335986 
L 335.044586 229.862874 
L 343.50091 232.184761 
L 351.957233 234.299052 
L 360.413556 236.20315 
L 368.86988 237.894457 
L 378.73559 239.610831 
L 404.10456 243.73704 
L 421.017207 246.270087 
L 435.111079 248.168201 
L 447.795564 249.663133 
L 459.070661 250.789014 
L 470.345759 251.694911 
L 480.21147 252.285248 
L 490.07718 252.667227 
L 499.942891 252.822215 
L 501.352278 252.824739 
L 501.352278 252.824739 
" clip-path="url(#pe4a7725c4a)" style="fill: none; stroke: #0b4f6c; stroke-opacity: 0.92; stroke-width: 1.8; stroke-linecap: square"/>
   </g>
   <g id="line2d_28">
    <path d="M 51.757755 49.870191 
L 501.352278 252.824739 
L 501.352278 252.824739 
" clip-path="url(#pe4a7725c4a)" style="fill: none; stroke: #b23a48; stroke-opacity: 0.92; stroke-width: 1.8; stroke-linecap: square"/>
   </g>
   <g id="line2d_29">
    <path d="M 51.757755 213.131775 
L 65.851628 224.824139 
L 79.9455 236.226835 
L 92.629985 246.223827 
L 105.31447 255.953101 
L 117.998955 265.398984 
L 130.68344 274.545803 
L 141.958537 282.412572 
L 153.233635 290.019653 
L 164.508733 297.356037 
L 175.783831 304.410718 
L 187.058928 311.172687 
L 196.924639 316.840641 
L 206.790349 322.268687 
L 216.65606 327.449448 
L 226.52177 332.375552 
L 236.387481 337.039625 
L 246.253192 341.434291 
L 256.118902 345.552176 
L 264.575225 348.855908 
L 273.031549 351.946229 
L 281.487872 354.818495 
L 289.944195 357.468064 
L 298.400519 359.89029 
L 306.856842 362.08053 
L 315.313165 364.034141 
L 323.769489 365.746478 
L 332.225812 367.212897 
L 340.682135 368.428756 
L 349.138458 369.389409 
L 357.594782 370.090213 
L 366.051105 370.526524 
L 373.098041 370.684723 
L 391.420075 370.694686 
L 461.889436 370.572666 
L 501.352278 370.315958 
L 501.352278 370.315958 
" clip-path="url(#pe4a7725c4a)" style="fill: none; stroke: #2f7d32; stroke-opacity: 0.92; stroke-width: 1.8; stroke-linecap: square"/>
   </g>
   <g id="line2d_30">
    <path d="M 51.757755 213.131775 
L 501.352278 370.315958 
L 501.352278 370.315958 
" clip-path="url(#pe4a7725c4a)" style="fill: none; stroke: #7b2cbf; stroke-opacity: 0.92; stroke-width: 1.8; stroke-linecap: square"/>
   </g>
   <g id="patch_3">
    <path d="M 42.765865 341.04351 
L 42.765865 20.118365 
" style="fill: none; stroke: #000000; stroke-width: 0.8; stroke-linejoin: miter; stroke-linecap: square"/>
   </g>
   <g id="patch_4">
    <path d="M 510.344168 341.04351 
L 510.344168 20.118365 
" style="fill: none; stroke: #000000; stroke-width: 0.8; stroke-linejoin: miter; stroke-linecap: square"/>
   </g>
   <g id="patch_5">
    <path d="M 42.765865 341.04351 
L 510.344168 341.04351 
" style="fill: none; stroke: #000000; stroke-width: 0.8; stroke-linejoin: miter; stroke-linecap: square"/>
   </g>
   <g id="patch_6">
    <path d="M 42.765865 20.118365 
L 510.344168 20.118365 
" style="fill: none; stroke: #000000; stroke-width: 0.8; stroke-linejoin: miter; stroke-linecap: square"/>
   </g>
   <g id="line2d_31">
    <defs>
     <path id="m5af975143f" d="M 0 3 
C 0.795609 3 1.55874 2.683901 2.12132 2.12132 
C 2.683901 1.55874 3 0.795609 3 0 
C 3 -0.795609 2.683901 -1.55874 2.12132 -2.12132 
C 1.55874 -2.683901 0.795609 -3 0 -3 
C -0.795609 -3 -1.55874 -2.683901 -2.12132 -2.12132 
C -2.683901 -1.55874 -3 -0.795609 -3 0 
C -3 0.795609 -2.683901 1.55874 -2.12132 2.12132 
C -1.55874 2.683901 -0.795609 3 0 3 
z
" style="stroke: #111111; stroke-opacity: 0.96"/>
    </defs>
    <g clip-path="url(#pe4a7725c4a)">
     <use xlink:href="#m5af975143f" x="81.880588" y="139.688863" style="fill: #ffffff; fill-opacity: 0.96; stroke: #111111; stroke-opacity: 0.96"/>
     <use xlink:href="#m5af975143f" x="90.872479" y="153.147014" style="fill: #ffffff; fill-opacity: 0.96; stroke: #111111; stroke-opacity: 0.96"/>
     <use xlink:href="#m5af975143f" x="103.91072" y="168.67565" style="fill: #ffffff; fill-opacity: 0.96; stroke: #111111; stroke-opacity: 0.96"/>
     <use xlink:href="#m5af975143f" x="116.499367" y="184.721907" style="fill: #ffffff; fill-opacity: 0.96; stroke: #111111; stroke-opacity: 0.96"/>
     <use xlink:href="#m5af975143f" x="130.886391" y="194.039089" style="fill: #ffffff; fill-opacity: 0.96; stroke: #111111; stroke-opacity: 0.96"/>
     <use xlink:href="#m5af975143f" x="152.466929" y="207.49724" style="fill: #ffffff; fill-opacity: 0.96; stroke: #111111; stroke-opacity: 0.96"/>
     <use xlink:href="#m5af975143f" x="176.295438" y="216.814422" style="fill: #ffffff; fill-opacity: 0.96; stroke: #111111; stroke-opacity: 0.96"/>
     <use xlink:href="#m5af975143f" x="195.628003" y="223.025876" style="fill: #ffffff; fill-opacity: 0.96; stroke: #111111; stroke-opacity: 0.96"/>
     <use xlink:href="#m5af975143f" x="219.006918" y="228.202088" style="fill: #ffffff; fill-opacity: 0.96; stroke: #111111; stroke-opacity: 0.96"/>
     <use xlink:href="#m5af975143f" x="242.835428" y="232.860679" style="fill: #ffffff; fill-opacity: 0.96; stroke: #111111; stroke-opacity: 0.96"/>
     <use xlink:href="#m5af975143f" x="274.307044" y="237.51927" style="fill: #ffffff; fill-opacity: 0.96; stroke: #111111; stroke-opacity: 0.96"/>
     <use xlink:href="#m5af975143f" x="296.337176" y="240.624997" style="fill: #ffffff; fill-opacity: 0.96; stroke: #111111; stroke-opacity: 0.96"/>
     <use xlink:href="#m5af975143f" x="321.064874" y="243.730724" style="fill: #ffffff; fill-opacity: 0.96; stroke: #111111; stroke-opacity: 0.96"/>
     <use xlink:href="#m5af975143f" x="350.288518" y="246.31883" style="fill: #ffffff; fill-opacity: 0.96; stroke: #111111; stroke-opacity: 0.96"/>
     <use xlink:href="#m5af975143f" x="372.768245" y="247.871694" style="fill: #ffffff; fill-opacity: 0.96; stroke: #111111; stroke-opacity: 0.96"/>
     <use xlink:href="#m5af975143f" x="392.999998" y="249.942179" style="fill: #ffffff; fill-opacity: 0.96; stroke: #111111; stroke-opacity: 0.96"/>
     <use xlink:href="#m5af975143f" x="398.395132" y="249.942179" style="fill: #ffffff; fill-opacity: 0.96; stroke: #111111; stroke-opacity: 0.96"/>
     <use xlink:href="#m5af975143f" x="441.556207" y="252.012663" style="fill: #ffffff; fill-opacity: 0.96; stroke: #111111; stroke-opacity: 0.96"/>
     <use xlink:href="#m5af975143f" x="461.78796" y="252.530285" style="fill: #ffffff; fill-opacity: 0.96; stroke: #111111; stroke-opacity: 0.96"/>
     <use xlink:href="#m5af975143f" x="475.275796" y="253.047906" style="fill: #ffffff; fill-opacity: 0.96; stroke: #111111; stroke-opacity: 0.96"/>
    </g>
   </g>
   <g id="line2d_32">
    <defs>
     <path id="maf84cda148" d="M 0 3 
C 0.795609 3 1.55874 2.683901 2.12132 2.12132 
C 2.683901 1.55874 3 0.795609 3 0 
C 3 -0.795609 2.683901 -1.55874 2.12132 -2.12132 
C 1.55874 -2.683901 0.795609 -3 0 -3 
C -0.795609 -3 -1.55874 -2.683901 -2.12132 -2.12132 
C -2.683901 -1.55874 -3 -0.795609 -3 0 
C -3 0.795609 -2.683901 1.55874 -2.12132 2.12132 
C -1.55874 2.683901 -0.795609 3 0 3 
z
" style="stroke: #d00000; stroke-opacity: 0.96"/>
    </defs>
    <g clip-path="url(#pe4a7725c4a)">
     <use xlink:href="#maf84cda148" x="237.440293" y="139.688863" style="fill: #ffffff; fill-opacity: 0.96; stroke: #d00000; stroke-opacity: 0.96"/>
     <use xlink:href="#maf84cda148" x="261.268803" y="153.147014" style="fill: #ffffff; fill-opacity: 0.96; stroke: #d00000; stroke-opacity: 0.96"/>
     <use xlink:href="#maf84cda148" x="288.694069" y="168.67565" style="fill: #ffffff; fill-opacity: 0.96; stroke: #d00000; stroke-opacity: 0.96"/>
     <use xlink:href="#maf84cda148" x="314.320957" y="184.721907" style="fill: #ffffff; fill-opacity: 0.96; stroke: #d00000; stroke-opacity: 0.96"/>
     <use xlink:href="#maf84cda148" x="325.56082" y="194.039089" style="fill: #ffffff; fill-opacity: 0.96; stroke: #d00000; stroke-opacity: 0.96"/>
     <use xlink:href="#maf84cda148" x="346.242168" y="207.49724" style="fill: #ffffff; fill-opacity: 0.96; stroke: #d00000; stroke-opacity: 0.96"/>
     <use xlink:href="#maf84cda148" x="358.830814" y="216.814422" style="fill: #ffffff; fill-opacity: 0.96; stroke: #d00000; stroke-opacity: 0.96"/>
     <use xlink:href="#maf84cda148" x="366.923516" y="223.025876" style="fill: #ffffff; fill-opacity: 0.96; stroke: #d00000; stroke-opacity: 0.96"/>
     <use xlink:href="#maf84cda148" x="375.465812" y="228.202088" style="fill: #ffffff; fill-opacity: 0.96; stroke: #d00000; stroke-opacity: 0.96"/>
     <use xlink:href="#maf84cda148" x="382.20973" y="232.860679" style="fill: #ffffff; fill-opacity: 0.96; stroke: #d00000; stroke-opacity: 0.96"/>
     <use xlink:href="#maf84cda148" x="391.20162" y="237.51927" style="fill: #ffffff; fill-opacity: 0.96; stroke: #d00000; stroke-opacity: 0.96"/>
     <use xlink:href="#maf84cda148" x="397.046349" y="240.624997" style="fill: #ffffff; fill-opacity: 0.96; stroke: #d00000; stroke-opacity: 0.96"/>
     <use xlink:href="#maf84cda148" x="403.790267" y="243.730724" style="fill: #ffffff; fill-opacity: 0.96; stroke: #d00000; stroke-opacity: 0.96"/>
     <use xlink:href="#maf84cda148" x="412.332563" y="246.31883" style="fill: #ffffff; fill-opacity: 0.96; stroke: #d00000; stroke-opacity: 0.96"/>
     <use xlink:href="#maf84cda148" x="419.975669" y="247.871694" style="fill: #ffffff; fill-opacity: 0.96; stroke: #d00000; stroke-opacity: 0.96"/>
     <use xlink:href="#maf84cda148" x="427.169182" y="249.942179" style="fill: #ffffff; fill-opacity: 0.96; stroke: #d00000; stroke-opacity: 0.96"/>
     <use xlink:href="#maf84cda148" x="429.866749" y="249.942179" style="fill: #ffffff; fill-opacity: 0.96; stroke: #d00000; stroke-opacity: 0.96"/>
     <use xlink:href="#maf84cda148" x="451.447286" y="252.012663" style="fill: #ffffff; fill-opacity: 0.96; stroke: #d00000; stroke-opacity: 0.96"/>
     <use xlink:href="#maf84cda148" x="465.384716" y="252.530285" style="fill: #ffffff; fill-opacity: 0.96; stroke: #d00000; stroke-opacity: 0.96"/>
     <use xlink:href="#maf84cda148" x="476.174985" y="253.047906" style="fill: #ffffff; fill-opacity: 0.96; stroke: #d00000; stroke-opacity: 0.96"/>
    </g>
   </g>
   <g id="text_16">
    <!-- Gross 2002 Fig. 3: 1-propanol/ethylbenzene -->
    <g transform="translate(145.371579 12.118365) scale(0.12 -0.12)">
     <defs>
      <path id="DejaVuSans-47" d="M 3809 666 
L 3809 1919 
L 2778 1919 
L 2778 2438 
L 4434 2438 
L 4434 434 
Q 4069 175 3628 42 
Q 3188 -91 2688 -91 
Q 1594 -91 976 548 
Q 359 1188 359 2328 
Q 359 3472 976 4111 
Q 1594 4750 2688 4750 
Q 3144 4750 3555 4637 
Q 3966 4525 4313 4306 
L 4313 3634 
Q 3963 3931 3569 4081 
Q 3175 4231 2741 4231 
Q 1884 4231 1454 3753 
Q 1025 3275 1025 2328 
Q 1025 1384 1454 906 
Q 1884 428 2741 428 
Q 3075 428 3337 486 
Q 3600 544 3809 666 
z
" transform="scale(0.015625)"/>
      <path id="DejaVuSans-73" d="M 2834 3397 
L 2834 2853 
Q 2591 2978 2328 3040 
Q 2066 3103 1784 3103 
Q 1356 3103 1142 2972 
Q 928 2841 928 2578 
Q 928 2378 1081 2264 
Q 1234 2150 1697 2047 
L 1894 2003 
Q 2506 1872 2764 1633 
Q 3022 1394 3022 966 
Q 3022 478 2636 193 
Q 2250 -91 1575 -91 
Q 1294 -91 989 -36 
Q 684 19 347 128 
L 347 722 
Q 666 556 975 473 
Q 1284 391 1588 391 
Q 1994 391 2212 530 
Q 2431 669 2431 922 
Q 2431 1156 2273 1281 
Q 2116 1406 1581 1522 
L 1381 1569 
Q 847 1681 609 1914 
Q 372 2147 372 2553 
Q 372 3047 722 3315 
Q 1072 3584 1716 3584 
Q 2034 3584 2315 3537 
Q 2597 3491 2834 3397 
z
" transform="scale(0.015625)"/>
      <path id="DejaVuSans-46" d="M 628 4666 
L 3309 4666 
L 3309 4134 
L 1259 4134 
L 1259 2759 
L 3109 2759 
L 3109 2228 
L 1259 2228 
L 1259 0 
L 628 0 
L 628 4666 
z
" transform="scale(0.015625)"/>
      <path id="DejaVuSans-67" d="M 2906 1791 
Q 2906 2416 2648 2759 
Q 2391 3103 1925 3103 
Q 1463 3103 1205 2759 
Q 947 2416 947 1791 
Q 947 1169 1205 825 
Q 1463 481 1925 481 
Q 2391 481 2648 825 
Q 2906 1169 2906 1791 
z
M 3481 434 
Q 3481 -459 3084 -895 
Q 2688 -1331 1869 -1331 
Q 1566 -1331 1297 -1286 
Q 1028 -1241 775 -1147 
L 775 -588 
Q 1028 -725 1275 -790 
Q 1522 -856 1778 -856 
Q 2344 -856 2625 -561 
Q 2906 -266 2906 331 
L 2906 616 
Q 2728 306 2450 153 
Q 2172 0 1784 0 
Q 1141 0 747 490 
Q 353 981 353 1791 
Q 353 2603 747 3093 
Q 1141 3584 1784 3584 
Q 2172 3584 2450 3431 
Q 2728 3278 2906 2969 
L 2906 3500 
L 3481 3500 
L 3481 434 
z
" transform="scale(0.015625)"/>
      <path id="DejaVuSans-3a" d="M 750 794 
L 1409 794 
L 1409 0 
L 750 0 
L 750 794 
z
M 750 3309 
L 1409 3309 
L 1409 2516 
L 750 2516 
L 750 3309 
z
" transform="scale(0.015625)"/>
      <path id="DejaVuSans-68" d="M 3513 2113 
L 3513 0 
L 2938 0 
L 2938 2094 
Q 2938 2591 2744 2837 
Q 2550 3084 2163 3084 
Q 1697 3084 1428 2787 
Q 1159 2491 1159 1978 
L 1159 0 
L 581 0 
L 581 4863 
L 1159 4863 
L 1159 2956 
Q 1366 3272 1645 3428 
Q 1925 3584 2291 3584 
Q 2894 3584 3203 3211 
Q 3513 2838 3513 2113 
z
" transform="scale(0.015625)"/>
      <path id="DejaVuSans-79" d="M 2059 -325 
Q 1816 -950 1584 -1140 
Q 1353 -1331 966 -1331 
L 506 -1331 
L 506 -850 
L 844 -850 
Q 1081 -850 1212 -737 
Q 1344 -625 1503 -206 
L 1606 56 
L 191 3500 
L 800 3500 
L 1894 763 
L 2988 3500 
L 3597 3500 
L 2059 -325 
z
" transform="scale(0.015625)"/>
      <path id="DejaVuSans-62" d="M 3116 1747 
Q 3116 2381 2855 2742 
Q 2594 3103 2138 3103 
Q 1681 3103 1420 2742 
Q 1159 2381 1159 1747 
Q 1159 1113 1420 752 
Q 1681 391 2138 391 
Q 2594 391 2855 752 
Q 3116 1113 3116 1747 
z
M 1159 2969 
Q 1341 3281 1617 3432 
Q 1894 3584 2278 3584 
Q 2916 3584 3314 3078 
Q 3713 2572 3713 1747 
Q 3713 922 3314 415 
Q 2916 -91 2278 -91 
Q 1894 -91 1617 61 
Q 1341 213 1159 525 
L 1159 0 
L 581 0 
L 581 4863 
L 1159 4863 
L 1159 2969 
z
" transform="scale(0.015625)"/>
      <path id="DejaVuSans-7a" d="M 353 3500 
L 3084 3500 
L 3084 2975 
L 922 459 
L 3084 459 
L 3084 0 
L 275 0 
L 275 525 
L 2438 3041 
L 353 3041 
L 353 3500 
z
" transform="scale(0.015625)"/>
     </defs>
     <use xlink:href="#DejaVuSans-47"/>
     <use xlink:href="#DejaVuSans-72" transform="translate(77.490234 0)"/>
     <use xlink:href="#DejaVuSans-6f" transform="translate(116.353516 0)"/>
     <use xlink:href="#DejaVuSans-73" transform="translate(177.535156 0)"/>
     <use xlink:href="#DejaVuSans-73" transform="translate(229.634766 0)"/>
     <use xlink:href="#DejaVuSans-20" transform="translate(281.734375 0)"/>
     <use xlink:href="#DejaVuSans-32" transform="translate(313.521484 0)"/>
     <use xlink:href="#DejaVuSans-30" transform="translate(377.144531 0)"/>
     <use xlink:href="#DejaVuSans-30" transform="translate(440.767578 0)"/>
     <use xlink:href="#DejaVuSans-32" transform="translate(504.390625 0)"/>
     <use xlink:href="#DejaVuSans-20" transform="translate(568.013672 0)"/>
     <use xlink:href="#DejaVuSans-46" transform="translate(599.800781 0)"/>
     <use xlink:href="#DejaVuSans-69" transform="translate(650.070312 0)"/>
     <use xlink:href="#DejaVuSans-67" transform="translate(677.853516 0)"/>
     <use xlink:href="#DejaVuSans-2e" transform="translate(741.330078 0)"/>
     <use xlink:href="#DejaVuSans-20" transform="translate(773.117188 0)"/>
     <use xlink:href="#DejaVuSans-33" transform="translate(804.904297 0)"/>
     <use xlink:href="#DejaVuSans-3a" transform="translate(868.527344 0)"/>
     <use xlink:href="#DejaVuSans-20" transform="translate(902.21875 0)"/>
     <use xlink:href="#DejaVuSans-31" transform="translate(934.005859 0)"/>
     <use xlink:href="#DejaVuSans-2d" transform="translate(997.628906 0)"/>
     <use xlink:href="#DejaVuSans-70" transform="translate(1033.712891 0)"/>
     <use xlink:href="#DejaVuSans-72" transform="translate(1097.189453 0)"/>
     <use xlink:href="#DejaVuSans-6f" transform="translate(1136.052734 0)"/>
     <use xlink:href="#DejaVuSans-70" transform="translate(1197.234375 0)"/>
     <use xlink:href="#DejaVuSans-61" transform="translate(1260.710938 0)"/>
     <use xlink:href="#DejaVuSans-6e" transform="translate(1321.990234 0)"/>
     <use xlink:href="#DejaVuSans-6f" transform="translate(1385.369141 0)"/>
     <use xlink:href="#DejaVuSans-6c" transform="translate(1446.550781 0)"/>
     <use xlink:href="#DejaVuSans-2f" transform="translate(1474.333984 0)"/>
     <use xlink:href="#DejaVuSans-65" transform="translate(1508.025391 0)"/>
     <use xlink:href="#DejaVuSans-74" transform="translate(1569.548828 0)"/>
     <use xlink:href="#DejaVuSans-68" transform="translate(1608.757812 0)"/>
     <use xlink:href="#DejaVuSans-79" transform="translate(1672.136719 0)"/>
     <use xlink:href="#DejaVuSans-6c" transform="translate(1731.316406 0)"/>
     <use xlink:href="#DejaVuSans-62" transform="translate(1759.099609 0)"/>
     <use xlink:href="#DejaVuSans-65" transform="translate(1822.576172 0)"/>
     <use xlink:href="#DejaVuSans-6e" transform="translate(1884.099609 0)"/>
     <use xlink:href="#DejaVuSans-7a" transform="translate(1947.478516 0)"/>
     <use xlink:href="#DejaVuSans-65" transform="translate(1999.96875 0)"/>
     <use xlink:href="#DejaVuSans-6e" transform="translate(2061.492188 0)"/>
     <use xlink:href="#DejaVuSans-65" transform="translate(2124.871094 0)"/>
    </g>
   </g>
   <g id="legend_1">
    <g id="patch_7">
     <path d="M 519.919951 88.06649 
L 629.199795 88.06649 
Q 630.599795 88.06649 630.599795 86.66649 
L 630.599795 25.018365 
Q 630.599795 23.618365 629.199795 23.618365 
L 519.919951 23.618365 
Q 518.519951 23.618365 518.519951 25.018365 
L 518.519951 86.66649 
Q 518.519951 88.06649 519.919951 88.06649 
z
" style="fill: #ffffff; opacity: 0.92; stroke: #cccccc; stroke-linejoin: miter"/>
    </g>
    <g id="line2d_33">
     <path d="M 521.669951 29.637271 
L 529.369951 29.637271 
L 537.069951 29.637271 
" style="fill: none; stroke: #0b4f6c; stroke-opacity: 0.92; stroke-width: 1.8; stroke-linecap: square"/>
    </g>
    <g id="text_17">
     <!-- model 101.3 kPa bubble -->
     <g transform="translate(542.669951 32.087271) scale(0.07 -0.07)">
      <defs>
       <path id="DejaVuSans-6b" d="M 581 4863 
L 1159 4863 
L 1159 1991 
L 2875 3500 
L 3609 3500 
L 1753 1863 
L 3688 0 
L 2938 0 
L 1159 1709 
L 1159 0 
L 581 0 
L 581 4863 
z
" transform="scale(0.015625)"/>
       <path id="DejaVuSans-50" d="M 1259 4147 
L 1259 2394 
L 2053 2394 
Q 2494 2394 2734 2622 
Q 2975 2850 2975 3272 
Q 2975 3691 2734 3919 
Q 2494 4147 2053 4147 
L 1259 4147 
z
M 628 4666 
L 2053 4666 
Q 2838 4666 3239 4311 
Q 3641 3956 3641 3272 
Q 3641 2581 3239 2228 
Q 2838 1875 2053 1875 
L 1259 1875 
L 1259 0 
L 628 0 
L 628 4666 
z
" transform="scale(0.015625)"/>
      </defs>
      <use xlink:href="#DejaVuSans-6d"/>
      <use xlink:href="#DejaVuSans-6f" transform="translate(97.412109 0)"/>
      <use xlink:href="#DejaVuSans-64" transform="translate(158.59375 0)"/>
      <use xlink:href="#DejaVuSans-65" transform="translate(222.070312 0)"/>
      <use xlink:href="#DejaVuSans-6c" transform="translate(283.59375 0)"/>
      <use xlink:href="#DejaVuSans-20" transform="translate(311.376953 0)"/>
      <use xlink:href="#DejaVuSans-31" transform="translate(343.164062 0)"/>
      <use xlink:href="#DejaVuSans-30" transform="translate(406.787109 0)"/>
      <use xlink:href="#DejaVuSans-31" transform="translate(470.410156 0)"/>
      <use xlink:href="#DejaVuSans-2e" transform="translate(534.033203 0)"/>
      <use xlink:href="#DejaVuSans-33" transform="translate(565.820312 0)"/>
      <use xlink:href="#DejaVuSans-20" transform="translate(629.443359 0)"/>
      <use xlink:href="#DejaVuSans-6b" transform="translate(661.230469 0)"/>
      <use xlink:href="#DejaVuSans-50" transform="translate(719.140625 0)"/>
      <use xlink:href="#DejaVuSans-61" transform="translate(774.943359 0)"/>
      <use xlink:href="#DejaVuSans-20" transform="translate(836.222656 0)"/>
      <use xlink:href="#DejaVuSans-62" transform="translate(868.009766 0)"/>
      <use xlink:href="#DejaVuSans-75" transform="translate(931.486328 0)"/>
      <use xlink:href="#DejaVuSans-62" transform="translate(994.865234 0)"/>
      <use xlink:href="#DejaVuSans-62" transform="translate(1058.341797 0)"/>
      <use xlink:href="#DejaVuSans-6c" transform="translate(1121.818359 0)"/>
      <use xlink:href="#DejaVuSans-65" transform="translate(1149.601562 0)"/>
     </g>
    </g>
    <g id="line2d_34">
     <path d="M 521.669951 39.911959 
L 529.369951 39.911959 
L 537.069951 39.911959 
" style="fill: none; stroke: #b23a48; stroke-opacity: 0.92; stroke-width: 1.8; stroke-linecap: square"/>
    </g>
    <g id="text_18">
     <!-- model 101.3 kPa dew -->
     <g transform="translate(542.669951 42.361959) scale(0.07 -0.07)">
      <defs>
       <path id="DejaVuSans-77" d="M 269 3500 
L 844 3500 
L 1563 769 
L 2278 3500 
L 2956 3500 
L 3675 769 
L 4391 3500 
L 4966 3500 
L 4050 0 
L 3372 0 
L 2619 2869 
L 1863 0 
L 1184 0 
L 269 3500 
z
" transform="scale(0.015625)"/>
      </defs>
      <use xlink:href="#DejaVuSans-6d"/>
      <use xlink:href="#DejaVuSans-6f" transform="translate(97.412109 0)"/>
      <use xlink:href="#DejaVuSans-64" transform="translate(158.59375 0)"/>
      <use xlink:href="#DejaVuSans-65" transform="translate(222.070312 0)"/>
      <use xlink:href="#DejaVuSans-6c" transform="translate(283.59375 0)"/>
      <use xlink:href="#DejaVuSans-20" transform="translate(311.376953 0)"/>
      <use xlink:href="#DejaVuSans-31" transform="translate(343.164062 0)"/>
      <use xlink:href="#DejaVuSans-30" transform="translate(406.787109 0)"/>
      <use xlink:href="#DejaVuSans-31" transform="translate(470.410156 0)"/>
      <use xlink:href="#DejaVuSans-2e" transform="translate(534.033203 0)"/>
      <use xlink:href="#DejaVuSans-33" transform="translate(565.820312 0)"/>
      <use xlink:href="#DejaVuSans-20" transform="translate(629.443359 0)"/>
      <use xlink:href="#DejaVuSans-6b" transform="translate(661.230469 0)"/>
      <use xlink:href="#DejaVuSans-50" transform="translate(719.140625 0)"/>
      <use xlink:href="#DejaVuSans-61" transform="translate(774.943359 0)"/>
      <use xlink:href="#DejaVuSans-20" transform="translate(836.222656 0)"/>
      <use xlink:href="#DejaVuSans-64" transform="translate(868.009766 0)"/>
      <use xlink:href="#DejaVuSans-65" transform="translate(931.486328 0)"/>
      <use xlink:href="#DejaVuSans-77" transform="translate(993.009766 0)"/>
     </g>
    </g>
    <g id="line2d_35">
     <path d="M 521.669951 50.186646 
L 529.369951 50.186646 
L 537.069951 50.186646 
" style="fill: none; stroke: #2f7d32; stroke-opacity: 0.92; stroke-width: 1.8; stroke-linecap: square"/>
    </g>
    <g id="text_19">
     <!-- model low P bubble -->
     <g transform="translate(542.669951 52.636646) scale(0.07 -0.07)">
      <use xlink:href="#DejaVuSans-6d"/>
      <use xlink:href="#DejaVuSans-6f" transform="translate(97.412109 0)"/>
      <use xlink:href="#DejaVuSans-64" transform="translate(158.59375 0)"/>
      <use xlink:href="#DejaVuSans-65" transform="translate(222.070312 0)"/>
      <use xlink:href="#DejaVuSans-6c" transform="translate(283.59375 0)"/>
      <use xlink:href="#DejaVuSans-20" transform="translate(311.376953 0)"/>
      <use xlink:href="#DejaVuSans-6c" transform="translate(343.164062 0)"/>
      <use xlink:href="#DejaVuSans-6f" transform="translate(370.947266 0)"/>
      <use xlink:href="#DejaVuSans-77" transform="translate(432.128906 0)"/>
      <use xlink:href="#DejaVuSans-20" transform="translate(513.916016 0)"/>
      <use xlink:href="#DejaVuSans-50" transform="translate(545.703125 0)"/>
      <use xlink:href="#DejaVuSans-20" transform="translate(606.005859 0)"/>
      <use xlink:href="#DejaVuSans-62" transform="translate(637.792969 0)"/>
      <use xlink:href="#DejaVuSans-75" transform="translate(701.269531 0)"/>
      <use xlink:href="#DejaVuSans-62" transform="translate(764.648438 0)"/>
      <use xlink:href="#DejaVuSans-62" transform="translate(828.125 0)"/>
      <use xlink:href="#DejaVuSans-6c" transform="translate(891.601562 0)"/>
      <use xlink:href="#DejaVuSans-65" transform="translate(919.384766 0)"/>
     </g>
    </g>
    <g id="line2d_36">
     <path d="M 521.669951 60.461334 
L 529.369951 60.461334 
L 537.069951 60.461334 
" style="fill: none; stroke: #7b2cbf; stroke-opacity: 0.92; stroke-width: 1.8; stroke-linecap: square"/>
    </g>
    <g id="text_20">
     <!-- model low P dew -->
     <g transform="translate(542.669951 62.911334) scale(0.07 -0.07)">
      <use xlink:href="#DejaVuSans-6d"/>
      <use xlink:href="#DejaVuSans-6f" transform="translate(97.412109 0)"/>
      <use xlink:href="#DejaVuSans-64" transform="translate(158.59375 0)"/>
      <use xlink:href="#DejaVuSans-65" transform="translate(222.070312 0)"/>
      <use xlink:href="#DejaVuSans-6c" transform="translate(283.59375 0)"/>
      <use xlink:href="#DejaVuSans-20" transform="translate(311.376953 0)"/>
      <use xlink:href="#DejaVuSans-6c" transform="translate(343.164062 0)"/>
      <use xlink:href="#DejaVuSans-6f" transform="translate(370.947266 0)"/>
      <use xlink:href="#DejaVuSans-77" transform="translate(432.128906 0)"/>
      <use xlink:href="#DejaVuSans-20" transform="translate(513.916016 0)"/>
      <use xlink:href="#DejaVuSans-50" transform="translate(545.703125 0)"/>
      <use xlink:href="#DejaVuSans-20" transform="translate(606.005859 0)"/>
      <use xlink:href="#DejaVuSans-64" transform="translate(637.792969 0)"/>
      <use xlink:href="#DejaVuSans-65" transform="translate(701.269531 0)"/>
      <use xlink:href="#DejaVuSans-77" transform="translate(762.792969 0)"/>
     </g>
    </g>
    <g id="line2d_37">
     <g>
      <use xlink:href="#m5af975143f" x="529.369951" y="70.736021" style="fill: #ffffff; fill-opacity: 0.96; stroke: #111111; stroke-opacity: 0.96"/>
     </g>
    </g>
    <g id="text_21">
     <!-- table 101.3 kPa bubble -->
     <g transform="translate(542.669951 73.186021) scale(0.07 -0.07)">
      <use xlink:href="#DejaVuSans-74"/>
      <use xlink:href="#DejaVuSans-61" transform="translate(39.208984 0)"/>
      <use xlink:href="#DejaVuSans-62" transform="translate(100.488281 0)"/>
      <use xlink:href="#DejaVuSans-6c" transform="translate(163.964844 0)"/>
      <use xlink:href="#DejaVuSans-65" transform="translate(191.748047 0)"/>
      <use xlink:href="#DejaVuSans-20" transform="translate(253.271484 0)"/>
      <use xlink:href="#DejaVuSans-31" transform="translate(285.058594 0)"/>
      <use xlink:href="#DejaVuSans-30" transform="translate(348.681641 0)"/>
      <use xlink:href="#DejaVuSans-31" transform="translate(412.304688 0)"/>
      <use xlink:href="#DejaVuSans-2e" transform="translate(475.927734 0)"/>
      <use xlink:href="#DejaVuSans-33" transform="translate(507.714844 0)"/>
      <use xlink:href="#DejaVuSans-20" transform="translate(571.337891 0)"/>
      <use xlink:href="#DejaVuSans-6b" transform="translate(603.125 0)"/>
      <use xlink:href="#DejaVuSans-50" transform="translate(661.035156 0)"/>
      <use xlink:href="#DejaVuSans-61" transform="translate(716.837891 0)"/>
      <use xlink:href="#DejaVuSans-20" transform="translate(778.117188 0)"/>
      <use xlink:href="#DejaVuSans-62" transform="translate(809.904297 0)"/>
      <use xlink:href="#DejaVuSans-75" transform="translate(873.380859 0)"/>
      <use xlink:href="#DejaVuSans-62" transform="translate(936.759766 0)"/>
      <use xlink:href="#DejaVuSans-62" transform="translate(1000.236328 0)"/>
      <use xlink:href="#DejaVuSans-6c" transform="translate(1063.712891 0)"/>
      <use xlink:href="#DejaVuSans-65" transform="translate(1091.496094 0)"/>
     </g>
    </g>
    <g id="line2d_38">
     <g>
      <use xlink:href="#maf84cda148" x="529.369951" y="81.010709" style="fill: #ffffff; fill-opacity: 0.96; stroke: #d00000; stroke-opacity: 0.96"/>
     </g>
    </g>
    <g id="text_22">
     <!-- table 101.3 kPa dew -->
     <g transform="translate(542.669951 83.460709) scale(0.07 -0.07)">
      <use xlink:href="#DejaVuSans-74"/>
      <use xlink:href="#DejaVuSans-61" transform="translate(39.208984 0)"/>
      <use xlink:href="#DejaVuSans-62" transform="translate(100.488281 0)"/>
      <use xlink:href="#DejaVuSans-6c" transform="translate(163.964844 0)"/>
      <use xlink:href="#DejaVuSans-65" transform="translate(191.748047 0)"/>
      <use xlink:href="#DejaVuSans-20" transform="translate(253.271484 0)"/>
      <use xlink:href="#DejaVuSans-31" transform="translate(285.058594 0)"/>
      <use xlink:href="#DejaVuSans-30" transform="translate(348.681641 0)"/>
      <use xlink:href="#DejaVuSans-31" transform="translate(412.304688 0)"/>
      <use xlink:href="#DejaVuSans-2e" transform="translate(475.927734 0)"/>
      <use xlink:href="#DejaVuSans-33" transform="translate(507.714844 0)"/>
      <use xlink:href="#DejaVuSans-20" transform="translate(571.337891 0)"/>
      <use xlink:href="#DejaVuSans-6b" transform="translate(603.125 0)"/>
      <use xlink:href="#DejaVuSans-50" transform="translate(661.035156 0)"/>
      <use xlink:href="#DejaVuSans-61" transform="translate(716.837891 0)"/>
      <use xlink:href="#DejaVuSans-20" transform="translate(778.117188 0)"/>
      <use xlink:href="#DejaVuSans-64" transform="translate(809.904297 0)"/>
      <use xlink:href="#DejaVuSans-65" transform="translate(873.380859 0)"/>
      <use xlink:href="#DejaVuSans-77" transform="translate(934.904297 0)"/>
     </g>
    </g>
   </g>
  </g>
 </g>
 <defs>
  <clipPath id="pe4a7725c4a">
   <rect x="42.765865" y="20.118365" width="467.578303" height="320.925145"/>
  </clipPath>
 </defs>
</svg>
