<?xml version="1.0" encoding="utf-8" standalone="no"?>
<!DOCTYPE svg PUBLIC "-//W3C//DTD SVG 1.1//EN"
  "http://www.w3.org/Graphics/SVG/1.1/DTD/svg11.dtd">
<svg xmlns:xlink="http://www.w3.org/1999/xlink" width="569.123125pt" height="309.358125pt" viewBox="0 0 569.123125 309.358125" xmlns="http://www.w3.org/2000/svg" version="1.1">
 <metadata>
  <rdf:RDF xmlns:dc="http://purl.org/dc/elements/1.1/" xmlns:cc="http://creativecommons.org/ns#" xmlns:rdf="http://www.w3.org/1999/02/22-rdf-syntax-ns#">
   <cc:Work>
    <dc:type rdf:resource="http://purl.org/dc/dcmitype/StillImage"/>
    <dc:format>image/svg+xml</dc:format>
    <dc:creator>
     <cc:Agent>
      <dc:title>Matplotlib v3.10.9, https://matplotlib.org/</dc:title>
     </cc:Agent>
    </dc:creator>
   </cc:Work>
  </rdf:RDF>
 </metadata>
 <defs>
  <style type="text/css">*{stroke-linejoin: round; stroke-linecap: butt}</style>
 </defs>
 <g id="figure_1">
  <g id="patch_1">
   <path d="M 0 309.358125
L 569.123125 309.358125
L 569.123125 0
L 0 0
z
" style="fill: #ffffff"/>
  </g>
  <g id="axes_1">
   <g id="patch_2">
    <path d="M 181.203125 302.158125
L 561.923125 302.158125
L 561.923125 22.318125
L 181.203125 22.318125
z
" style="fill: #ffffff"/>
   </g>
   <g id="patch_3">
    <path d="M 181.203125 35.038125
L 561.923125 35.038125
L 561.923125 69.178385
L 181.203125 69.178385
z
" clip-path="url(#p356bfbe284)" style="fill: #15803d"/>
   </g>
   <g id="patch_4">
    <path d="M 181.203125 90.10306
L 561.923125 90.10306
L 561.923125 124.24332
L 181.203125 124.24332
z
" clip-path="url(#p356bfbe284)" style="fill: #15803d"/>
   </g>
   <g id="patch_5">
    <path d="M 181.203125 145.167995
L 561.923125 145.167995
L 561.923125 179.308255
L 181.203125 179.308255
z
" clip-path="url(#p356bfbe284)" style="fill: #15803d"/>
   </g>
   <g id="patch_6">
    <path d="M 181.203125 200.23293
L 561.923125 200.23293
L 561.923125 234.37319
L 181.203125 234.37319
z
" clip-path="url(#p356bfbe284)" style="fill: #15803d"/>
   </g>
   <g id="patch_7">
    <path d="M 181.203125 255.297865
L 561.923125 255.297865
L 561.923125 289.438125
L 181.203125 289.438125
z
" clip-path="url(#p356bfbe284)" style="fill: #15803d"/>
   </g>
   <g id="matplotlib.axis_1"/>
   <g id="matplotlib.axis_2">
    <g id="ytick_1">
     <g id="line2d_1">
      <defs>
       <path id="ma2d2166059" d="M 0 0
L -3.5 0
" style="stroke: #000000; stroke-width: 0.8"/>
      </defs>
      <g>
       <use xlink:href="#ma2d2166059" x="181.203125" y="52.108255" style="stroke: #000000; stroke-width: 0.8"/>
      </g>
     </g>
     <g id="text_1">
      <!-- Deterministic screening -->
      <g transform="translate(52.273438 55.83638) scale(0.1 -0.1)">
       <defs>
        <path id="DejaVuSerif-44" d="M 1581 331
L 2163 331
Q 3072 331 3558 850
Q 4044 1369 4044 2338
Q 4044 3306 3559 3818
Q 3075 4331 2163 4331
L 1581 4331
L 1581 331
z
M 353 0
L 353 331
L 947 331
L 947 4331
L 353 4331
L 353 4666
L 2209 4666
Q 3416 4666 4089 4050
Q 4763 3434 4763 2338
Q 4763 1238 4088 619
Q 3413 0 2209 0
L 353 0
z
" transform="scale(0.015625)"/>
        <path id="DejaVuSerif-65" d="M 3469 1600
L 991 1600
L 991 1575
Q 991 903 1244 561
Q 1497 219 1991 219
Q 2369 219 2611 417
Q 2853 616 2950 1006
L 3413 1006
Q 3275 459 2904 184
Q 2534 -91 1931 -91
Q 1203 -91 761 389
Q 319 869 319 1663
Q 319 2450 753 2931
Q 1188 3413 1894 3413
Q 2647 3413 3050 2948
Q 3453 2484 3469 1600
z
M 2791 1931
Q 2772 2513 2545 2808
Q 2319 3103 1894 3103
Q 1497 3103 1269 2806
Q 1041 2509 991 1931
L 2791 1931
z
" transform="scale(0.015625)"/>
        <path id="DejaVuSerif-74" d="M 691 2988
L 184 2988
L 184 3322
L 691 3322
L 691 4353
L 1269 4353
L 1269 3322
L 2350 3322
L 2350 2988
L 1269 2988
L 1269 878
Q 1269 456 1350 337
Q 1431 219 1650 219
Q 1875 219 1978 351
Q 2081 484 2088 781
L 2522 781
Q 2497 328 2275 118
Q 2053 -91 1600 -91
Q 1103 -91 897 129
Q 691 350 691 878
L 691 2988
z
" transform="scale(0.015625)"/>
        <path id="DejaVuSerif-72" d="M 3059 3328
L 3059 2497
L 2728 2497
Q 2713 2744 2591 2866
Q 2469 2988 2234 2988
Q 1809 2988 1582 2694
Q 1356 2400 1356 1850
L 1356 331
L 2022 331
L 2022 0
L 263 0
L 263 331
L 781 331
L 781 2994
L 231 2994
L 231 3322
L 1356 3322
L 1356 2731
Q 1525 3078 1790 3245
Q 2056 3413 2438 3413
Q 2578 3413 2733 3391
Q 2888 3369 3059 3328
z
" transform="scale(0.015625)"/>
        <path id="DejaVuSerif-6d" d="M 3316 2675
Q 3481 3041 3739 3227
Q 3997 3413 4341 3413
Q 4863 3413 5119 3089
Q 5375 2766 5375 2113
L 5375 331
L 5894 331
L 5894 0
L 4300 0
L 4300 331
L 4800 331
L 4800 2047
Q 4800 2556 4650 2772
Q 4500 2988 4153 2988
Q 3769 2988 3567 2697
Q 3366 2406 3366 1850
L 3366 331
L 3866 331
L 3866 0
L 2291 0
L 2291 331
L 2791 331
L 2791 2069
Q 2791 2566 2641 2777
Q 2491 2988 2144 2988
Q 1759 2988 1557 2697
Q 1356 2406 1356 1850
L 1356 331
L 1856 331
L 1856 0
L 263 0
L 263 331
L 781 331
L 781 2994
L 231 2994
L 231 3322
L 1356 3322
L 1356 2731
Q 1516 3063 1762 3238
Q 2009 3413 2322 3413
Q 2709 3413 2968 3220
Q 3228 3028 3316 2675
z
" transform="scale(0.015625)"/>
        <path id="DejaVuSerif-69" d="M 622 4353
Q 622 4497 726 4603
Q 831 4709 978 4709
Q 1122 4709 1226 4603
Q 1331 4497 1331 4353
Q 1331 4206 1228 4103
Q 1125 4000 978 4000
Q 831 4000 726 4103
Q 622 4206 622 4353
z
M 1356 331
L 1900 331
L 1900 0
L 231 0
L 231 331
L 781 331
L 781 2988
L 231 2988
L 231 3322
L 1356 3322
L 1356 331
z
" transform="scale(0.015625)"/>
        <path id="DejaVuSerif-6e" d="M 263 0
L 263 331
L 781 331
L 781 2988
L 231 2988
L 231 3322
L 1356 3322
L 1356 2731
Q 1516 3069 1770 3241
Q 2025 3413 2363 3413
Q 2913 3413 3172 3097
Q 3431 2781 3431 2113
L 3431 331
L 3944 331
L 3944 0
L 2356 0
L 2356 331
L 2853 331
L 2853 1931
Q 2853 2541 2703 2767
Q 2553 2994 2175 2994
Q 1775 2994 1565 2701
Q 1356 2409 1356 1850
L 1356 331
L 1856 331
L 1856 0
L 263 0
z
" transform="scale(0.015625)"/>
        <path id="DejaVuSerif-73" d="M 359 184
L 359 959
L 691 959
Q 703 588 923 403
Q 1144 219 1575 219
Q 1963 219 2166 364
Q 2369 509 2369 788
Q 2369 1006 2220 1140
Q 2072 1275 1594 1428
L 1178 1569
Q 750 1706 558 1912
Q 366 2119 366 2438
Q 366 2894 700 3153
Q 1034 3413 1625 3413
Q 1888 3413 2178 3344
Q 2469 3275 2778 3144
L 2778 2419
L 2447 2419
Q 2434 2741 2221 2922
Q 2009 3103 1644 3103
Q 1281 3103 1095 2975
Q 909 2847 909 2591
Q 909 2381 1050 2254
Q 1191 2128 1613 1997
L 2069 1856
Q 2541 1709 2748 1489
Q 2956 1269 2956 922
Q 2956 450 2595 179
Q 2234 -91 1600 -91
Q 1278 -91 972 -22
Q 666 47 359 184
z
" transform="scale(0.015625)"/>
        <path id="DejaVuSerif-63" d="M 3291 997
Q 3169 466 2822 187
Q 2475 -91 1925 -91
Q 1200 -91 759 389
Q 319 869 319 1663
Q 319 2459 759 2936
Q 1200 3413 1925 3413
Q 2241 3413 2553 3339
Q 2866 3266 3181 3116
L 3181 2266
L 2847 2266
Q 2781 2703 2561 2903
Q 2341 3103 1931 3103
Q 1466 3103 1228 2742
Q 991 2381 991 1663
Q 991 944 1227 581
Q 1463 219 1931 219
Q 2303 219 2525 412
Q 2747 606 2828 997
L 3291 997
z
" transform="scale(0.015625)"/>
        <path id="DejaVuSerif-20" transform="scale(0.015625)"/>
        <path id="DejaVuSerif-67" d="M 3359 2988
L 3359 72
Q 3359 -644 2965 -1033
Q 2572 -1422 1844 -1422
Q 1516 -1422 1216 -1362
Q 916 -1303 641 -1184
L 641 -488
L 941 -488
Q 997 -813 1206 -963
Q 1416 -1113 1806 -1113
Q 2313 -1113 2548 -827
Q 2784 -541 2784 72
L 2784 519
Q 2616 206 2355 57
Q 2094 -91 1709 -91
Q 1097 -91 708 395
Q 319 881 319 1663
Q 319 2444 706 2928
Q 1094 3413 1709 3413
Q 2094 3413 2355 3264
Q 2616 3116 2784 2803
L 2784 3322
L 3909 3322
L 3909 2988
L 3359 2988
z
M 2784 1825
Q 2784 2422 2554 2737
Q 2325 3053 1888 3053
Q 1444 3053 1217 2703
Q 991 2353 991 1663
Q 991 975 1217 622
Q 1444 269 1888 269
Q 2325 269 2554 583
Q 2784 897 2784 1497
L 2784 1825
z
" transform="scale(0.015625)"/>
       </defs>
       <use xlink:href="#DejaVuSerif-44"/>
       <use xlink:href="#DejaVuSerif-65" transform="translate(80.175781 0)"/>
       <use xlink:href="#DejaVuSerif-74" transform="translate(139.355469 0)"/>
       <use xlink:href="#DejaVuSerif-65" transform="translate(179.541016 0)"/>
       <use xlink:href="#DejaVuSerif-72" transform="translate(238.720703 0)"/>
       <use xlink:href="#DejaVuSerif-6d" transform="translate(286.523438 0)"/>
       <use xlink:href="#DejaVuSerif-69" transform="translate(381.347656 0)"/>
       <use xlink:href="#DejaVuSerif-6e" transform="translate(413.330078 0)"/>
       <use xlink:href="#DejaVuSerif-69" transform="translate(477.734375 0)"/>
       <use xlink:href="#DejaVuSerif-73" transform="translate(509.716797 0)"/>
       <use xlink:href="#DejaVuSerif-74" transform="translate(561.035156 0)"/>
       <use xlink:href="#DejaVuSerif-69" transform="translate(601.220703 0)"/>
       <use xlink:href="#DejaVuSerif-63" transform="translate(633.203125 0)"/>
       <use xlink:href="#DejaVuSerif-20" transform="translate(689.208984 0)"/>
       <use xlink:href="#DejaVuSerif-73" transform="translate(720.996094 0)"/>
       <use xlink:href="#DejaVuSerif-63" transform="translate(772.314453 0)"/>
       <use xlink:href="#DejaVuSerif-72" transform="translate(828.320312 0)"/>
       <use xlink:href="#DejaVuSerif-65" transform="translate(876.123047 0)"/>
       <use xlink:href="#DejaVuSerif-65" transform="translate(935.302734 0)"/>
       <use xlink:href="#DejaVuSerif-6e" transform="translate(994.482422 0)"/>
       <use xlink:href="#DejaVuSerif-69" transform="translate(1058.886719 0)"/>
       <use xlink:href="#DejaVuSerif-6e" transform="translate(1090.869141 0)"/>
       <use xlink:href="#DejaVuSerif-67" transform="translate(1155.273438 0)"/>
      </g>
     </g>
    </g>
    <g id="ytick_2">
     <g id="line2d_2">
      <g>
       <use xlink:href="#ma2d2166059" x="181.203125" y="107.17319" style="stroke: #000000; stroke-width: 0.8"/>
      </g>
     </g>
     <g id="text_2">
      <!-- Continuous TPD minimization -->
      <g transform="translate(22.717187 110.972409) scale(0.1 -0.1)">
       <defs>
        <path id="DejaVuSerif-43" d="M 4513 1234
Q 4306 581 3820 245
Q 3334 -91 2591 -91
Q 2134 -91 1743 65
Q 1353 222 1050 525
Q 700 875 529 1320
Q 359 1766 359 2328
Q 359 3416 987 4083
Q 1616 4750 2644 4750
Q 3025 4750 3456 4650
Q 3888 4550 4384 4347
L 4384 3272
L 4031 3272
Q 3916 3859 3567 4137
Q 3219 4416 2591 4416
Q 1844 4416 1459 3886
Q 1075 3356 1075 2328
Q 1075 1303 1459 773
Q 1844 244 2591 244
Q 3113 244 3450 492
Q 3788 741 3938 1234
L 4513 1234
z
" transform="scale(0.015625)"/>
        <path id="DejaVuSerif-6f" d="M 1925 219
Q 2388 219 2623 584
Q 2859 950 2859 1663
Q 2859 2375 2623 2739
Q 2388 3103 1925 3103
Q 1463 3103 1227 2739
Q 991 2375 991 1663
Q 991 950 1228 584
Q 1466 219 1925 219
z
M 1925 -91
Q 1200 -91 759 389
Q 319 869 319 1663
Q 319 2456 758 2934
Q 1197 3413 1925 3413
Q 2653 3413 3092 2934
Q 3531 2456 3531 1663
Q 3531 869 3092 389
Q 2653 -91 1925 -91
z
" transform="scale(0.015625)"/>
        <path id="DejaVuSerif-75" d="M 2266 3322
L 3341 3322
L 3341 331
L 3884 331
L 3884 0
L 2766 0
L 2766 588
Q 2606 256 2353 82
Q 2100 -91 1766 -91
Q 1213 -91 952 223
Q 691 538 691 1209
L 691 2988
L 172 2988
L 172 3322
L 1269 3322
L 1269 1388
Q 1269 781 1417 556
Q 1566 331 1947 331
Q 2347 331 2556 625
Q 2766 919 2766 1478
L 2766 2988
L 2266 2988
L 2266 3322
z
" transform="scale(0.015625)"/>
        <path id="DejaVuSerif-54" d="M 1222 0
L 1222 331
L 1819 331
L 1819 4294
L 447 4294
L 447 3566
L 63 3566
L 63 4666
L 4206 4666
L 4206 3566
L 3822 3566
L 3822 4294
L 2450 4294
L 2450 331
L 3047 331
L 3047 0
L 1222 0
z
" transform="scale(0.015625)"/>
        <path id="DejaVuSerif-50" d="M 1581 2375
L 2406 2375
Q 2872 2375 3115 2626
Q 3359 2878 3359 3353
Q 3359 3831 3115 4081
Q 2872 4331 2406 4331
L 1581 4331
L 1581 2375
z
M 353 0
L 353 331
L 947 331
L 947 4331
L 353 4331
L 353 4666
L 2559 4666
Q 3259 4666 3668 4311
Q 4078 3956 4078 3353
Q 4078 2753 3668 2397
Q 3259 2041 2559 2041
L 1581 2041
L 1581 331
L 2303 331
L 2303 0
L 353 0
z
" transform="scale(0.015625)"/>
        <path id="DejaVuSerif-7a" d="M 256 0
L 256 269
L 2338 2988
L 691 2988
L 691 2413
L 359 2413
L 359 3322
L 3078 3322
L 3078 3053
L 997 331
L 2803 331
L 2803 934
L 3138 934
L 3138 0
L 256 0
z
" transform="scale(0.015625)"/>
        <path id="DejaVuSerif-61" d="M 2547 1044
L 2547 1747
L 1806 1747
Q 1378 1747 1168 1562
Q 959 1378 959 997
Q 959 650 1171 447
Q 1384 244 1747 244
Q 2106 244 2326 466
Q 2547 688 2547 1044
z
M 3122 2075
L 3122 331
L 3634 331
L 3634 0
L 2547 0
L 2547 359
Q 2356 128 2106 18
Q 1856 -91 1522 -91
Q 969 -91 644 203
Q 319 497 319 997
Q 319 1513 691 1797
Q 1063 2081 1741 2081
L 2547 2081
L 2547 2309
Q 2547 2688 2317 2895
Q 2088 3103 1672 3103
Q 1328 3103 1125 2947
Q 922 2791 872 2484
L 575 2484
L 575 3156
Q 875 3284 1158 3348
Q 1441 3413 1709 3413
Q 2400 3413 2761 3070
Q 3122 2728 3122 2075
z
" transform="scale(0.015625)"/>
       </defs>
       <use xlink:href="#DejaVuSerif-43"/>
       <use xlink:href="#DejaVuSerif-6f" transform="translate(76.513672 0)"/>
       <use xlink:href="#DejaVuSerif-6e" transform="translate(136.71875 0)"/>
       <use xlink:href="#DejaVuSerif-74" transform="translate(201.123047 0)"/>
       <use xlink:href="#DejaVuSerif-69" transform="translate(241.308594 0)"/>
       <use xlink:href="#DejaVuSerif-6e" transform="translate(273.291016 0)"/>
       <use xlink:href="#DejaVuSerif-75" transform="translate(337.695312 0)"/>
       <use xlink:href="#DejaVuSerif-6f" transform="translate(402.099609 0)"/>
       <use xlink:href="#DejaVuSerif-75" transform="translate(462.304688 0)"/>
       <use xlink:href="#DejaVuSerif-73" transform="translate(526.708984 0)"/>
       <use xlink:href="#DejaVuSerif-20" transform="translate(578.027344 0)"/>
       <use xlink:href="#DejaVuSerif-54" transform="translate(609.814453 0)"/>
       <use xlink:href="#DejaVuSerif-50" transform="translate(676.513672 0)"/>
       <use xlink:href="#DejaVuSerif-44" transform="translate(743.798828 0)"/>
       <use xlink:href="#DejaVuSerif-20" transform="translate(823.974609 0)"/>
       <use xlink:href="#DejaVuSerif-6d" transform="translate(855.761719 0)"/>
       <use xlink:href="#DejaVuSerif-69" transform="translate(950.585938 0)"/>
       <use xlink:href="#DejaVuSerif-6e" transform="translate(982.568359 0)"/>
       <use xlink:href="#DejaVuSerif-69" transform="translate(1046.972656 0)"/>
       <use xlink:href="#DejaVuSerif-6d" transform="translate(1078.955078 0)"/>
       <use xlink:href="#DejaVuSerif-69" transform="translate(1173.779297 0)"/>
       <use xlink:href="#DejaVuSerif-7a" transform="translate(1205.761719 0)"/>
       <use xlink:href="#DejaVuSerif-61" transform="translate(1258.447266 0)"/>
       <use xlink:href="#DejaVuSerif-74" transform="translate(1318.066406 0)"/>
       <use xlink:href="#DejaVuSerif-69" transform="translate(1358.251953 0)"/>
       <use xlink:href="#DejaVuSerif-6f" transform="translate(1390.234375 0)"/>
       <use xlink:href="#DejaVuSerif-6e" transform="translate(1450.439453 0)"/>
      </g>
     </g>
    </g>
    <g id="ytick_3">
     <g id="line2d_3">
      <g>
       <use xlink:href="#ma2d2166059" x="181.203125" y="162.238125" style="stroke: #000000; stroke-width: 0.8"/>
      </g>
     </g>
     <g id="text_3">
      <!-- HELD Stage I stability -->
      <g transform="translate(60.110937 166.037344) scale(0.1 -0.1)">
       <defs>
        <path id="DejaVuSerif-48" d="M 353 0
L 353 331
L 947 331
L 947 4331
L 353 4331
L 353 4666
L 2175 4666
L 2175 4331
L 1581 4331
L 1581 2719
L 4000 2719
L 4000 4331
L 3406 4331
L 3406 4666
L 5228 4666
L 5228 4331
L 4634 4331
L 4634 331
L 5228 331
L 5228 0
L 3406 0
L 3406 331
L 4000 331
L 4000 2338
L 1581 2338
L 1581 331
L 2175 331
L 2175 0
L 353 0
z
" transform="scale(0.015625)"/>
        <path id="DejaVuSerif-45" d="M 353 0
L 353 331
L 947 331
L 947 4331
L 353 4331
L 353 4666
L 4109 4666
L 4109 3628
L 3725 3628
L 3725 4281
L 1581 4281
L 1581 2719
L 3109 2719
L 3109 3303
L 3494 3303
L 3494 1753
L 3109 1753
L 3109 2338
L 1581 2338
L 1581 384
L 3775 384
L 3775 1038
L 4159 1038
L 4159 0
L 353 0
z
" transform="scale(0.015625)"/>
        <path id="DejaVuSerif-4c" d="M 353 0
L 353 331
L 947 331
L 947 4331
L 353 4331
L 353 4666
L 2175 4666
L 2175 4331
L 1581 4331
L 1581 384
L 3713 384
L 3713 1166
L 4097 1166
L 4097 0
L 353 0
z
" transform="scale(0.015625)"/>
        <path id="DejaVuSerif-53" d="M 594 225
L 594 1288
L 953 1284
Q 969 753 1261 498
Q 1553 244 2150 244
Q 2706 244 2998 464
Q 3291 684 3291 1106
Q 3291 1444 3114 1625
Q 2938 1806 2369 1978
L 1753 2163
Q 1084 2366 811 2669
Q 538 2972 538 3500
Q 538 4094 959 4422
Q 1381 4750 2144 4750
Q 2469 4750 2856 4679
Q 3244 4609 3681 4475
L 3681 3481
L 3328 3481
Q 3275 3975 2998 4195
Q 2722 4416 2156 4416
Q 1663 4416 1405 4214
Q 1147 4013 1147 3628
Q 1147 3294 1340 3103
Q 1534 2913 2163 2725
L 2741 2553
Q 3375 2363 3645 2067
Q 3916 1772 3916 1275
Q 3916 597 3481 253
Q 3047 -91 2188 -91
Q 1803 -91 1404 -12
Q 1006 66 594 225
z
" transform="scale(0.015625)"/>
        <path id="DejaVuSerif-49" d="M 1581 331
L 2175 331
L 2175 0
L 353 0
L 353 331
L 947 331
L 947 4331
L 353 4331
L 353 4666
L 2175 4666
L 2175 4331
L 1581 4331
L 1581 331
z
" transform="scale(0.015625)"/>
        <path id="DejaVuSerif-62" d="M 738 331
L 738 4531
L 184 4531
L 184 4863
L 1313 4863
L 1313 2803
Q 1481 3116 1742 3264
Q 2003 3413 2388 3413
Q 3000 3413 3387 2928
Q 3775 2444 3775 1663
Q 3775 881 3387 395
Q 3000 -91 2388 -91
Q 2003 -91 1742 57
Q 1481 206 1313 519
L 1313 0
L 184 0
L 184 331
L 738 331
z
M 1313 1497
Q 1313 897 1542 583
Q 1772 269 2209 269
Q 2650 269 2876 622
Q 3103 975 3103 1663
Q 3103 2353 2876 2703
Q 2650 3053 2209 3053
Q 1772 3053 1542 2737
Q 1313 2422 1313 1825
L 1313 1497
z
" transform="scale(0.015625)"/>
        <path id="DejaVuSerif-6c" d="M 1313 331
L 1856 331
L 1856 0
L 184 0
L 184 331
L 738 331
L 738 4531
L 184 4531
L 184 4863
L 1313 4863
L 1313 331
z
" transform="scale(0.015625)"/>
        <path id="DejaVuSerif-79" d="M 1381 -609
L 1600 -56
L 359 2988
L -19 2988
L -19 3322
L 1509 3322
L 1509 2988
L 978 2988
L 1913 703
L 2847 2988
L 2350 2988
L 2350 3322
L 3597 3322
L 3597 2988
L 3225 2988
L 1703 -750
Q 1547 -1138 1356 -1280
Q 1166 -1422 819 -1422
Q 672 -1422 517 -1397
Q 363 -1372 206 -1325
L 206 -691
L 500 -691
Q 519 -903 608 -995
Q 697 -1088 884 -1088
Q 1056 -1088 1161 -992
Q 1266 -897 1381 -609
z
" transform="scale(0.015625)"/>
       </defs>
       <use xlink:href="#DejaVuSerif-48"/>
       <use xlink:href="#DejaVuSerif-45" transform="translate(87.207031 0)"/>
       <use xlink:href="#DejaVuSerif-4c" transform="translate(160.205078 0)"/>
       <use xlink:href="#DejaVuSerif-44" transform="translate(226.611328 0)"/>
       <use xlink:href="#DejaVuSerif-20" transform="translate(306.787109 0)"/>
       <use xlink:href="#DejaVuSerif-53" transform="translate(338.574219 0)"/>
       <use xlink:href="#DejaVuSerif-74" transform="translate(407.080078 0)"/>
       <use xlink:href="#DejaVuSerif-61" transform="translate(447.265625 0)"/>
       <use xlink:href="#DejaVuSerif-67" transform="translate(506.884766 0)"/>
       <use xlink:href="#DejaVuSerif-65" transform="translate(570.898438 0)"/>
       <use xlink:href="#DejaVuSerif-20" transform="translate(630.078125 0)"/>
       <use xlink:href="#DejaVuSerif-49" transform="translate(661.865234 0)"/>
       <use xlink:href="#DejaVuSerif-20" transform="translate(701.367188 0)"/>
       <use xlink:href="#DejaVuSerif-73" transform="translate(733.154297 0)"/>
       <use xlink:href="#DejaVuSerif-74" transform="translate(784.472656 0)"/>
       <use xlink:href="#DejaVuSerif-61" transform="translate(824.658203 0)"/>
       <use xlink:href="#DejaVuSerif-62" transform="translate(884.277344 0)"/>
       <use xlink:href="#DejaVuSerif-69" transform="translate(948.291016 0)"/>
       <use xlink:href="#DejaVuSerif-6c" transform="translate(980.273438 0)"/>
       <use xlink:href="#DejaVuSerif-69" transform="translate(1012.255859 0)"/>
       <use xlink:href="#DejaVuSerif-74" transform="translate(1044.238281 0)"/>
       <use xlink:href="#DejaVuSerif-79" transform="translate(1084.423828 0)"/>
      </g>
     </g>
    </g>
    <g id="ytick_4">
     <g id="line2d_4">
      <g>
       <use xlink:href="#ma2d2166059" x="181.203125" y="217.30306" style="stroke: #000000; stroke-width: 0.8"/>
      </g>
     </g>
     <g id="text_4">
      <!-- HELD Stage II dual discovery -->
      <g transform="translate(23.407813 221.102279) scale(0.1 -0.1)">
       <defs>
        <path id="DejaVuSerif-64" d="M 3359 331
L 3909 331
L 3909 0
L 2784 0
L 2784 519
Q 2616 206 2355 57
Q 2094 -91 1709 -91
Q 1097 -91 708 395
Q 319 881 319 1663
Q 319 2444 706 2928
Q 1094 3413 1709 3413
Q 2094 3413 2355 3264
Q 2616 3116 2784 2803
L 2784 4531
L 2241 4531
L 2241 4863
L 3359 4863
L 3359 331
z
M 2784 1497
L 2784 1825
Q 2784 2422 2554 2737
Q 2325 3053 1888 3053
Q 1444 3053 1217 2703
Q 991 2353 991 1663
Q 991 975 1217 622
Q 1444 269 1888 269
Q 2325 269 2554 583
Q 2784 897 2784 1497
z
" transform="scale(0.015625)"/>
        <path id="DejaVuSerif-76" d="M 1581 0
L 359 2988
L -19 2988
L -19 3322
L 1509 3322
L 1509 2988
L 978 2988
L 1913 703
L 2847 2988
L 2350 2988
L 2350 3322
L 3597 3322
L 3597 2988
L 3225 2988
L 2003 0
L 1581 0
z
" transform="scale(0.015625)"/>
       </defs>
       <use xlink:href="#DejaVuSerif-48"/>
       <use xlink:href="#DejaVuSerif-45" transform="translate(87.207031 0)"/>
       <use xlink:href="#DejaVuSerif-4c" transform="translate(160.205078 0)"/>
       <use xlink:href="#DejaVuSerif-44" transform="translate(226.611328 0)"/>
       <use xlink:href="#DejaVuSerif-20" transform="translate(306.787109 0)"/>
       <use xlink:href="#DejaVuSerif-53" transform="translate(338.574219 0)"/>
       <use xlink:href="#DejaVuSerif-74" transform="translate(407.080078 0)"/>
       <use xlink:href="#DejaVuSerif-61" transform="translate(447.265625 0)"/>
       <use xlink:href="#DejaVuSerif-67" transform="translate(506.884766 0)"/>
       <use xlink:href="#DejaVuSerif-65" transform="translate(570.898438 0)"/>
       <use xlink:href="#DejaVuSerif-20" transform="translate(630.078125 0)"/>
       <use xlink:href="#DejaVuSerif-49" transform="translate(661.865234 0)"/>
       <use xlink:href="#DejaVuSerif-49" transform="translate(701.367188 0)"/>
       <use xlink:href="#DejaVuSerif-20" transform="translate(740.869141 0)"/>
       <use xlink:href="#DejaVuSerif-64" transform="translate(772.65625 0)"/>
       <use xlink:href="#DejaVuSerif-75" transform="translate(836.669922 0)"/>
       <use xlink:href="#DejaVuSerif-61" transform="translate(901.074219 0)"/>
       <use xlink:href="#DejaVuSerif-6c" transform="translate(960.693359 0)"/>
       <use xlink:href="#DejaVuSerif-20" transform="translate(992.675781 0)"/>
       <use xlink:href="#DejaVuSerif-64" transform="translate(1024.462891 0)"/>
       <use xlink:href="#DejaVuSerif-69" transform="translate(1088.476562 0)"/>
       <use xlink:href="#DejaVuSerif-73" transform="translate(1120.458984 0)"/>
       <use xlink:href="#DejaVuSerif-63" transform="translate(1171.777344 0)"/>
       <use xlink:href="#DejaVuSerif-6f" transform="translate(1227.783203 0)"/>
       <use xlink:href="#DejaVuSerif-76" transform="translate(1287.988281 0)"/>
       <use xlink:href="#DejaVuSerif-65" transform="translate(1344.482422 0)"/>
       <use xlink:href="#DejaVuSerif-72" transform="translate(1403.662109 0)"/>
       <use xlink:href="#DejaVuSerif-79" transform="translate(1451.464844 0)"/>
      </g>
     </g>
    </g>
    <g id="ytick_5">
     <g id="line2d_5">
      <g>
       <use xlink:href="#ma2d2166059" x="181.203125" y="272.367995" style="stroke: #000000; stroke-width: 0.8"/>
      </g>
     </g>
     <g id="text_5">
      <!-- HELD Stage III Ipopt refinement -->
      <g transform="translate(7.2 276.167214) scale(0.1 -0.1)">
       <defs>
        <path id="DejaVuSerif-70" d="M 1313 1825
L 1313 1497
Q 1313 897 1542 583
Q 1772 269 2209 269
Q 2650 269 2876 622
Q 3103 975 3103 1663
Q 3103 2353 2876 2703
Q 2650 3053 2209 3053
Q 1772 3053 1542 2737
Q 1313 2422 1313 1825
z
M 738 2988
L 184 2988
L 184 3322
L 1313 3322
L 1313 2803
Q 1481 3116 1742 3264
Q 2003 3413 2388 3413
Q 3000 3413 3387 2928
Q 3775 2444 3775 1663
Q 3775 881 3387 395
Q 3000 -91 2388 -91
Q 2003 -91 1742 57
Q 1481 206 1313 519
L 1313 -997
L 1856 -997
L 1856 -1331
L 184 -1331
L 184 -997
L 738 -997
L 738 2988
z
" transform="scale(0.015625)"/>
        <path id="DejaVuSerif-66" d="M 2753 4078
L 2450 4078
Q 2447 4313 2317 4434
Q 2188 4556 1941 4556
Q 1619 4556 1487 4379
Q 1356 4203 1356 3750
L 1356 3322
L 2284 3322
L 2284 2988
L 1356 2988
L 1356 331
L 2094 331
L 2094 0
L 231 0
L 231 331
L 781 331
L 781 2988
L 231 2988
L 231 3322
L 781 3322
L 781 3738
Q 781 4294 1070 4578
Q 1359 4863 1919 4863
Q 2128 4863 2337 4825
Q 2547 4788 2753 4709
L 2753 4078
z
" transform="scale(0.015625)"/>
       </defs>
       <use xlink:href="#DejaVuSerif-48"/>
       <use xlink:href="#DejaVuSerif-45" transform="translate(87.207031 0)"/>
       <use xlink:href="#DejaVuSerif-4c" transform="translate(160.205078 0)"/>
       <use xlink:href="#DejaVuSerif-44" transform="translate(226.611328 0)"/>
       <use xlink:href="#DejaVuSerif-20" transform="translate(306.787109 0)"/>
       <use xlink:href="#DejaVuSerif-53" transform="translate(338.574219 0)"/>
       <use xlink:href="#DejaVuSerif-74" transform="translate(407.080078 0)"/>
       <use xlink:href="#DejaVuSerif-61" transform="translate(447.265625 0)"/>
       <use xlink:href="#DejaVuSerif-67" transform="translate(506.884766 0)"/>
       <use xlink:href="#DejaVuSerif-65" transform="translate(570.898438 0)"/>
       <use xlink:href="#DejaVuSerif-20" transform="translate(630.078125 0)"/>
       <use xlink:href="#DejaVuSerif-49" transform="translate(661.865234 0)"/>
       <use xlink:href="#DejaVuSerif-49" transform="translate(701.367188 0)"/>
       <use xlink:href="#DejaVuSerif-49" transform="translate(740.869141 0)"/>
       <use xlink:href="#DejaVuSerif-20" transform="translate(780.371094 0)"/>
       <use xlink:href="#DejaVuSerif-49" transform="translate(812.158203 0)"/>
       <use xlink:href="#DejaVuSerif-70" transform="translate(851.660156 0)"/>
       <use xlink:href="#DejaVuSerif-6f" transform="translate(915.673828 0)"/>
       <use xlink:href="#DejaVuSerif-70" transform="translate(975.878906 0)"/>
       <use xlink:href="#DejaVuSerif-74" transform="translate(1039.892578 0)"/>
       <use xlink:href="#DejaVuSerif-20" transform="translate(1080.078125 0)"/>
       <use xlink:href="#DejaVuSerif-72" transform="translate(1111.865234 0)"/>
       <use xlink:href="#DejaVuSerif-65" transform="translate(1159.667969 0)"/>
       <use xlink:href="#DejaVuSerif-66" transform="translate(1218.847656 0)"/>
       <use xlink:href="#DejaVuSerif-69" transform="translate(1255.859375 0)"/>
       <use xlink:href="#DejaVuSerif-6e" transform="translate(1287.841797 0)"/>
       <use xlink:href="#DejaVuSerif-65" transform="translate(1352.246094 0)"/>
       <use xlink:href="#DejaVuSerif-6d" transform="translate(1411.425781 0)"/>
       <use xlink:href="#DejaVuSerif-65" transform="translate(1506.25 0)"/>
       <use xlink:href="#DejaVuSerif-6e" transform="translate(1565.429688 0)"/>
       <use xlink:href="#DejaVuSerif-74" transform="translate(1629.833984 0)"/>
      </g>
     </g>
    </g>
   </g>
   <g id="text_6">
    <!-- verified -->
    <g style="fill: #ffffff" transform="translate(188.817525 54.591692) scale(0.09 -0.09)">
     <use xlink:href="#DejaVuSerif-76"/>
     <use xlink:href="#DejaVuSerif-65" transform="translate(56.494141 0)"/>
     <use xlink:href="#DejaVuSerif-72" transform="translate(115.673828 0)"/>
     <use xlink:href="#DejaVuSerif-69" transform="translate(163.476562 0)"/>
     <use xlink:href="#DejaVuSerif-66" transform="translate(195.458984 0)"/>
     <use xlink:href="#DejaVuSerif-69" transform="translate(232.470703 0)"/>
     <use xlink:href="#DejaVuSerif-65" transform="translate(264.453125 0)"/>
     <use xlink:href="#DejaVuSerif-64" transform="translate(323.632812 0)"/>
    </g>
   </g>
   <g id="text_7">
    <!-- verified -->
    <g style="fill: #ffffff" transform="translate(188.817525 109.656627) scale(0.09 -0.09)">
     <use xlink:href="#DejaVuSerif-76"/>
     <use xlink:href="#DejaVuSerif-65" transform="translate(56.494141 0)"/>
     <use xlink:href="#DejaVuSerif-72" transform="translate(115.673828 0)"/>
     <use xlink:href="#DejaVuSerif-69" transform="translate(163.476562 0)"/>
     <use xlink:href="#DejaVuSerif-66" transform="translate(195.458984 0)"/>
     <use xlink:href="#DejaVuSerif-69" transform="translate(232.470703 0)"/>
     <use xlink:href="#DejaVuSerif-65" transform="translate(264.453125 0)"/>
     <use xlink:href="#DejaVuSerif-64" transform="translate(323.632812 0)"/>
    </g>
   </g>
   <g id="text_8">
    <!-- verified -->
    <g style="fill: #ffffff" transform="translate(188.817525 164.721562) scale(0.09 -0.09)">
     <use xlink:href="#DejaVuSerif-76"/>
     <use xlink:href="#DejaVuSerif-65" transform="translate(56.494141 0)"/>
     <use xlink:href="#DejaVuSerif-72" transform="translate(115.673828 0)"/>
     <use xlink:href="#DejaVuSerif-69" transform="translate(163.476562 0)"/>
     <use xlink:href="#DejaVuSerif-66" transform="translate(195.458984 0)"/>
     <use xlink:href="#DejaVuSerif-69" transform="translate(232.470703 0)"/>
     <use xlink:href="#DejaVuSerif-65" transform="translate(264.453125 0)"/>
     <use xlink:href="#DejaVuSerif-64" transform="translate(323.632812 0)"/>
    </g>
   </g>
   <g id="text_9">
    <!-- verified -->
    <g style="fill: #ffffff" transform="translate(188.817525 219.786498) scale(0.09 -0.09)">
     <use xlink:href="#DejaVuSerif-76"/>
     <use xlink:href="#DejaVuSerif-65" transform="translate(56.494141 0)"/>
     <use xlink:href="#DejaVuSerif-72" transform="translate(115.673828 0)"/>
     <use xlink:href="#DejaVuSerif-69" transform="translate(163.476562 0)"/>
     <use xlink:href="#DejaVuSerif-66" transform="translate(195.458984 0)"/>
     <use xlink:href="#DejaVuSerif-69" transform="translate(232.470703 0)"/>
     <use xlink:href="#DejaVuSerif-65" transform="translate(264.453125 0)"/>
     <use xlink:href="#DejaVuSerif-64" transform="translate(323.632812 0)"/>
    </g>
   </g>
   <g id="text_10">
    <!-- verified -->
    <g style="fill: #ffffff" transform="translate(188.817525 274.851433) scale(0.09 -0.09)">
     <use xlink:href="#DejaVuSerif-76"/>
     <use xlink:href="#DejaVuSerif-65" transform="translate(56.494141 0)"/>
     <use xlink:href="#DejaVuSerif-72" transform="translate(115.673828 0)"/>
     <use xlink:href="#DejaVuSerif-69" transform="translate(163.476562 0)"/>
     <use xlink:href="#DejaVuSerif-66" transform="translate(195.458984 0)"/>
     <use xlink:href="#DejaVuSerif-69" transform="translate(232.470703 0)"/>
     <use xlink:href="#DejaVuSerif-65" transform="translate(264.453125 0)"/>
     <use xlink:href="#DejaVuSerif-64" transform="translate(323.632812 0)"/>
    </g>
   </g>
   <g id="text_11">
    <!-- Neutral LLE HELD-stage admission evidence -->
    <g transform="translate(233.530312 16.318125) scale(0.12 -0.12)">
     <defs>
      <path id="DejaVuSerif-4e" d="M 313 0
L 313 331
L 941 331
L 941 4331
L 313 4331
L 313 4666
L 1509 4666
L 4306 984
L 4306 4331
L 3681 4331
L 3681 4666
L 5319 4666
L 5319 4331
L 4691 4331
L 4691 -91
L 4313 -91
L 1325 3841
L 1325 331
L 1953 331
L 1953 0
L 313 0
z
" transform="scale(0.015625)"/>
      <path id="DejaVuSerif-2d" d="M 281 1959
L 1881 1959
L 1881 1472
L 281 1472
L 281 1959
z
" transform="scale(0.015625)"/>
     </defs>
     <use xlink:href="#DejaVuSerif-4e"/>
     <use xlink:href="#DejaVuSerif-65" transform="translate(87.5 0)"/>
     <use xlink:href="#DejaVuSerif-75" transform="translate(146.679688 0)"/>
     <use xlink:href="#DejaVuSerif-74" transform="translate(211.083984 0)"/>
     <use xlink:href="#DejaVuSerif-72" transform="translate(251.269531 0)"/>
     <use xlink:href="#DejaVuSerif-61" transform="translate(299.072266 0)"/>
     <use xlink:href="#DejaVuSerif-6c" transform="translate(358.691406 0)"/>
     <use xlink:href="#DejaVuSerif-20" transform="translate(390.673828 0)"/>
     <use xlink:href="#DejaVuSerif-4c" transform="translate(422.460938 0)"/>
     <use xlink:href="#DejaVuSerif-4c" transform="translate(488.867188 0)"/>
     <use xlink:href="#DejaVuSerif-45" transform="translate(555.273438 0)"/>
     <use xlink:href="#DejaVuSerif-20" transform="translate(628.271484 0)"/>
     <use xlink:href="#DejaVuSerif-48" transform="translate(660.058594 0)"/>
     <use xlink:href="#DejaVuSerif-45" transform="translate(747.265625 0)"/>
     <use xlink:href="#DejaVuSerif-4c" transform="translate(820.263672 0)"/>
     <use xlink:href="#DejaVuSerif-44" transform="translate(886.669922 0)"/>
     <use xlink:href="#DejaVuSerif-2d" transform="translate(968.720703 0)"/>
     <use xlink:href="#DejaVuSerif-73" transform="translate(1002.509766 0)"/>
     <use xlink:href="#DejaVuSerif-74" transform="translate(1053.828125 0)"/>
     <use xlink:href="#DejaVuSerif-61" transform="translate(1094.013672 0)"/>
     <use xlink:href="#DejaVuSerif-67" transform="translate(1153.632812 0)"/>
     <use xlink:href="#DejaVuSerif-65" transform="translate(1217.646484 0)"/>
     <use xlink:href="#DejaVuSerif-20" transform="translate(1276.826172 0)"/>
     <use xlink:href="#DejaVuSerif-61" transform="translate(1308.613281 0)"/>
     <use xlink:href="#DejaVuSerif-64" transform="translate(1368.232422 0)"/>
     <use xlink:href="#DejaVuSerif-6d" transform="translate(1432.246094 0)"/>
     <use xlink:href="#DejaVuSerif-69" transform="translate(1527.070312 0)"/>
     <use xlink:href="#DejaVuSerif-73" transform="translate(1559.052734 0)"/>
     <use xlink:href="#DejaVuSerif-73" transform="translate(1610.371094 0)"/>
     <use xlink:href="#DejaVuSerif-69" transform="translate(1661.689453 0)"/>
     <use xlink:href="#DejaVuSerif-6f" transform="translate(1693.671875 0)"/>
     <use xlink:href="#DejaVuSerif-6e" transform="translate(1753.876953 0)"/>
     <use xlink:href="#DejaVuSerif-20" transform="translate(1818.28125 0)"/>
     <use xlink:href="#DejaVuSerif-65" transform="translate(1850.068359 0)"/>
     <use xlink:href="#DejaVuSerif-76" transform="translate(1909.248047 0)"/>
     <use xlink:href="#DejaVuSerif-69" transform="translate(1965.742188 0)"/>
     <use xlink:href="#DejaVuSerif-64" transform="translate(1997.724609 0)"/>
     <use xlink:href="#DejaVuSerif-65" transform="translate(2061.738281 0)"/>
     <use xlink:href="#DejaVuSerif-6e" transform="translate(2120.917969 0)"/>
     <use xlink:href="#DejaVuSerif-63" transform="translate(2185.322266 0)"/>
     <use xlink:href="#DejaVuSerif-65" transform="translate(2241.328125 0)"/>
    </g>
   </g>
  </g>
 </g>
 <defs>
  <clipPath id="p356bfbe284">
   <rect x="181.203125" y="22.318125" width="380.72" height="279.84"/>
  </clipPath>
 </defs>
</svg>
