<?xml version="1.0" encoding="utf-8" standalone="no"?>
<!DOCTYPE svg PUBLIC "-//W3C//DTD SVG 1.1//EN"
  "http://www.w3.org/Graphics/SVG/1.1/DTD/svg11.dtd">
<svg xmlns:xlink="http://www.w3.org/1999/xlink" width="408.210225pt" height="422.208pt" viewBox="0 0 408.210225 422.208" xmlns="http://www.w3.org/2000/svg" version="1.1">
 <metadata>
  <rdf:RDF xmlns:dc="http://purl.org/dc/elements/1.1/" xmlns:cc="http://creativecommons.org/ns#" xmlns:rdf="http://www.w3.org/1999/02/22-rdf-syntax-ns#">
   <cc:Work>
    <dc:type rdf:resource="http://purl.org/dc/dcmitype/StillImage"/>
    <dc:date>2026-05-18T09:34:20.228997</dc:date>
    <dc:format>image/svg+xml</dc:format>
    <dc:creator>
     <cc:Agent>
      <dc:title>Matplotlib v3.10.9, https://matplotlib.org/</dc:title>
     </cc:Agent>
    </dc:creator>
   </cc:Work>
  </rdf:RDF>
 </metadata>
 <defs>
  <style type="text/css">*{stroke-linejoin: round; stroke-linecap: butt}</style>
 </defs>
 <g id="figure_1">
  <g id="patch_1">
   <path d="M 0 422.208
L 408.210225 422.208
L 408.210225 0
L 0 0
z
" style="fill: #ffffff"/>
  </g>
  <g id="axes_1">
   <g id="line2d_1">
    <path d="M 42.669482 305.388265
L 363.583843 305.388265
" clip-path="url(#p146f3ad0a3)" style="fill: none; stroke-dasharray: 1.295,0.56; stroke-dashoffset: 0; stroke: #c25a14; stroke-opacity: 0.28; stroke-width: 0.35"/>
   </g>
   <g id="line2d_2">
    <path d="M 51.114597 320.015633
L 211.571778 42.095643
" clip-path="url(#p146f3ad0a3)" style="fill: none; stroke-dasharray: 1.295,0.56; stroke-dashoffset: 0; stroke: #5f8f1f; stroke-opacity: 0.28; stroke-width: 0.35"/>
   </g>
   <g id="line2d_3">
    <path d="M 355.138729 320.015633
L 194.681548 42.095643
" clip-path="url(#p146f3ad0a3)" style="fill: none; stroke-dasharray: 1.295,0.56; stroke-dashoffset: 0; stroke: #2f6fb3; stroke-opacity: 0.28; stroke-width: 0.35"/>
   </g>
   <g id="line2d_4">
    <path d="M 51.114597 290.760897
L 355.138729 290.760897
" clip-path="url(#p146f3ad0a3)" style="fill: none; stroke-dasharray: 2.22,0.96; stroke-dashoffset: 0; stroke: #c25a14; stroke-opacity: 0.55; stroke-width: 0.6"/>
   </g>
   <g id="line2d_5">
    <path d="M 68.004826 320.015633
L 220.016892 56.723011
" clip-path="url(#p146f3ad0a3)" style="fill: none; stroke-dasharray: 2.22,0.96; stroke-dashoffset: 0; stroke: #5f8f1f; stroke-opacity: 0.55; stroke-width: 0.6"/>
   </g>
   <g id="line2d_6">
    <path d="M 338.248499 320.015633
L 186.236433 56.723011
" clip-path="url(#p146f3ad0a3)" style="fill: none; stroke-dasharray: 2.22,0.96; stroke-dashoffset: 0; stroke: #2f6fb3; stroke-opacity: 0.55; stroke-width: 0.6"/>
   </g>
   <g id="line2d_7">
    <path d="M 59.559712 276.133529
L 346.693614 276.133529
" clip-path="url(#p146f3ad0a3)" style="fill: none; stroke-dasharray: 1.295,0.56; stroke-dashoffset: 0; stroke: #c25a14; stroke-opacity: 0.28; stroke-width: 0.35"/>
   </g>
   <g id="line2d_8">
    <path d="M 84.895056 320.015633
L 228.462007 71.350379
" clip-path="url(#p146f3ad0a3)" style="fill: none; stroke-dasharray: 1.295,0.56; stroke-dashoffset: 0; stroke: #5f8f1f; stroke-opacity: 0.28; stroke-width: 0.35"/>
   </g>
   <g id="line2d_9">
    <path d="M 321.35827 320.015633
L 177.791318 71.350379
" clip-path="url(#p146f3ad0a3)" style="fill: none; stroke-dasharray: 1.295,0.56; stroke-dashoffset: 0; stroke: #2f6fb3; stroke-opacity: 0.28; stroke-width: 0.35"/>
   </g>
   <g id="line2d_10">
    <path d="M 68.004826 261.506161
L 338.248499 261.506161
" clip-path="url(#p146f3ad0a3)" style="fill: none; stroke-dasharray: 2.22,0.96; stroke-dashoffset: 0; stroke: #c25a14; stroke-opacity: 0.55; stroke-width: 0.6"/>
   </g>
   <g id="line2d_11">
    <path d="M 101.785285 320.015633
L 236.907122 85.977747
" clip-path="url(#p146f3ad0a3)" style="fill: none; stroke-dasharray: 2.22,0.96; stroke-dashoffset: 0; stroke: #5f8f1f; stroke-opacity: 0.55; stroke-width: 0.6"/>
   </g>
   <g id="line2d_12">
    <path d="M 304.46804 320.015633
L 169.346204 85.977747
" clip-path="url(#p146f3ad0a3)" style="fill: none; stroke-dasharray: 2.22,0.96; stroke-dashoffset: 0; stroke: #2f6fb3; stroke-opacity: 0.55; stroke-width: 0.6"/>
   </g>
   <g id="line2d_13">
    <path d="M 76.449941 246.878793
L 329.803384 246.878793
" clip-path="url(#p146f3ad0a3)" style="fill: none; stroke-dasharray: 1.295,0.56; stroke-dashoffset: 0; stroke: #c25a14; stroke-opacity: 0.28; stroke-width: 0.35"/>
   </g>
   <g id="line2d_14">
    <path d="M 118.675515 320.015633
L 245.352237 100.605115
" clip-path="url(#p146f3ad0a3)" style="fill: none; stroke-dasharray: 1.295,0.56; stroke-dashoffset: 0; stroke: #5f8f1f; stroke-opacity: 0.28; stroke-width: 0.35"/>
   </g>
   <g id="line2d_15">
    <path d="M 287.57781 320.015633
L 160.901089 100.605115
" clip-path="url(#p146f3ad0a3)" style="fill: none; stroke-dasharray: 1.295,0.56; stroke-dashoffset: 0; stroke: #2f6fb3; stroke-opacity: 0.28; stroke-width: 0.35"/>
   </g>
   <g id="line2d_16">
    <path d="M 84.895056 232.251426
L 321.35827 232.251426
" clip-path="url(#p146f3ad0a3)" style="fill: none; stroke-dasharray: 2.22,0.96; stroke-dashoffset: 0; stroke: #c25a14; stroke-opacity: 0.55; stroke-width: 0.6"/>
   </g>
   <g id="line2d_17">
    <path d="M 135.565745 320.015633
L 253.797351 115.232483
" clip-path="url(#p146f3ad0a3)" style="fill: none; stroke-dasharray: 2.22,0.96; stroke-dashoffset: 0; stroke: #5f8f1f; stroke-opacity: 0.55; stroke-width: 0.6"/>
   </g>
   <g id="line2d_18">
    <path d="M 270.687581 320.015633
L 152.455974 115.232483
" clip-path="url(#p146f3ad0a3)" style="fill: none; stroke-dasharray: 2.22,0.96; stroke-dashoffset: 0; stroke: #2f6fb3; stroke-opacity: 0.55; stroke-width: 0.6"/>
   </g>
   <g id="line2d_19">
    <path d="M 93.340171 217.624058
L 312.913155 217.624058
" clip-path="url(#p146f3ad0a3)" style="fill: none; stroke-dasharray: 1.295,0.56; stroke-dashoffset: 0; stroke: #c25a14; stroke-opacity: 0.28; stroke-width: 0.35"/>
   </g>
   <g id="line2d_20">
    <path d="M 152.455974 320.015633
L 262.242466 129.859851
" clip-path="url(#p146f3ad0a3)" style="fill: none; stroke-dasharray: 1.295,0.56; stroke-dashoffset: 0; stroke: #5f8f1f; stroke-opacity: 0.28; stroke-width: 0.35"/>
   </g>
   <g id="line2d_21">
    <path d="M 253.797351 320.015633
L 144.010859 129.859851
" clip-path="url(#p146f3ad0a3)" style="fill: none; stroke-dasharray: 1.295,0.56; stroke-dashoffset: 0; stroke: #2f6fb3; stroke-opacity: 0.28; stroke-width: 0.35"/>
   </g>
   <g id="line2d_22">
    <path d="M 101.785285 202.99669
L 304.46804 202.99669
" clip-path="url(#p146f3ad0a3)" style="fill: none; stroke-dasharray: 2.22,0.96; stroke-dashoffset: 0; stroke: #c25a14; stroke-opacity: 0.55; stroke-width: 0.6"/>
   </g>
   <g id="line2d_23">
    <path d="M 169.346204 320.015633
L 270.687581 144.487218
" clip-path="url(#p146f3ad0a3)" style="fill: none; stroke-dasharray: 2.22,0.96; stroke-dashoffset: 0; stroke: #5f8f1f; stroke-opacity: 0.55; stroke-width: 0.6"/>
   </g>
   <g id="line2d_24">
    <path d="M 236.907122 320.015633
L 135.565745 144.487218
" clip-path="url(#p146f3ad0a3)" style="fill: none; stroke-dasharray: 2.22,0.96; stroke-dashoffset: 0; stroke: #2f6fb3; stroke-opacity: 0.55; stroke-width: 0.6"/>
   </g>
   <g id="line2d_25">
    <path d="M 110.2304 188.369322
L 296.022925 188.369322
" clip-path="url(#p146f3ad0a3)" style="fill: none; stroke-dasharray: 1.295,0.56; stroke-dashoffset: 0; stroke: #c25a14; stroke-opacity: 0.28; stroke-width: 0.35"/>
   </g>
   <g id="line2d_26">
    <path d="M 186.236433 320.015633
L 279.132696 159.114586
" clip-path="url(#p146f3ad0a3)" style="fill: none; stroke-dasharray: 1.295,0.56; stroke-dashoffset: 0; stroke: #5f8f1f; stroke-opacity: 0.28; stroke-width: 0.35"/>
   </g>
   <g id="line2d_27">
    <path d="M 220.016892 320.015633
L 127.12063 159.114586
" clip-path="url(#p146f3ad0a3)" style="fill: none; stroke-dasharray: 1.295,0.56; stroke-dashoffset: 0; stroke: #2f6fb3; stroke-opacity: 0.28; stroke-width: 0.35"/>
   </g>
   <g id="line2d_28">
    <path d="M 118.675515 173.741954
L 287.57781 173.741954
" clip-path="url(#p146f3ad0a3)" style="fill: none; stroke-dasharray: 2.22,0.96; stroke-dashoffset: 0; stroke: #c25a14; stroke-opacity: 0.55; stroke-width: 0.6"/>
   </g>
   <g id="line2d_29">
    <path d="M 203.126663 320.015633
L 287.57781 173.741954
" clip-path="url(#p146f3ad0a3)" style="fill: none; stroke-dasharray: 2.22,0.96; stroke-dashoffset: 0; stroke: #5f8f1f; stroke-opacity: 0.55; stroke-width: 0.6"/>
   </g>
   <g id="line2d_30">
    <path d="M 203.126663 320.015633
L 118.675515 173.741954
" clip-path="url(#p146f3ad0a3)" style="fill: none; stroke-dasharray: 2.22,0.96; stroke-dashoffset: 0; stroke: #2f6fb3; stroke-opacity: 0.55; stroke-width: 0.6"/>
   </g>
   <g id="line2d_31">
    <path d="M 127.12063 159.114586
L 279.132696 159.114586
" clip-path="url(#p146f3ad0a3)" style="fill: none; stroke-dasharray: 1.295,0.56; stroke-dashoffset: 0; stroke: #c25a14; stroke-opacity: 0.28; stroke-width: 0.35"/>
   </g>
   <g id="line2d_32">
    <path d="M 220.016892 320.015633
L 296.022925 188.369322
" clip-path="url(#p146f3ad0a3)" style="fill: none; stroke-dasharray: 1.295,0.56; stroke-dashoffset: 0; stroke: #5f8f1f; stroke-opacity: 0.28; stroke-width: 0.35"/>
   </g>
   <g id="line2d_33">
    <path d="M 186.236433 320.015633
L 110.2304 188.369322
" clip-path="url(#p146f3ad0a3)" style="fill: none; stroke-dasharray: 1.295,0.56; stroke-dashoffset: 0; stroke: #2f6fb3; stroke-opacity: 0.28; stroke-width: 0.35"/>
   </g>
   <g id="line2d_34">
    <path d="M 135.565745 144.487218
L 270.687581 144.487218
" clip-path="url(#p146f3ad0a3)" style="fill: none; stroke-dasharray: 2.22,0.96; stroke-dashoffset: 0; stroke: #c25a14; stroke-opacity: 0.55; stroke-width: 0.6"/>
   </g>
   <g id="line2d_35">
    <path d="M 236.907122 320.015633
L 304.46804 202.99669
" clip-path="url(#p146f3ad0a3)" style="fill: none; stroke-dasharray: 2.22,0.96; stroke-dashoffset: 0; stroke: #5f8f1f; stroke-opacity: 0.55; stroke-width: 0.6"/>
   </g>
   <g id="line2d_36">
    <path d="M 169.346204 320.015633
L 101.785285 202.99669
" clip-path="url(#p146f3ad0a3)" style="fill: none; stroke-dasharray: 2.22,0.96; stroke-dashoffset: 0; stroke: #2f6fb3; stroke-opacity: 0.55; stroke-width: 0.6"/>
   </g>
   <g id="line2d_37">
    <path d="M 144.010859 129.859851
L 262.242466 129.859851
" clip-path="url(#p146f3ad0a3)" style="fill: none; stroke-dasharray: 1.295,0.56; stroke-dashoffset: 0; stroke: #c25a14; stroke-opacity: 0.28; stroke-width: 0.35"/>
   </g>
   <g id="line2d_38">
    <path d="M 253.797351 320.015633
L 312.913155 217.624058
" clip-path="url(#p146f3ad0a3)" style="fill: none; stroke-dasharray: 1.295,0.56; stroke-dashoffset: 0; stroke: #5f8f1f; stroke-opacity: 0.28; stroke-width: 0.35"/>
   </g>
   <g id="line2d_39">
    <path d="M 152.455974 320.015633
L 93.340171 217.624058
" clip-path="url(#p146f3ad0a3)" style="fill: none; stroke-dasharray: 1.295,0.56; stroke-dashoffset: 0; stroke: #2f6fb3; stroke-opacity: 0.28; stroke-width: 0.35"/>
   </g>
   <g id="line2d_40">
    <path d="M 152.455974 115.232483
L 253.797351 115.232483
" clip-path="url(#p146f3ad0a3)" style="fill: none; stroke-dasharray: 2.22,0.96; stroke-dashoffset: 0; stroke: #c25a14; stroke-opacity: 0.55; stroke-width: 0.6"/>
   </g>
   <g id="line2d_41">
    <path d="M 270.687581 320.015633
L 321.35827 232.251426
" clip-path="url(#p146f3ad0a3)" style="fill: none; stroke-dasharray: 2.22,0.96; stroke-dashoffset: 0; stroke: #5f8f1f; stroke-opacity: 0.55; stroke-width: 0.6"/>
   </g>
   <g id="line2d_42">
    <path d="M 135.565745 320.015633
L 84.895056 232.251426
" clip-path="url(#p146f3ad0a3)" style="fill: none; stroke-dasharray: 2.22,0.96; stroke-dashoffset: 0; stroke: #2f6fb3; stroke-opacity: 0.55; stroke-width: 0.6"/>
   </g>
   <g id="line2d_43">
    <path d="M 160.901089 100.605115
L 245.352237 100.605115
" clip-path="url(#p146f3ad0a3)" style="fill: none; stroke-dasharray: 1.295,0.56; stroke-dashoffset: 0; stroke: #c25a14; stroke-opacity: 0.28; stroke-width: 0.35"/>
   </g>
   <g id="line2d_44">
    <path d="M 287.57781 320.015633
L 329.803384 246.878793
" clip-path="url(#p146f3ad0a3)" style="fill: none; stroke-dasharray: 1.295,0.56; stroke-dashoffset: 0; stroke: #5f8f1f; stroke-opacity: 0.28; stroke-width: 0.35"/>
   </g>
   <g id="line2d_45">
    <path d="M 118.675515 320.015633
L 76.449941 246.878793
" clip-path="url(#p146f3ad0a3)" style="fill: none; stroke-dasharray: 1.295,0.56; stroke-dashoffset: 0; stroke: #2f6fb3; stroke-opacity: 0.28; stroke-width: 0.35"/>
   </g>
   <g id="line2d_46">
    <path d="M 169.346204 85.977747
L 236.907122 85.977747
" clip-path="url(#p146f3ad0a3)" style="fill: none; stroke-dasharray: 2.22,0.96; stroke-dashoffset: 0; stroke: #c25a14; stroke-opacity: 0.55; stroke-width: 0.6"/>
   </g>
   <g id="line2d_47">
    <path d="M 304.46804 320.015633
L 338.248499 261.506161
" clip-path="url(#p146f3ad0a3)" style="fill: none; stroke-dasharray: 2.22,0.96; stroke-dashoffset: 0; stroke: #5f8f1f; stroke-opacity: 0.55; stroke-width: 0.6"/>
   </g>
   <g id="line2d_48">
    <path d="M 101.785285 320.015633
L 68.004826 261.506161
" clip-path="url(#p146f3ad0a3)" style="fill: none; stroke-dasharray: 2.22,0.96; stroke-dashoffset: 0; stroke: #2f6fb3; stroke-opacity: 0.55; stroke-width: 0.6"/>
   </g>
   <g id="line2d_49">
    <path d="M 177.791318 71.350379
L 228.462007 71.350379
" clip-path="url(#p146f3ad0a3)" style="fill: none; stroke-dasharray: 1.295,0.56; stroke-dashoffset: 0; stroke: #c25a14; stroke-opacity: 0.28; stroke-width: 0.35"/>
   </g>
   <g id="line2d_50">
    <path d="M 321.35827 320.015633
L 346.693614 276.133529
" clip-path="url(#p146f3ad0a3)" style="fill: none; stroke-dasharray: 1.295,0.56; stroke-dashoffset: 0; stroke: #5f8f1f; stroke-opacity: 0.28; stroke-width: 0.35"/>
   </g>
   <g id="line2d_51">
    <path d="M 84.895056 320.015633
L 59.559712 276.133529
" clip-path="url(#p146f3ad0a3)" style="fill: none; stroke-dasharray: 1.295,0.56; stroke-dashoffset: 0; stroke: #2f6fb3; stroke-opacity: 0.28; stroke-width: 0.35"/>
   </g>
   <g id="line2d_52">
    <path d="M 186.236433 56.723011
L 220.016892 56.723011
" clip-path="url(#p146f3ad0a3)" style="fill: none; stroke-dasharray: 2.22,0.96; stroke-dashoffset: 0; stroke: #c25a14; stroke-opacity: 0.55; stroke-width: 0.6"/>
   </g>
   <g id="line2d_53">
    <path d="M 338.248499 320.015633
L 355.138729 290.760897
" clip-path="url(#p146f3ad0a3)" style="fill: none; stroke-dasharray: 2.22,0.96; stroke-dashoffset: 0; stroke: #5f8f1f; stroke-opacity: 0.55; stroke-width: 0.6"/>
   </g>
   <g id="line2d_54">
    <path d="M 68.004826 320.015633
L 51.114597 290.760897
" clip-path="url(#p146f3ad0a3)" style="fill: none; stroke-dasharray: 2.22,0.96; stroke-dashoffset: 0; stroke: #2f6fb3; stroke-opacity: 0.55; stroke-width: 0.6"/>
   </g>
   <g id="line2d_55">
    <path d="M 194.681548 42.095643
L 211.571778 42.095643
" clip-path="url(#p146f3ad0a3)" style="fill: none; stroke-dasharray: 1.295,0.56; stroke-dashoffset: 0; stroke: #c25a14; stroke-opacity: 0.28; stroke-width: 0.35"/>
   </g>
   <g id="line2d_56">
    <path d="M 355.138729 320.015633
L 363.583843 305.388265
" clip-path="url(#p146f3ad0a3)" style="fill: none; stroke-dasharray: 1.295,0.56; stroke-dashoffset: 0; stroke: #5f8f1f; stroke-opacity: 0.28; stroke-width: 0.35"/>
   </g>
   <g id="line2d_57">
    <path d="M 51.114597 320.015633
L 42.669482 305.388265
" clip-path="url(#p146f3ad0a3)" style="fill: none; stroke-dasharray: 1.295,0.56; stroke-dashoffset: 0; stroke: #2f6fb3; stroke-opacity: 0.28; stroke-width: 0.35"/>
   </g>
   <g id="line2d_58">
    <path d="M 34.224367 320.015633
L 372.028958 320.015633
L 203.126663 27.468275
L 34.224367 320.015633
" clip-path="url(#p146f3ad0a3)" style="fill: none; stroke: #000000; stroke-width: 1.2; stroke-linecap: square"/>
   </g>
   <g id="text_1">
    <!-- $x$ Isobutanol -->
    <g style="fill: #5f8f1f" transform="translate(168.751663 362.154373) scale(0.11 -0.11)">
     <defs>
      <path id="DejaVuSerif-78" d="M 1863 2028
L 2559 2988
L 2113 2988
L 2113 3322
L 3391 3322
L 3391 2988
L 2950 2988
L 2059 1759
L 3097 331
L 3531 331
L 3531 0
L 1997 0
L 1997 331
L 2419 331
L 1697 1325
L 972 331
L 1403 331
L 1403 0
L 141 0
L 141 331
L 581 331
L 1497 1594
L 488 2988
L 78 2988
L 78 3322
L 1563 3322
L 1563 2988
L 1166 2988
L 1863 2028
z
" transform="scale(0.015625)"/>
      <path id="DejaVuSerif-20" transform="scale(0.015625)"/>
      <path id="DejaVuSerif-49" d="M 1581 331
L 2175 331
L 2175 0
L 353 0
L 353 331
L 947 331
L 947 4331
L 353 4331
L 353 4666
L 2175 4666
L 2175 4331
L 1581 4331
L 1581 331
z
" transform="scale(0.015625)"/>
      <path id="DejaVuSerif-73" d="M 359 184
L 359 959
L 691 959
Q 703 588 923 403
Q 1144 219 1575 219
Q 1963 219 2166 364
Q 2369 509 2369 788
Q 2369 1006 2220 1140
Q 2072 1275 1594 1428
L 1178 1569
Q 750 1706 558 1912
Q 366 2119 366 2438
Q 366 2894 700 3153
Q 1034 3413 1625 3413
Q 1888 3413 2178 3344
Q 2469 3275 2778 3144
L 2778 2419
L 2447 2419
Q 2434 2741 2221 2922
Q 2009 3103 1644 3103
Q 1281 3103 1095 2975
Q 909 2847 909 2591
Q 909 2381 1050 2254
Q 1191 2128 1613 1997
L 2069 1856
Q 2541 1709 2748 1489
Q 2956 1269 2956 922
Q 2956 450 2595 179
Q 2234 -91 1600 -91
Q 1278 -91 972 -22
Q 666 47 359 184
z
" transform="scale(0.015625)"/>
      <path id="DejaVuSerif-6f" d="M 1925 219
Q 2388 219 2623 584
Q 2859 950 2859 1663
Q 2859 2375 2623 2739
Q 2388 3103 1925 3103
Q 1463 3103 1227 2739
Q 991 2375 991 1663
Q 991 950 1228 584
Q 1466 219 1925 219
z
M 1925 -91
Q 1200 -91 759 389
Q 319 869 319 1663
Q 319 2456 758 2934
Q 1197 3413 1925 3413
Q 2653 3413 3092 2934
Q 3531 2456 3531 1663
Q 3531 869 3092 389
Q 2653 -91 1925 -91
z
" transform="scale(0.015625)"/>
      <path id="DejaVuSerif-62" d="M 738 331
L 738 4531
L 184 4531
L 184 4863
L 1313 4863
L 1313 2803
Q 1481 3116 1742 3264
Q 2003 3413 2388 3413
Q 3000 3413 3387 2928
Q 3775 2444 3775 1663
Q 3775 881 3387 395
Q 3000 -91 2388 -91
Q 2003 -91 1742 57
Q 1481 206 1313 519
L 1313 0
L 184 0
L 184 331
L 738 331
z
M 1313 1497
Q 1313 897 1542 583
Q 1772 269 2209 269
Q 2650 269 2876 622
Q 3103 975 3103 1663
Q 3103 2353 2876 2703
Q 2650 3053 2209 3053
Q 1772 3053 1542 2737
Q 1313 2422 1313 1825
L 1313 1497
z
" transform="scale(0.015625)"/>
      <path id="DejaVuSerif-75" d="M 2266 3322
L 3341 3322
L 3341 331
L 3884 331
L 3884 0
L 2766 0
L 2766 588
Q 2606 256 2353 82
Q 2100 -91 1766 -91
Q 1213 -91 952 223
Q 691 538 691 1209
L 691 2988
L 172 2988
L 172 3322
L 1269 3322
L 1269 1388
Q 1269 781 1417 556
Q 1566 331 1947 331
Q 2347 331 2556 625
Q 2766 919 2766 1478
L 2766 2988
L 2266 2988
L 2266 3322
z
" transform="scale(0.015625)"/>
      <path id="DejaVuSerif-74" d="M 691 2988
L 184 2988
L 184 3322
L 691 3322
L 691 4353
L 1269 4353
L 1269 3322
L 2350 3322
L 2350 2988
L 1269 2988
L 1269 878
Q 1269 456 1350 337
Q 1431 219 1650 219
Q 1875 219 1978 351
Q 2081 484 2088 781
L 2522 781
Q 2497 328 2275 118
Q 2053 -91 1600 -91
Q 1103 -91 897 129
Q 691 350 691 878
L 691 2988
z
" transform="scale(0.015625)"/>
      <path id="DejaVuSerif-61" d="M 2547 1044
L 2547 1747
L 1806 1747
Q 1378 1747 1168 1562
Q 959 1378 959 997
Q 959 650 1171 447
Q 1384 244 1747 244
Q 2106 244 2326 466
Q 2547 688 2547 1044
z
M 3122 2075
L 3122 331
L 3634 331
L 3634 0
L 2547 0
L 2547 359
Q 2356 128 2106 18
Q 1856 -91 1522 -91
Q 969 -91 644 203
Q 319 497 319 997
Q 319 1513 691 1797
Q 1063 2081 1741 2081
L 2547 2081
L 2547 2309
Q 2547 2688 2317 2895
Q 2088 3103 1672 3103
Q 1328 3103 1125 2947
Q 922 2791 872 2484
L 575 2484
L 575 3156
Q 875 3284 1158 3348
Q 1441 3413 1709 3413
Q 2400 3413 2761 3070
Q 3122 2728 3122 2075
z
" transform="scale(0.015625)"/>
      <path id="DejaVuSerif-6e" d="M 263 0
L 263 331
L 781 331
L 781 2988
L 231 2988
L 231 3322
L 1356 3322
L 1356 2731
Q 1516 3069 1770 3241
Q 2025 3413 2363 3413
Q 2913 3413 3172 3097
Q 3431 2781 3431 2113
L 3431 331
L 3944 331
L 3944 0
L 2356 0
L 2356 331
L 2853 331
L 2853 1931
Q 2853 2541 2703 2767
Q 2553 2994 2175 2994
Q 1775 2994 1565 2701
Q 1356 2409 1356 1850
L 1356 331
L 1856 331
L 1856 0
L 263 0
z
" transform="scale(0.015625)"/>
      <path id="DejaVuSerif-6c" d="M 1313 331
L 1856 331
L 1856 0
L 184 0
L 184 331
L 738 331
L 738 4531
L 184 4531
L 184 4863
L 1313 4863
L 1313 331
z
" transform="scale(0.015625)"/>
     </defs>
     <use xlink:href="#DejaVuSerif-78" transform="translate(0 0.015625)"/>
     <use xlink:href="#DejaVuSerif-20" transform="translate(56.396484 0.015625)"/>
     <use xlink:href="#DejaVuSerif-49" transform="translate(88.183594 0.015625)"/>
     <use xlink:href="#DejaVuSerif-73" transform="translate(127.685547 0.015625)"/>
     <use xlink:href="#DejaVuSerif-6f" transform="translate(179.003906 0.015625)"/>
     <use xlink:href="#DejaVuSerif-62" transform="translate(239.208984 0.015625)"/>
     <use xlink:href="#DejaVuSerif-75" transform="translate(303.222656 0.015625)"/>
     <use xlink:href="#DejaVuSerif-74" transform="translate(367.626953 0.015625)"/>
     <use xlink:href="#DejaVuSerif-61" transform="translate(407.8125 0.015625)"/>
     <use xlink:href="#DejaVuSerif-6e" transform="translate(467.431641 0.015625)"/>
     <use xlink:href="#DejaVuSerif-6f" transform="translate(531.835938 0.015625)"/>
     <use xlink:href="#DejaVuSerif-6c" transform="translate(592.041016 0.015625)"/>
    </g>
   </g>
   <g id="text_2">
    <!-- $x$ Water -->
    <g style="fill: #2f6fb3" transform="translate(76.578714 164.832198) rotate(-60) scale(0.11 -0.11)">
     <defs>
      <path id="DejaVuSerif-57" d="M 4878 0
L 4366 0
L 3297 3794
L 2228 0
L 1716 0
L 494 4331
L 31 4331
L 31 4666
L 1734 4666
L 1734 4331
L 1153 4331
L 2125 884
L 3188 4666
L 3694 4666
L 4775 844
L 5753 4331
L 5216 4331
L 5216 4666
L 6559 4666
L 6559 4331
L 6100 4331
L 4878 0
z
" transform="scale(0.015625)"/>
      <path id="DejaVuSerif-65" d="M 3469 1600
L 991 1600
L 991 1575
Q 991 903 1244 561
Q 1497 219 1991 219
Q 2369 219 2611 417
Q 2853 616 2950 1006
L 3413 1006
Q 3275 459 2904 184
Q 2534 -91 1931 -91
Q 1203 -91 761 389
Q 319 869 319 1663
Q 319 2450 753 2931
Q 1188 3413 1894 3413
Q 2647 3413 3050 2948
Q 3453 2484 3469 1600
z
M 2791 1931
Q 2772 2513 2545 2808
Q 2319 3103 1894 3103
Q 1497 3103 1269 2806
Q 1041 2509 991 1931
L 2791 1931
z
" transform="scale(0.015625)"/>
      <path id="DejaVuSerif-72" d="M 3059 3328
L 3059 2497
L 2728 2497
Q 2713 2744 2591 2866
Q 2469 2988 2234 2988
Q 1809 2988 1582 2694
Q 1356 2400 1356 1850
L 1356 331
L 2022 331
L 2022 0
L 263 0
L 263 331
L 781 331
L 781 2994
L 231 2994
L 231 3322
L 1356 3322
L 1356 2731
Q 1525 3078 1790 3245
Q 2056 3413 2438 3413
Q 2578 3413 2733 3391
Q 2888 3369 3059 3328
z
" transform="scale(0.015625)"/>
     </defs>
     <use xlink:href="#DejaVuSerif-78" transform="translate(0 0.09375)"/>
     <use xlink:href="#DejaVuSerif-20" transform="translate(56.396484 0.09375)"/>
     <use xlink:href="#DejaVuSerif-57" transform="translate(88.183594 0.09375)"/>
     <use xlink:href="#DejaVuSerif-61" transform="translate(190.966797 0.09375)"/>
     <use xlink:href="#DejaVuSerif-74" transform="translate(250.585938 0.09375)"/>
     <use xlink:href="#DejaVuSerif-65" transform="translate(290.771484 0.09375)"/>
     <use xlink:href="#DejaVuSerif-72" transform="translate(349.951172 0.09375)"/>
    </g>
   </g>
   <g id="text_3">
    <!-- $x$ Ethanol -->
    <g style="fill: #c25a14" transform="translate(305.474612 129.67266) rotate(-300) scale(0.11 -0.11)">
     <defs>
      <path id="DejaVuSerif-45" d="M 353 0
L 353 331
L 947 331
L 947 4331
L 353 4331
L 353 4666
L 4109 4666
L 4109 3628
L 3725 3628
L 3725 4281
L 1581 4281
L 1581 2719
L 3109 2719
L 3109 3303
L 3494 3303
L 3494 1753
L 3109 1753
L 3109 2338
L 1581 2338
L 1581 384
L 3775 384
L 3775 1038
L 4159 1038
L 4159 0
L 353 0
z
" transform="scale(0.015625)"/>
      <path id="DejaVuSerif-68" d="M 263 0
L 263 331
L 781 331
L 781 4531
L 231 4531
L 231 4863
L 1356 4863
L 1356 2731
Q 1516 3069 1770 3241
Q 2025 3413 2363 3413
Q 2913 3413 3172 3097
Q 3431 2781 3431 2113
L 3431 331
L 3944 331
L 3944 0
L 2356 0
L 2356 331
L 2853 331
L 2853 1931
Q 2853 2541 2704 2764
Q 2556 2988 2175 2988
Q 1775 2988 1565 2697
Q 1356 2406 1356 1850
L 1356 331
L 1856 331
L 1856 0
L 263 0
z
" transform="scale(0.015625)"/>
     </defs>
     <use xlink:href="#DejaVuSerif-78" transform="translate(0 0.015625)"/>
     <use xlink:href="#DejaVuSerif-20" transform="translate(56.396484 0.015625)"/>
     <use xlink:href="#DejaVuSerif-45" transform="translate(88.183594 0.015625)"/>
     <use xlink:href="#DejaVuSerif-74" transform="translate(161.181641 0.015625)"/>
     <use xlink:href="#DejaVuSerif-68" transform="translate(201.367188 0.015625)"/>
     <use xlink:href="#DejaVuSerif-61" transform="translate(265.771484 0.015625)"/>
     <use xlink:href="#DejaVuSerif-6e" transform="translate(325.390625 0.015625)"/>
     <use xlink:href="#DejaVuSerif-6f" transform="translate(389.794922 0.015625)"/>
     <use xlink:href="#DejaVuSerif-6c" transform="translate(450 0.015625)"/>
    </g>
   </g>
   <g id="text_4">
    <!-- 0.0 -->
    <g style="fill: #5f8f1f" transform="translate(27.863117 336.22852) scale(0.08 -0.08)">
     <defs>
      <path id="DejaVuSerif-30" d="M 2034 219
Q 2513 219 2750 744
Q 2988 1269 2988 2328
Q 2988 3391 2750 3916
Q 2513 4441 2034 4441
Q 1556 4441 1318 3916
Q 1081 3391 1081 2328
Q 1081 1269 1318 744
Q 1556 219 2034 219
z
M 2034 -91
Q 1275 -91 848 546
Q 422 1184 422 2328
Q 422 3475 848 4112
Q 1275 4750 2034 4750
Q 2797 4750 3222 4112
Q 3647 3475 3647 2328
Q 3647 1184 3222 546
Q 2797 -91 2034 -91
z
" transform="scale(0.015625)"/>
      <path id="DejaVuSerif-2e" d="M 603 325
Q 603 500 722 622
Q 841 744 1019 744
Q 1191 744 1312 622
Q 1434 500 1434 325
Q 1434 153 1312 31
Q 1191 -91 1019 -91
Q 841 -91 722 29
Q 603 150 603 325
z
" transform="scale(0.015625)"/>
     </defs>
     <use xlink:href="#DejaVuSerif-30"/>
     <use xlink:href="#DejaVuSerif-2e" transform="translate(63.623047 0)"/>
     <use xlink:href="#DejaVuSerif-30" transform="translate(95.410156 0)"/>
    </g>
   </g>
   <g id="text_5">
    <!-- 0.1 -->
    <g style="fill: #5f8f1f" transform="translate(61.643576 336.22852) scale(0.08 -0.08)">
     <defs>
      <path id="DejaVuSerif-31" d="M 909 0
L 909 331
L 1722 331
L 1722 4213
L 781 3603
L 781 4013
L 1919 4750
L 2350 4750
L 2350 331
L 3163 331
L 3163 0
L 909 0
z
" transform="scale(0.015625)"/>
     </defs>
     <use xlink:href="#DejaVuSerif-30"/>
     <use xlink:href="#DejaVuSerif-2e" transform="translate(63.623047 0)"/>
     <use xlink:href="#DejaVuSerif-31" transform="translate(95.410156 0)"/>
    </g>
   </g>
   <g id="text_6">
    <!-- 0.9 -->
    <g style="fill: #2f6fb3" transform="translate(28.152939 287.056817) scale(0.08 -0.08)">
     <defs>
      <path id="DejaVuSerif-39" d="M 2994 2091
Q 2784 1856 2512 1740
Q 2241 1625 1900 1625
Q 1206 1625 804 2044
Q 403 2463 403 3188
Q 403 3897 839 4323
Q 1275 4750 2003 4750
Q 2794 4750 3217 4161
Q 3641 3572 3641 2478
Q 3641 1253 3137 581
Q 2634 -91 1722 -91
Q 1475 -91 1203 -44
Q 931 3 647 97
L 647 872
L 997 872
Q 1038 556 1241 387
Q 1444 219 1784 219
Q 2391 219 2687 676
Q 2984 1134 2994 2091
z
M 1978 4441
Q 1534 4441 1298 4117
Q 1063 3794 1063 3188
Q 1063 2581 1298 2256
Q 1534 1931 1978 1931
Q 2422 1931 2658 2245
Q 2894 2559 2894 3150
Q 2894 3772 2656 4106
Q 2419 4441 1978 4441
z
" transform="scale(0.015625)"/>
     </defs>
     <use xlink:href="#DejaVuSerif-30"/>
     <use xlink:href="#DejaVuSerif-2e" transform="translate(63.623047 0)"/>
     <use xlink:href="#DejaVuSerif-39" transform="translate(95.410156 0)"/>
    </g>
   </g>
   <g id="text_7">
    <!-- 0.1 -->
    <g style="fill: #c25a14" transform="translate(365.377886 287.056817) scale(0.08 -0.08)">
     <use xlink:href="#DejaVuSerif-30"/>
     <use xlink:href="#DejaVuSerif-2e" transform="translate(63.623047 0)"/>
     <use xlink:href="#DejaVuSerif-31" transform="translate(95.410156 0)"/>
    </g>
   </g>
   <g id="text_8">
    <!-- 0.2 -->
    <g style="fill: #5f8f1f" transform="translate(95.424035 336.22852) scale(0.08 -0.08)">
     <defs>
      <path id="DejaVuSerif-32" d="M 819 3553
L 469 3553
L 469 4384
Q 803 4563 1142 4656
Q 1481 4750 1806 4750
Q 2534 4750 2956 4397
Q 3378 4044 3378 3438
Q 3378 2753 2422 1800
Q 2347 1728 2309 1691
L 1131 513
L 3078 513
L 3078 1088
L 3444 1088
L 3444 0
L 434 0
L 434 341
L 1850 1753
Q 2319 2222 2519 2614
Q 2719 3006 2719 3438
Q 2719 3909 2473 4175
Q 2228 4441 1797 4441
Q 1350 4441 1106 4219
Q 863 3997 819 3553
z
" transform="scale(0.015625)"/>
     </defs>
     <use xlink:href="#DejaVuSerif-30"/>
     <use xlink:href="#DejaVuSerif-2e" transform="translate(63.623047 0)"/>
     <use xlink:href="#DejaVuSerif-32" transform="translate(95.410156 0)"/>
    </g>
   </g>
   <g id="text_9">
    <!-- 0.8 -->
    <g style="fill: #2f6fb3" transform="translate(45.043169 257.802081) scale(0.08 -0.08)">
     <defs>
      <path id="DejaVuSerif-38" d="M 2981 1275
Q 2981 1775 2732 2051
Q 2484 2328 2034 2328
Q 1584 2328 1336 2051
Q 1088 1775 1088 1275
Q 1088 772 1336 495
Q 1584 219 2034 219
Q 2484 219 2732 495
Q 2981 772 2981 1275
z
M 2853 3541
Q 2853 3966 2637 4203
Q 2422 4441 2034 4441
Q 1650 4441 1433 4203
Q 1216 3966 1216 3541
Q 1216 3113 1433 2875
Q 1650 2638 2034 2638
Q 2422 2638 2637 2875
Q 2853 3113 2853 3541
z
M 2516 2484
Q 3047 2413 3344 2092
Q 3641 1772 3641 1275
Q 3641 619 3225 264
Q 2809 -91 2034 -91
Q 1263 -91 845 264
Q 428 619 428 1275
Q 428 1772 725 2092
Q 1022 2413 1556 2484
Q 1084 2569 832 2842
Q 581 3116 581 3541
Q 581 4103 968 4426
Q 1356 4750 2034 4750
Q 2713 4750 3100 4426
Q 3488 4103 3488 3541
Q 3488 3116 3236 2842
Q 2984 2569 2516 2484
z
" transform="scale(0.015625)"/>
     </defs>
     <use xlink:href="#DejaVuSerif-30"/>
     <use xlink:href="#DejaVuSerif-2e" transform="translate(63.623047 0)"/>
     <use xlink:href="#DejaVuSerif-38" transform="translate(95.410156 0)"/>
    </g>
   </g>
   <g id="text_10">
    <!-- 0.2 -->
    <g style="fill: #c25a14" transform="translate(348.487657 257.802081) scale(0.08 -0.08)">
     <use xlink:href="#DejaVuSerif-30"/>
     <use xlink:href="#DejaVuSerif-2e" transform="translate(63.623047 0)"/>
     <use xlink:href="#DejaVuSerif-32" transform="translate(95.410156 0)"/>
    </g>
   </g>
   <g id="text_11">
    <!-- 0.3 -->
    <g style="fill: #5f8f1f" transform="translate(129.204495 336.22852) scale(0.08 -0.08)">
     <defs>
      <path id="DejaVuSerif-33" d="M 622 4469
Q 988 4606 1323 4678
Q 1659 4750 1953 4750
Q 2638 4750 3022 4454
Q 3406 4159 3406 3634
Q 3406 3213 3140 2930
Q 2875 2647 2388 2547
Q 2963 2466 3280 2130
Q 3597 1794 3597 1259
Q 3597 606 3158 257
Q 2719 -91 1894 -91
Q 1528 -91 1179 -12
Q 831 66 488 225
L 488 1131
L 838 1131
Q 869 681 1141 450
Q 1413 219 1906 219
Q 2384 219 2661 495
Q 2938 772 2938 1253
Q 2938 1803 2653 2086
Q 2369 2369 1819 2369
L 1522 2369
L 1522 2688
L 1678 2688
Q 2225 2688 2498 2914
Q 2772 3141 2772 3597
Q 2772 4006 2547 4223
Q 2322 4441 1900 4441
Q 1478 4441 1245 4241
Q 1013 4041 972 3647
L 622 3647
L 622 4469
z
" transform="scale(0.015625)"/>
     </defs>
     <use xlink:href="#DejaVuSerif-30"/>
     <use xlink:href="#DejaVuSerif-2e" transform="translate(63.623047 0)"/>
     <use xlink:href="#DejaVuSerif-33" transform="translate(95.410156 0)"/>
    </g>
   </g>
   <g id="text_12">
    <!-- 0.7 -->
    <g style="fill: #2f6fb3" transform="translate(61.933398 228.547345) scale(0.08 -0.08)">
     <defs>
      <path id="DejaVuSerif-37" d="M 3609 4347
L 1784 0
L 1319 0
L 3059 4153
L 903 4153
L 903 3578
L 538 3578
L 538 4666
L 3609 4666
L 3609 4347
z
" transform="scale(0.015625)"/>
     </defs>
     <use xlink:href="#DejaVuSerif-30"/>
     <use xlink:href="#DejaVuSerif-2e" transform="translate(63.623047 0)"/>
     <use xlink:href="#DejaVuSerif-37" transform="translate(95.410156 0)"/>
    </g>
   </g>
   <g id="text_13">
    <!-- 0.3 -->
    <g style="fill: #c25a14" transform="translate(331.597427 228.547345) scale(0.08 -0.08)">
     <use xlink:href="#DejaVuSerif-30"/>
     <use xlink:href="#DejaVuSerif-2e" transform="translate(63.623047 0)"/>
     <use xlink:href="#DejaVuSerif-33" transform="translate(95.410156 0)"/>
    </g>
   </g>
   <g id="text_14">
    <!-- 0.4 -->
    <g style="fill: #5f8f1f" transform="translate(162.984954 336.22852) scale(0.08 -0.08)">
     <defs>
      <path id="DejaVuSerif-34" d="M 2234 1581
L 2234 4063
L 641 1581
L 2234 1581
z
M 3609 0
L 1484 0
L 1484 331
L 2234 331
L 2234 1247
L 197 1247
L 197 1588
L 2241 4750
L 2859 4750
L 2859 1581
L 3750 1581
L 3750 1247
L 2859 1247
L 2859 331
L 3609 331
L 3609 0
z
" transform="scale(0.015625)"/>
     </defs>
     <use xlink:href="#DejaVuSerif-30"/>
     <use xlink:href="#DejaVuSerif-2e" transform="translate(63.623047 0)"/>
     <use xlink:href="#DejaVuSerif-34" transform="translate(95.410156 0)"/>
    </g>
   </g>
   <g id="text_15">
    <!-- 0.6 -->
    <g style="fill: #2f6fb3" transform="translate(78.823628 199.292609) scale(0.08 -0.08)">
     <defs>
      <path id="DejaVuSerif-36" d="M 2094 219
Q 2534 219 2771 542
Q 3009 866 3009 1472
Q 3009 2078 2771 2401
Q 2534 2725 2094 2725
Q 1647 2725 1412 2412
Q 1178 2100 1178 1509
Q 1178 888 1415 553
Q 1653 219 2094 219
z
M 1075 2569
Q 1288 2803 1556 2918
Q 1825 3034 2163 3034
Q 2859 3034 3264 2615
Q 3669 2197 3669 1472
Q 3669 763 3233 336
Q 2797 -91 2069 -91
Q 1278 -91 853 498
Q 428 1088 428 2181
Q 428 3406 931 4078
Q 1434 4750 2350 4750
Q 2597 4750 2869 4703
Q 3141 4656 3425 4563
L 3425 3794
L 3072 3794
Q 3034 4109 2831 4275
Q 2628 4441 2284 4441
Q 1678 4441 1381 3981
Q 1084 3522 1075 2569
z
" transform="scale(0.015625)"/>
     </defs>
     <use xlink:href="#DejaVuSerif-30"/>
     <use xlink:href="#DejaVuSerif-2e" transform="translate(63.623047 0)"/>
     <use xlink:href="#DejaVuSerif-36" transform="translate(95.410156 0)"/>
    </g>
   </g>
   <g id="text_16">
    <!-- 0.4 -->
    <g style="fill: #c25a14" transform="translate(314.707198 199.292609) scale(0.08 -0.08)">
     <use xlink:href="#DejaVuSerif-30"/>
     <use xlink:href="#DejaVuSerif-2e" transform="translate(63.623047 0)"/>
     <use xlink:href="#DejaVuSerif-34" transform="translate(95.410156 0)"/>
    </g>
   </g>
   <g id="text_17">
    <!-- 0.5 -->
    <g style="fill: #5f8f1f" transform="translate(196.765413 336.22852) scale(0.08 -0.08)">
     <defs>
      <path id="DejaVuSerif-35" d="M 3219 4666
L 3219 4153
L 1081 4153
L 1081 2816
Q 1244 2928 1461 2984
Q 1678 3041 1947 3041
Q 2703 3041 3140 2622
Q 3578 2203 3578 1478
Q 3578 738 3136 323
Q 2694 -91 1894 -91
Q 1572 -91 1234 -12
Q 897 66 544 225
L 544 1131
L 897 1131
Q 925 688 1179 453
Q 1434 219 1894 219
Q 2388 219 2653 544
Q 2919 869 2919 1478
Q 2919 2084 2655 2407
Q 2391 2731 1894 2731
Q 1613 2731 1398 2631
Q 1184 2531 1019 2322
L 750 2322
L 750 4666
L 3219 4666
z
" transform="scale(0.015625)"/>
     </defs>
     <use xlink:href="#DejaVuSerif-30"/>
     <use xlink:href="#DejaVuSerif-2e" transform="translate(63.623047 0)"/>
     <use xlink:href="#DejaVuSerif-35" transform="translate(95.410156 0)"/>
    </g>
   </g>
   <g id="text_18">
    <!-- 0.5 -->
    <g style="fill: #2f6fb3" transform="translate(95.713858 170.037874) scale(0.08 -0.08)">
     <use xlink:href="#DejaVuSerif-30"/>
     <use xlink:href="#DejaVuSerif-2e" transform="translate(63.623047 0)"/>
     <use xlink:href="#DejaVuSerif-35" transform="translate(95.410156 0)"/>
    </g>
   </g>
   <g id="text_19">
    <!-- 0.5 -->
    <g style="fill: #c25a14" transform="translate(297.816968 170.037874) scale(0.08 -0.08)">
     <use xlink:href="#DejaVuSerif-30"/>
     <use xlink:href="#DejaVuSerif-2e" transform="translate(63.623047 0)"/>
     <use xlink:href="#DejaVuSerif-35" transform="translate(95.410156 0)"/>
    </g>
   </g>
   <g id="text_20">
    <!-- 0.6 -->
    <g style="fill: #5f8f1f" transform="translate(230.545872 336.22852) scale(0.08 -0.08)">
     <use xlink:href="#DejaVuSerif-30"/>
     <use xlink:href="#DejaVuSerif-2e" transform="translate(63.623047 0)"/>
     <use xlink:href="#DejaVuSerif-36" transform="translate(95.410156 0)"/>
    </g>
   </g>
   <g id="text_21">
    <!-- 0.4 -->
    <g style="fill: #2f6fb3" transform="translate(112.604087 140.783138) scale(0.08 -0.08)">
     <use xlink:href="#DejaVuSerif-30"/>
     <use xlink:href="#DejaVuSerif-2e" transform="translate(63.623047 0)"/>
     <use xlink:href="#DejaVuSerif-34" transform="translate(95.410156 0)"/>
    </g>
   </g>
   <g id="text_22">
    <!-- 0.6 -->
    <g style="fill: #c25a14" transform="translate(280.926738 140.783138) scale(0.08 -0.08)">
     <use xlink:href="#DejaVuSerif-30"/>
     <use xlink:href="#DejaVuSerif-2e" transform="translate(63.623047 0)"/>
     <use xlink:href="#DejaVuSerif-36" transform="translate(95.410156 0)"/>
    </g>
   </g>
   <g id="text_23">
    <!-- 0.7 -->
    <g style="fill: #5f8f1f" transform="translate(264.326331 336.22852) scale(0.08 -0.08)">
     <use xlink:href="#DejaVuSerif-30"/>
     <use xlink:href="#DejaVuSerif-2e" transform="translate(63.623047 0)"/>
     <use xlink:href="#DejaVuSerif-37" transform="translate(95.410156 0)"/>
    </g>
   </g>
   <g id="text_24">
    <!-- 0.3 -->
    <g style="fill: #2f6fb3" transform="translate(129.494317 111.528402) scale(0.08 -0.08)">
     <use xlink:href="#DejaVuSerif-30"/>
     <use xlink:href="#DejaVuSerif-2e" transform="translate(63.623047 0)"/>
     <use xlink:href="#DejaVuSerif-33" transform="translate(95.410156 0)"/>
    </g>
   </g>
   <g id="text_25">
    <!-- 0.7 -->
    <g style="fill: #c25a14" transform="translate(264.036509 111.528402) scale(0.08 -0.08)">
     <use xlink:href="#DejaVuSerif-30"/>
     <use xlink:href="#DejaVuSerif-2e" transform="translate(63.623047 0)"/>
     <use xlink:href="#DejaVuSerif-37" transform="translate(95.410156 0)"/>
    </g>
   </g>
   <g id="text_26">
    <!-- 0.8 -->
    <g style="fill: #5f8f1f" transform="translate(298.10679 336.22852) scale(0.08 -0.08)">
     <use xlink:href="#DejaVuSerif-30"/>
     <use xlink:href="#DejaVuSerif-2e" transform="translate(63.623047 0)"/>
     <use xlink:href="#DejaVuSerif-38" transform="translate(95.410156 0)"/>
    </g>
   </g>
   <g id="text_27">
    <!-- 0.2 -->
    <g style="fill: #2f6fb3" transform="translate(146.384546 82.273667) scale(0.08 -0.08)">
     <use xlink:href="#DejaVuSerif-30"/>
     <use xlink:href="#DejaVuSerif-2e" transform="translate(63.623047 0)"/>
     <use xlink:href="#DejaVuSerif-32" transform="translate(95.410156 0)"/>
    </g>
   </g>
   <g id="text_28">
    <!-- 0.8 -->
    <g style="fill: #c25a14" transform="translate(247.146279 82.273667) scale(0.08 -0.08)">
     <use xlink:href="#DejaVuSerif-30"/>
     <use xlink:href="#DejaVuSerif-2e" transform="translate(63.623047 0)"/>
     <use xlink:href="#DejaVuSerif-38" transform="translate(95.410156 0)"/>
    </g>
   </g>
   <g id="text_29">
    <!-- 0.9 -->
    <g style="fill: #5f8f1f" transform="translate(331.887249 336.22852) scale(0.08 -0.08)">
     <use xlink:href="#DejaVuSerif-30"/>
     <use xlink:href="#DejaVuSerif-2e" transform="translate(63.623047 0)"/>
     <use xlink:href="#DejaVuSerif-39" transform="translate(95.410156 0)"/>
    </g>
   </g>
   <g id="text_30">
    <!-- 0.1 -->
    <g style="fill: #2f6fb3" transform="translate(163.274776 53.018931) scale(0.08 -0.08)">
     <use xlink:href="#DejaVuSerif-30"/>
     <use xlink:href="#DejaVuSerif-2e" transform="translate(63.623047 0)"/>
     <use xlink:href="#DejaVuSerif-31" transform="translate(95.410156 0)"/>
    </g>
   </g>
   <g id="text_31">
    <!-- 0.9 -->
    <g style="fill: #c25a14" transform="translate(230.25605 53.018931) scale(0.08 -0.08)">
     <use xlink:href="#DejaVuSerif-30"/>
     <use xlink:href="#DejaVuSerif-2e" transform="translate(63.623047 0)"/>
     <use xlink:href="#DejaVuSerif-39" transform="translate(95.410156 0)"/>
    </g>
   </g>
   <g id="text_32">
    <!-- 1.0 -->
    <g style="fill: #2f6fb3" transform="translate(11.26271 316.311552) scale(0.08 -0.08)">
     <use xlink:href="#DejaVuSerif-31"/>
     <use xlink:href="#DejaVuSerif-2e" transform="translate(63.623047 0)"/>
     <use xlink:href="#DejaVuSerif-30" transform="translate(95.410156 0)"/>
    </g>
   </g>
   <g id="text_33">
    <!-- 0.0 -->
    <g style="fill: #2f6fb3" transform="translate(180.165005 23.764195) scale(0.08 -0.08)">
     <use xlink:href="#DejaVuSerif-30"/>
     <use xlink:href="#DejaVuSerif-2e" transform="translate(63.623047 0)"/>
     <use xlink:href="#DejaVuSerif-30" transform="translate(95.410156 0)"/>
    </g>
   </g>
   <g id="text_34">
    <!-- 0.0 -->
    <g style="fill: #c25a14" transform="translate(382.268116 316.311552) scale(0.08 -0.08)">
     <use xlink:href="#DejaVuSerif-30"/>
     <use xlink:href="#DejaVuSerif-2e" transform="translate(63.623047 0)"/>
     <use xlink:href="#DejaVuSerif-30" transform="translate(95.410156 0)"/>
    </g>
   </g>
   <g id="text_35">
    <!-- 1.0 -->
    <g style="fill: #c25a14" transform="translate(213.36582 23.764195) scale(0.08 -0.08)">
     <use xlink:href="#DejaVuSerif-31"/>
     <use xlink:href="#DejaVuSerif-2e" transform="translate(63.623047 0)"/>
     <use xlink:href="#DejaVuSerif-30" transform="translate(95.410156 0)"/>
    </g>
   </g>
   <g id="line2d_59">
    <path d="M 35.498415 318.628555
L 273.41383 293.095534
" clip-path="url(#p146f3ad0a3)" style="fill: none; stroke: #000000; stroke-linecap: square"/>
   </g>
   <g id="line2d_60">
    <path d="M 35.187343 318.977115
L 275.163001 297.545793
" clip-path="url(#p146f3ad0a3)" style="fill: none; stroke: #000000; stroke-linecap: square"/>
   </g>
   <g id="line2d_61">
    <path d="M 35.149114 319.230481
L 277.878655 302.000551
" clip-path="url(#p146f3ad0a3)" style="fill: none; stroke: #000000; stroke-linecap: square"/>
   </g>
   <g id="line2d_62">
    <path d="M 34.983966 319.577078
L 279.545312 308.797607
" clip-path="url(#p146f3ad0a3)" style="fill: none; stroke: #000000; stroke-linecap: square"/>
   </g>
   <g id="line2d_63">
    <path d="M 34.314622 319.921837
L 282.38732 314.685941
" clip-path="url(#p146f3ad0a3)" style="fill: none; stroke: #000000; stroke-linecap: square"/>
   </g>
   <g id="line2d_64">
    <path d="M 34.42465 319.890669
L 244.453222 293.265968
" clip-path="url(#p146f3ad0a3)" style="fill: none; stroke-dasharray: 3.7,1.6; stroke-dashoffset: 0; stroke: #d62728"/>
   </g>
   <g id="line2d_65">
    <path d="M 34.430551 319.901345
L 246.813257 298.000826
" clip-path="url(#p146f3ad0a3)" style="fill: none; stroke-dasharray: 3.7,1.6; stroke-dashoffset: 0; stroke: #d62728"/>
   </g>
   <g id="line2d_66">
    <path d="M 34.430197 319.921239
L 249.983213 303.210634
" clip-path="url(#p146f3ad0a3)" style="fill: none; stroke-dasharray: 3.7,1.6; stroke-dashoffset: 0; stroke: #d62728"/>
   </g>
   <g id="line2d_67">
    <path d="M 34.435516 319.947181
L 253.073045 309.532348
" clip-path="url(#p146f3ad0a3)" style="fill: none; stroke-dasharray: 3.7,1.6; stroke-dashoffset: 0; stroke: #d62728"/>
   </g>
   <g id="line2d_68">
    <path d="M 34.433182 319.976578
L 255.958019 314.551904
" clip-path="url(#p146f3ad0a3)" style="fill: none; stroke-dasharray: 3.7,1.6; stroke-dashoffset: 0; stroke: #d62728"/>
   </g>
   <g id="line2d_69">
    <path d="M 247.598637 292.211932
L 250.017787 297.04751
L 252.435999 301.883548
L 255.662033 307.927576
L 258.88582 313.567953
" clip-path="url(#p146f3ad0a3)" style="fill: none; stroke: #1f4ed8; stroke-linecap: square"/>
   </g>
   <g id="PathCollection_1">
    <defs>
     <path id="meeeee23af9" d="M 0 2.12132
C 0.562581 2.12132 1.102195 1.897805 1.5 1.5
C 1.897805 1.102195 2.12132 0.562581 2.12132 0
C 2.12132 -0.562581 1.897805 -1.102195 1.5 -1.5
C 1.102195 -1.897805 0.562581 -2.12132 0 -2.12132
C -0.562581 -2.12132 -1.102195 -1.897805 -1.5 -1.5
C -1.897805 -1.102195 -2.12132 -0.562581 -2.12132 0
C -2.12132 0.562581 -1.897805 1.102195 -1.5 1.5
C -1.102195 1.897805 -0.562581 2.12132 0 2.12132
z
" style="stroke: #000000; stroke-width: 0.5"/>
    </defs>
    <g clip-path="url(#p146f3ad0a3)">
     <use xlink:href="#meeeee23af9" x="35.498415" y="318.628555" style="stroke: #000000; stroke-width: 0.5"/>
     <use xlink:href="#meeeee23af9" x="273.41383" y="293.095534" style="stroke: #000000; stroke-width: 0.5"/>
    </g>
   </g>
   <g id="PathCollection_2">
    <g clip-path="url(#p146f3ad0a3)">
     <use xlink:href="#meeeee23af9" x="35.187343" y="318.977115" style="stroke: #000000; stroke-width: 0.5"/>
     <use xlink:href="#meeeee23af9" x="275.163001" y="297.545793" style="stroke: #000000; stroke-width: 0.5"/>
    </g>
   </g>
   <g id="PathCollection_3">
    <g clip-path="url(#p146f3ad0a3)">
     <use xlink:href="#meeeee23af9" x="35.149114" y="319.230481" style="stroke: #000000; stroke-width: 0.5"/>
     <use xlink:href="#meeeee23af9" x="277.878655" y="302.000551" style="stroke: #000000; stroke-width: 0.5"/>
    </g>
   </g>
   <g id="PathCollection_4">
    <g clip-path="url(#p146f3ad0a3)">
     <use xlink:href="#meeeee23af9" x="34.983966" y="319.577078" style="stroke: #000000; stroke-width: 0.5"/>
     <use xlink:href="#meeeee23af9" x="279.545312" y="308.797607" style="stroke: #000000; stroke-width: 0.5"/>
    </g>
   </g>
   <g id="PathCollection_5">
    <g clip-path="url(#p146f3ad0a3)">
     <use xlink:href="#meeeee23af9" x="34.314622" y="319.921837" style="stroke: #000000; stroke-width: 0.5"/>
     <use xlink:href="#meeeee23af9" x="282.38732" y="314.685941" style="stroke: #000000; stroke-width: 0.5"/>
    </g>
   </g>
   <g id="PathCollection_6">
    <defs>
     <path id="mbc58a7dbb6" d="M 0 2.12132
C 0.562581 2.12132 1.102195 1.897805 1.5 1.5
C 1.897805 1.102195 2.12132 0.562581 2.12132 0
C 2.12132 -0.562581 1.897805 -1.102195 1.5 -1.5
C 1.102195 -1.897805 0.562581 -2.12132 0 -2.12132
C -0.562581 -2.12132 -1.102195 -1.897805 -1.5 -1.5
C -1.897805 -1.102195 -2.12132 -0.562581 -2.12132 0
C -2.12132 0.562581 -1.897805 1.102195 -1.5 1.5
C -1.102195 1.897805 -0.562581 2.12132 0 2.12132
z
" style="stroke: #d62728; stroke-width: 0.5"/>
    </defs>
    <g clip-path="url(#p146f3ad0a3)">
     <use xlink:href="#mbc58a7dbb6" x="34.42465" y="319.890669" style="fill: #d62728; stroke: #d62728; stroke-width: 0.5"/>
     <use xlink:href="#mbc58a7dbb6" x="244.453222" y="293.265968" style="fill: #d62728; stroke: #d62728; stroke-width: 0.5"/>
    </g>
   </g>
   <g id="PathCollection_7">
    <g clip-path="url(#p146f3ad0a3)">
     <use xlink:href="#mbc58a7dbb6" x="34.430551" y="319.901345" style="fill: #d62728; stroke: #d62728; stroke-width: 0.5"/>
     <use xlink:href="#mbc58a7dbb6" x="246.813257" y="298.000826" style="fill: #d62728; stroke: #d62728; stroke-width: 0.5"/>
    </g>
   </g>
   <g id="PathCollection_8">
    <g clip-path="url(#p146f3ad0a3)">
     <use xlink:href="#mbc58a7dbb6" x="34.430197" y="319.921239" style="fill: #d62728; stroke: #d62728; stroke-width: 0.5"/>
     <use xlink:href="#mbc58a7dbb6" x="249.983213" y="303.210634" style="fill: #d62728; stroke: #d62728; stroke-width: 0.5"/>
    </g>
   </g>
   <g id="PathCollection_9">
    <g clip-path="url(#p146f3ad0a3)">
     <use xlink:href="#mbc58a7dbb6" x="34.435516" y="319.947181" style="fill: #d62728; stroke: #d62728; stroke-width: 0.5"/>
     <use xlink:href="#mbc58a7dbb6" x="253.073045" y="309.532348" style="fill: #d62728; stroke: #d62728; stroke-width: 0.5"/>
    </g>
   </g>
   <g id="PathCollection_10">
    <g clip-path="url(#p146f3ad0a3)">
     <use xlink:href="#mbc58a7dbb6" x="34.433182" y="319.976578" style="fill: #d62728; stroke: #d62728; stroke-width: 0.5"/>
     <use xlink:href="#mbc58a7dbb6" x="255.958019" y="314.551904" style="fill: #d62728; stroke: #d62728; stroke-width: 0.5"/>
    </g>
   </g>
   <g id="PathCollection_11">
    <defs>
     <path id="m44ecfe393e" d="M -2.12132 2.12132
L 2.12132 2.12132
L 2.12132 -2.12132
L -2.12132 -2.12132
z
" style="stroke: #1f4ed8; stroke-width: 0.5"/>
    </defs>
    <g clip-path="url(#p146f3ad0a3)">
     <use xlink:href="#m44ecfe393e" x="247.598637" y="292.211932" style="fill: #1f4ed8; stroke: #1f4ed8; stroke-width: 0.5"/>
     <use xlink:href="#m44ecfe393e" x="250.017787" y="297.04751" style="fill: #1f4ed8; stroke: #1f4ed8; stroke-width: 0.5"/>
     <use xlink:href="#m44ecfe393e" x="252.435999" y="301.883548" style="fill: #1f4ed8; stroke: #1f4ed8; stroke-width: 0.5"/>
     <use xlink:href="#m44ecfe393e" x="255.662033" y="307.927576" style="fill: #1f4ed8; stroke: #1f4ed8; stroke-width: 0.5"/>
     <use xlink:href="#m44ecfe393e" x="258.88582" y="313.567953" style="fill: #1f4ed8; stroke: #1f4ed8; stroke-width: 0.5"/>
    </g>
   </g>
   <g id="PathCollection_12">
    <defs>
     <path id="ma7715807e2" d="M 0 -2.44949
L -2.44949 2.44949
L 2.44949 2.44949
z
" style="stroke: #63c46b; stroke-width: 0.5"/>
    </defs>
    <g clip-path="url(#p146f3ad0a3)">
     <use xlink:href="#ma7715807e2" x="125.611557" y="308.331174" style="fill: #63c46b; stroke: #63c46b; stroke-width: 0.5"/>
     <use xlink:href="#ma7715807e2" x="123.198718" y="310.747732" style="fill: #63c46b; stroke: #63c46b; stroke-width: 0.5"/>
     <use xlink:href="#ma7715807e2" x="121.590769" y="313.164174" style="fill: #63c46b; stroke: #63c46b; stroke-width: 0.5"/>
     <use xlink:href="#ma7715807e2" x="117.565827" y="315.987256" style="fill: #63c46b; stroke: #63c46b; stroke-width: 0.5"/>
     <use xlink:href="#ma7715807e2" x="115.150524" y="317.999981" style="fill: #63c46b; stroke: #63c46b; stroke-width: 0.5"/>
    </g>
   </g>
   <g id="legend_1">
    <g id="line2d_70">
     <path d="M 301.005825 17.67875
L 309.005825 17.67875
L 317.005825 17.67875
" style="fill: none; stroke: #000000; stroke-linecap: square"/>
    </g>
    <g id="text_36">
     <!-- Exp. -->
     <g transform="translate(323.405825 20.47875) scale(0.08 -0.08)">
      <defs>
       <path id="DejaVuSerif-70" d="M 1313 1825
L 1313 1497
Q 1313 897 1542 583
Q 1772 269 2209 269
Q 2650 269 2876 622
Q 3103 975 3103 1663
Q 3103 2353 2876 2703
Q 2650 3053 2209 3053
Q 1772 3053 1542 2737
Q 1313 2422 1313 1825
z
M 738 2988
L 184 2988
L 184 3322
L 1313 3322
L 1313 2803
Q 1481 3116 1742 3264
Q 2003 3413 2388 3413
Q 3000 3413 3387 2928
Q 3775 2444 3775 1663
Q 3775 881 3387 395
Q 3000 -91 2388 -91
Q 2003 -91 1742 57
Q 1481 206 1313 519
L 1313 -997
L 1856 -997
L 1856 -1331
L 184 -1331
L 184 -997
L 738 -997
L 738 2988
z
" transform="scale(0.015625)"/>
      </defs>
      <use xlink:href="#DejaVuSerif-45"/>
      <use xlink:href="#DejaVuSerif-78" transform="translate(72.998047 0)"/>
      <use xlink:href="#DejaVuSerif-70" transform="translate(129.394531 0)"/>
      <use xlink:href="#DejaVuSerif-2e" transform="translate(193.408203 0)"/>
     </g>
    </g>
    <g id="line2d_71">
     <path d="M 301.005825 29.42125
L 309.005825 29.42125
L 317.005825 29.42125
" style="fill: none; stroke-dasharray: 3.7,1.6; stroke-dashoffset: 0; stroke: #d62728"/>
    </g>
    <g id="text_37">
     <!-- model ePC-SAFT -->
     <g transform="translate(323.405825 32.22125) scale(0.08 -0.08)">
      <defs>
       <path id="DejaVuSerif-6d" d="M 3316 2675
Q 3481 3041 3739 3227
Q 3997 3413 4341 3413
Q 4863 3413 5119 3089
Q 5375 2766 5375 2113
L 5375 331
L 5894 331
L 5894 0
L 4300 0
L 4300 331
L 4800 331
L 4800 2047
Q 4800 2556 4650 2772
Q 4500 2988 4153 2988
Q 3769 2988 3567 2697
Q 3366 2406 3366 1850
L 3366 331
L 3866 331
L 3866 0
L 2291 0
L 2291 331
L 2791 331
L 2791 2069
Q 2791 2566 2641 2777
Q 2491 2988 2144 2988
Q 1759 2988 1557 2697
Q 1356 2406 1356 1850
L 1356 331
L 1856 331
L 1856 0
L 263 0
L 263 331
L 781 331
L 781 2994
L 231 2994
L 231 3322
L 1356 3322
L 1356 2731
Q 1516 3063 1762 3238
Q 2009 3413 2322 3413
Q 2709 3413 2968 3220
Q 3228 3028 3316 2675
z
" transform="scale(0.015625)"/>
       <path id="DejaVuSerif-64" d="M 3359 331
L 3909 331
L 3909 0
L 2784 0
L 2784 519
Q 2616 206 2355 57
Q 2094 -91 1709 -91
Q 1097 -91 708 395
Q 319 881 319 1663
Q 319 2444 706 2928
Q 1094 3413 1709 3413
Q 2094 3413 2355 3264
Q 2616 3116 2784 2803
L 2784 4531
L 2241 4531
L 2241 4863
L 3359 4863
L 3359 331
z
M 2784 1497
L 2784 1825
Q 2784 2422 2554 2737
Q 2325 3053 1888 3053
Q 1444 3053 1217 2703
Q 991 2353 991 1663
Q 991 975 1217 622
Q 1444 269 1888 269
Q 2325 269 2554 583
Q 2784 897 2784 1497
z
" transform="scale(0.015625)"/>
       <path id="DejaVuSerif-50" d="M 1581 2375
L 2406 2375
Q 2872 2375 3115 2626
Q 3359 2878 3359 3353
Q 3359 3831 3115 4081
Q 2872 4331 2406 4331
L 1581 4331
L 1581 2375
z
M 353 0
L 353 331
L 947 331
L 947 4331
L 353 4331
L 353 4666
L 2559 4666
Q 3259 4666 3668 4311
Q 4078 3956 4078 3353
Q 4078 2753 3668 2397
Q 3259 2041 2559 2041
L 1581 2041
L 1581 331
L 2303 331
L 2303 0
L 353 0
z
" transform="scale(0.015625)"/>
       <path id="DejaVuSerif-43" d="M 4513 1234
Q 4306 581 3820 245
Q 3334 -91 2591 -91
Q 2134 -91 1743 65
Q 1353 222 1050 525
Q 700 875 529 1320
Q 359 1766 359 2328
Q 359 3416 987 4083
Q 1616 4750 2644 4750
Q 3025 4750 3456 4650
Q 3888 4550 4384 4347
L 4384 3272
L 4031 3272
Q 3916 3859 3567 4137
Q 3219 4416 2591 4416
Q 1844 4416 1459 3886
Q 1075 3356 1075 2328
Q 1075 1303 1459 773
Q 1844 244 2591 244
Q 3113 244 3450 492
Q 3788 741 3938 1234
L 4513 1234
z
" transform="scale(0.015625)"/>
       <path id="DejaVuSerif-2d" d="M 281 1959
L 1881 1959
L 1881 1472
L 281 1472
L 281 1959
z
" transform="scale(0.015625)"/>
       <path id="DejaVuSerif-53" d="M 594 225
L 594 1288
L 953 1284
Q 969 753 1261 498
Q 1553 244 2150 244
Q 2706 244 2998 464
Q 3291 684 3291 1106
Q 3291 1444 3114 1625
Q 2938 1806 2369 1978
L 1753 2163
Q 1084 2366 811 2669
Q 538 2972 538 3500
Q 538 4094 959 4422
Q 1381 4750 2144 4750
Q 2469 4750 2856 4679
Q 3244 4609 3681 4475
L 3681 3481
L 3328 3481
Q 3275 3975 2998 4195
Q 2722 4416 2156 4416
Q 1663 4416 1405 4214
Q 1147 4013 1147 3628
Q 1147 3294 1340 3103
Q 1534 2913 2163 2725
L 2741 2553
Q 3375 2363 3645 2067
Q 3916 1772 3916 1275
Q 3916 597 3481 253
Q 3047 -91 2188 -91
Q 1803 -91 1404 -12
Q 1006 66 594 225
z
" transform="scale(0.015625)"/>
       <path id="DejaVuSerif-41" d="M 1281 1691
L 2994 1691
L 2138 3909
L 1281 1691
z
M -38 0
L -38 331
L 372 331
L 2034 4666
L 2559 4666
L 4225 331
L 4684 331
L 4684 0
L 2988 0
L 2988 331
L 3506 331
L 3116 1356
L 1153 1356
L 763 331
L 1275 331
L 1275 0
L -38 0
z
" transform="scale(0.015625)"/>
       <path id="DejaVuSerif-46" d="M 353 0
L 353 331
L 947 331
L 947 4331
L 353 4331
L 353 4666
L 4172 4666
L 4172 3628
L 3788 3628
L 3788 4281
L 1581 4281
L 1581 2719
L 3175 2719
L 3175 3303
L 3559 3303
L 3559 1753
L 3175 1753
L 3175 2338
L 1581 2338
L 1581 331
L 2328 331
L 2328 0
L 353 0
z
" transform="scale(0.015625)"/>
       <path id="DejaVuSerif-54" d="M 1222 0
L 1222 331
L 1819 331
L 1819 4294
L 447 4294
L 447 3566
L 63 3566
L 63 4666
L 4206 4666
L 4206 3566
L 3822 3566
L 3822 4294
L 2450 4294
L 2450 331
L 3047 331
L 3047 0
L 1222 0
z
" transform="scale(0.015625)"/>
      </defs>
      <use xlink:href="#DejaVuSerif-6d"/>
      <use xlink:href="#DejaVuSerif-6f" transform="translate(94.824219 0)"/>
      <use xlink:href="#DejaVuSerif-64" transform="translate(155.029297 0)"/>
      <use xlink:href="#DejaVuSerif-65" transform="translate(219.042969 0)"/>
      <use xlink:href="#DejaVuSerif-6c" transform="translate(278.222656 0)"/>
      <use xlink:href="#DejaVuSerif-20" transform="translate(310.205078 0)"/>
      <use xlink:href="#DejaVuSerif-65" transform="translate(341.992188 0)"/>
      <use xlink:href="#DejaVuSerif-50" transform="translate(401.171875 0)"/>
      <use xlink:href="#DejaVuSerif-43" transform="translate(468.457031 0)"/>
      <use xlink:href="#DejaVuSerif-2d" transform="translate(544.970703 0)"/>
      <use xlink:href="#DejaVuSerif-53" transform="translate(578.759766 0)"/>
      <use xlink:href="#DejaVuSerif-41" transform="translate(647.265625 0)"/>
      <use xlink:href="#DejaVuSerif-46" transform="translate(719.482422 0)"/>
      <use xlink:href="#DejaVuSerif-54" transform="translate(788.867188 0)"/>
     </g>
    </g>
    <g id="line2d_72">
     <path d="M 301.005825 41.16375
L 309.005825 41.16375
L 317.005825 41.16375
" style="fill: none; stroke: #1f4ed8; stroke-linecap: square"/>
    </g>
    <g id="text_38">
     <!-- paper ePC-SAFT -->
     <g transform="translate(323.405825 43.96375) scale(0.08 -0.08)">
      <use xlink:href="#DejaVuSerif-70"/>
      <use xlink:href="#DejaVuSerif-61" transform="translate(64.013672 0)"/>
      <use xlink:href="#DejaVuSerif-70" transform="translate(123.632812 0)"/>
      <use xlink:href="#DejaVuSerif-65" transform="translate(187.646484 0)"/>
      <use xlink:href="#DejaVuSerif-72" transform="translate(246.826172 0)"/>
      <use xlink:href="#DejaVuSerif-20" transform="translate(294.628906 0)"/>
      <use xlink:href="#DejaVuSerif-65" transform="translate(326.416016 0)"/>
      <use xlink:href="#DejaVuSerif-50" transform="translate(385.595703 0)"/>
      <use xlink:href="#DejaVuSerif-43" transform="translate(452.880859 0)"/>
      <use xlink:href="#DejaVuSerif-2d" transform="translate(529.394531 0)"/>
      <use xlink:href="#DejaVuSerif-53" transform="translate(563.183594 0)"/>
      <use xlink:href="#DejaVuSerif-41" transform="translate(631.689453 0)"/>
      <use xlink:href="#DejaVuSerif-46" transform="translate(703.90625 0)"/>
      <use xlink:href="#DejaVuSerif-54" transform="translate(773.291016 0)"/>
     </g>
    </g>
    <g id="PathCollection_13">
     <g>
      <use xlink:href="#ma7715807e2" x="309.005825" y="53.60625" style="fill: #63c46b; stroke: #63c46b; stroke-width: 0.5"/>
     </g>
    </g>
    <g id="text_39">
     <!-- Feed -->
     <g transform="translate(323.405825 55.70625) scale(0.08 -0.08)">
      <use xlink:href="#DejaVuSerif-46"/>
      <use xlink:href="#DejaVuSerif-65" transform="translate(63.884766 0)"/>
      <use xlink:href="#DejaVuSerif-65" transform="translate(123.064453 0)"/>
      <use xlink:href="#DejaVuSerif-64" transform="translate(182.244141 0)"/>
     </g>
    </g>
   </g>
  </g>
  <g id="text_40">
   <!-- Figure 5. LLE for the system water + ethanol + isobutanol + 10 wt % NaCl at 293.15 -->
   <g transform="translate(9.878663 382.518281) scale(0.09 -0.09)">
    <defs>
     <path id="DejaVuSerif-69" d="M 622 4353
Q 622 4497 726 4603
Q 831 4709 978 4709
Q 1122 4709 1226 4603
Q 1331 4497 1331 4353
Q 1331 4206 1228 4103
Q 1125 4000 978 4000
Q 831 4000 726 4103
Q 622 4206 622 4353
z
M 1356 331
L 1900 331
L 1900 0
L 231 0
L 231 331
L 781 331
L 781 2988
L 231 2988
L 231 3322
L 1356 3322
L 1356 331
z
" transform="scale(0.015625)"/>
     <path id="DejaVuSerif-67" d="M 3359 2988
L 3359 72
Q 3359 -644 2965 -1033
Q 2572 -1422 1844 -1422
Q 1516 -1422 1216 -1362
Q 916 -1303 641 -1184
L 641 -488
L 941 -488
Q 997 -813 1206 -963
Q 1416 -1113 1806 -1113
Q 2313 -1113 2548 -827
Q 2784 -541 2784 72
L 2784 519
Q 2616 206 2355 57
Q 2094 -91 1709 -91
Q 1097 -91 708 395
Q 319 881 319 1663
Q 319 2444 706 2928
Q 1094 3413 1709 3413
Q 2094 3413 2355 3264
Q 2616 3116 2784 2803
L 2784 3322
L 3909 3322
L 3909 2988
L 3359 2988
z
M 2784 1825
Q 2784 2422 2554 2737
Q 2325 3053 1888 3053
Q 1444 3053 1217 2703
Q 991 2353 991 1663
Q 991 975 1217 622
Q 1444 269 1888 269
Q 2325 269 2554 583
Q 2784 897 2784 1497
L 2784 1825
z
" transform="scale(0.015625)"/>
     <path id="DejaVuSerif-4c" d="M 353 0
L 353 331
L 947 331
L 947 4331
L 353 4331
L 353 4666
L 2175 4666
L 2175 4331
L 1581 4331
L 1581 384
L 3713 384
L 3713 1166
L 4097 1166
L 4097 0
L 353 0
z
" transform="scale(0.015625)"/>
     <path id="DejaVuSerif-66" d="M 2753 4078
L 2450 4078
Q 2447 4313 2317 4434
Q 2188 4556 1941 4556
Q 1619 4556 1487 4379
Q 1356 4203 1356 3750
L 1356 3322
L 2284 3322
L 2284 2988
L 1356 2988
L 1356 331
L 2094 331
L 2094 0
L 231 0
L 231 331
L 781 331
L 781 2988
L 231 2988
L 231 3322
L 781 3322
L 781 3738
Q 781 4294 1070 4578
Q 1359 4863 1919 4863
Q 2128 4863 2337 4825
Q 2547 4788 2753 4709
L 2753 4078
z
" transform="scale(0.015625)"/>
     <path id="DejaVuSerif-79" d="M 1381 -609
L 1600 -56
L 359 2988
L -19 2988
L -19 3322
L 1509 3322
L 1509 2988
L 978 2988
L 1913 703
L 2847 2988
L 2350 2988
L 2350 3322
L 3597 3322
L 3597 2988
L 3225 2988
L 1703 -750
Q 1547 -1138 1356 -1280
Q 1166 -1422 819 -1422
Q 672 -1422 517 -1397
Q 363 -1372 206 -1325
L 206 -691
L 500 -691
Q 519 -903 608 -995
Q 697 -1088 884 -1088
Q 1056 -1088 1161 -992
Q 1266 -897 1381 -609
z
" transform="scale(0.015625)"/>
     <path id="DejaVuSerif-77" d="M 3072 3322
L 3922 728
L 4672 2988
L 4191 2988
L 4191 3322
L 5394 3322
L 5394 2988
L 5025 2988
L 4038 0
L 3559 0
L 2741 2484
L 1919 0
L 1459 0
L 475 2988
L 103 2988
L 103 3322
L 1606 3322
L 1606 2988
L 1069 2988
L 1813 728
L 2669 3322
L 3072 3322
z
" transform="scale(0.015625)"/>
     <path id="DejaVuSerif-2b" d="M 2931 4013
L 2931 2259
L 4684 2259
L 4684 1753
L 2931 1753
L 2931 0
L 2431 0
L 2431 1753
L 678 1753
L 678 2259
L 2431 2259
L 2431 4013
L 2931 4013
z
" transform="scale(0.015625)"/>
     <path id="DejaVuSerif-25" d="M 1434 4459
Q 1159 4459 1004 4200
Q 850 3941 850 3475
Q 850 3016 1008 2753
Q 1166 2491 1434 2491
Q 1700 2491 1854 2752
Q 2009 3013 2009 3475
Q 2009 3938 1854 4198
Q 1700 4459 1434 4459
z
M 4653 2169
Q 4381 2169 4226 1906
Q 4072 1644 4072 1178
Q 4072 719 4228 458
Q 4384 197 4653 197
Q 4922 197 5075 458
Q 5228 719 5228 1178
Q 5228 1641 5073 1905
Q 4919 2169 4653 2169
z
M 4653 2450
Q 5147 2450 5437 2106
Q 5728 1763 5728 1178
Q 5728 594 5436 251
Q 5144 -91 4653 -91
Q 4153 -91 3862 251
Q 3572 594 3572 1178
Q 3572 1766 3864 2108
Q 4156 2450 4653 2450
z
M 4263 4750
L 4738 4750
L 1819 -91
L 1344 -91
L 4263 4750
z
M 1428 4750
Q 1922 4750 2215 4408
Q 2509 4066 2509 3481
Q 2509 2891 2217 2550
Q 1925 2209 1428 2209
Q 931 2209 642 2551
Q 353 2894 353 3481
Q 353 4063 643 4406
Q 934 4750 1428 4750
z
" transform="scale(0.015625)"/>
     <path id="DejaVuSerif-4e" d="M 313 0
L 313 331
L 941 331
L 941 4331
L 313 4331
L 313 4666
L 1509 4666
L 4306 984
L 4306 4331
L 3681 4331
L 3681 4666
L 5319 4666
L 5319 4331
L 4691 4331
L 4691 -91
L 4313 -91
L 1325 3841
L 1325 331
L 1953 331
L 1953 0
L 313 0
z
" transform="scale(0.015625)"/>
    </defs>
    <use xlink:href="#DejaVuSerif-46"/>
    <use xlink:href="#DejaVuSerif-69" transform="translate(69.384766 0)"/>
    <use xlink:href="#DejaVuSerif-67" transform="translate(101.367188 0)"/>
    <use xlink:href="#DejaVuSerif-75" transform="translate(165.380859 0)"/>
    <use xlink:href="#DejaVuSerif-72" transform="translate(229.785156 0)"/>
    <use xlink:href="#DejaVuSerif-65" transform="translate(277.587891 0)"/>
    <use xlink:href="#DejaVuSerif-20" transform="translate(336.767578 0)"/>
    <use xlink:href="#DejaVuSerif-35" transform="translate(368.554688 0)"/>
    <use xlink:href="#DejaVuSerif-2e" transform="translate(432.177734 0)"/>
    <use xlink:href="#DejaVuSerif-20" transform="translate(463.964844 0)"/>
    <use xlink:href="#DejaVuSerif-4c" transform="translate(495.751953 0)"/>
    <use xlink:href="#DejaVuSerif-4c" transform="translate(562.158203 0)"/>
    <use xlink:href="#DejaVuSerif-45" transform="translate(628.564453 0)"/>
    <use xlink:href="#DejaVuSerif-20" transform="translate(701.5625 0)"/>
    <use xlink:href="#DejaVuSerif-66" transform="translate(733.349609 0)"/>
    <use xlink:href="#DejaVuSerif-6f" transform="translate(770.361328 0)"/>
    <use xlink:href="#DejaVuSerif-72" transform="translate(830.566406 0)"/>
    <use xlink:href="#DejaVuSerif-20" transform="translate(878.369141 0)"/>
    <use xlink:href="#DejaVuSerif-74" transform="translate(910.15625 0)"/>
    <use xlink:href="#DejaVuSerif-68" transform="translate(950.341797 0)"/>
    <use xlink:href="#DejaVuSerif-65" transform="translate(1014.746094 0)"/>
    <use xlink:href="#DejaVuSerif-20" transform="translate(1073.925781 0)"/>
    <use xlink:href="#DejaVuSerif-73" transform="translate(1105.712891 0)"/>
    <use xlink:href="#DejaVuSerif-79" transform="translate(1157.03125 0)"/>
    <use xlink:href="#DejaVuSerif-73" transform="translate(1213.525391 0)"/>
    <use xlink:href="#DejaVuSerif-74" transform="translate(1264.84375 0)"/>
    <use xlink:href="#DejaVuSerif-65" transform="translate(1305.029297 0)"/>
    <use xlink:href="#DejaVuSerif-6d" transform="translate(1364.208984 0)"/>
    <use xlink:href="#DejaVuSerif-20" transform="translate(1459.033203 0)"/>
    <use xlink:href="#DejaVuSerif-77" transform="translate(1490.820312 0)"/>
    <use xlink:href="#DejaVuSerif-61" transform="translate(1576.416016 0)"/>
    <use xlink:href="#DejaVuSerif-74" transform="translate(1636.035156 0)"/>
    <use xlink:href="#DejaVuSerif-65" transform="translate(1676.220703 0)"/>
    <use xlink:href="#DejaVuSerif-72" transform="translate(1735.400391 0)"/>
    <use xlink:href="#DejaVuSerif-20" transform="translate(1783.203125 0)"/>
    <use xlink:href="#DejaVuSerif-2b" transform="translate(1814.990234 0)"/>
    <use xlink:href="#DejaVuSerif-20" transform="translate(1898.779297 0)"/>
    <use xlink:href="#DejaVuSerif-65" transform="translate(1930.566406 0)"/>
    <use xlink:href="#DejaVuSerif-74" transform="translate(1989.746094 0)"/>
    <use xlink:href="#DejaVuSerif-68" transform="translate(2029.931641 0)"/>
    <use xlink:href="#DejaVuSerif-61" transform="translate(2094.335938 0)"/>
    <use xlink:href="#DejaVuSerif-6e" transform="translate(2153.955078 0)"/>
    <use xlink:href="#DejaVuSerif-6f" transform="translate(2218.359375 0)"/>
    <use xlink:href="#DejaVuSerif-6c" transform="translate(2278.564453 0)"/>
    <use xlink:href="#DejaVuSerif-20" transform="translate(2310.546875 0)"/>
    <use xlink:href="#DejaVuSerif-2b" transform="translate(2342.333984 0)"/>
    <use xlink:href="#DejaVuSerif-20" transform="translate(2426.123047 0)"/>
    <use xlink:href="#DejaVuSerif-69" transform="translate(2457.910156 0)"/>
    <use xlink:href="#DejaVuSerif-73" transform="translate(2489.892578 0)"/>
    <use xlink:href="#DejaVuSerif-6f" transform="translate(2541.210938 0)"/>
    <use xlink:href="#DejaVuSerif-62" transform="translate(2601.416016 0)"/>
    <use xlink:href="#DejaVuSerif-75" transform="translate(2665.429688 0)"/>
    <use xlink:href="#DejaVuSerif-74" transform="translate(2729.833984 0)"/>
    <use xlink:href="#DejaVuSerif-61" transform="translate(2770.019531 0)"/>
    <use xlink:href="#DejaVuSerif-6e" transform="translate(2829.638672 0)"/>
    <use xlink:href="#DejaVuSerif-6f" transform="translate(2894.042969 0)"/>
    <use xlink:href="#DejaVuSerif-6c" transform="translate(2954.248047 0)"/>
    <use xlink:href="#DejaVuSerif-20" transform="translate(2986.230469 0)"/>
    <use xlink:href="#DejaVuSerif-2b" transform="translate(3018.017578 0)"/>
    <use xlink:href="#DejaVuSerif-20" transform="translate(3101.806641 0)"/>
    <use xlink:href="#DejaVuSerif-31" transform="translate(3133.59375 0)"/>
    <use xlink:href="#DejaVuSerif-30" transform="translate(3197.216797 0)"/>
    <use xlink:href="#DejaVuSerif-20" transform="translate(3260.839844 0)"/>
    <use xlink:href="#DejaVuSerif-77" transform="translate(3292.626953 0)"/>
    <use xlink:href="#DejaVuSerif-74" transform="translate(3378.222656 0)"/>
    <use xlink:href="#DejaVuSerif-20" transform="translate(3418.408203 0)"/>
    <use xlink:href="#DejaVuSerif-25" transform="translate(3450.195312 0)"/>
    <use xlink:href="#DejaVuSerif-20" transform="translate(3545.214844 0)"/>
    <use xlink:href="#DejaVuSerif-4e" transform="translate(3577.001953 0)"/>
    <use xlink:href="#DejaVuSerif-61" transform="translate(3664.501953 0)"/>
    <use xlink:href="#DejaVuSerif-43" transform="translate(3724.121094 0)"/>
    <use xlink:href="#DejaVuSerif-6c" transform="translate(3800.634766 0)"/>
    <use xlink:href="#DejaVuSerif-20" transform="translate(3832.617188 0)"/>
    <use xlink:href="#DejaVuSerif-61" transform="translate(3864.404297 0)"/>
    <use xlink:href="#DejaVuSerif-74" transform="translate(3924.023438 0)"/>
    <use xlink:href="#DejaVuSerif-20" transform="translate(3964.208984 0)"/>
    <use xlink:href="#DejaVuSerif-32" transform="translate(3995.996094 0)"/>
    <use xlink:href="#DejaVuSerif-39" transform="translate(4059.619141 0)"/>
    <use xlink:href="#DejaVuSerif-33" transform="translate(4123.242188 0)"/>
    <use xlink:href="#DejaVuSerif-2e" transform="translate(4186.865234 0)"/>
    <use xlink:href="#DejaVuSerif-31" transform="translate(4218.652344 0)"/>
    <use xlink:href="#DejaVuSerif-35" transform="translate(4282.275391 0)"/>
   </g>
   <!-- K and atmospheric pressure expressed as salt-free composition: black (exp), red -->
   <g transform="translate(9.878663 392.724281) scale(0.09 -0.09)">
    <defs>
     <path id="DejaVuSerif-4b" d="M 353 0
L 353 331
L 947 331
L 947 4331
L 353 4331
L 353 4666
L 2175 4666
L 2175 4331
L 1581 4331
L 1581 2566
L 3591 4331
L 3084 4331
L 3084 4666
L 4634 4666
L 4634 4331
L 4109 4331
L 2106 2572
L 4347 331
L 4878 331
L 4878 0
L 3794 0
L 1581 2216
L 1581 331
L 2175 331
L 2175 0
L 353 0
z
" transform="scale(0.015625)"/>
     <path id="DejaVuSerif-63" d="M 3291 997
Q 3169 466 2822 187
Q 2475 -91 1925 -91
Q 1200 -91 759 389
Q 319 869 319 1663
Q 319 2459 759 2936
Q 1200 3413 1925 3413
Q 2241 3413 2553 3339
Q 2866 3266 3181 3116
L 3181 2266
L 2847 2266
Q 2781 2703 2561 2903
Q 2341 3103 1931 3103
Q 1466 3103 1228 2742
Q 991 2381 991 1663
Q 991 944 1227 581
Q 1463 219 1931 219
Q 2303 219 2525 412
Q 2747 606 2828 997
L 3291 997
z
" transform="scale(0.015625)"/>
     <path id="DejaVuSerif-3a" d="M 666 325
Q 666 500 786 622
Q 906 744 1081 744
Q 1256 744 1376 622
Q 1497 500 1497 325
Q 1497 150 1378 29
Q 1259 -91 1081 -91
Q 903 -91 784 29
Q 666 150 666 325
z
M 666 2363
Q 666 2538 786 2658
Q 906 2778 1081 2778
Q 1259 2778 1378 2659
Q 1497 2541 1497 2363
Q 1497 2184 1378 2065
Q 1259 1947 1081 1947
Q 906 1947 786 2067
Q 666 2188 666 2363
z
" transform="scale(0.015625)"/>
     <path id="DejaVuSerif-6b" d="M 1831 0
L 219 0
L 219 331
L 738 331
L 738 4531
L 184 4531
L 184 4863
L 1313 4863
L 1313 1697
L 2713 2988
L 2234 2988
L 2234 3322
L 3738 3322
L 3738 2988
L 3169 2988
L 2181 2075
L 3444 331
L 3922 331
L 3922 0
L 2284 0
L 2284 331
L 2759 331
L 1766 1697
L 1313 1275
L 1313 331
L 1831 331
L 1831 0
z
" transform="scale(0.015625)"/>
     <path id="DejaVuSerif-28" d="M 2041 -997
Q 1281 -656 893 83
Q 506 822 506 1931
Q 506 3044 893 3783
Q 1281 4522 2041 4863
L 2041 4556
Q 1559 4225 1350 3623
Q 1141 3022 1141 1931
Q 1141 844 1350 242
Q 1559 -359 2041 -691
L 2041 -997
z
" transform="scale(0.015625)"/>
     <path id="DejaVuSerif-29" d="M 453 -997
L 453 -691
Q 934 -359 1145 242
Q 1356 844 1356 1931
Q 1356 3022 1145 3623
Q 934 4225 453 4556
L 453 4863
Q 1216 4522 1603 3783
Q 1991 3044 1991 1931
Q 1991 822 1603 83
Q 1216 -656 453 -997
z
" transform="scale(0.015625)"/>
     <path id="DejaVuSerif-2c" d="M 231 -622
Q 525 -406 662 -114
Q 800 178 800 594
L 800 709
L 1416 709
Q 1391 175 1164 -208
Q 938 -591 481 -872
L 231 -622
z
" transform="scale(0.015625)"/>
    </defs>
    <use xlink:href="#DejaVuSerif-4b"/>
    <use xlink:href="#DejaVuSerif-20" transform="translate(74.707031 0)"/>
    <use xlink:href="#DejaVuSerif-61" transform="translate(106.494141 0)"/>
    <use xlink:href="#DejaVuSerif-6e" transform="translate(166.113281 0)"/>
    <use xlink:href="#DejaVuSerif-64" transform="translate(230.517578 0)"/>
    <use xlink:href="#DejaVuSerif-20" transform="translate(294.53125 0)"/>
    <use xlink:href="#DejaVuSerif-61" transform="translate(326.318359 0)"/>
    <use xlink:href="#DejaVuSerif-74" transform="translate(385.9375 0)"/>
    <use xlink:href="#DejaVuSerif-6d" transform="translate(426.123047 0)"/>
    <use xlink:href="#DejaVuSerif-6f" transform="translate(520.947266 0)"/>
    <use xlink:href="#DejaVuSerif-73" transform="translate(581.152344 0)"/>
    <use xlink:href="#DejaVuSerif-70" transform="translate(632.470703 0)"/>
    <use xlink:href="#DejaVuSerif-68" transform="translate(696.484375 0)"/>
    <use xlink:href="#DejaVuSerif-65" transform="translate(760.888672 0)"/>
    <use xlink:href="#DejaVuSerif-72" transform="translate(820.068359 0)"/>
    <use xlink:href="#DejaVuSerif-69" transform="translate(867.871094 0)"/>
    <use xlink:href="#DejaVuSerif-63" transform="translate(899.853516 0)"/>
    <use xlink:href="#DejaVuSerif-20" transform="translate(955.859375 0)"/>
    <use xlink:href="#DejaVuSerif-70" transform="translate(987.646484 0)"/>
    <use xlink:href="#DejaVuSerif-72" transform="translate(1051.660156 0)"/>
    <use xlink:href="#DejaVuSerif-65" transform="translate(1099.462891 0)"/>
    <use xlink:href="#DejaVuSerif-73" transform="translate(1158.642578 0)"/>
    <use xlink:href="#DejaVuSerif-73" transform="translate(1209.960938 0)"/>
    <use xlink:href="#DejaVuSerif-75" transform="translate(1261.279297 0)"/>
    <use xlink:href="#DejaVuSerif-72" transform="translate(1325.683594 0)"/>
    <use xlink:href="#DejaVuSerif-65" transform="translate(1373.486328 0)"/>
    <use xlink:href="#DejaVuSerif-20" transform="translate(1432.666016 0)"/>
    <use xlink:href="#DejaVuSerif-65" transform="translate(1464.453125 0)"/>
    <use xlink:href="#DejaVuSerif-78" transform="translate(1523.632812 0)"/>
    <use xlink:href="#DejaVuSerif-70" transform="translate(1580.029297 0)"/>
    <use xlink:href="#DejaVuSerif-72" transform="translate(1644.042969 0)"/>
    <use xlink:href="#DejaVuSerif-65" transform="translate(1691.845703 0)"/>
    <use xlink:href="#DejaVuSerif-73" transform="translate(1751.025391 0)"/>
    <use xlink:href="#DejaVuSerif-73" transform="translate(1802.34375 0)"/>
    <use xlink:href="#DejaVuSerif-65" transform="translate(1853.662109 0)"/>
    <use xlink:href="#DejaVuSerif-64" transform="translate(1912.841797 0)"/>
    <use xlink:href="#DejaVuSerif-20" transform="translate(1976.855469 0)"/>
    <use xlink:href="#DejaVuSerif-61" transform="translate(2008.642578 0)"/>
    <use xlink:href="#DejaVuSerif-73" transform="translate(2068.261719 0)"/>
    <use xlink:href="#DejaVuSerif-20" transform="translate(2119.580078 0)"/>
    <use xlink:href="#DejaVuSerif-73" transform="translate(2151.367188 0)"/>
    <use xlink:href="#DejaVuSerif-61" transform="translate(2202.685547 0)"/>
    <use xlink:href="#DejaVuSerif-6c" transform="translate(2262.304688 0)"/>
    <use xlink:href="#DejaVuSerif-74" transform="translate(2294.287109 0)"/>
    <use xlink:href="#DejaVuSerif-2d" transform="translate(2334.472656 0)"/>
    <use xlink:href="#DejaVuSerif-66" transform="translate(2368.261719 0)"/>
    <use xlink:href="#DejaVuSerif-72" transform="translate(2405.273438 0)"/>
    <use xlink:href="#DejaVuSerif-65" transform="translate(2453.076172 0)"/>
    <use xlink:href="#DejaVuSerif-65" transform="translate(2512.255859 0)"/>
    <use xlink:href="#DejaVuSerif-20" transform="translate(2571.435547 0)"/>
    <use xlink:href="#DejaVuSerif-63" transform="translate(2603.222656 0)"/>
    <use xlink:href="#DejaVuSerif-6f" transform="translate(2659.228516 0)"/>
    <use xlink:href="#DejaVuSerif-6d" transform="translate(2719.433594 0)"/>
    <use xlink:href="#DejaVuSerif-70" transform="translate(2814.257812 0)"/>
    <use xlink:href="#DejaVuSerif-6f" transform="translate(2878.271484 0)"/>
    <use xlink:href="#DejaVuSerif-73" transform="translate(2938.476562 0)"/>
    <use xlink:href="#DejaVuSerif-69" transform="translate(2989.794922 0)"/>
    <use xlink:href="#DejaVuSerif-74" transform="translate(3021.777344 0)"/>
    <use xlink:href="#DejaVuSerif-69" transform="translate(3061.962891 0)"/>
    <use xlink:href="#DejaVuSerif-6f" transform="translate(3093.945312 0)"/>
    <use xlink:href="#DejaVuSerif-6e" transform="translate(3154.150391 0)"/>
    <use xlink:href="#DejaVuSerif-3a" transform="translate(3218.554688 0)"/>
    <use xlink:href="#DejaVuSerif-20" transform="translate(3252.246094 0)"/>
    <use xlink:href="#DejaVuSerif-62" transform="translate(3284.033203 0)"/>
    <use xlink:href="#DejaVuSerif-6c" transform="translate(3348.046875 0)"/>
    <use xlink:href="#DejaVuSerif-61" transform="translate(3380.029297 0)"/>
    <use xlink:href="#DejaVuSerif-63" transform="translate(3439.648438 0)"/>
    <use xlink:href="#DejaVuSerif-6b" transform="translate(3495.654297 0)"/>
    <use xlink:href="#DejaVuSerif-20" transform="translate(3556.25 0)"/>
    <use xlink:href="#DejaVuSerif-28" transform="translate(3588.037109 0)"/>
    <use xlink:href="#DejaVuSerif-65" transform="translate(3627.050781 0)"/>
    <use xlink:href="#DejaVuSerif-78" transform="translate(3686.230469 0)"/>
    <use xlink:href="#DejaVuSerif-70" transform="translate(3742.626953 0)"/>
    <use xlink:href="#DejaVuSerif-29" transform="translate(3806.640625 0)"/>
    <use xlink:href="#DejaVuSerif-2c" transform="translate(3845.654297 0)"/>
    <use xlink:href="#DejaVuSerif-20" transform="translate(3877.441406 0)"/>
    <use xlink:href="#DejaVuSerif-72" transform="translate(3909.228516 0)"/>
    <use xlink:href="#DejaVuSerif-65" transform="translate(3957.03125 0)"/>
    <use xlink:href="#DejaVuSerif-64" transform="translate(4016.210938 0)"/>
   </g>
   <!-- dashed (accepted native ePC-SAFT, 5/5 tie-lines), blue squares (digitized paper -->
   <g transform="translate(9.878663 402.802312) scale(0.09 -0.09)">
    <defs>
     <path id="DejaVuSerif-76" d="M 1581 0
L 359 2988
L -19 2988
L -19 3322
L 1509 3322
L 1509 2988
L 978 2988
L 1913 703
L 2847 2988
L 2350 2988
L 2350 3322
L 3597 3322
L 3597 2988
L 3225 2988
L 2003 0
L 1581 0
z
" transform="scale(0.015625)"/>
     <path id="DejaVuSerif-2f" d="M 1656 4666
L 2156 4666
L 500 -594
L 0 -594
L 1656 4666
z
" transform="scale(0.015625)"/>
     <path id="DejaVuSerif-71" d="M 3359 2988
L 3359 -997
L 3909 -997
L 3909 -1331
L 2241 -1331
L 2241 -997
L 2784 -997
L 2784 519
Q 2616 206 2355 57
Q 2094 -91 1709 -91
Q 1097 -91 708 395
Q 319 881 319 1663
Q 319 2444 706 2928
Q 1094 3413 1709 3413
Q 2094 3413 2355 3264
Q 2616 3116 2784 2803
L 2784 3322
L 3909 3322
L 3909 2988
L 3359 2988
z
M 2784 1825
Q 2784 2422 2554 2737
Q 2325 3053 1888 3053
Q 1444 3053 1217 2703
Q 991 2353 991 1663
Q 991 975 1217 622
Q 1444 269 1888 269
Q 2325 269 2554 583
Q 2784 897 2784 1497
L 2784 1825
z
" transform="scale(0.015625)"/>
     <path id="DejaVuSerif-7a" d="M 256 0
L 256 269
L 2338 2988
L 691 2988
L 691 2413
L 359 2413
L 359 3322
L 3078 3322
L 3078 3053
L 997 331
L 2803 331
L 2803 934
L 3138 934
L 3138 0
L 256 0
z
" transform="scale(0.015625)"/>
    </defs>
    <use xlink:href="#DejaVuSerif-64"/>
    <use xlink:href="#DejaVuSerif-61" transform="translate(64.013672 0)"/>
    <use xlink:href="#DejaVuSerif-73" transform="translate(123.632812 0)"/>
    <use xlink:href="#DejaVuSerif-68" transform="translate(174.951172 0)"/>
    <use xlink:href="#DejaVuSerif-65" transform="translate(239.355469 0)"/>
    <use xlink:href="#DejaVuSerif-64" transform="translate(298.535156 0)"/>
    <use xlink:href="#DejaVuSerif-20" transform="translate(362.548828 0)"/>
    <use xlink:href="#DejaVuSerif-28" transform="translate(394.335938 0)"/>
    <use xlink:href="#DejaVuSerif-61" transform="translate(433.349609 0)"/>
    <use xlink:href="#DejaVuSerif-63" transform="translate(492.96875 0)"/>
    <use xlink:href="#DejaVuSerif-63" transform="translate(548.974609 0)"/>
    <use xlink:href="#DejaVuSerif-65" transform="translate(604.980469 0)"/>
    <use xlink:href="#DejaVuSerif-70" transform="translate(664.160156 0)"/>
    <use xlink:href="#DejaVuSerif-74" transform="translate(728.173828 0)"/>
    <use xlink:href="#DejaVuSerif-65" transform="translate(768.359375 0)"/>
    <use xlink:href="#DejaVuSerif-64" transform="translate(827.539062 0)"/>
    <use xlink:href="#DejaVuSerif-20" transform="translate(891.552734 0)"/>
    <use xlink:href="#DejaVuSerif-6e" transform="translate(923.339844 0)"/>
    <use xlink:href="#DejaVuSerif-61" transform="translate(987.744141 0)"/>
    <use xlink:href="#DejaVuSerif-74" transform="translate(1047.363281 0)"/>
    <use xlink:href="#DejaVuSerif-69" transform="translate(1087.548828 0)"/>
    <use xlink:href="#DejaVuSerif-76" transform="translate(1119.53125 0)"/>
    <use xlink:href="#DejaVuSerif-65" transform="translate(1176.025391 0)"/>
    <use xlink:href="#DejaVuSerif-20" transform="translate(1235.205078 0)"/>
    <use xlink:href="#DejaVuSerif-65" transform="translate(1266.992188 0)"/>
    <use xlink:href="#DejaVuSerif-50" transform="translate(1326.171875 0)"/>
    <use xlink:href="#DejaVuSerif-43" transform="translate(1393.457031 0)"/>
    <use xlink:href="#DejaVuSerif-2d" transform="translate(1469.970703 0)"/>
    <use xlink:href="#DejaVuSerif-53" transform="translate(1503.759766 0)"/>
    <use xlink:href="#DejaVuSerif-41" transform="translate(1572.265625 0)"/>
    <use xlink:href="#DejaVuSerif-46" transform="translate(1644.482422 0)"/>
    <use xlink:href="#DejaVuSerif-54" transform="translate(1713.867188 0)"/>
    <use xlink:href="#DejaVuSerif-2c" transform="translate(1765.816406 0)"/>
    <use xlink:href="#DejaVuSerif-20" transform="translate(1797.603516 0)"/>
    <use xlink:href="#DejaVuSerif-35" transform="translate(1829.390625 0)"/>
    <use xlink:href="#DejaVuSerif-2f" transform="translate(1893.013672 0)"/>
    <use xlink:href="#DejaVuSerif-35" transform="translate(1926.705078 0)"/>
    <use xlink:href="#DejaVuSerif-20" transform="translate(1990.328125 0)"/>
    <use xlink:href="#DejaVuSerif-74" transform="translate(2022.115234 0)"/>
    <use xlink:href="#DejaVuSerif-69" transform="translate(2062.300781 0)"/>
    <use xlink:href="#DejaVuSerif-65" transform="translate(2094.283203 0)"/>
    <use xlink:href="#DejaVuSerif-2d" transform="translate(2153.462891 0)"/>
    <use xlink:href="#DejaVuSerif-6c" transform="translate(2187.251953 0)"/>
    <use xlink:href="#DejaVuSerif-69" transform="translate(2219.234375 0)"/>
    <use xlink:href="#DejaVuSerif-6e" transform="translate(2251.216797 0)"/>
    <use xlink:href="#DejaVuSerif-65" transform="translate(2315.621094 0)"/>
    <use xlink:href="#DejaVuSerif-73" transform="translate(2374.800781 0)"/>
    <use xlink:href="#DejaVuSerif-29" transform="translate(2426.119141 0)"/>
    <use xlink:href="#DejaVuSerif-2c" transform="translate(2465.132812 0)"/>
    <use xlink:href="#DejaVuSerif-20" transform="translate(2496.919922 0)"/>
    <use xlink:href="#DejaVuSerif-62" transform="translate(2528.707031 0)"/>
    <use xlink:href="#DejaVuSerif-6c" transform="translate(2592.720703 0)"/>
    <use xlink:href="#DejaVuSerif-75" transform="translate(2624.703125 0)"/>
    <use xlink:href="#DejaVuSerif-65" transform="translate(2689.107422 0)"/>
    <use xlink:href="#DejaVuSerif-20" transform="translate(2748.287109 0)"/>
    <use xlink:href="#DejaVuSerif-73" transform="translate(2780.074219 0)"/>
    <use xlink:href="#DejaVuSerif-71" transform="translate(2831.392578 0)"/>
    <use xlink:href="#DejaVuSerif-75" transform="translate(2895.40625 0)"/>
    <use xlink:href="#DejaVuSerif-61" transform="translate(2959.810547 0)"/>
    <use xlink:href="#DejaVuSerif-72" transform="translate(3019.429688 0)"/>
    <use xlink:href="#DejaVuSerif-65" transform="translate(3067.232422 0)"/>
    <use xlink:href="#DejaVuSerif-73" transform="translate(3126.412109 0)"/>
    <use xlink:href="#DejaVuSerif-20" transform="translate(3177.730469 0)"/>
    <use xlink:href="#DejaVuSerif-28" transform="translate(3209.517578 0)"/>
    <use xlink:href="#DejaVuSerif-64" transform="translate(3248.53125 0)"/>
    <use xlink:href="#DejaVuSerif-69" transform="translate(3312.544922 0)"/>
    <use xlink:href="#DejaVuSerif-67" transform="translate(3344.527344 0)"/>
    <use xlink:href="#DejaVuSerif-69" transform="translate(3408.541016 0)"/>
    <use xlink:href="#DejaVuSerif-74" transform="translate(3440.523438 0)"/>
    <use xlink:href="#DejaVuSerif-69" transform="translate(3480.708984 0)"/>
    <use xlink:href="#DejaVuSerif-7a" transform="translate(3512.691406 0)"/>
    <use xlink:href="#DejaVuSerif-65" transform="translate(3565.376953 0)"/>
    <use xlink:href="#DejaVuSerif-64" transform="translate(3624.556641 0)"/>
    <use xlink:href="#DejaVuSerif-20" transform="translate(3688.570312 0)"/>
    <use xlink:href="#DejaVuSerif-70" transform="translate(3720.357422 0)"/>
    <use xlink:href="#DejaVuSerif-61" transform="translate(3784.371094 0)"/>
    <use xlink:href="#DejaVuSerif-70" transform="translate(3843.990234 0)"/>
    <use xlink:href="#DejaVuSerif-65" transform="translate(3908.003906 0)"/>
    <use xlink:href="#DejaVuSerif-72" transform="translate(3967.183594 0)"/>
   </g>
   <!-- ePC-SAFT organic branch, 5 points), and green (feed compositions). -->
   <g transform="translate(9.878663 413.008312) scale(0.09 -0.09)">
    <use xlink:href="#DejaVuSerif-65"/>
    <use xlink:href="#DejaVuSerif-50" transform="translate(59.179688 0)"/>
    <use xlink:href="#DejaVuSerif-43" transform="translate(126.464844 0)"/>
    <use xlink:href="#DejaVuSerif-2d" transform="translate(202.978516 0)"/>
    <use xlink:href="#DejaVuSerif-53" transform="translate(236.767578 0)"/>
    <use xlink:href="#DejaVuSerif-41" transform="translate(305.273438 0)"/>
    <use xlink:href="#DejaVuSerif-46" transform="translate(377.490234 0)"/>
    <use xlink:href="#DejaVuSerif-54" transform="translate(446.875 0)"/>
    <use xlink:href="#DejaVuSerif-20" transform="translate(513.574219 0)"/>
    <use xlink:href="#DejaVuSerif-6f" transform="translate(545.361328 0)"/>
    <use xlink:href="#DejaVuSerif-72" transform="translate(605.566406 0)"/>
    <use xlink:href="#DejaVuSerif-67" transform="translate(653.369141 0)"/>
    <use xlink:href="#DejaVuSerif-61" transform="translate(717.382812 0)"/>
    <use xlink:href="#DejaVuSerif-6e" transform="translate(777.001953 0)"/>
    <use xlink:href="#DejaVuSerif-69" transform="translate(841.40625 0)"/>
    <use xlink:href="#DejaVuSerif-63" transform="translate(873.388672 0)"/>
    <use xlink:href="#DejaVuSerif-20" transform="translate(929.394531 0)"/>
    <use xlink:href="#DejaVuSerif-62" transform="translate(961.181641 0)"/>
    <use xlink:href="#DejaVuSerif-72" transform="translate(1025.195312 0)"/>
    <use xlink:href="#DejaVuSerif-61" transform="translate(1072.998047 0)"/>
    <use xlink:href="#DejaVuSerif-6e" transform="translate(1132.617188 0)"/>
    <use xlink:href="#DejaVuSerif-63" transform="translate(1197.021484 0)"/>
    <use xlink:href="#DejaVuSerif-68" transform="translate(1253.027344 0)"/>
    <use xlink:href="#DejaVuSerif-2c" transform="translate(1317.431641 0)"/>
    <use xlink:href="#DejaVuSerif-20" transform="translate(1349.21875 0)"/>
    <use xlink:href="#DejaVuSerif-35" transform="translate(1381.005859 0)"/>
    <use xlink:href="#DejaVuSerif-20" transform="translate(1444.628906 0)"/>
    <use xlink:href="#DejaVuSerif-70" transform="translate(1476.416016 0)"/>
    <use xlink:href="#DejaVuSerif-6f" transform="translate(1540.429688 0)"/>
    <use xlink:href="#DejaVuSerif-69" transform="translate(1600.634766 0)"/>
    <use xlink:href="#DejaVuSerif-6e" transform="translate(1632.617188 0)"/>
    <use xlink:href="#DejaVuSerif-74" transform="translate(1697.021484 0)"/>
    <use xlink:href="#DejaVuSerif-73" transform="translate(1737.207031 0)"/>
    <use xlink:href="#DejaVuSerif-29" transform="translate(1788.525391 0)"/>
    <use xlink:href="#DejaVuSerif-2c" transform="translate(1827.539062 0)"/>
    <use xlink:href="#DejaVuSerif-20" transform="translate(1859.326172 0)"/>
    <use xlink:href="#DejaVuSerif-61" transform="translate(1891.113281 0)"/>
    <use xlink:href="#DejaVuSerif-6e" transform="translate(1950.732422 0)"/>
    <use xlink:href="#DejaVuSerif-64" transform="translate(2015.136719 0)"/>
    <use xlink:href="#DejaVuSerif-20" transform="translate(2079.150391 0)"/>
    <use xlink:href="#DejaVuSerif-67" transform="translate(2110.9375 0)"/>
    <use xlink:href="#DejaVuSerif-72" transform="translate(2174.951172 0)"/>
    <use xlink:href="#DejaVuSerif-65" transform="translate(2222.753906 0)"/>
    <use xlink:href="#DejaVuSerif-65" transform="translate(2281.933594 0)"/>
    <use xlink:href="#DejaVuSerif-6e" transform="translate(2341.113281 0)"/>
    <use xlink:href="#DejaVuSerif-20" transform="translate(2405.517578 0)"/>
    <use xlink:href="#DejaVuSerif-28" transform="translate(2437.304688 0)"/>
    <use xlink:href="#DejaVuSerif-66" transform="translate(2476.318359 0)"/>
    <use xlink:href="#DejaVuSerif-65" transform="translate(2513.330078 0)"/>
    <use xlink:href="#DejaVuSerif-65" transform="translate(2572.509766 0)"/>
    <use xlink:href="#DejaVuSerif-64" transform="translate(2631.689453 0)"/>
    <use xlink:href="#DejaVuSerif-20" transform="translate(2695.703125 0)"/>
    <use xlink:href="#DejaVuSerif-63" transform="translate(2727.490234 0)"/>
    <use xlink:href="#DejaVuSerif-6f" transform="translate(2783.496094 0)"/>
    <use xlink:href="#DejaVuSerif-6d" transform="translate(2843.701172 0)"/>
    <use xlink:href="#DejaVuSerif-70" transform="translate(2938.525391 0)"/>
    <use xlink:href="#DejaVuSerif-6f" transform="translate(3002.539062 0)"/>
    <use xlink:href="#DejaVuSerif-73" transform="translate(3062.744141 0)"/>
    <use xlink:href="#DejaVuSerif-69" transform="translate(3114.0625 0)"/>
    <use xlink:href="#DejaVuSerif-74" transform="translate(3146.044922 0)"/>
    <use xlink:href="#DejaVuSerif-69" transform="translate(3186.230469 0)"/>
    <use xlink:href="#DejaVuSerif-6f" transform="translate(3218.212891 0)"/>
    <use xlink:href="#DejaVuSerif-6e" transform="translate(3278.417969 0)"/>
    <use xlink:href="#DejaVuSerif-73" transform="translate(3342.822266 0)"/>
    <use xlink:href="#DejaVuSerif-29" transform="translate(3394.140625 0)"/>
    <use xlink:href="#DejaVuSerif-2e" transform="translate(3433.154297 0)"/>
   </g>
  </g>
 </g>
 <defs>
  <clipPath id="p146f3ad0a3">
   <rect x="7.2" y="7.2" width="391.853325" height="339.84"/>
  </clipPath>
 </defs>
</svg>
